<svg xmlns="http://www.w3.org/2000/svg" xmlns:xlink="http://www.w3.org/1999/xlink" viewBox="0 0 357.8 670.9">
  <defs>
    <radialGradient id="radial-gradient" cx="-644.13" cy="275.85" r="0.57" gradientTransform="translate(-77418.7 33290.2) rotate(180) scale(120.58 120.57)" gradientUnits="userSpaceOnUse">
      <stop offset="0" stop-color="#33353d"/>
      <stop offset="1" stop-color="#0f1016"/>
    </radialGradient>
    <radialGradient id="radial-gradient-2" cx="-644.62" cy="275.85" r="0.57" gradientTransform="translate(-63200.6 33289.8) rotate(180) scale(98.43 120.57)" xlink:href="#radial-gradient"/>
    <radialGradient id="radial-gradient-3" cx="-646.59" cy="271.34" r="0.86" gradientTransform="translate(-34128.7 14321.1) rotate(180) scale(53.13 52.81)" xlink:href="#radial-gradient"/>
    <linearGradient id="linear-gradient" x1="-647.68" y1="-8.55" x2="-646.43" y2="-8.55" gradientTransform="translate(-30499.3 20.9) rotate(180) scale(47.5 1.64)" gradientUnits="userSpaceOnUse">
      <stop offset="0"/>
      <stop offset="0.53" stop-color="#ccc"/>
      <stop offset="0.73" stop-color="#747474"/>
      <stop offset="1"/>
    </linearGradient>
    <linearGradient id="linear-gradient-2" x1="-651.61" y1="212.6" x2="-650.35" y2="212.6" gradientTransform="translate(-16924.3 1554.7) rotate(180) scale(26.28 7.1)" xlink:href="#linear-gradient"/>
    <linearGradient id="linear-gradient-3" x1="-653.09" y1="242.8" x2="-651.83" y2="242.8" gradientTransform="translate(-15167.6 3125.8) rotate(180) scale(23.6 12.8)" xlink:href="#linear-gradient"/>
    <linearGradient id="linear-gradient-4" x1="-671.31" y1="237.14" x2="-669.96" y2="237.14" gradientTransform="translate(-5562.8 2697.7) rotate(180) scale(8.6 11.2)" xlink:href="#linear-gradient"/>
    <linearGradient id="linear-gradient-5" x1="-643.44" y1="245.16" x2="-642.91" y2="244.66" gradientTransform="translate(-16438.4 4467) rotate(180) scale(25.6 17.6)" gradientUnits="userSpaceOnUse">
      <stop offset="0"/>
      <stop offset="0.27" stop-color="#797778"/>
      <stop offset="0.53" stop-color="#ccc"/>
      <stop offset="0.73" stop-color="#747474"/>
      <stop offset="1"/>
    </linearGradient>
  </defs>
  <g id="Layer_2" data-name="Layer 2">
    <g id="Layer_4" data-name="Layer 4">
      <path d="M16.5,491.2l-8,53.4v7.8s-9,3.4-6.2,8.4l-.6,13.9v11.2s-3.9,3.4,0,7.8c0,0-2.2,72.3.6,77.2H93.2V645.1s13.1-51.4,12.4-60.9l7.2-47.4,32.8-16.2s15.7,1.1,20.8-2.8l21.7,10.1s29.3,65.3,44.5,72c0,0,14.7,12.2,16.6,23.4,0,0,2,16.7,10.6,22.9l4.2,24.7h93.8L326.5,555.2l-9.7-22.9s-3.8-17.3-9-16.2c0,0-8.6-10.8-10.8-16.8l-24.6-50.1-27.3-43L77.5,373.8Z" fill="#0f1016"/>
      <path d="M249.7,428s1.5,8.5,7.3,10.4v12.3s-.6,10,3.9,10.6c0,0,8.5,0,7.6-7.3l-.9-8s2.4.2,4.8,3.2c0,0,4.8,2.4,6.1,3.3s5.1,8.2,5.4,11.5a53.9,53.9,0,0,0,1.7,7.9l.6,1.6c1.5,3.6,1.5,4.9,0,6.2s1.1,6.9,1.1,6.9,5,0,6.1-1.3,3.9,4.1,4.5-.4V470.2s-2.1-4.7,1.8-4.7c0,0,2.7.2,3,2.3,0,0,1.5,8.9,5.8,9.3,0,0,5.4-1.5,1.1-12.1l-3.5-11.6-11.7-15.8-16.7-14.8-23.2-7.5-5.3,9.6Z" fill="#f19938"/>
      <path d="M36.9,429.2l-5.1,15.6s-8.6,16.6-9.2,20.1a14.9,14.9,0,0,1-3.7,5.1s-6.3,5.1-4.6,9.3c0,0,.2,2.1,1.5,2.2L14,486.4s-1.6,3.2,2.5,4.8a10.4,10.4,0,0,0,7.9-7l7.9-11.5s8.9-7.3,9.3-9.4c0,0,5.2-5.3,5.3-1.3l-2.5,9.2a17.6,17.6,0,0,0-1.4,8.2,40.9,40.9,0,0,1-1.2,6l-2,9.7v-.4s-2.5,5.7,3.5,4.4c0,0,7.1-3.7,6.9-10.3,0,0,2.1-11,4.4-16.8l3.1-7.7s7.8-6.9,7.5-10.1c0,0,7.3-5.2,14.7-4.5a46.4,46.4,0,0,1,6.4,6.2s1.7,4.7,8.2,6.7l5.8,1.7s6.9,3.1,4.8-1l-6.9-7.9s-1.3-2.9-3.4-4a56.2,56.2,0,0,1-5.4-8s-1.1-4.3-3.4-6.5c0,0-3.5-12.7-6.4-14l-17-1.1Z" fill="#f19938"/>
      <g>
        <path id="Path_271" data-name="Path 271" d="M235.7,58.2A27.1,27.1,0,0,0,222,62.9L207,81.2c-13.7-18.3-21.4-12.7-21.4-12.7-11.7-.8-8.1,15.1-8.1,15.1l-3.1,3c1.1,3.2,1.6,13,1.6,13-2,21.4-8.2,23.2-8.2,23.2s2.4,9.1,5.7,9.3,12.4,8,16.7,9.1l25.1,9.9c11.2,2.8,23.7-12.8,26.6-14.5s5.3-3.5,6.1-5.9a4.9,4.9,0,0,0,.4-3.4c0-1-1.3-2.5.3-3.7l3.8-3.1c.9-2.3-.9-2.4-.9-2.4s-.1-2.5,1.3-2.8a1.8,1.8,0,0,0,1.3-.8c1-1.4-1.8-3.9-.7-6.4l1-1.5,4.1-1,3-.9c5-2.1,2.5-6.7,2.5-6.7l-5.5-17.3c-.4-3.5,3-5.5,3-5.5,4.3-6.1,1.8-13.2,1.8-13.2C261,60.7,246.6,57.6,235.7,58.2Z" fill="#f5be54"/>
        <path id="Path_276" data-name="Path 276" d="M221.9,80.7c.2,4.7,8.2,4.4,8.2,4.4,3.3.3,9,8.4,9,8.4,4,6.6,7.9,0,7.9,0a16.4,16.4,0,0,1,4-4.7,30.8,30.8,0,0,0,6.7-9.6h0a1.2,1.2,0,0,0-.2-1.3l-3.1-4.5c3.6-.9,1.8-4.8,1.8-4.8-1.1-2.2,1.3-2,1.3-2,9.6,2.8,5.5-5.6,5.5-5.6l-27.4-5.4L219.8,62l1.8,16.4Z" fill="#ec9d3b"/>
        <path id="Path_277" data-name="Path 277" d="M177.8,89.5l.2-4.3,2-13.3,7.1-2.9h6.4l13.9,12.1,1.9,8.4-4.4.6c-4.9.2-6.6-4.5-7.1-6s-2.9-6.5-2.9-6.5c-6.4-9.9-10.4-5.1-10.4-5.1,5.5-2,7.3,5,7.4,5.5s.4.9.5,1.4l1.2,2.6a4.7,4.7,0,0,1,.5,2.6,8.5,8.5,0,0,0,1.4,4.4c-1.6,0-4.2,3.3-4.2,3.3-2-.1-4.9-2.2-4.2-4.1s-2-2.5-2-2.5c-2.3-.3-2,3.8-2,3.8,1.5,2.7,6.7,9.8,6.7,9.8,2.2,5.2,4.3,1.4,4.3,1.4l3.5-6s8-4.5,6.8,6.5l-.9,21.1,7.6,14.3a35.6,35.6,0,0,1-6.2-2.3,15.3,15.3,0,0,1-7.1-7.1c-1.8-3.4-4.5-7.6-6.5-4.9h0a8.6,8.6,0,0,0-.8,7.8l.5,1.2s-21.3-3.2-21.6-11.7l5.3-9.8Z" fill="#ec9d3b"/>
        <path id="Path_278" data-name="Path 278" d="M253.5,108.1c-1.4,3.9-3.1,2-3.1,2a3,3,0,0,0-1.3-2.3,19.7,19.7,0,0,0-3.4-3c-2.3-1.8,0-2,0-2a3.1,3.1,0,0,0,4-1.2c0-1.9,1.4-1.5,1.4-1.5,5.9-.4,5.5,2.5,5.5,2.5,3.1,1.5,0,3,0,3A7.5,7.5,0,0,0,253.5,108.1Z" fill="#ec9d3b"/>
        <path id="Path_279" data-name="Path 279" d="M224.1,91.5c.1-9.9-6.5-9.1-6.5-9.1-5.6.6-7.3,15.3-7.3,15.3s-7.2,20.8,7.8,30.6c0,0,1.8,9.3,21.1,7.4a17.2,17.2,0,0,0,5.3-2.5c2.2-1.7,3.9-4.1,3.6-6.9s-1.1-2.7-3.9-.5c0,0-18.3,7.4-15-12.1,0,0,8.7-15-1.7-15.9C221.8,97.3,224.1,91.3,224.1,91.5Z" fill="#ec9d3b"/>
        <path id="Path_280" data-name="Path 280" d="M226.4,79.5l1.5.4a19.8,19.8,0,0,1,5.2,1.7l5,3.5a5.4,5.4,0,0,1,1,1.6s1.3,5.6,8.5,2.5l7.5-7.8s.8-1.8-3-1.5a5.6,5.6,0,0,1-1-6.8s5.8-4.5-1.2-7.6c0,0-21.5-12.5-27.5-6.3C222.4,59.2,218.5,78.2,226.4,79.5Z" fill="#ec682b"/>
        <path id="Path_281" data-name="Path 281" d="M253.5,88.3c-5.9,4.2-4.1,9-4.1,9a4.3,4.3,0,0,1,3-.6,6.6,6.6,0,0,1,3.8,2.3c4,4.3,5,.2,5,.2L258.1,89C256.6,84.1,253.5,88.3,253.5,88.3Z" fill="#ec9d3b"/>
        <path id="Path_282" data-name="Path 282" d="M252.5,120.5h.1a2.4,2.4,0,0,0-.1-3.4c-.6-.7-.9-1-.3-1.4s-.8-1.8-1.8-1.9c-13.5-2.4-16.3,0-16.3,0-4.6,1.4,2.4,3.3,2.4,3.3,3.5.7-.5,2.2,7,3s6,2.8,6,2.8A13.3,13.3,0,0,0,252.5,120.5Z" fill="#ec9d3b"/>
        <path id="Path_283" data-name="Path 283" d="M231.2,74.6c-4.3,1.5-.7,3.8-1,3.8s3,2.1,8.3,3c0,0,2,.8,2,2.2l.2.8a3.1,3.1,0,0,0,3.9,1.6s6-3.1,2.4-5.4c-1.8-4.7,1.2-4.7,2.7-7.7a3.7,3.7,0,0,0-1.3-4.8,22.3,22.3,0,0,0-15-2.1s-5.5-.5-7,3.1,3.1,2.6,4.8,3.9S231.2,74.6,231.2,74.6Z" fill="#db4a1d"/>
        <path id="Path_284" data-name="Path 284" d="M240,101.5c-.3,1.3-3.5,7-3.5,7-3.5,7,4,2.2,4,2.2,6.4-.9,8.2,0,7.5-1.9a8.6,8.6,0,0,0-5.3-4.2c-1.5-.1-.6-5.1-.6-5.1C241.4,96.2,240.2,100.1,240,101.5Z" fill="#ec9d3b"/>
        <path id="Path_285" data-name="Path 285" d="M251.9,116.6c-14.9.4-14.5-1.4-14.5-1.4,2.3-1,11.8,0,14.7.4C252.1,115.6,251.6,115.8,251.9,116.6Z" fill="#ec682b"/>
        <path id="Path_286" data-name="Path 286" d="M191.3,80.5c0,3-2.4,1.5-2.4,1.5-1.8-2-2.8,0-2.8,0-1.5,4.2-3.6,2.5-3.6,2.5-1.6-2.1-.9-5.6-.9-5.6,1.4-3.5,4-3.7,6-3A4.7,4.7,0,0,1,191.3,80.5Z" fill="#ec682b"/>
        <path id="Path_287" data-name="Path 287" d="M189.5,88.2c-4.9-3.2-1.5-6.8-.6-7.7s2,.5,2.9,1.7a5.9,5.9,0,0,1,.8,3.4c-.1,2,.9,2.6.9,2.6C192,92.1,189.5,88.2,189.5,88.2Z" fill="#ec682b"/>
        <path id="Path_288" data-name="Path 288" d="M231,77c-.6,1.1,3.6,2.7,5.9,3.1a9,9,0,0,0,4,0c3.5-.7,3.1-2.1,2.1-3.1a5.3,5.3,0,0,0-4.1-1.6A18,18,0,0,0,231,77Z" fill="#9d2117"/>
        <path id="Path_289" data-name="Path 289" d="M187.8,85.5c-.2,2.5,4.2,3.2,4.2,3.2,2-.2,1.5-.5.5-1.1s-.9-1.2-.9-1.2a3.4,3.4,0,0,0-1.7-3.2C186.9,81.6,187.8,85.5,187.8,85.5Z" fill="#db4a1d"/>
        <path id="Path_290" data-name="Path 290" d="M244.7,71.1a34.2,34.2,0,0,0-16.2-1.6c2.5-2,9.4-2.3,9.4-2.3A18.3,18.3,0,0,1,249,70.7C251.5,73.6,244.7,71.1,244.7,71.1Z" fill="#9d2117"/>
        <path id="Path_291" data-name="Path 291" d="M231.2,94.1c.4,2.7,4.4,5,4.4,5,5.8,1.2,2.1-3.3,2.1-3.3a12.7,12.7,0,0,1-3.3-3.6,7.4,7.4,0,0,0-4.7-5C223.8,85.4,231.2,94.1,231.2,94.1Z" fill="#f6dba6"/>
        <path id="Path_292" data-name="Path 292" d="M253,104.3c-1.8-1.1-1.6,1-1.6,1,.5,2.8-1.3,1.7-1.3,1.7a13.8,13.8,0,0,1-2-3.3c1.1.5,2.8-1.2,2.8-1.2,1.7-2,2.1-1,3-.3s1.1.8,1.1.8c3.2.5.9,2,.9,2A3.1,3.1,0,0,1,253,104.3Z" fill="#ec682b"/>
        <path id="Path_293" data-name="Path 293" d="M211.1,92.5c-5.7,17.6-.5,27.1-.5,27.1,3.5,9,8.7,12.7,14.4,14.6a39.8,39.8,0,0,0,11.4,1.6c9.2-.2,2.2-4.5,2.2-4.5C222.9,129,225.7,116,225.7,116c3.9-8.5-4.3-11.4-4.3-11.4-3.3-1.8-2.1-7.5-2.1-7.5.7-12.9-6.3-9.8-6.3-9.8C212.3,89,211.7,90.7,211.1,92.5Z" fill="#ec682b"/>
        <path id="Path_294" data-name="Path 294" d="M208.6,110.6c-.2,9.1,3.4,18.4,11.9,22.9l3.4.7c7.7,2.1-.4-8.5-.4-8.5-1.5-2.1-2.1-6.6-2.1-6.6v-3.4c.5-6.5-3-7-4.4-8.2s-2-5.2-2-5.2c-.9-9-4.7-3.6-4.7-3.6C208.5,102,208.5,110.6,208.6,110.6Z" fill="#db4a1d"/>
        <path id="Path_295" data-name="Path 295" d="M207.1,108.5a24.5,24.5,0,0,0,10.3,23.7c11.7,6.2,0-8.4,0-8.4-3.1-3.6-4.4-9.6-4.4-9.6-1-8-3.9-9.2-3.9-9.2C207,104.2,207,108.3,207.1,108.5Z" fill="#9d2117"/>
        <path id="Path_296" data-name="Path 296" d="M174.5,117.7c3.3.3,5.6,3.8,5.6,3.8,6.3,9.1,6.4,0,6.4,0V117c1.9-5.9,11.1.7,11.1.7s1.2,12,12.8,13a36.8,36.8,0,0,1-5.9-23.7s1.4-8.7-.7-11.8c0,0-4.2-2.9-5.9,1.1l-1.8,4.2h0l-.3.6-.3.5a4.5,4.5,0,0,1-3,2.4h-.6a3.5,3.5,0,0,1-3.3-2.5c0-.2-.1-.3-.1-.5a9.4,9.4,0,0,0-3.4-4.7s-6.6-7.6-5.3-16.6a20.8,20.8,0,0,1,.7-5.5c2.3-6.6,10-4.1,10-4.1,3,1,5.3,5,6.4,7.6v.2a7.5,7.5,0,0,0,9.7,3.7l.7-.2-1.8-5c-13.2-16.5-20.4-9.2-20.4-9.2-10.6-1.8-7.5,16.5-7.5,16.5l-3.1,3c3.8,14.5.2,22.5.2,22.5C170.2,118.2,174.4,117.6,174.5,117.7Z" fill="#ec682b"/>
        <path id="Path_297" data-name="Path 297" d="M178.9,88.7c.9,3.6,0,13.8,0,13.8-.5,13.3,3.9,10.6,3.9,10.6,1.3-4.1,10.2-5.9,10.2-5.9,7.1-4.2,2.6-6.1,2.6-6.1h0c-.6,1.1-1.8,2.9-3.5,2.9a3.5,3.5,0,0,1-3.6-2.5c0-.2-.1-.3-.1-.5a9.4,9.4,0,0,0-3.4-4.7s-6.6-7.6-5.4-16.6a20.9,20.9,0,0,1,.8-5.5C177.3,78,178.9,88.7,178.9,88.7Z" fill="#db4a1d"/>
        <path id="Path_298" data-name="Path 298" d="M177.4,97.2c2.6,17.1-4.9,16.5-4.9,16.5,6.3-12.4,1.9-27.2,1.9-27.2C176.3,87.8,177.4,97.2,177.4,97.2Z" fill="#46515b"/>
        <path id="Path_299" data-name="Path 299" d="M199.1,118.6c.5,5,9,13,5.3,6.1s-2.8-15-2.8-15C197.6,106,199.1,118.6,199.1,118.6Z" fill="#46515b"/>
        <path id="Path_300" data-name="Path 300" d="M252.5,92.2c1-3.1,3.4-1.4,3.4-1.4l1.6,3.9c1.2,4.3-1.1,2.3-1.1,2.3a4.3,4.3,0,0,0-5-1.5C250.2,94.1,252.5,92.2,252.5,92.2Z" fill="#ec682b"/>
        <path id="Path_310" data-name="Path 310" d="M245.1,116.5c-4.7-.2-1.5-1-1.5-1,6.3-.2,8.3,1,8.3,1Z" fill="#db4a1d"/>
      </g>
      <g id="Layer_5" data-name="Layer 5">
        <path id="Path_312" data-name="Path 312" d="M200.2,114.3c5.4,24.3,27.2,36.8,27.2,36.8,4.4,0,1.8-8.1,1.8-8.1h-2c-10.7-3.5-18.8-25.4-18.8-25.4-1-2.5,1.1-5.7,1.1-5.7,5.6-5.6,5.1-15.6,5.1-15.6,0-7.1,2.1-8.8,2.1-8.8,10.3-6.1,5.4-22.8,5.4-22.8l6.8-2.3c6.7-2.3,36.8.4,36.8.4,8.6,2.1,8.6-6.2,8.6-6.2V44.7c-.3-7.4-5.3-8.4-5.3-8.4-2-1.1-2.8-7.4-2.8-7.4a9,9,0,0,0-1.6-6.1L257.8,16c-6.7-4-9.5-2.2-9.5-2.2-3.7-4.5-15.8-10-15.8-10-22.5-7.5-53.6,0-53.6,0-7.5,1.9-13.1,13.9-13.1,13.9-4.4.2-9.8,11.6-9.8,11.6-3.9,4.5-3.2,6.1-3.2,6.1l1,6.5c-5.2,7.7-.5,17.3-.5,17.3-4.7,16.5,2.7,20.1,2.7,20.1a36.8,36.8,0,0,0,0,4.7c.3,3.5,15.4,11.9,15.4,11.9a33.8,33.8,0,0,0,7.6,7.5l.5-.5s-1.1-13.1-1.2-18.7.2-20,15.8-14.9,15.4,22.5,15.3,27.4.3,8.7-4.4,10.6A7.5,7.5,0,0,0,200.2,114.3Z" opacity="0.48" fill="url(#radial-gradient)" style="isolation: isolate"/>
        <path id="Path_313" data-name="Path 313" d="M199.9,113.8c5.3,24.3,27.1,36.8,27.1,36.8,4.5,0,1.9-8.1,1.9-8.1h-2C216.1,139,208,117.1,208,117.1c-1-2.5,1.1-5.7,1.1-5.7,5.6-5.6,5.1-15.6,5.1-15.6,0-7.1,2.2-8.8,2.2-8.8,10.2-6.1,5.3-22.8,5.3-22.8l6.8-2.3c6.7-2.3,36.8.4,36.8.4,8.7,2.1,8.7-6.2,8.7-6.2V44.2c-.4-7.4-5.4-8.4-5.4-8.4-2-1.1-2.8-7.4-2.8-7.4a8.5,8.5,0,0,0-1.6-6.1l-6.7-6.8c-6.8-4-9.5-2.2-9.5-2.2-3.8-4.5-15.9-10-15.9-10-22.5-7.5-53.6,0-53.6,0-7.5,1.9-13.1,13.9-13.1,13.9-4.4.2-9.8,11.6-9.8,11.6-3.8,4.5-3.2,6.1-3.2,6.1l1,6.5c-5.1,7.7-.5,17.3-.5,17.3-4.6,16.5,2.7,20.1,2.7,20.1a36.8,36.8,0,0,0,0,4.7C155.9,87,171,95.4,171,95.4a36,36,0,0,0,7.6,7.5l.5-.5s-1.1-13.1-1.2-18.7.2-20,15.8-14.9S209.1,91.3,209,96.2s.4,8.7-4.4,10.6A7.2,7.2,0,0,0,199.9,113.8Z" fill="url(#radial-gradient-2)"/>
        <path id="Path_314" data-name="Path 314" d="M263,32.4c-1.2-.5-1-3.8-1-3.8s-2.7-5.7-13.7-13.8A58.9,58.9,0,0,0,227.6,4.6c-44.2-7.8-62.2,12.6-62.2,12.6-8.8,7-8.4,28.5-8.4,28.5,0,7.6,10.6,21.7,10.6,21.7v1.4c.1-1.4,5.3-8.9,5.3-8.9,6-8.1,27.1-8.2,27.1-8.2l10.6-15.9c25.1,2.6,58.1,0,58.1,0C264.7,32.7,264.1,32.9,263,32.4Z" fill="url(#radial-gradient-3)"/>
        <path id="Path_315" data-name="Path 315" d="M250.8,35.9c-5,.2-9.8,0-14.8-.1l-14.9-.5c-4.9-.4-9.9-.6-14.7-1.4l7.3.3h7.5l14.8.2,14.8.5,14.9.7Z" fill="url(#linear-gradient)"/>
        <path id="Path_316" data-name="Path 316" d="M188.1,49.7l-9.7-.3a65.1,65.1,0,0,1-9.8-1,5.8,5.8,0,0,1-2.6-.6,2.3,2.3,0,0,1-.7-2.5,13,13,0,0,1,2-4.5,20.6,20.6,0,0,0-1.5,4.6,1.6,1.6,0,0,0,.1,1,2.2,2.2,0,0,0,.5.8l2.4.4,9.6.6,9.8.5,9.8.9Z" fill="url(#linear-gradient-2)"/>
        <path id="Path_317" data-name="Path 317" d="M241.7,23.1l-3.4-2.7c-2.2-1.6-4.6-3.2-7-4.6a48.2,48.2,0,0,0-7.6-3.6l-2-.7-2.1-.5a30.6,30.6,0,0,0-4.1-1,27.4,27.4,0,0,1,8.5,1.3,40.1,40.1,0,0,1,8,3.4,68.5,68.5,0,0,1,7,5,50.1,50.1,0,0,1,6,6.2Z" fill="url(#linear-gradient-3)"/>
        <path id="Path_318" data-name="Path 318" d="M205.5,42.4c-.9,1.2-1.8,2.3-2.8,3.4a12.3,12.3,0,0,1-3.5,2.9c1-1.1,1.9-2.3,2.8-3.5l2.5-3.5a73.6,73.6,0,0,1,5.5-7A53.5,53.5,0,0,1,205.5,42.4Z" fill="url(#linear-gradient-4)"/>
        <path id="Path_319" data-name="Path 319" d="M258.5,25.2l-3.7-3.4-7.6-6.1a87.3,87.3,0,0,0-8.2-5.2,25.8,25.8,0,0,0-4.4-2.2c-1.5-.7-3-1.1-4.6-1.7a25.7,25.7,0,0,1,4.8,1.1c1.7.5,3,1.3,4.7,1.9a49.1,49.1,0,0,1,8.5,5.1,91.9,91.9,0,0,1,7.5,6.5,66.2,66.2,0,0,1,6.5,7.4Z" fill="url(#linear-gradient-5)"/>
      </g>
      <path d="M172.6,111.4a17.7,17.7,0,0,0-6.1,9.9s-1.5,5.2-2.5,6.1-4.2,3.7-2.8,8.4l21.3,36.5,3.9,8.2s13.4-27.3,31.5-14.7V171l3.5-6.1,7,.3,4.1,8.8,20.7,5.4s-1.6-8.9-1.9-9.5,1.1-6.1,1.1-6.1l-8.7-11,2.4-5.8-4.9-3.3-2.9-3.9-5.2.7s-1.6,8-12.2,10.6l-9.8-3.2-34.4-17.2S166.6,119.9,172.6,111.4Z" fill="#050712"/>
      <path d="M161.2,135.8H157s-4-5.1-11.3-2l-19.2,6.3L111.4,146s-21.8,7.2-24.3,12.3c0,0-5.6,5.6-5.3,8.9a124.5,124.5,0,0,1-15.6,16.7l-14,14s-11.7,12.6-14.8,20.7c0,0-8.6,18.9-17.3,27.9,0,0-14.5,13.6-14.8,24.5L7,299.5l6.4,32.4,6.4,35.7s2,7.8,7,10.9c0,0,3.9,5.8,3.9,12.2a13.8,13.8,0,0,0,4.8,9.2l2.8,6.7,3.3,5.6s-5,10.9-4.7,17l41.3-6.1,5.1-9.5s1.3-8.4-3.2-12l-.5-7s8.3,15.1,18.9,17.6l59.8,17h29.3s44.6-2.5,51.3-12.2l8.7,10.9s3.3-8.4,11.1-8.4c0,0,16.2.3,19,3.3l-9.8-8.1s7.6-5.8,7-13.9c0,0-1.4-7.3-3.6-8.4,0,0-7-7.8-5.9-10.6l7.6-7.3s.8-5.8-.3-9.7l2.8-11.7s3.9-29.6,2.2-42.7c0,0,11.2-11.5,10.1-42.5,0,0,3-45.7,3-64.4,0,0-3.9-28.2-15-36.3L246.1,147l-23.5,9s-36.7-1.4-38.9-2.5S161.2,135.8,161.2,135.8Z" fill="#050712"/>
      <path d="M8.7,267.2l8.2-12.9s16.5-16.4,19.8-30c0,0,5.6-9.2,6.7-10.5s1.1-3.7-.7-2.8l-7.1,11.4s-9.5,19.2-15.5,24.1c0,0-13.1,16.6-14.8,20.7C5.3,267.2,4.1,280.4,8.7,267.2Z" fill="#eaeaf4"/>
      <path d="M62.6,187.5s-7.4,11.7-8.7,18.8c0,0-5.1,14.9-10.2,21.6l-23.3,30s-4.3,6.5-4.8,8.4c0,0-7.3,5.2-7.1,7.6l1.3,10.2a27.8,27.8,0,0,1,.6,4.9s0,4.2,3.9,9.1c0,0,1.1,4.2-.8,14.5,0,0-.5,6.7,1,10.2l-.3,13.1,5.6,31.7a16.5,16.5,0,0,0,7,10.9s3.3,4,3.9,12.2c0,0,1.8,7.7,4.8,9.2l2.8,6.7,3.7-1.7s-3.2-2.8-2.1-5c0,0,3.2-3.8.2-7.7,0,0-6.3.4-5.9-8.9s.5-8.8-.6-11.9c0,0-6.7-6.3-7.6-13.6,0,0-4.7-8.9-2.8-30.3,0,0,2-11.2-2-20.1,0,0-3.4-8.2.9-15.1,0,0-1.5-5.2-4.1-4.4,0,0,.5-7.4-1.5-6.9v-2.8s9.5-6.2,9.1-11.4c0,0,17.1-17.6,20.1-30.9a36,36,0,0,1,13.4-17.8s13.8-20.6,15.1-32c0,0,3.7-12.7,7.8-15.6l4.5-4.1s5,3.3,7.2,3.5l-6.3,9.5S74,207.2,70.3,210.9c0,0-6.5,7-8.4,14.3L51.1,252.9,29,283.4l3.3,3.1s-.4,8,.9,9.9l1.9,3.2s-3.9,51.5,2.2,64.5c0,0,7.1,7.5,8.6,9.9,0,0,2,4.1,1.5,5.8,0,0-3.6,5.7.2,10.2,0,0,5.7,3.9,3.5,6.9,0,0-2.2,5.7,3.5,5.6l5.1-1.3s7.6,1.6,5.2-3.4c0,0-3.6-6.1-6.4-7.3,0,0-2.2-2,.6-5.3,0,0,3.7-6.7,1.3-10.7l-3-3.9s-3.7-2.7-6.3-2.2l-2-62.7-6.6-5.8,1.2-5-2.1-2.4,21.2-40,16.4-34s18.4-29.6,19-31.7l5.4-7.8,7.6,9.7s-9.9,11.3-10.2,16l-1.5,6.2s-17.7,17.2-21,28c0,0-11.2,23.7-12.9,31.8,0,0-8.9,25.2-11,27.6,0,0-3.3,2.6-.5,4.1l.5,6.1,5.2,3.9s1.9,6.7,1.7,9.5L61.2,353s2.7,2.8,3.5,8.9l.5,6.9s2.5-2.4,3.4.7l1.7,8.4s2.6,3.5,2.6,0L74,365.6s-2.6-2.4-5.2-1.7a7.4,7.4,0,0,1-1.1-5.7s-1.6-29.2-4.1-34.8c0,0,.5-2.8,3.1-2.8,0,0,3.9-2.4.6-4.5L62.6,313s-3.5-3.9-1.3-3.9c0,0,7.5,1.8,5.2-6.6l-4.4-10.6,5.7-21.5a18.6,18.6,0,0,1,4-7.3l24.3-29.4s9.3-14.3,9.1-20.3l10.5-11.3,2.9,12.8-10.2,8.4s-6.1,17.8-8.9,18.7c0,0,12.6-7,14.5-13.1l3.7-5.6-1.1,5.6s-8.4,11.7-6.3,16c0,0,2.2,3.1-3,7,0,0-7.8,3.4-9.7,10.1l-2,6.9s6.5,6.6,6.9,10.8a18.6,18.6,0,0,1-7.1,9.3s-2.1,1.3-.8,8c0,0-1.6,6.1-5.5,10,0,0-5.4,4.9-6.4,15.5a19.2,19.2,0,0,1-4.2,7.6s-6.6,9.1-4.7,19.3l-3.5,11.9.9,7.7,7.1-12.5s6.1-8.4,6.7-17.1c0,0-1.2-11,8-24.2,0,0,10.9-13.6,10.9-18.8,0,0-3.1-6.1,0-11.5s6-3.7,4.1-14.2c0,0-5-2.8-.2-7.6,0,0,5.6-5.6,3.4-9.1,0,0,4.1-2.2,3.9-5.6,0,0,5.4-5.2,5.2-6.4s-2.2-1.2,0-5.1c0,0,1.5-6.2,0-5.4s-.7-6.7-.7-6.7,5.2-5.8,3.9-7.6l-2.1-5.1,3.2-8.7a17.8,17.8,0,0,0-2.1-7.5l-13.3-18.4s-9.5-12.4-11.6-13.2-10.5-6-10.5-6-5.5,5.6-5.3,8.9Z" fill="#eaeaf4"/>
      <path d="M88.1,156.9s10.9,0,14.9-2.3c0,0,5.3,2.1,8.5,2.3l18.6,27.5s.1.9-1,6.4c0,0-1.5,2.6-.1,4a3.9,3.9,0,0,0,1.1,4.8s3.6,1.6,1.9,5.1c0,0-4.4,5.8-1.4,8.7,0,0,1,3.8-2.3,8.8,0,0-6,6.8-1.4,11.4,0,0,4.2,3.6,4.3-1.5,0,0,3.2-9.5,4.7-10.2s.9-2.4-.8-6c0,0-.3-5.6,2.1-7.5l4.7-15.4s-1.2-7-2.3-8.8-.9-5.7-2.5-7,.7-8.2.7-8.2-11.8-15.8-12.2-16.2-9.3-7.9-16.3-6.1C109.3,146.7,89.2,155.6,88.1,156.9Z" fill="#eaeaf4"/>
      <path d="M123.1,141.4s10.6.1,14,5.8a12.1,12.1,0,0,0,4.8,7.2s3.7,6,3.7,7.5,1.2,5.6,2.5,7,.8,1.4-.9,5.3c0,0-1.6,7.1,1.7,9.7a5.2,5.2,0,0,1,0,4.7l-4.7,8.3s-1.4,3.9,1,6.7c0,0,.6,1.4-1.3,3.9a4.4,4.4,0,0,0-1.1,5.7l5.3-4.8-6.2,11s-1.6,25-1.1,31.7l-2.9,3.6s-2.1,2.4-.7,10.2l-.9,8.2a22.3,22.3,0,0,0-4,13c.1.4.1.8.2,1.2.9,7.9.1,5.3.1,5.3s-6.9,6-8,14.7l-1.5,15.5s-2.4,9.7-4.5,14.5c0,0-1.5,9.5-3.4,19.4,0,0-.5,15.9-7.3,21.3,0,0-8.2,4.5-9.6,11.1l-2.3,11,8.7,5.7s2.8,1.4,3.5-1.3l4.4-14.9s7-10.9,12.7-17.3c0,0,6.9-24.7,8-36.1l6.5-34.3s6.6-22.7,8.3-24.6c0,0,6.5-33.6,6.5-45.1l1.3-32.6s3.1-4.5,1.3-12.6l-.9-8.5s-1.8-4.3-.3-5.6,4.6-.7,1.2-8.6l-4.2-4.4,2.8-7.8-5.5-10.7a6,6,0,0,0-5.7-2.7s-.8-3.5-6.1-2.1Z" fill="#eaeaf4"/>
      <path d="M163.2,144.9s-.2,1.1,2.3,8.3c0,0,.6,9.7,1.3,17.5,0,0,6,17.7,3.7,24.8l-2,35.2-3.4,25.8-2.8,7.5a32.4,32.4,0,0,0-1.4,9.1,84.2,84.2,0,0,1-4.2,9.4,61.1,61.1,0,0,0-1.9,10.8l-7.6,43.3-3.4,17.7s-7.2,17.2-9.8,21.1c0,0-6.3,10.2-8.2,17l-6,17.2s.4,1.5,3,1.5l7.3,3.5s2.1,3.1,4.2-3.6l16.9-47.6s9.9-18,11.1-37.8l5.5-28.9,4-25.5s5.3-16.9,6.4-18,3.9-16.4,3.5-25.9l2.5-45.6-8.2-16-6.6-11.8s-.1-4.8-3.2-6.9Z" fill="#eaeaf4"/>
      <path d="M205,163.6l-8.6,7.5v12.1l-.9,41.8s-1.9,9.5-3.7,12.7a109.6,109.6,0,0,0-4.2,18.4l-7.7,50.1s-6.8,27.3-8.2,32.2l-12.5,44.2-13.6,34.8s10.4,1.8,11.4,2.4,2.2.8,3.9-4.5c0,0,17.3-51.1,19.3-62.9,0,0,11.8-47.1,13.8-63.4l9.5-51.2s4.3-23.7,4.9-24.3,3.4-23,2-33C210.4,180.5,207.2,163.6,205,163.6Z" fill="#eaeaf4"/>
      <path d="M219.7,180.5s-9,74.5-10.2,81.9L199,317.3,184.2,386l-10.3,34.5s1.3,1.4,4.9,1.5c0,0,7.9,2.3,9.2-2.2l2.8-15.8,8.9-31.7s14.4-51.6,15.8-65.8c0,0,7.9-38.7,6.3-50.1l-2.1-10.2s3.9-10.6,5.3-16.6c0,0,5.5-32.5,5.4-43.6l-1-18.5s.3-4.3-8-2.6Z" fill="#eaeaf4"/>
      <path d="M240,175.9l-.8,8.5a82.1,82.1,0,0,0,0,16.6s-2.1,23.1-3.5,27.5l-13,44.7,2.1,23.1L235.4,276s13.1-46.7,13-60.8l-1.1-17s4.6-13.6,2.2-18.6Z" fill="#eaeaf4"/>
      <path d="M226.9,305.3s1.1,46.6-.7,55.6c0,0-8.4,27.9-11,31.6l-2.8,14.1-3.2,10.2s3.6,4.8-4.2,5.2l-6.4.6,1.8-9s2.1-9.2,3.1-12l16.3-60.8s5.3-27.8,5.2-36.2v-5.3Z" fill="#eaeaf4"/>
      <path d="M249.5,279.7s-7,.4-8.2,7.5c0,0-1.7,10.7-3.1,13.3l-10,21.3-.9,18.4,9.2-16,11.1-19-.2-1.7-6.3,7.7,2.7-9.9,5.7-10.3,4.5-2.4,5.8-14.4-6,4.3Z" fill="#eaeaf4"/>
      <path d="M246.1,147l-.9,6,7.2,10.8-1.1,6.1s5.1,11,4.8,20.7c0,0-1.1,9.7-1.7,13.4,0,0,2.8,11.6,1.7,16.9,0,0-1.7,8.4,2.4,8.3,0,0,4.4-.6,1.9-9.4,0,0-4.2-9.6-1.9-24.3,0,0,5.7-8.6,2-18.3,0,0-4.7-6-4.1-10.4l2.3-11.2Z" fill="#eaeaf4"/>
      <path d="M270.4,163.6s-5.3,23-6.4,24.5l3.8,11.9s7.1-4.8,8.9-11c0,0,3.4-11.1,2.6-17.2a5.9,5.9,0,0,0-.2-1.4Z" fill="#eaeaf4"/>
      <path d="M269.1,203.3c-.3.5-9.8,4.9-6.5,7.9s1.4,1.1,1.4,1.1l1.5.5L264,222.9s-.7,17-1.1,24.1l-1.1,8.2s7-10.1,6.7-12.9l.6,2.1-5.6,12.7s-1.6,11.1-2.4,13.5c0,0,1,2.1.7,7.3,0,0-5,22.8-9.6,25.1v4.2s3.2-.6,3.6-2.3c0,0-.1,4.5-8.7,5.3l-4.3,5.9.8,2s9.7-3.7,12.3-8.3c0,0,5.6-7.1,8.8-7.3l5.9-26,5.4-13.3,1.1-30.6s2.9-5.5,2.4-8.9l-2.1-3.9s-1.6,6.4-3.3,9.4l-2.3,6.2-.8-7.6s8.4-10.5,8.5-13.9v-8l-9.9,14.5c-.4.5-2.1,10.7-2.1,10.7h-1.4v-11l3.3-2.8Z" fill="#eaeaf4"/>
      <path d="M286.5,188.7l-6.1,6.4V200s5.1-5,6.1-2.7c0,0,2.2,4.5,2.2,14.7l-3.3,44.9s-5.3,11-5,21.1v20.2L271.1,309l5.1-1.8s-2.6,30.6-2.1,40.1l.8,8.1s4.6-35.7,2.8-45c0,0,10.5-10.7,9.6-39.2l3.4-58.8S289.6,193.3,286.5,188.7Z" fill="#eaeaf4"/>
      <path d="M234.7,336.7s-5.1,7.6-4.3,28.8c0,0,1.5,11.7-3.1,19.9l-7.5,10.2-1.3,17.2s-3.2,7.3-1.1,7l8.3-6.2,2.8-15.1s-.2-7.2,2.6-8.7c0,0,7.9-6.4,3.6-20.7C234.7,369.1,229,348.9,234.7,336.7Z" fill="#eaeaf4"/>
      <path d="M240.6,330.9l-2.4,7.9s-.4,6.3-1.7,7.7-4.1,4.1-1.1,8.9l4.5,8.8s3.2-9.9,1.7-16.7c0,0-2.7-4.8-1.3-8.3C240.3,339.2,242.4,333.4,240.6,330.9Z" fill="#eaeaf4"/>
      <path d="M238.8,323.3s.8,4.5,3.2,5.3l2.2,11.6-.6,27-3.8,11.1-1.7-1.2s-.5-8.4-2.1-8.8l1.2,12.1,2.9,1.5s-3.2,6.3-3.6,6.9.4-.6.4-.6,3.3,4.2,2,5.5-2.4,3.3-2.4,0c0,0-1.3-3.9-2.2-1.4l-1.7,5.6.9,3.7-.3,5s3.3-2.7,2.8-5.8l-.7-5s1.9,2.9,3.1,1.1l4.4-3.8v2l-3,4.7-.2,5.4-.5,6.3s5.3-4.5,6-5.3v-9.7s1.4-4.6-1.5-6.2l-1.6-1.2,2.2-11.9,1.2-6.3,1.9-47.6s1.7-3.2-1.8-2.8l-2.7-4.4Z" fill="#eaeaf4"/>
      <path d="M260.5,315.4a63.5,63.5,0,0,1,.7,13.5l-2.6,33.4a37.6,37.6,0,0,1,.7,10.3l-.7,4.2-2.8,2.6s-4.3-.4-.8,3.8c0,0,3.1,5,6.3,5.3,0,0-.7,1.3-3.9,2,0,0-3,1.5-1.7,4.1l1.7,4.4s3.2,1.6,3.9,1.8l7.2,1.2s2.2-1.8,1.7-4l-2.7-1.5,2.8-5.3-4.9-4.5s-3.9-2-1.5-4.9c0,0,4.7-5,3.3-6.3s-3.6,2.7-1.5-3.6a54.2,54.2,0,0,0,4.6-24.4V314.1s1-3-3.3-1.1Z" fill="#eaeaf4"/>
      <path d="M89.8,263.1,74.7,275.9s-11.1,6.9-9.3,14.4l1.1,9,4.3-5.8s8.6-3.2,10.3-8.3Z" fill="#eaeaf4"/>
      <path d="M123.5,244.3s-3.2,12.3-5.2,14c0,0-6.7,7.4-2.1,11.5l2.8-3.2s0,4.4-2.6,6.5c0,0-8.2,10.5-6.1,16.2,0,0,3.9,11,2.2,12.3,0,0-14.9,11.7-16.5,35.2,0,0-2.3,10.4-4.3,13.2,0,0-4.5,6.7-4.9,14.1,0,0-.9,6.2-3.1,9.5,0,0-2.8,5-2.6,7.3l-1.2,3.5s-3.9,2.1,0,3c0,0,6.4,2.4,7.1,0,0,0,5-4.5,6.3-6.9s6.1-13.2,7.5-19.5c0,0,3.1-14.9,6.3-21.1,0,0,4.1-17.9,3.9-23.5,0,0,3.2-11.6,8.8-15.7,0,0,3.3-6.2,1.6-11.5a12.6,12.6,0,0,1,.4-8l2.8-19.6s8-9.5,6.5-16.4l-1.5-6.6Z" fill="#eaeaf4"/>
      <path d="M193.5,66.3,195.9,87S238,96,250,96.6l11.2,2.6s13.8,4.4,19.4-1.7a8.2,8.2,0,0,0,1.8-6.2c-.5-4.7-1.9-17.5-3.6-25a8.5,8.5,0,0,0-7.2-6.6,53.5,53.5,0,0,0-9.6-.3S200.2,58.8,193.5,66.3Z" fill="#eaeaf4" opacity="0.46"/>
      <path d="M318.7,433.2l-12.6,5.4a3,3,0,0,0-2.4,1.6h-7.4a27,27,0,0,0-6.8,4.7l-4.3,6.2s3.8,9.6,5.6,11.8c0,0,1.1.4,1.5-1.8,0,0,5.6-7.7,9.7-7.7h4.1s14.9-11.5,15.2-13C321.3,440.4,322.8,434.7,318.7,433.2Z" fill="#eaeaf4"/>
      <path d="M311.3,446.2l-5.2-7.6s-3.1,0-2.4,1.6l5.8,9.5,2.5-1.6Z" fill="#bfbfbf"/>
      <path d="M288.6,446.2s0,4.1,3.2,4.4l8.9-4.4-2.9-4,2.9.7,4.2,7.7-1.5-.7-1.1.7-1.2-2.5s-6.2,4.3-7.5,5.4l-5,.7.3,5.4-3.7-8.5Z" fill="#bfbfbf"/>
    </g>
  </g>
</svg>
