<svg xmlns="http://www.w3.org/2000/svg" viewBox="0 0 33.892 33.885">
  <path id="email" d="M29.643,12.7A16.946,16.946,0,1,0,46.592,29.643,16.944,16.944,0,0,0,29.643,12.7Zm-7.593,9.884H37.243a1.156,1.156,0,0,1,1.055,1.09L29.643,30.42l-8.648-6.74A1.157,1.157,0,0,1,22.049,22.584Zm-1.09,2.6,5.851,4.56-5.851,4.38ZM37.243,36.7H22.049A1.143,1.143,0,0,1,21,35.619l6.816-5.095,1.534,1.2a.48.48,0,0,0,.6,0l1.534-1.194L38.3,35.626A1.153,1.153,0,0,1,37.243,36.7Zm1.083-2.575-5.851-4.38,5.851-4.56v8.94Z" transform="translate(-12.7 -12.7)" fill="#fff"/>
</svg>
