<?xml version="1.0" encoding="utf-8"?>
<!-- Generator: Adobe Illustrator 24.3.0, SVG Export Plug-In . SVG Version: 6.00 Build 0)  -->
<svg version="1.1" id="Layer_1" xmlns="http://www.w3.org/2000/svg" xmlns:xlink="http://www.w3.org/1999/xlink" x="0px" y="0px"
	 viewBox="0 0 192.8 192.8" style="enable-background:new 0 0 192.8 192.8;" xml:space="preserve">
<style type="text/css">
	.st0{fill-rule:evenodd;clip-rule:evenodd;fill:#FFFFFF;}
	.st1{fill-rule:evenodd;clip-rule:evenodd;fill:#4C4C4C;}
	.st2{fill-rule:evenodd;clip-rule:evenodd;}
</style>
<g id="Layer_2_1_">
	<g id="Layer_1-2">
		<g>
			<path class="st0" d="M11.9,162c-3,1.6-4.5,3.9-4.5,6.6s1.6,5.1,4.6,6.8s6.5,2.2,11.1,2.2c3.3,0,6.6-0.5,9.8-1.4l0.5-0.2l0.7,0.4
				h0.5l2.6-0.7l-6.3-6.8l-2.4,1l0.2,0.6l-2.4,0.6c-1.1,0.2-2.2,0.2-3.3,0.2c-1.7,0.1-3.4-0.2-5-0.9c-1.4-0.7-1.4-1.4-1.4-1.7
				s0-1,1.5-1.8c1.6-0.7,3.4-1,5.2-0.9c1.4,0,2.9,0.2,4.3,0.5l0.8,0.2l-0.4,0.7l1.6,0.5l1.4,0.3l5.2-6.9l-2.9-0.8l-0.6,0.4l-0.2,0.2
				l-3.1-0.7c-2.2-0.4-4.5-0.6-6.8-0.6C18.9,159.6,15.2,160.4,11.9,162z"/>
			<path class="st0" d="M51.2,166.4c0.7,1.2,0.9,1.7,1.6,2.8h-3.1C50.3,168.1,50.5,167.6,51.2,166.4z M57.1,159.9H44.7v2.8h0.2
				l-5.7,10.4v0.2l0,0c-0.4,0.7-0.7,1.1-1.2,1.2l-0.8,0.3v2.6h10v-2.6l-0.5-0.2l0.2-0.4h8.9l0.3,0.4h-0.4v2.7h10.7v-2.7l-1-0.2
				c-0.2,0-0.2-0.1-0.3-0.2l0,0l-6.8-11.6h0.1v-2.8L57.1,159.9z"/>
			<path class="st0" d="M94.9,159.9h-9v2.7l1.1,0.2v4.3l-6.8-5c0.1-0.2,0.1-0.3,0.1-0.5v-1.7H67.9v2.7l1.1,0.2v11.7l-1,0.2v2.7h10
				v-2.7l-1.1-0.2v-5.6l8.6,6.2v2.3h10.7v-2.7l-1.2-0.2v-11.7l1.1-0.2v-2.7L94.9,159.9z"/>
			<path class="st0" d="M111.7,166.4l1.6,2.8h-3.1L111.7,166.4z M117.7,159.9h-12.5v2.8h0.2l-5.7,10.4v0.2l0,0
				c-0.2,0.6-0.6,1-1.2,1.2l-0.8,0.3v2.6h10.2v-2.6l-0.6-0.2l0.2-0.4h8.9l0.3,0.4h-0.3v2.7h10.7v-2.7l-1-0.2l-0.2-0.2h-0.1
				l-6.8-11.6h0.1v-2.8L117.7,159.9z"/>
			<path class="st0" d="M141.3,165.8c1.7-0.1,3.3,0.2,4.9,0.8c0.7,0.4,1.1,1.2,1.1,2c0,0.8-0.4,1.6-1.1,2c-0.7,0.4-2.1,0.8-4.9,0.8
				h-2.9v-5.6H141.3z M129.7,159.9h-1.3v2.7l1.1,0.2v11.7l-1,0.2v2.7h12.9c2.1,0.1,4.3-0.1,6.4-0.4c1.5-0.3,2.9-0.7,4.3-1.4
				c1.3-0.7,2.3-1.8,3.1-3c0.8-1.2,1.2-2.6,1.2-4c0-1.4-0.4-2.8-1.2-3.9c-0.8-1.2-1.8-2.3-3.1-3c-1.4-0.7-2.8-1.1-4.3-1.4
				c-2.1-0.3-4.3-0.5-6.4-0.4L129.7,159.9z"/>
			<path class="st0" d="M170.7,166.4c0.5,1,1,1.9,1.6,2.8h-3.2L170.7,166.4L170.7,166.4z M176.6,159.9h-12.4v2.8h0.2
				c-0.5,0.8-5.7,10.4-5.7,10.4v0.2l0,0c-0.4,0.7-0.8,1.1-1.2,1.2l-0.9,0.3v2.6h10.2v-2.6l-0.6-0.2l0.3-0.4h8.9l0.2,0.4h-0.3v2.7
				h10.8v-2.7l-1-0.2c-0.2,0-0.2-0.1-0.3-0.2l0,0l-6.9-11.6h0.1v-2.8L176.6,159.9z"/>
			<path class="st1" d="M30,166.5h0.1c0-0.4-0.7-0.8-2.2-1.1c-1.5-0.4-3-0.6-4.6-0.6c-2-0.1-4,0.3-5.8,1.1c-1.2,0.5-2.1,1.6-2.2,2.9
				c0,1.3,0.9,2.5,2.1,2.9c1.8,0.8,3.7,1.1,5.6,1l3.5-0.2l3-0.9l0.6-0.2v-0.7l0.5-0.2l4.3,4.6l-0.6,0.2l-0.5-0.3h-0.3l-1,0.3
				c-3,0.9-6.2,1.4-9.4,1.4c-4.4,0-7.9-0.7-10.5-2.1c-2.6-1.4-3.9-3.3-3.9-5.7c0-2.2,1.3-4.1,3.8-5.5c3.1-1.6,6.6-2.3,10.1-2.2
				c2.2,0,4.4,0.3,6.5,0.7l3.4,0.6H33l0.5-0.3H34l-3.5,4.8l-0.5-0.2V166.5z"/>
			<path class="st1" d="M51.1,163.9l3.9,6.6h-7.5L51.1,163.9z M65.1,176.1v-0.4c-0.4-0.1-0.8-0.3-1.1-0.7l0,0l-7.1-12l-0.3-0.5
				c-0.1-0.1-0.1-0.3-0.1-0.4c0-0.1,0-0.3,0.1-0.3h0.5v-0.4H46v0.4h0.5c0.1,0,0.1,0.2,0.1,0.3c0,0.1,0,0.2-0.1,0.3
				c-0.1,0.2-0.1,0.4-0.3,0.6l-5.9,10.8c0,0.1,0,0.1-0.1,0.2c-0.3,0.9-1,1.5-1.9,1.8v0.4H46v-0.4l-0.7-0.2c-0.1-0.1-0.2-0.2-0.2-0.4
				v-0.3c0-0.1,0.1-0.1,0.1-0.2l1-1.7h10.4l0.9,1.7c0.1,0.1,0.1,0.3,0.2,0.4v0.2c0,0.2,0,0.3-0.2,0.4h-0.6v0.4L65.1,176.1z"/>
			<path class="st1" d="M75.7,174.9c0,0.3,0,0.5,0.2,0.6l0.8,0.2v0.4h-7.5v-0.4l0.9-0.2c0.1-0.2,0.2-0.4,0.2-0.6v-12.5
				c0-0.2-0.1-0.4-0.2-0.6l-0.9-0.2v-0.4H79v0.4l-0.6,0.2c-0.2,0-0.2,0.1-0.2,0.2s0.1,0.3,0.4,0.6h0.2l9.5,6.9v-7.2
				c0-0.2-0.1-0.4-0.2-0.6l-0.9-0.2v-0.4h7.7v0.4c-0.3,0-0.6,0-0.9,0.2c-0.2,0.1-0.2,0.3-0.2,0.6v12.5c0,0.3,0,0.5,0.2,0.6
				c0.3,0.2,0.6,0.2,0.9,0.2v0.4h-8.1v-0.4l0.6-0.2l0.2-0.2c-0.1-0.3-0.3-0.5-0.6-0.6h-0.1l-11.2-8.2
				C75.7,166.4,75.7,174.9,75.7,174.9z"/>
			<path class="st1" d="M111.7,163.9l3.8,6.6H108L111.7,163.9z M125.7,176.1v-0.4c-0.5,0-0.9-0.3-1.1-0.7h-0.1l-7.1-12l-0.3-0.5
				c-0.1-0.1-0.1-0.3-0.1-0.4c0-0.1,0.1-0.3,0.2-0.3h0.5v-0.4h-11.2v0.4h0.5c0.1,0,0.1,0.2,0.1,0.3c0,0.1,0,0.2-0.1,0.3
				c0,0.2-0.1,0.4-0.2,0.6l-5.9,10.8c-0.1,0-0.1,0.1-0.2,0.2c-0.3,0.9-1,1.5-1.9,1.8v0.4h7.7v-0.4l-0.7-0.2l-0.2-0.4v-0.3l0.2-0.2
				l0.9-1.7h10.4l0.9,1.7l0.2,0.4v0.2c0,0.2-0.1,0.3-0.2,0.4h-0.7v0.4L125.7,176.1z"/>
			<path class="st1" d="M141.3,164.6c1.9-0.1,3.8,0.2,5.5,0.9c1.7,1.1,2.2,3.4,1.1,5.1c-0.3,0.4-0.6,0.8-1.1,1.1
				c-1.7,0.7-3.6,1.1-5.5,1h-4.2v-8.1L141.3,164.6z M129.7,161.2v0.4c0.3,0,0.6,0.1,0.9,0.2c0.1,0.2,0.2,0.4,0.2,0.6v12.5
				c0,0.2-0.1,0.4-0.2,0.6c-0.3,0.1-0.6,0.2-0.9,0.2v0.4h11.6c2.1,0.1,4.2-0.1,6.2-0.4c1.4-0.2,2.7-0.6,3.9-1.2
				c1.1-0.6,2-1.5,2.7-2.5c0.6-1,0.9-2.2,0.9-3.4c0-1.2-0.3-2.3-0.9-3.3c-0.7-1-1.6-1.8-2.7-2.4c-1.2-0.7-2.5-1.2-3.9-1.4
				c-2.1-0.2-4.1-0.3-6.2-0.3L129.7,161.2z"/>
			<path class="st1" d="M170.6,163.9l3.9,6.6H167L170.6,163.9z M184.6,176.1v-0.4c-0.4-0.1-0.8-0.3-1.1-0.7l0,0l-7.1-12l-0.3-0.5
				c-0.1-0.1-0.1-0.3-0.1-0.4c0-0.1,0-0.3,0.1-0.3h0.5v-0.4h-11.2v0.4h0.5c0.1,0,0.2,0.2,0.2,0.3c0,0.1,0,0.2-0.1,0.3l-0.3,0.6
				l-5.9,10.8v0.2c-0.3,0.9-1,1.5-1.9,1.8v0.4h7.6v-0.4l-0.6-0.2c-0.2-0.1-0.3-0.2-0.3-0.4v-0.3c0-0.1,0.1-0.1,0.1-0.2l0.9-1.7H176
				l0.9,1.7l0.3,0.4v0.2c0,0.2,0,0.3-0.2,0.4h-0.6v0.4L184.6,176.1z"/>
			<path class="st0" d="M94.9,11.7L80.1,41.3c-0.4,0.3-0.9,0.6-1.4,0.8c-0.7,0.2-1.5,0.2-2.2-0.1l-17.6-9.5l10.6,45.7v0.4
				c0.3,1.1,0.4,1.6-0.7,2.1s-2.3,0.4-2.8-0.1L46,58.3l-4.8,11c-1.2,2.4-1.4,2.8-6.3,1.7l-22.3-5.2L20.4,91c1.1,3.5-0.5,4.1-1.2,4.4
				L6.9,100l41,29.3c1.4,1,1.5,1.7,0.9,2.9l-7.9,17.3L96,138.8l55.1,10.7l-7.9-17.3c-0.2-0.4-0.3-0.8-0.3-1.2c0-0.6,0.3-1,1.2-1.7
				l41-29.3l-12.3-4.6c-1-0.2-1.7-1.2-1.6-2.3c0.1-0.7,0.2-1.4,0.4-2.1l7.8-25.2L157.1,71c-4.9,1.1-5.1,0.7-6.3-1.7l-4.8-11
				l-20.1,22.3c-0.5,0.5-1.2,1-2.8,0.1s-1-1-0.7-2.1v-0.4L133,32.5L115.5,42c-0.7,0.3-1.5,0.3-2.2,0.1c-0.5-0.2-1-0.5-1.4-0.8
				L96,9.5L94.9,11.7z"/>
			<path class="st0" d="M90.7,147.6v1.4c0,1.8,2.7,2.5,5.3,2.5s5.3-0.7,5.3-2.5v-1.4c0-1.9-2.7-2.6-5.3-2.6S90.7,145.7,90.7,147.6z"
				/>
			<path class="st2" d="M143.4,128.3l39-27.9l-10.1-3.8c-2-0.8-3-2.6-1.9-6l7.2-23.1l-20.3,4.7c-5.5,1.3-6.2,0.6-7.6-2.3l-4.1-9.3
				l-18.8,20.9c-0.8,0.8-2.1,1.5-4.3,0.4s-1.5-3-1.3-4l1.6-6.9l-72.4,59.5c0.1,0.8-0.1,1.5-0.4,2.2l-6.9,15.1L96,137.5l52.9,10.3
				l-6.9-15.1C141.2,130.9,141.5,129.7,143.4,128.3z"/>
			<path class="st1" d="M122.9,71l8.3-36l-15.1,8.2c-1.7,0.9-4.6-0.1-5.3-1.4L96,12.3L81.2,41.8c-0.7,1.3-3.6,2.3-5.3,1.4L60.8,35
				l10,42.9c0.2,1,0.9,2.8-1.3,4s-3.5,0.4-4.3-0.4L46.4,60.6l-4.1,9.3c-1.4,2.9-2.1,3.6-7.6,2.3l-20.3-4.7l7.2,23.1
				c1.1,3.4,0.1,5.2-1.9,6l-10.1,3.8l39,27.9c0.9,0.5,1.5,1.3,1.8,2.2L122.9,71z"/>
			<path class="st0" d="M117.3,54.5l-0.6-0.6c-1-1.4-2-2.8-3.2-4.1l-0.9,0.2h-3.7c-0.6-0.2-1.2-0.3-1.8-0.3
				c-1.3,1.5-2.3,3.3-2.9,5.2l-0.2,0.4c-0.1,1.8,0.1,3.6,0.4,5.3l-3.9,1.4v0.6c-0.5-0.1-1-0.1-1.5,0c-0.9,0.2-1.8,0.5-2.7,0.9
				L90.2,67l-2.3,3.2l-3.4,7.9c0,0-0.2,1.3-0.2,1.8V82l-0.8-0.3l-3.3,3l-0.5,3.5l-3.5,5.1l-7.4,12.2v0.6l-2.3,1.8v1.2
				c-1.5,0.6-2.9,1.6-4.1,2.8l-3,3.4l-4.3,6.2l-1.7,1.3v2.4l-0.4,0.4v0.6l-0.8,0.9l-3.3,3c-0.5,1.4-0.7,3-0.7,4.5l-1.2,4.2
				c0.9-0.5,1.8-0.9,2.8-1.3l1.1-0.2l6.7-7.3l10.6-8.8c1.4-1.1,2.4-4,2.4-4c0.5-0.3,1-0.6,1.6-0.8c1.6-0.4,3-1.2,4.3-2.2l2.5-2.7
				h2.5c0.8-1,1.5-2.1,2.2-3.3l2.3-1.4l3.3-3.7l2.4-2.2c0.5-0.4,1.2-0.6,1.8-0.8l0.5,2.8c0.7,3.4,0,4.3,0,4.3l-1,2.7
				c-0.1,0.5-0.2,1-0.3,1.5l-0.8,1.3l-3.4,6.5l-2.5,6l-1.5,1l-0.6,1.5l-0.4-0.4l-3.7,6.1v1l0.7,0.8l-1.1,2.9l0.3,0.4l2.4-1.5
				l1.5,0.9c0.4-0.3,0.8-0.6,1.1-1l2.1-2.7l10.8-10.9c0,0,2.2-2.2,3.9-7.5c1-0.7,1.8-1.6,2.5-2.6l3.5-5.8l3.5-8.5l5,4.1l0.8-0.2
				l-4,33.9l0.2,1.4l0.6,0.5c2.2-0.1,4.5-0.4,6.7-0.8c0.9-0.8,1.6-1.8,2-2.9l0.5-1.9l-0.7-0.3l-4.7,1.6l-1.1,0.2
				c0,0-0.1-1.1-0.1-1.6l3.6-30.1c1.6-0.5,3-1.5,3.9-2.9l-0.7-0.2l0.4-1.3l-0.8-1.2l1.1-1.4l-0.6-1.3l-1.4-0.6h-1l0.8-7.8l2.1-2.1
				c0.9-0.7,1.8-1.4,2.6-2.2l3-4l-0.2-1.1l0.6-0.9c-1-1.2-2.3-2.1-3.7-2.7l1.1-1.7c0.1-2.9,0-4.6,2-8.3l-0.5-1.9l-4.2-3.8
				c-1.1-0.3-2.3-0.4-3.4-0.4c-1,0.1-2,0.5-2.9,1l-0.9,0.5l0.6-1.2l-0.4-0.3L117.3,54.5L117.3,54.5z"/>
			<path class="st2" d="M116.7,84.2l2,1.6l-0.7,7.1l-4.9-3.3c-0.3-0.3-0.6-0.6-0.8-0.9l1.1-1.5l1.3-2.2l0.9-2
				C115.6,83,116.7,84.2,116.7,84.2z"/>
			<path class="st2" d="M100.1,147.6c0-0.7-1.9-1.3-4.1-1.3s-4.1,0.6-4.1,1.3v1.4c0,0.7,1.9,1.2,4.1,1.2s4.1-0.5,4.1-1.2V147.6z"/>
		</g>
	</g>
</g>
</svg>
