<svg xmlns="http://www.w3.org/2000/svg" width="33.892" height="33.892" viewBox="0 0 33.892 33.892">
  <path id="login_white" d="M16.946,0A16.946,16.946,0,1,0,33.892,16.946,16.945,16.945,0,0,0,16.946,0ZM7.99,17.253a.775.775,0,0,1,.774-.774H16.94L15.166,14.7a.772.772,0,1,1,1.092-1.092L19.349,16.7h0l.053.053c.007.007.013.02.02.026a.116.116,0,0,0,.026.033c.007.013.013.02.02.033s.013.02.02.033a.145.145,0,0,0,.02.033c.007.013.013.02.013.033s.007.026.013.033.007.026.013.04.007.02.007.033.007.026.007.04.007.026.007.04.007.02.007.033a.586.586,0,0,1,0,.152.06.06,0,0,1-.007.033c0,.013-.007.026-.007.04s-.007.026-.007.04a.287.287,0,0,1-.007.033c-.007.013-.007.026-.013.033s-.007.02-.013.033-.007.02-.013.033a.145.145,0,0,1-.02.033c-.007.013-.013.02-.02.033s-.013.02-.02.033a.116.116,0,0,1-.026.033c-.007.007-.013.02-.02.026a.2.2,0,0,1-.053.053h0l-3.091,3.091a.779.779,0,0,1-1.092,0,.767.767,0,0,1,0-1.092L16.94,18H8.764A.737.737,0,0,1,7.99,17.253Zm18.535,8.493a.771.771,0,0,1-.774.774h-13.9a.775.775,0,0,1-.774-.774V20.338a.774.774,0,1,1,1.549,0v4.634H24.982V9.528H12.624v4.634a.774.774,0,0,1-1.549,0V8.754a.771.771,0,0,1,.774-.774h13.9a.771.771,0,0,1,.774.774V25.746Z" fill="#fff"/>
</svg>
