<svg xmlns="http://www.w3.org/2000/svg" width="107.779" height="151.522" viewBox="0 0 107.779 151.522">
  <g id="Layer_1" transform="translate(-401.866 -101.6)">
    <g id="Сгруппировать_12" data-name="Сгруппировать 12" transform="translate(402.038 101.6)">
      <path id="Контур_1" data-name="Контур 1" d="M506.9,193.764V121.42l-52.417-7.22-52.417,7.22v72.344s-1.4,22.815,14.921,40c0,0,10.974,13.525,37.447,25.9,26.473-12.37,37.447-25.9,37.447-25.9C508.3,216.579,506.9,193.764,506.9,193.764Z" transform="translate(-402.038 -108.135)" fill="#fda600"/>
      <path id="Контур_2" data-name="Контур 2" d="M507.192,196.279v-69.6L457.23,119.7l-49.962,6.979v69.6s-1.348,21.756,14.247,38.169c0,0,10.493,12.9,35.715,24.692,25.27-11.841,35.715-24.692,35.715-24.692C508.54,218.036,507.192,196.279,507.192,196.279Z" transform="translate(-404.736 -110.988)" fill="#171f3c" stroke="#fff" stroke-miterlimit="10" stroke-width="1"/>
      <path id="Контур_3" data-name="Контур 3" d="M506.623,180.3l-51.887,3.8L402.8,187.9v13.573l52.417-3.851,51.406-3.754Z" transform="translate(-402.433 -142.419)" fill="#fda600"/>
      <g id="Сгруппировать_1" data-name="Сгруппировать 1" transform="translate(16.804 55.064)">
        <path id="Контур_4" data-name="Контур 4" d="M502.964,237.66l4.332-13S511.628,216,502.964,216s-17.328,8.664-17.328,8.664c-5.1-2.551-8.712-2.118-10.782-1.3a6.237,6.237,0,0,1-4.38,0c-2.118-.818-5.68-1.251-10.782,1.3,0,0-8.664-8.664-17.328-8.664s-4.332,8.664-4.332,8.664l4.332,13s-3.273,13.333-3.369,14.007c-1.444,9.049,7.364,15.691,13.622,23.3,0,0,6.5,10.349,7.99,12.755a10.723,10.723,0,0,0,1.781,2.166,14.535,14.535,0,0,0,10.2,4.043h.289a14.619,14.619,0,0,0,10.2-4.043,12.225,12.225,0,0,0,1.781-2.166c1.492-2.407,8.471-12.755,8.471-12.755,3.61-6.45,13.959-14.1,12.659-23.344C505.8,250.945,502.964,237.66,502.964,237.66Z" transform="translate(-436.95 -216)" fill="#fff"/>
        <path id="Контур_5" data-name="Контур 5" d="M502.964,237.66l4.332-13S511.628,216,502.964,216s-17.328,8.664-17.328,8.664c-5.1-2.551-8.712-2.118-10.782-1.3a6.237,6.237,0,0,1-4.38,0c-2.118-.818-5.68-1.251-10.782,1.3,0,0-8.664-8.664-17.328-8.664s-4.332,8.664-4.332,8.664l4.332,13s-3.273,13.333-3.369,14.007c-1.444,9.049,7.364,15.691,13.622,23.3,0,0,6.5,10.349,7.99,12.755a10.723,10.723,0,0,0,1.781,2.166,14.535,14.535,0,0,0,10.2,4.043h.289a14.619,14.619,0,0,0,10.2-4.043,12.225,12.225,0,0,0,1.781-2.166c1.492-2.407,8.471-12.755,8.471-12.755,3.61-6.45,13.959-14.1,12.659-23.344C505.8,250.945,502.964,237.66,502.964,237.66Z" transform="translate(-436.95 -216)" fill="#171f3c"/>
        <path id="Контур_6" data-name="Контур 6" d="M502.964,237.66l4.332-13S511.628,216,502.964,216s-17.328,8.664-17.328,8.664c-5.1-2.551-8.712-2.118-10.782-1.3a6.237,6.237,0,0,1-4.38,0c-2.118-.818-5.68-1.251-10.782,1.3,0,0-8.664-8.664-17.328-8.664s-4.332,8.664-4.332,8.664l4.332,13s-3.273,13.333-3.369,14.007c-1.444,9.049,7.364,15.691,13.622,23.3,0,0,6.5,10.349,7.99,12.755a10.723,10.723,0,0,0,1.781,2.166,14.535,14.535,0,0,0,10.2,4.043h.289a14.619,14.619,0,0,0,10.2-4.043,12.225,12.225,0,0,0,1.781-2.166c1.492-2.407,8.471-12.755,8.471-12.755,3.61-6.45,13.959-14.1,12.659-23.344C505.8,250.945,502.964,237.66,502.964,237.66Z" transform="translate(-436.95 -216)" fill="none" stroke="#46515b" stroke-miterlimit="10" stroke-width="4"/>
      </g>
      <path id="Контур_7" data-name="Контур 7" d="M445.344,223.529s-3.562.963-1.781,6.017c0,0,4.38,11.552,4.139,6.979l-.818-4.043a3.424,3.424,0,0,1,1.2.385c.385.289-3.562-7.027,1.781-8.038C449.82,224.78,447.654,222.807,445.344,223.529Z" transform="translate(-423.317 -164.759)" fill="#fda600"/>
      <path id="Контур_8" data-name="Контур 8" d="M477.013,286.343s-6.835,6.979-11.841-1.588c0,0-2.936-4.861.529-11.408l-7.076-11.456s-8.9-2.07-6.065-10.734L449,250l1.011-6.45,6.113-3.032,5.487-9s20.793-5.2,31.431-2.6l2.262.337a15.027,15.027,0,0,1,11.022-8.086s3.658-1.059,5.583.77c1.059,1.011.77,2.792.193,4.091l-3.321,7.412-.578-5.92a4.444,4.444,0,0,0-2.6-3.754c-1.54-.674-3.754-.578-6.354,2.647,0,0,2.7-1.251,4.043-.289l-1.251,2.888s2.792-.193,3.514,1.877l.529,3.754s-6.546-1.973-11.215-.963c0,0,5.728-.529,11.985,7.412,0,0,5.728,7.7,3.032,20.168,0,0-1.251-8.038-3.514-8.616a9.163,9.163,0,0,1-6.979,8.76l-5.1,11.889s.915,23.922-13.477,13l-1.973-1.54Z" transform="translate(-426.396 -163.46)" fill="#fefefe"/>
      <path id="Контур_9" data-name="Контур 9" d="M506.985,184.1l-52.369,3.8-52.417,3.8v9.627l52.609-3.8,52.176-3.8Z" transform="translate(-402.122 -144.39)" fill="#fff" stroke="#fff" stroke-miterlimit="10" stroke-width="0.5"/>
      <g id="Сгруппировать_2" data-name="Сгруппировать 2" transform="translate(4.699 42.646)">
        <path id="Контур_10" data-name="Контур 10" d="M415.891,208.613l-4.091.289.914-5.006,1.492-.1-.674,3.514,2.647-.193Z" transform="translate(-411.8 -197.254)" fill="#171f3c"/>
        <path id="Контур_11" data-name="Контур 11" d="M426.858,203.715v.193l-.481,2.647a1.563,1.563,0,0,1-.481.866,1.4,1.4,0,0,1-.866.385l-2.214.144a.782.782,0,0,1-.674-.241.838.838,0,0,1-.241-.674v-.193l.481-2.647a1.563,1.563,0,0,1,.481-.866,1.4,1.4,0,0,1,.866-.385l2.214-.144a.782.782,0,0,1,.674.241A.952.952,0,0,1,426.858,203.715Zm-3.129.722-.385,2.022,1.54-.1.385-2.022Z" transform="translate(-417.039 -196.735)" fill="#171f3c"/>
        <path id="Контур_12" data-name="Контур 12" d="M436.947,202.915v.193l-.722,3.851-1.492.1.674-3.514-1.588.1-.626,3.514-1.492.1.915-5.006,3.369-.241a.782.782,0,0,1,.674.241A.874.874,0,0,1,436.947,202.915Z" transform="translate(-422.122 -196.32)" fill="#171f3c"/>
        <path id="Контур_13" data-name="Контур 13" d="M447.4,202.215v.193l-.481,2.647a1.563,1.563,0,0,1-.481.866,1.4,1.4,0,0,1-.866.385l-3.369.241.915-5.006,3.369-.241a.782.782,0,0,1,.674.241A.952.952,0,0,1,447.4,202.215Zm-3.129.722-.385,2.022,1.54-.1.385-2.022Z" transform="translate(-427.568 -195.957)" fill="#171f3c"/>
        <path id="Контур_14" data-name="Контур 14" d="M458.058,201.415v.193l-.481,2.647a1.563,1.563,0,0,1-.481.866,1.4,1.4,0,0,1-.866.385l-2.214.144a.782.782,0,0,1-.674-.241.838.838,0,0,1-.241-.674v-.193l.481-2.647a1.563,1.563,0,0,1,.481-.866,1.4,1.4,0,0,1,.866-.385l2.214-.144a.782.782,0,0,1,.674.241A1.043,1.043,0,0,1,458.058,201.415Zm-3.129.77-.385,2.022,1.54-.1.385-2.022Z" transform="translate(-433.221 -195.542)" fill="#171f3c"/>
        <path id="Контур_15" data-name="Контур 15" d="M468.095,200.615v.193l-.722,3.851-1.492.1.674-3.514-1.588.1-.674,3.514-1.492.1.915-5.006,3.369-.241a.782.782,0,0,1,.674.241A.841.841,0,0,1,468.095,200.615Z" transform="translate(-438.252 -195.127)" fill="#171f3c"/>
        <path id="Контур_16" data-name="Контур 16" d="M484.646,199.466v.193l-.144.77a1.469,1.469,0,0,1-.433.626.778.778,0,0,1,.193.481v.1l-.337,1.925-1.492.1.385-1.925-1.588.1-.337,1.925-1.492.1.915-5.006,3.369-.241a.782.782,0,0,1,.674.241A.66.66,0,0,1,484.646,199.466Zm-3.129.77-.1.433,1.54-.1.1-.433Z" transform="translate(-446.862 -194.557)" fill="#171f3c"/>
        <path id="Контур_17" data-name="Контур 17" d="M494.565,199.292l-2.647.193-.1.433,2.647-.193-.193,1.155-2.647.193-.1.433,2.647-.193-.289,1.492-4.091.289.915-5.006,4.091-.289Z" transform="translate(-452.256 -194.142)" fill="#171f3c"/>
        <path id="Контур_18" data-name="Контур 18" d="M504.165,198.592l-2.647.193-.1.433,2.647-.193-.193,1.155-2.647.193-.337,1.925-1.492.1.914-5.006,4.091-.289Z" transform="translate(-457.236 -193.779)" fill="#171f3c"/>
        <path id="Контур_19" data-name="Контур 19" d="M513.665,197.892l-2.647.193-.1.433,2.647-.193-.193,1.155-2.647.193-.1.433,2.647-.193-.289,1.492-4.091.289.915-5.006,4.091-.289Z" transform="translate(-462.163 -193.416)" fill="#171f3c"/>
        <path id="Контур_20" data-name="Контур 20" d="M523.747,196.666v.193l-.144.77a1.469,1.469,0,0,1-.433.626.778.778,0,0,1,.193.481v.1l-.337,1.925-1.492.1.385-1.925-1.588.1-.337,1.925-1.492.1.915-5.006,3.369-.241a.782.782,0,0,1,.674.241A.715.715,0,0,1,523.747,196.666Zm-3.129.77-.1.433,1.54-.1.1-.433Z" transform="translate(-467.142 -193.105)" fill="#171f3c"/>
        <path id="Контур_21" data-name="Контур 21" d="M533.665,196.392l-2.647.193-.1.433,2.647-.193-.193,1.155-2.647.193-.1.433,2.647-.193-.289,1.492-4.091.289.914-5.006,4.091-.289Z" transform="translate(-472.536 -192.638)" fill="#171f3c"/>
        <path id="Контур_22" data-name="Контур 22" d="M543.165,195.692l-2.647.193-.1.433,2.647-.193-.193,1.155-2.647.193-.1.433,2.647-.193-.289,1.492-4.091.289.915-5.006,4.091-.289Z" transform="translate(-477.464 -192.275)" fill="#171f3c"/>
        <path id="Контур_23" data-name="Контур 23" d="M559.558,194.544l-3.032.241-.385,2.022,1.54-.1.1-.433-.674.048.193-1.155,2.118-.144-.337,1.925a1.563,1.563,0,0,1-.481.866,1.4,1.4,0,0,1-.866.385l-2.214.144a.782.782,0,0,1-.674-.241.838.838,0,0,1-.241-.674v-.193l.481-2.647a1.563,1.563,0,0,1,.481-.866,1.4,1.4,0,0,1,.866-.385l3.369-.241Z" transform="translate(-485.866 -191.704)" fill="#171f3c"/>
        <path id="Контур_24" data-name="Контур 24" d="M569.747,193.366v.193l-.144.77a1.469,1.469,0,0,1-.433.626.778.778,0,0,1,.193.481v.1l-.337,1.925-1.492.1.385-1.925-1.588.1-.337,1.925-1.492.1.915-5.006,3.369-.241a.782.782,0,0,1,.674.241C569.7,192.837,569.747,193.078,569.747,193.366Zm-3.129.722-.1.433,1.54-.1.1-.433Z" transform="translate(-491.001 -191.393)" fill="#171f3c"/>
        <path id="Контур_25" data-name="Контур 25" d="M580.458,192.515v.193l-.481,2.647a1.563,1.563,0,0,1-.481.866,1.4,1.4,0,0,1-.866.385l-2.214.144a.782.782,0,0,1-.674-.241.838.838,0,0,1-.241-.674v-.193l.481-2.647a1.563,1.563,0,0,1,.481-.866,1.4,1.4,0,0,1,.866-.385l2.214-.144a.782.782,0,0,1,.674.241A.838.838,0,0,1,580.458,192.515Zm-3.129.77-.385,2.022,1.54-.1.385-2.022Z" transform="translate(-496.706 -190.926)" fill="#171f3c"/>
        <path id="Контур_26" data-name="Контур 26" d="M590.376,194.6a1.563,1.563,0,0,1-.481.866,1.4,1.4,0,0,1-.866.385l-2.214.144a.782.782,0,0,1-.674-.241.838.838,0,0,1-.241-.674v-.193l.722-3.8,1.492-.1-.674,3.514,1.54-.1.674-3.514,1.492-.1Z" transform="translate(-502.101 -190.511)" fill="#171f3c"/>
        <path id="Контур_27" data-name="Контур 27" d="M601,191.066v.193l-.144.77a1.563,1.563,0,0,1-.481.866,1.4,1.4,0,0,1-.866.385l-1.877.144-.337,1.925-1.492.1.915-5.006,3.369-.241a.782.782,0,0,1,.674.241A.687.687,0,0,1,601,191.066Zm-3.129.77-.1.433,1.54-.1.1-.433Z" transform="translate(-507.235 -190.2)" fill="#171f3c"/>
      </g>
      <path id="Контур_28" data-name="Контур 28" d="M476.708,259.557l-7.316-6.257-.337,4.861a5.531,5.531,0,0,1-5.535,5.15h0a13.441,13.441,0,0,0-2.792.385,5.651,5.651,0,0,0-2.214,1.107c-.915.77-2.214,1.781-2.214,1.781l3.273.289a7.676,7.676,0,0,0,2.792,3.514,7.178,7.178,0,0,0,2.984,1.155s2.744,3.417,5.246,3.417l-1.348,2.888s2.166.626,2.07,2.6l-1.348,6.931a3.376,3.376,0,0,0,2.07,3.754l.578-4.765,7.509-9.386Z" transform="translate(-430.182 -180.282)" fill="#171f3c"/>
      <path id="Контур_29" data-name="Контур 29" d="M540.134,265.49a10.471,10.471,0,0,0-7.7,2.5l1.011-2.5c.963-1.781-.385-7.99-.385-7.99l-3.273,8.134a4.954,4.954,0,0,0-.289,2.888c.433,1.925-.1,7.461.626,8.616,0,0,.481-2.407,2.262-3.129,0,0,5.824.481,8.423-1.444a7.364,7.364,0,0,0,2.792-3.514l3.273-.289s-.626-.529-1.348-1.107A9.416,9.416,0,0,0,540.134,265.49Z" transform="translate(-468.097 -182.461)" fill="#171f3c"/>
      <path id="Контур_30" data-name="Контур 30" d="M466.216,281.015c-2.6-2.31.915-7.557.915-7.557a17.717,17.717,0,0,0,3.514-9.578,68.7,68.7,0,0,0,.337-8.423c-3.754-3.321-7.076-11.263-7.076-11.263-.674-2.31-1.973-2.792-3.129-2.7a3.648,3.648,0,0,0-2.744,1.733l-3.61,5.487c-8.808,6.257-3.947,9.049-3.947,9.049-4.621,6.354-4.236,11.311-4.236,11.311-3.754-9.242,2.07-19.638,2.07-19.638l2.744-5.776c2.936-5.92,1.444-6.017,1.444-6.017-.963-.1-1.685,1.588-1.685,1.588l-.337-3.658c-.722.289-.722,1.348-.722,1.348l-.433-3.225,5.1,1.685c3.321.915,10.589,0,10.589,0,7.7-2.6,10.3,6.161,10.3,6.161,1.637,4.38,1.877,15.306,1.829,23.152a12.887,12.887,0,0,1-6.69,11.167c-4.861,2.647-4.236,5.15-4.236,5.15Z" transform="translate(-424.311 -170.116)" fill="#fda600"/>
      <path id="Контур_31" data-name="Контур 31" d="M507.477,346.578l1.3,5.343a.44.44,0,0,0,.866,0l1.251-5.343a.475.475,0,0,0-.433-.578h-2.6A.466.466,0,0,0,507.477,346.578Z" transform="translate(-456.715 -228.363)" fill="#46515b"/>
      <path id="Контур_32" data-name="Контур 32" d="M509.712,326.761a4.705,4.705,0,0,0-3.032-1.685h-.048a6.908,6.908,0,0,0-3.658.674l-3.225,1.2-3.225-1.251a7.446,7.446,0,0,0-3.658-.722h-.048a4.629,4.629,0,0,0-2.936,1.444c-1.011,1.107-.722,1.877-.722,1.877l4.091,3.417.626-.818a.987.987,0,0,1,1.3-.289.971.971,0,0,1,.289,1.4l-.722.915,3.08,2.551a2.846,2.846,0,0,0,3.706,0l3.08-2.5-.722-.963a.963.963,0,0,1,.289-1.4,1.04,1.04,0,0,1,1.3.289l.626.866,4.139-3.417C510.289,328.446,510.53,327.82,509.712,326.761Z" transform="translate(-447.205 -217.451)" fill="#171f3c"/>
      <path id="Контур_33" data-name="Контур 33" d="M505.364,330.02l-1.3.241a2.616,2.616,0,0,1-.866,0l-1.3-.241c-4.428-.529-5.2.529-5.2.529a3.19,3.19,0,0,0,1.444.241,4.041,4.041,0,0,1,1.492.241,6.5,6.5,0,0,1,2.166,1.637c.048.1.144.144.193.193a2.509,2.509,0,0,0,3.369,0l.193-.193a7.281,7.281,0,0,1,2.166-1.637,3.888,3.888,0,0,1,1.492-.241,5.712,5.712,0,0,0,1.444-.241C510.562,330.55,509.84,329.443,505.364,330.02Z" transform="translate(-451.137 -219.988)" fill="#fda600"/>
      <path id="Контур_34" data-name="Контур 34" d="M501.3,360.4c-2.936,2.84-9.1,2.6-9.1,2.6.722,1.588,4.573,2.214,4.573,2.214a3.429,3.429,0,0,1,1.011-.77c-.289.289-.048.866-.048.866.674-.385,2.022-1.011,2.022-1.011v.241c.048.578.626,1.059,1.444,1.348h.193a1.955,1.955,0,0,0,1.444-1.348V364.3a14.851,14.851,0,0,1,2.022,1.011s.193-.578-.048-.866c0,0,.866.433,1.011.77,0,0,3.851-.578,4.573-2.214C510.394,363,504.281,363.24,501.3,360.4Z" transform="translate(-448.802 -235.832)" fill="#fda600"/>
      <path id="Контур_35" data-name="Контур 35" d="M498.081,233.512s-6.546-2.888-12.081,1.251c0,0,9.145-1.54,10.926,8.471l1.2,12.033,1.2-12.033c1.781-10.06,11.071-8.664,11.071-8.664C504.82,230.432,498.081,233.512,498.081,233.512Z" transform="translate(-445.587 -169.448)" fill="#171f3c"/>
      <path id="Контур_36" data-name="Контур 36" d="M543.846,278.3l-2.744.337h0a1.206,1.206,0,0,1,.385.866,1.2,1.2,0,1,1-2.407,0v-.1c-1.588.1-1.781.866-1.781.866a3.791,3.791,0,0,0,3.706,2.359C544.424,282.3,543.846,278.3,543.846,278.3Z" transform="translate(-472.195 -193.249)" fill="#fda600"/>
      <path id="Контур_37" data-name="Контур 37" d="M471.36,278.3l2.744.337h0a1.205,1.205,0,0,0-.385.866,1.2,1.2,0,1,0,2.407,0v-.1c1.588.1,1.781.866,1.781.866a3.791,3.791,0,0,1-3.706,2.359C470.783,282.3,471.36,278.3,471.36,278.3Z" transform="translate(-437.974 -193.249)" fill="#fda600"/>
      <g id="Сгруппировать_3" data-name="Сгруппировать 3" transform="translate(63.661 113.434)">
        <path id="Контур_38" data-name="Контур 38" d="M535.818,341.809c7.509-3.8,18.29-4.38,18.29-4.38A42.253,42.253,0,0,0,535,340.172,4.757,4.757,0,0,1,535.818,341.809Z" transform="translate(-534.663 -337.269)" fill="#fefefe"/>
        <path id="Контур_39" data-name="Контур 39" d="M537.148,348.373c0,.193.048.385.048.529a7.9,7.9,0,0,1-.1,1.107c6.69-2.07,15.258-1.685,15.258-1.685C546.967,346.64,540.277,347.7,537.148,348.373Z" transform="translate(-535.752 -342.534)" fill="#fefefe"/>
        <path id="Контур_40" data-name="Контур 40" d="M534.3,357.251c4.765.241,13,5.006,13,5.006-2.5-3.177-9.819-5.535-12.178-6.257A3.765,3.765,0,0,1,534.3,357.251Z" transform="translate(-534.3 -346.984)" fill="#fefefe"/>
        <path id="Контур_41" data-name="Контур 41" d="M552.258,348.909c-.144-.048-.337-.1-.481-.144-4.284-.722-11.889.529-14.68,1.059a4.211,4.211,0,0,1-.1.77C543.69,348.524,552.258,348.909,552.258,348.909Z" transform="translate(-535.7 -343.118)" fill="#171f3c"/>
        <path id="Контур_42" data-name="Контур 42" d="M536.1,341.2c.1.241.193.481.289.77,7.509-3.8,18.291-4.38,18.291-4.38C547.459,337.4,538.314,340.43,536.1,341.2Z" transform="translate(-535.234 -337.431)" fill="#171f3c"/>
        <path id="Контур_43" data-name="Контур 43" d="M534.83,357.2a3.636,3.636,0,0,1-.529.674c4.765.241,13,5.006,13,5.006C543.734,360.184,536.8,357.826,534.83,357.2Z" transform="translate(-534.3 -347.607)" fill="#171f3c"/>
      </g>
      <g id="Сгруппировать_4" data-name="Сгруппировать 4" transform="translate(21.93 113.434)">
        <path id="Контур_44" data-name="Контур 44" d="M465.891,341.809c-7.509-3.8-18.291-4.38-18.291-4.38a42.253,42.253,0,0,1,19.109,2.744A4.755,4.755,0,0,0,465.891,341.809Z" transform="translate(-447.6 -337.269)" fill="#fefefe"/>
        <path id="Контур_45" data-name="Контур 45" d="M468.71,348.373c0,.193-.048.385-.048.529a7.9,7.9,0,0,0,.1,1.107c-6.69-2.07-15.258-1.685-15.258-1.685C458.891,346.64,465.581,347.7,468.71,348.373Z" transform="translate(-450.66 -342.534)" fill="#fefefe"/>
        <path id="Контур_46" data-name="Контур 46" d="M474,357.251c-4.765.241-13,5.006-13,5.006,2.5-3.177,9.819-5.535,12.178-6.257A3.764,3.764,0,0,0,474,357.251Z" transform="translate(-454.55 -346.984)" fill="#fefefe"/>
        <path id="Контур_47" data-name="Контур 47" d="M453.6,348.909c.144-.048.337-.1.481-.144,4.284-.722,11.889.529,14.681,1.059a4.213,4.213,0,0,0,.1.77C462.168,348.524,453.6,348.909,453.6,348.909Z" transform="translate(-450.712 -343.118)" fill="#171f3c"/>
        <path id="Контур_48" data-name="Контур 48" d="M466.179,341.2c-.1.241-.192.481-.289.77-7.509-3.8-18.291-4.38-18.291-4.38C454.82,337.4,463.965,340.43,466.179,341.2Z" transform="translate(-447.6 -337.431)" fill="#171f3c"/>
        <path id="Контур_49" data-name="Контур 49" d="M473.466,357.2a3.633,3.633,0,0,0,.529.674c-4.765.241-13,5.006-13,5.006C464.562,360.184,471.541,357.826,473.466,357.2Z" transform="translate(-454.55 -347.607)" fill="#171f3c"/>
      </g>
      <g id="Сгруппировать_5" data-name="Сгруппировать 5" transform="translate(32.519 3.321)">
        <path id="Контур_50" data-name="Контур 50" d="M475.98,114.872l4.188-4.139L502.549,109h.578a5.224,5.224,0,0,1,3.851,1.492,5.873,5.873,0,0,1,1.733,4.428,3.18,3.18,0,0,1-.048.674,3.249,3.249,0,0,1-.1.674l-.866,5.2c-.193,1.107-1.107,2.5-2.744,4.091l-.144.144.144.193a5.074,5.074,0,0,1,1.4,3.177v.578l-2.214,13.188-4.188,4.139-9.482.722,2.262-13.333-7.268.578-1.588,9.434-4.188,4.139-9.386.722Z" transform="translate(-469.963 -108.759)" fill="#171f3c"/>
        <path id="Контур_51" data-name="Контур 51" d="M502.764,108.981a4.932,4.932,0,0,1,3.658,1.444,5.587,5.587,0,0,1,1.637,4.284,2.747,2.747,0,0,1-.048.626,3.771,3.771,0,0,1-.1.674l-.866,5.2a8.336,8.336,0,0,1-2.647,3.947l-.337.289.289.337a4.918,4.918,0,0,1,1.348,3.032v.529l-2.214,13.14-4.091,4.043-9.1.674,2.166-12.707.1-.626-.626.048-6.787.529-.385.048-.048.385-1.54,9.145-4.091,4.043-9,.674,5.583-33.982,4.091-4.043,22.286-1.685a4.443,4.443,0,0,1,.722-.048m0-.481h-.626l-22.478,1.733-4.332,4.284L469.6,149.269l9.819-.77,4.332-4.284,1.54-9.338,6.787-.529-2.262,13.333,9.867-.77,4.332-4.284,2.214-13.333v-.578a5.326,5.326,0,0,0-1.492-3.321c1.685-1.637,2.6-3.032,2.792-4.188l.866-5.2c.048-.241.048-.481.1-.674,0-.241.048-.433.048-.674a6.124,6.124,0,0,0-1.829-4.621,5.222,5.222,0,0,0-3.947-1.54Z" transform="translate(-469.6 -108.5)" fill="#fda600"/>
      </g>
      <g id="Сгруппировать_6" data-name="Сгруппировать 6" transform="translate(68.619)">
        <path id="Контур_52" data-name="Контур 52" d="M550.735,142.439a5.114,5.114,0,0,1-3.8-1.492,6.022,6.022,0,0,1-1.733-4.428v-.674c0-.241.048-.433.048-.674l3.032-18.531a9.994,9.994,0,0,1,3.129-5.776l4.332-4.284a9.21,9.21,0,0,1,5.68-2.7l22.141-1.685-1.685,10.012-3.562,3.514,3.032-.241-2.118,13a9.852,9.852,0,0,1-3.129,5.776l-4.332,4.284a9.094,9.094,0,0,1-5.68,2.7l-14.777,1.107A1.221,1.221,0,0,1,550.735,142.439Zm10.3-24.788-1.685,10.4,2.84-.241,1.155-7.124,3.562-4.043Z" transform="translate(-544.911 -101.911)" fill="#171f3c"/>
        <path id="Контур_53" data-name="Контур 53" d="M583.01,102.129l-1.637,9.675-3.032,2.984-.915.915,1.3-.1,2.07-.144-2.07,12.707a10.1,10.1,0,0,1-3.081,5.68l-4.332,4.284a8.925,8.925,0,0,1-5.535,2.647L551,141.887h-.578a4.9,4.9,0,0,1-3.61-1.4,5.731,5.731,0,0,1-1.637-4.284v-.674c0-.241.048-.433.048-.674l3.032-18.531a9.9,9.9,0,0,1,3.032-5.632l4.332-4.284a9.044,9.044,0,0,1,5.535-2.647l21.852-1.637m-24.307,25.9.626-.048,2.358-.193.385-.048.048-.385,1.107-6.883,3.032-3.514.914-1.011-1.348.241-5.006.866-.337.048-.048.337-1.637,9.915-.1.674M583.588,101.6l-22.478,1.733a9.45,9.45,0,0,0-5.872,2.792l-4.332,4.284a10.023,10.023,0,0,0-3.177,5.92L544.7,134.86a3.413,3.413,0,0,0-.048.674c0,.241-.048.481-.048.674a6.239,6.239,0,0,0,1.781,4.621,5.3,5.3,0,0,0,3.947,1.54h.626l14.777-1.107a9.333,9.333,0,0,0,5.824-2.792l4.332-4.284a10.364,10.364,0,0,0,3.225-5.92l2.166-13.333-2.647.193L581.759,112l1.829-10.4Zm-24.307,25.9,1.637-9.915,5.006-.866-3.129,3.61-1.155,6.979-2.359.193Z" transform="translate(-544.6 -101.6)" fill="#fda600"/>
      </g>
      <g id="Сгруппировать_8" data-name="Сгруппировать 8" transform="translate(0.319 6.739)">
        <path id="Контур_54" data-name="Контур 54" d="M409.032,121.11l4.139-4.139,9.482-.77L418.8,140.555l17.52-1.444-1.637,10.012L430.5,153.31l-.289.048v.1l-26.81,2.07Z" transform="translate(-403.063 -115.911)" fill="#171f3c"/>
        <g id="Сгруппировать_7" data-name="Сгруппировать 7">
          <path id="Контур_55" data-name="Контур 55" d="M422,116.129l-3.8,23.73-.1.626.626-.048,16.895-1.4-1.588,9.675-4.043,4.043-.385.048-.048.144-26.329,2.022,5.583-34.03,4.043-4.043,9.145-.77m.578-.529-9.867.818-4.284,4.284v.048l-5.728,34.7,27.339-2.07.048-.144h.144l4.284-4.284,1.685-10.4L418.68,140l3.9-24.4Z" transform="translate(-402.7 -115.6)" fill="#fda600"/>
        </g>
      </g>
      <g id="Сгруппировать_9" data-name="Сгруппировать 9" transform="translate(4.795 6.739)">
        <path id="Контур_56" data-name="Контур 56" d="M419.791,118.426l7.894-.626-4.043,24.355,17.52-1.348-1.4,8.471L414.4,151.2Z" transform="translate(-413.245 -116.741)" fill="#fff"/>
        <path id="Контур_57" data-name="Контур 57" d="M425.285,117.718l-3.61,21.9-.385,2.407,2.455-.193,15.066-1.155-1.107,6.5-23.393,1.781,5.054-30.853,5.92-.385m2.31-2.118-9.867.77L412,151.122l27.339-2.07,1.733-10.4L423.552,140l4.043-24.4Z" transform="translate(-412 -115.6)" fill="#fda600"/>
      </g>
      <g id="Сгруппировать_10" data-name="Сгруппировать 10" transform="translate(36.611 3.417)">
        <path id="Контур_58" data-name="Контур 58" d="M485.939,112.437l21.708-1.637h.529a4.687,4.687,0,0,1,3.369,1.3,5.114,5.114,0,0,1,1.492,3.9,2.342,2.342,0,0,1-.048.578,3.773,3.773,0,0,1-.1.674l-.866,5.2c-.1.674-.626,1.829-2.5,3.658l-.626.626.578.674a4.615,4.615,0,0,1,1.251,2.744v.481l-2.118,12.515-7.894.626,2.262-13.333-12.418.963-2.214,13.333-7.846.578Zm6.45,7.846-.818,4.861,12.37-.963.866-4.861Z" transform="translate(-479.345 -109.789)" fill="#fff"/>
        <path id="Контур_59" data-name="Контур 59" d="M506.932,110.625h0a3.746,3.746,0,0,1,2.7,1.011,4.177,4.177,0,0,1,1.2,3.225,1.639,1.639,0,0,1-.048.481,3.311,3.311,0,0,1-.1.626l-.866,5.2c-.048.337-.385,1.348-2.214,3.129l-1.251,1.251,1.107,1.348a3.771,3.771,0,0,1,1.059,2.118v.433l-1.973,11.648-5.92.433,1.829-10.878.433-2.407-2.455.193-10.445.818-1.492.1-.241,1.492-1.973,11.841-5.872.433,5.054-30.853,20.938-1.588a2.159,2.159,0,0,1,.529-.048m-17.761,14.488,2.455-.193,10.4-.818,1.492-.1.241-1.492.481-2.888.433-2.455-2.455.193-10.445.818-1.492.1-.241,1.492-.481,2.888-.385,2.455M506.932,108.7h-.626l-22.478,1.733L478.1,145.185l9.819-.77,2.214-13.333,10.445-.818L498.316,143.6l9.867-.77,2.214-13.333v-.578a5.326,5.326,0,0,0-1.492-3.321c1.685-1.637,2.6-3.032,2.792-4.188l.866-5.2c.048-.241.048-.481.1-.674,0-.241.048-.433.048-.674a6.124,6.124,0,0,0-1.829-4.621,5.222,5.222,0,0,0-3.947-1.54Zm-4.525,10.589-.481,2.888-10.4.818.481-2.888,10.4-.818Z" transform="translate(-478.1 -108.7)" fill="#fda600"/>
      </g>
      <g id="Сгруппировать_11" data-name="Сгруппировать 11" transform="translate(72.951)">
        <path id="Контур_60" data-name="Контур 60" d="M560.565,138.263a4.387,4.387,0,0,1-3.273-1.3,5.3,5.3,0,0,1-1.492-3.947v-.626c0-.193.048-.433.048-.626l3.032-18.483a9.072,9.072,0,0,1,2.888-5.343,8.5,8.5,0,0,1,5.247-2.5l21.227-1.637-1.444,8.471-20.264,1.54-2.6,15.884,12.37-.963.866-4.861-4.428.337,1.011-6.161,12.274-.915-1.973,12.081a9.41,9.41,0,0,1-2.936,5.391,8.382,8.382,0,0,1-5.246,2.5l-14.777,1.107A2.159,2.159,0,0,1,560.565,138.263Z" transform="translate(-554.741 -102.741)" fill="#fff"/>
        <path id="Контур_61" data-name="Контур 61" d="M585.945,103.718l-1.107,6.5-18.772,1.444-1.492.1-.241,1.492-2.262,13.91-.385,2.407,2.455-.193,10.4-.818,1.492-.1.241-1.492.481-2.888.433-2.455-2.455.193-1.973.144.674-4.188,10.3-.77-1.781,10.878a8.455,8.455,0,0,1-2.647,4.861A7.506,7.506,0,0,1,574.682,135l-14.777,1.107h-.481a3.444,3.444,0,0,1-2.6-1.011,4.36,4.36,0,0,1-1.2-3.273v-.578c0-.193.048-.385.048-.529l3.032-18.531a8.385,8.385,0,0,1,2.6-4.813,7.5,7.5,0,0,1,4.669-2.262l19.975-1.4m2.31-2.118-22.478,1.733a9.449,9.449,0,0,0-5.872,2.792,10.023,10.023,0,0,0-3.177,5.92L553.7,130.576a3.408,3.408,0,0,0-.048.674c0,.241-.048.481-.048.674a6.239,6.239,0,0,0,1.781,4.621,5.3,5.3,0,0,0,3.947,1.54h.626l14.777-1.107a9.333,9.333,0,0,0,5.824-2.792,10.365,10.365,0,0,0,3.225-5.92l2.166-13.333L571.7,116.04l-1.3,8.134,4.428-.337-.481,2.888-10.4.818,2.262-13.91,20.264-1.54,1.781-10.493Z" transform="translate(-553.6 -101.6)" fill="#fda600"/>
      </g>
      <path id="Контур_62" data-name="Контур 62" d="M492.4,115.937l5.295,6.209-4.476-6.546Z" transform="translate(-448.906 -108.861)" fill="#fda600"/>
      <path id="Контур_63" data-name="Контур 63" d="M491.622,118.8l1.973,2.84-2.7-1.877Z" transform="translate(-448.128 -110.521)" fill="#fda600"/>
      <path id="Контур_64" data-name="Контур 64" d="M439.4,115.637l4.813-.337-.578,3.658-2.744.481-.385-2.984Z" transform="translate(-421.417 -108.706)" fill="#fda600"/>
      <path id="Контур_65" data-name="Контур 65" d="M438.1,119.841l3.61-.241-3.61,2.407Z" transform="translate(-420.742 -110.936)" fill="#fff"/>
      <path id="Контур_66" data-name="Контур 66" d="M565.761,157.2l.914,1.155-5.776,6.257Z" transform="translate(-484.435 -130.438)" fill="#fda600"/>
      <path id="Контур_67" data-name="Контур 67" d="M416.1,176.061c.048-.289,7.605-7.461,7.605-7.461v.818l-7.22,7.461Z" transform="translate(-409.332 -136.351)" fill="#fda600"/>
      <path id="Контур_68" data-name="Контур 68" d="M498.576,121.42l-4.284-7.22-.193.674Z" transform="translate(-449.788 -108.135)" fill="#fda600"/>
    </g>
  </g>
</svg>
