<?xml version="1.0" encoding="utf-8"?>
<!-- Generator: Adobe Illustrator 25.2.0, SVG Export Plug-In . SVG Version: 6.00 Build 0)  -->
<svg version="1.0" id="Layer_1" xmlns="http://www.w3.org/2000/svg" xmlns:xlink="http://www.w3.org/1999/xlink" x="0px" y="0px"
	 viewBox="0 0 157.1 170.4" style="enable-background:new 0 0 157.1 170.4;" xml:space="preserve">
<style type="text/css">
	.st0{fill:#1E1C1C;}
	.st1{fill:#FFFFFF;}
	.st2{fill:#C11010;}
</style>
<g id="newlogo">
	<path id="Path_198" class="st0" d="M73.3,169.1l-0.2,0l-0.8-0.2c-20.5-6.5-38.2-19.6-49.8-36.8c-5.9-8.6-10.1-18.3-12.6-28.4
		C7.3,93,6.8,82.1,8.4,71.4C10.1,59,9.7,48.5,7.2,42.5L0,25.6l16.8-5.9c1.9-1,3.6-2.5,4.8-4.3l7.7-10.8l12.1,4.5
		c2.5,0.6,5,0.9,7.5,0.9H49c9.5,0,20.7-5.5,21.2-5.7L78.6,0l8.5,4.4l0.1,0.1c6.4,3.6,13.6,5.5,20.9,5.6c2.6,0,5.2-0.3,7.7-0.9
		l12-4.5l7.7,10.8c1.3,1.8,2.9,3.3,4.9,4.3l16.8,5.9l-7.2,16.9c-2.5,5.9-2.9,16.4-1.2,28.8c1.5,10.7,1,21.7-1.5,32.2
		c-2.4,10.2-6.7,19.8-12.6,28.4c-11.7,17.2-29.4,30.3-49.9,36.8l-0.8,0.2l-0.2,0l-5.3,1.3L73.3,169.1z"/>
	<path id="Path_199" class="st1" d="M74.4,164.8L74.4,164.8l-0.7-0.2c-19.5-6.2-36.4-18.6-47.5-35.1c-5.6-8.2-9.6-17.3-11.9-27
		c-2.4-10-2.9-20.4-1.4-30.5c1.9-13.4,1.4-24.5-1.5-31.2L6,28.3l12.5-4.4c2.7-1.4,5-3.4,6.8-5.9l5.7-8l9,3.3c2.9,0.8,5.9,1.2,9,1.1
		H49c10.7,0,22.8-6,23.2-6.2l6.3-3.2L85,8.3l0.1,0c7,4,15,6.1,23.1,6.1c3.1,0,6.2-0.3,9.2-1.1l9-3.3l5.7,8c1.7,2.5,4.1,4.5,6.8,5.9
		l12.5,4.4l-5.3,12.5c-2.9,6.7-3.4,17.8-1.5,31.2c1.5,10.2,1,20.5-1.4,30.5c-2.3,9.6-6.4,18.8-11.9,27c-11.1,16.4-28,28.9-47.5,35.1
		l-0.6,0.2l-0.1,0l-4.2,1L74.4,164.8z"/>
	<path id="Path_200" class="st2" d="M82.9,12.3c7.7,4.3,16.4,6.6,25.2,6.7c3.6,0.1,7.2-0.4,10.6-1.4l5.8-2.2l3.7,5.2
		c2.2,3.2,5.3,5.8,8.8,7.4L145,31l-3.4,8.1c-3.2,7.6-3.8,19.2-1.8,33.6c1.4,9.6,0.9,19.4-1.4,28.9c-2.2,9.1-6,17.7-11.3,25.5
		c-10.5,15.6-26.5,27.4-45.1,33.3l-0.5,0.1l-3,0.7l-3-0.7l-0.5-0.1c-18.6-5.9-34.6-17.7-45.1-33.3c-5.3-7.8-9.1-16.4-11.3-25.5
		c-2.3-9.4-2.7-19.2-1.3-28.9c2-14.4,1.4-26-1.8-33.6L12.1,31l8.1-2.8c3.5-1.7,6.6-4.3,8.8-7.4l3.6-5.2l5.8,2.2
		c3.5,1,7,1.4,10.6,1.4c12.1-0.1,25.2-6.7,25.2-6.7l4.3-2.2L82.9,12.3z"/>
	<path id="Path_201" class="st0" d="M78.6,10.1l4.3,2.2c7.7,4.3,16.4,6.6,25.2,6.7c3.6,0.1,7.2-0.4,10.6-1.4l5.8-2.2l3.7,5.2
		c2.2,3.2,5.3,5.8,8.8,7.4L145,31l-3.4,8.1c-3.2,7.6-3.8,19.2-1.8,33.6c1.4,9.6,0.9,19.4-1.4,28.9c-2.2,9.1-6,17.7-11.3,25.5
		c-10.5,15.6-26.5,27.4-45.1,33.3l-0.5,0.1l-3,0.7L78.6,10.1z"/>
	<path id="Path_202" class="st1" d="M78.6,15.9L78.6,15.9l-2.8,1.4c-7.9,4.4-16.7,6.8-25.8,6.8c-3.8,0.1-7.6-0.4-11.2-1.5l-3.6-1.3
		L33,24.5c-2.5,3.6-5.9,6.4-9.8,8.2l-5,1.7l2.1,5c3.3,7.8,4,19.6,2,34c-1.3,8.9-0.9,18,1.3,26.8c2,8.5,5.6,16.5,10.5,23.7
		c9.8,14.5,24.8,25.5,42.1,31c0.4,0.1,0.9,0.2,1.3,0.4l1.2,0.3h0.1L78.6,15.9z"/>
	<path id="Path_203" class="st2" d="M78.6,15.9L78.6,15.9l2.7,1.4c7.9,4.4,16.8,6.8,25.8,6.8c3.8,0.1,7.6-0.4,11.2-1.5l3.6-1.3
		l2.3,3.2c2.5,3.6,5.9,6.4,9.8,8.2l5,1.7l-2.1,5c-3.3,7.8-4,19.6-1.9,34c1.3,8.9,0.8,18-1.3,26.8c-2,8.5-5.6,16.5-10.5,23.7
		c-9.8,14.5-24.8,25.5-42.1,31c-0.4,0.1-0.9,0.2-1.3,0.4l-1.2,0.3h-0.1L78.6,15.9z"/>
	<path id="Path_204" class="st0" d="M132.2,37.5c-4.9-2.2-9.2-5.6-12.2-10c0,0-18.5,6.6-41.2-5.7l-0.3-0.2l-0.3,0.2
		C55.6,34,37.1,27.4,37.1,27.4c-3.1,4.4-7.3,7.9-12.2,10c4.4,10.4,4,24.4,2.3,36.7c-4.9,34.4,17.2,65.5,50.4,76
		c0.3,0.1,0.8,0.2,1,0.3l1-0.3c33.2-10.5,55.2-41.6,50.4-76C128.2,61.8,127.8,47.9,132.2,37.5z"/>
	<path id="Path_205" class="st1" d="M115.3,67.2l-14.7,3.5l-1.7,10l7.6-1.8l0.4-2.1l-3.2,0.8l1-5.8l10.4-2.5l-1.6,9.5
		c-0.3,1.7-1.1,3.3-2.3,4.5c-1.1,1.3-2.6,2.2-4.2,2.6L96,88.6c-1.1,0.4-2.4,0.2-3.3-0.5c-0.9-0.7-1.4-1.8-1.3-3c0-0.2,0-0.3,0-0.5
		c0-0.2,0-0.3,0.1-0.5l2.2-13.3c0.3-1.7,1.1-3.3,2.3-4.5c1.1-1.3,2.6-2.2,4.3-2.6l16.3-3.9L115.3,67.2z"/>
	<path id="Path_206" class="st1" d="M88.7,67.7c-1-0.7-2.2-0.9-3.4-0.5L69,71l-1.2,7.4l7.1-1.7l1-0.2l6.5-1.6l-0.4,2.1l-6.6,1.6
		l-1,0.2l-7.1,1.7l-2.6,15.3l7.1-1.7l1.6-9.5l7.6-1.8l-1.6,9.5l7.2-1.7l1.6-9.5v-0.4c-0.1-0.8-0.4-1.6-1.1-2.1
		c1.2-1.3,1.9-2.4,2-3.3l0.6-3.7c0-0.2,0.1-0.3,0.1-0.5s0-0.3,0-0.5C90.1,69.5,89.6,68.4,88.7,67.7z"/>
	<path id="Path_207" class="st1" d="M49.5,92.3L51.9,78l0.5-3.1l-7.2,1.7l-4.2,24.9l19.9-4.7l1.3-7.5L49.5,92.3z"/>
</g>
<g id="Layer_4" transform="translate(31.705 62.232)">
	<path id="Path_208" class="st2" d="M101.5-10.7L-9.9,15.6l-0.1-9l111.5-26.3L101.5-10.7z"/>
	<path id="Path_209" class="st1" d="M111.2,29.4L-0.2,55.7l-0.1-9l111.5-26.3L111.2,29.4z"/>
	<g id="Group_15" transform="translate(26.881 68.577)">
		<path id="Path_210" class="st2" d="M-15.1-18.2l-3.4,0.8l0.7-4.9l1.2-0.3l-0.5,3.4l2.2-0.5L-15.1-18.2z"/>
		<path id="Path_211" class="st2" d="M-10.4-23.1L-10.4-23.1c0,0.1,0,0.2,0,0.2l-0.4,2.6c0,0.3-0.2,0.6-0.4,0.9
			c-0.2,0.2-0.4,0.4-0.7,0.5l-1.9,0.4c-0.2,0.1-0.4,0-0.6-0.1c-0.2-0.2-0.2-0.4-0.2-0.6v-0.1c0,0,0-0.1,0-0.1l0.4-2.6
			c0-0.3,0.2-0.6,0.4-0.9c0.2-0.2,0.4-0.4,0.7-0.5l1.9-0.4c0.2-0.1,0.4,0,0.6,0.1C-10.5-23.6-10.4-23.4-10.4-23.1z M-13-22l-0.3,2
			l1.3-0.3l0.3-2L-13-22z"/>
		<path id="Path_212" class="st2" d="M-6.2-24.1v0.1c0,0,0,0.1,0,0.1l-0.5,3.8L-8-19.9l0.5-3.4L-8.8-23l-0.5,3.4l-1.2,0.3l0.7-4.9
			l2.8-0.7c0.2-0.1,0.4,0,0.6,0.1C-6.3-24.6-6.2-24.3-6.2-24.1z"/>
		<path id="Path_213" class="st2" d="M-2-25.1C-2-25.1-2-25-2-25.1l0,0.2l-0.4,2.6c0,0.3-0.2,0.6-0.4,0.9C-3-21.2-3.2-21-3.5-20.9
			l-2.8,0.7l0.7-4.9l2.8-0.7c0.2-0.1,0.4,0,0.6,0.1C-2.1-25.5-2-25.3-2-25.1z M-4.6-24l-0.3,2l1.3-0.3l0.3-2L-4.6-24z"/>
		<path id="Path_214" class="st2" d="M2.2-26.1v0.1c0,0,0,0.1,0,0.1l-0.4,2.6c0,0.3-0.2,0.6-0.4,0.9C1.2-22.2,1-22,0.7-21.9
			l-1.9,0.4c-0.2,0.1-0.4,0-0.6-0.1C-1.9-21.8-2-22-2-22.2v-0.1c0,0,0-0.1,0-0.1l0.4-2.6c0-0.3,0.2-0.6,0.4-0.9
			c0.2-0.2,0.4-0.4,0.7-0.5l1.9-0.4c0.2-0.1,0.4,0,0.6,0.1C2.1-26.5,2.2-26.3,2.2-26.1z M-0.4-25l-0.3,2l1.3-0.3l0.3-2L-0.4-25z"/>
		<path id="Path_215" class="st2" d="M6.4-27.1v0.1c0,0,0,0.1,0,0.1l-0.5,3.8l-1.2,0.3l0.5-3.4L3.8-26l-0.5,3.4l-1.2,0.3l0.7-4.9
			l2.8-0.7c0.2-0.1,0.4,0,0.6,0.1C6.3-27.5,6.4-27.3,6.4-27.1z"/>
		<path id="Path_216" class="st2" d="M13.1-28.7v0.1c0,0,0,0.1,0,0.1l-0.1,0.7c-0.1,0.2-0.2,0.5-0.3,0.6c0.1,0.1,0.2,0.3,0.2,0.4
			v0.1l-0.3,1.9l-1.2,0.3l0.3-1.9L10.2-26L10-24.1l-1.2,0.3l0.7-4.9l2.8-0.7c0.2-0.1,0.4,0,0.6,0.1C13-29.1,13.1-28.9,13.1-28.7z
			 M10.4-27.5l-0.1,0.4l1.3-0.3l0.1-0.4L10.4-27.5z"/>
		<path id="Path_217" class="st2" d="M16.8-29.1l-2.2,0.5l-0.1,0.4l2.2-0.5l-0.2,1.1L14.4-27l-0.1,0.4l2.2-0.5l-0.2,1.5l-3.4,0.8
			l0.7-4.9l3.4-0.8L16.8-29.1z"/>
		<path id="Path_218" class="st2" d="M20.7-30l-2.2,0.5L18.4-29l2.2-0.5l-0.2,1.1l-2.2,0.5L18-26l-1.2,0.3l0.7-4.9l3.5-0.8L20.7-30z
			"/>
		<path id="Path_219" class="st2" d="M24.6-30.9l-2.2,0.5l-0.1,0.4l2.2-0.5l-0.2,1.1l-2.2,0.5l-0.1,0.4l2.2-0.5l-0.2,1.5l-3.4,0.8
			l0.7-4.9l3.4-0.8L24.6-30.9z"/>
		<path id="Path_220" class="st2" d="M28.8-32.4v0.1c0,0,0,0.1,0,0.1l-0.1,0.7c0,0.2-0.2,0.5-0.3,0.6c0.1,0.1,0.2,0.3,0.2,0.4v0.1
			l-0.3,1.9L27-28.1l0.3-1.9L26-29.7l-0.3,1.9l-1.2,0.3l0.7-4.9l2.8-0.7c0.2-0.1,0.4,0,0.6,0.1C28.7-32.8,28.8-32.6,28.8-32.4z
			 M26.2-31.3l-0.1,0.4l1.3-0.3l0-0.4L26.2-31.3z"/>
		<path id="Path_221" class="st2" d="M32.6-32.8l-2.2,0.5l-0.1,0.4l2.2-0.5l-0.2,1.1l-2.2,0.5l-0.1,0.4l2.2-0.5l-0.2,1.5l-3.4,0.8
			l0.7-4.9l3.4-0.8L32.6-32.8z"/>
		<path id="Path_222" class="st2" d="M36.5-33.7l-2.2,0.5l-0.1,0.4l2.2-0.5l-0.2,1.1l-2.2,0.5L34-31.2l2.2-0.5L36-30.2l-3.4,0.8
			l0.7-4.9l3.4-0.8L36.5-33.7z"/>
		<path id="Path_223" class="st2" d="M40.7-34.7l-2.5,0.6L38-33.6l1.6-0.4c0.2-0.1,0.4,0,0.6,0.1c0.2,0.2,0.3,0.4,0.2,0.6v0.1
			c0,0,0,0.1,0,0.1l-0.1,0.7c0,0.3-0.2,0.6-0.4,0.9c-0.2,0.2-0.4,0.4-0.7,0.5l-2.8,0.7l0.2-1.5l2.6-0.6l0.1-0.4l-1.6,0.4
			c-0.2,0.1-0.4,0-0.6-0.1c-0.2-0.2-0.2-0.4-0.2-0.6v-0.2l0.1-0.7c0-0.3,0.2-0.6,0.4-0.9c0.2-0.2,0.4-0.4,0.7-0.5l2.8-0.7L40.7-34.7
			z"/>
		<path id="Path_224" class="st2" d="M47.3-36.2l-2.6,0.6l-0.3,2l1.3-0.3l0.1-0.4l-0.6,0.1l0.2-1.2l1.8-0.4L47-33.9
			c0,0.3-0.2,0.6-0.4,0.9c-0.2,0.2-0.4,0.4-0.7,0.5L44-32.1c-0.2,0.1-0.4,0-0.6-0.1c-0.2-0.2-0.2-0.4-0.2-0.6c0,0,0-0.1,0-0.1v-0.1
			l0.4-2.6c0-0.3,0.2-0.6,0.4-0.9c0.2-0.2,0.4-0.4,0.7-0.5l2.8-0.7L47.3-36.2z"/>
		<path id="Path_225" class="st2" d="M51.6-37.7v0.1c0,0,0,0.1,0,0.1l-0.1,0.7c-0.1,0.2-0.2,0.5-0.3,0.6c0.1,0.1,0.2,0.3,0.2,0.4
			v0.1l-0.3,1.9l-1.2,0.3l0.3-1.9l-1.3,0.3l-0.3,1.9l-1.2,0.3l0.7-4.9l2.8-0.7c0.2-0.1,0.4,0,0.6,0.1C51.5-38.2,51.6-38,51.6-37.7z
			 M49-36.6l-0.1,0.4l1.3-0.3l0.1-0.4L49-36.6z"/>
		<path id="Path_226" class="st2" d="M55.8-38.7C55.8-38.7,55.8-38.7,55.8-38.7l0,0.2l-0.4,2.6c0,0.3-0.2,0.6-0.4,0.9
			c-0.2,0.2-0.4,0.4-0.7,0.5l-1.9,0.4c-0.2,0.1-0.4,0-0.6-0.1c-0.2-0.2-0.2-0.4-0.2-0.6v-0.1c0,0,0-0.1,0-0.1l0.3-2.6
			c0.1-0.3,0.2-0.6,0.4-0.9c0.2-0.2,0.4-0.4,0.7-0.5l1.8-0.4c0.2-0.1,0.4,0,0.6,0.1C55.7-39.2,55.8-39,55.8-38.7z M53.2-37.6l-0.3,2
			l1.3-0.3l0.3-2L53.2-37.6z"/>
		<path id="Path_227" class="st2" d="M59.6-36.9c0,0.3-0.2,0.6-0.4,0.9c-0.2,0.2-0.4,0.4-0.7,0.5l-1.9,0.4c-0.2,0.1-0.4,0-0.6-0.1
			c-0.2-0.2-0.2-0.4-0.2-0.6V-36l0.5-3.8l1.2-0.3l-0.5,3.4l1.3-0.3l0.5-3.4l1.2-0.3L59.6-36.9z"/>
		<path id="Path_228" class="st2" d="M64.2-40.7L64.2-40.7c0,0.1,0,0.2,0,0.2l-0.1,0.7c0,0.3-0.2,0.6-0.4,0.9
			c-0.2,0.2-0.4,0.4-0.7,0.5L61.4-38l-0.3,1.9l-1.2,0.3l0.7-4.9l2.8-0.7c0.2-0.1,0.4,0,0.6,0.1C64.1-41.1,64.2-40.9,64.2-40.7z
			 M61.6-39.6l-0.1,0.4l1.3-0.3l0.1-0.4L61.6-39.6z"/>
	</g>
	<g id="Group_16" transform="translate(36.75 12.17)">
		<path id="Path_229" class="st1" d="M-17.9-9L-20-8.5l-0.1,0.4l2.1-0.5l-0.2,1.1l-2.1,0.5l-0.1,0.4l2.1-0.5l-0.2,1.4L-21.7-5
			l0.7-4.5l3.3-0.8L-17.9-9z"/>
		<path id="Path_230" class="st1" d="M-13.9-10l-2.5,0.6L-16.4-9l1.5-0.4c0.2-0.1,0.4,0,0.6,0.1c0.2,0.1,0.2,0.3,0.2,0.6v0.1
			c0,0,0,0.1,0,0.1l-0.1,0.7c0,0.3-0.2,0.6-0.4,0.8c-0.2,0.2-0.4,0.4-0.7,0.5L-18-5.9l0.2-1.4l2.5-0.6l0.1-0.4l-1.5,0.4
			c-0.2,0.1-0.4,0-0.6-0.1c-0.1-0.1-0.2-0.3-0.2-0.5c0,0,0-0.1,0-0.1v-0.1l0.1-0.7c0.1-0.3,0.2-0.6,0.4-0.8c0.2-0.2,0.4-0.4,0.7-0.5
			l2.7-0.6L-13.9-10z"/>
		<path id="Path_231" class="st1" d="M-9.8-10.9l-1.2,0.3l-0.5,3.2l-1.2,0.3l0.5-3.2l-1.2,0.3l0.2-1.4l3.7-0.9L-9.8-10.9z"/>
		<path id="Path_232" class="st1" d="M-7.5-8.4l0-0.6l-1.1,0.3l-0.2,0.6L-10-7.8l1.6-4.8l1.8-0.4l0.3,4.3L-7.5-8.4z M-7.7-11.4
			l-0.5,1.5l0.6-0.2L-7.7-11.4z"/>
		<path id="Path_233" class="st1" d="M-1.7-13.3L-1.7-13.3c0,0.1,0,0.1,0,0.2l-0.1,0.7C-1.9-12.2-2-12-2.2-11.8
			c0.1,0.1,0.2,0.2,0.2,0.4v0.1l-0.1,0.7c0,0.3-0.2,0.6-0.4,0.8c-0.2,0.2-0.4,0.4-0.7,0.5L-6-8.8l0.7-4.5l2.9-0.7
			c0.2-0.1,0.4,0,0.6,0.1C-1.8-13.7-1.7-13.5-1.7-13.3z M-4.6-10.8l-0.1,0.4l1.4-0.3l0.1-0.4L-4.6-10.8z M-4.4-12.2l-0.1,0.4
			l1.4-0.3l0.1-0.4L-4.4-12.2z"/>
		<path id="Path_234" class="st1" d="M1.5-10.5l-3.3,0.8l0.7-4.5L0-14.5l-0.5,3.2l2.1-0.5L1.5-10.5z"/>
		<path id="Path_235" class="st1" d="M3.1-10.9l-1.2,0.3l0.7-4.5l1.2-0.3L3.1-10.9z"/>
		<path id="Path_236" class="st1" d="M7.6-15l-2.5,0.6l-0.1,0.4l1.5-0.4c0.2-0.1,0.4,0,0.6,0.1c0.2,0.1,0.2,0.3,0.2,0.6v0.1
			c0,0,0,0.1,0,0.1l-0.1,0.7c0,0.3-0.2,0.6-0.4,0.8c-0.2,0.2-0.4,0.4-0.7,0.5L3.5-11l0.2-1.4l2.5-0.6l0.1-0.4L4.7-13
			c-0.2,0.1-0.4,0-0.6-0.1c-0.2-0.1-0.2-0.3-0.2-0.6v-0.1c0,0,0-0.1,0-0.1L4-14.5c0-0.3,0.2-0.6,0.4-0.8c0.2-0.2,0.4-0.4,0.7-0.5
			l2.7-0.6L7.6-15z"/>
		<path id="Path_237" class="st1" d="M11.2-12.8L10-12.5l0.3-1.7L9-14l-0.3,1.7l-1.2,0.3l0.7-4.5l1.2-0.3L9.1-15l1.3-0.3l0.3-1.7
			l1.2-0.3L11.2-12.8z"/>
		<path id="Path_238" class="st1" d="M15.4-16.9l-2.1,0.5L13.2-16l2.1-0.5l-0.2,1.1L13-14.9L13-14.6l2.1-0.5l-0.2,1.4l-3.3,0.8
			l0.7-4.5l3.3-0.8L15.4-16.9z"/>
		<path id="Path_239" class="st1" d="M19.5-18.3L19.5-18.3c0,0.1,0,0.1,0,0.2l-0.4,2.4c0,0.3-0.2,0.6-0.4,0.8
			c-0.2,0.2-0.4,0.4-0.7,0.5l-2.7,0.7l0.7-4.5l2.7-0.6c0.2-0.1,0.4,0,0.6,0.1C19.4-18.7,19.5-18.5,19.5-18.3L19.5-18.3z M17-17.2
			l-0.3,1.8l1.3-0.3l0.3-1.8L17-17.2z"/>
		<path id="Path_240" class="st1" d="M25.9-19.8C25.9-19.8,25.9-19.8,25.9-19.8l0,0.2L25.8-19c-0.1,0.3-0.2,0.6-0.4,0.8
			c-0.2,0.2-0.4,0.4-0.7,0.5l-1.5,0.4L23.1-17l2.5-0.6l-0.2,1.4l-3.6,0.9l0.3-1.7c0-0.3,0.2-0.6,0.4-0.8c0.2-0.2,0.4-0.4,0.7-0.5
			l1.5-0.4l0.1-0.4l-2.5,0.6l0.2-1.4l2.7-0.6c0.2-0.1,0.4,0,0.6,0.1C25.8-20.2,25.9-20,25.9-19.8z"/>
		<path id="Path_241" class="st1" d="M30-20.8L30-20.8c0,0.1,0,0.1,0,0.2l-0.4,2.4c0,0.3-0.2,0.6-0.4,0.8c-0.2,0.2-0.4,0.4-0.7,0.5
			l-1.8,0.4c-0.2,0.1-0.4,0-0.6-0.1c-0.1-0.1-0.2-0.3-0.2-0.6v-0.2l0.4-2.4c0-0.3,0.2-0.6,0.4-0.8c0.2-0.2,0.4-0.4,0.7-0.5l1.8-0.4
			c0.2-0.1,0.4,0,0.6,0.1C29.9-21.2,30-21,30-20.8z M27.4-19.7l-0.3,1.8l1.3-0.3l0.3-1.8L27.4-19.7z"/>
		<path id="Path_242" class="st1" d="M34-21.7L34-21.7c0,0.1,0,0.1,0,0.2l-0.4,2.4c0,0.3-0.2,0.6-0.4,0.8c-0.2,0.2-0.4,0.4-0.7,0.5
			l-1.8,0.4c-0.2,0.1-0.4,0-0.6-0.1C30-17.7,30-17.9,30-18.1v-0.2l0.4-2.4c0-0.3,0.2-0.6,0.4-0.8c0.2-0.2,0.4-0.4,0.7-0.5l1.8-0.4
			c0.2-0.1,0.4,0,0.6,0.1C33.9-22.2,34-22,34-21.7z M31.5-20.7l-0.3,1.8l1.3-0.3l0.3-1.8L31.5-20.7z"/>
		<path id="Path_243" class="st1" d="M35.3-18.5l-1.5,0.3l2-3.5l-1.5,0.4l0.2-1.4l3.7-0.9L35.3-18.5z"/>
	</g>
</g>
</svg>
