<svg id="Layer_1" data-name="Layer 1" xmlns="http://www.w3.org/2000/svg" viewBox="0 0 849.24 342.54"><defs><style>.cls-1{fill:#1e1b1c;}.cls-2{fill:#fff;}.cls-3{fill:#c12026;}</style></defs><g id="Group_47" data-name="Group 47"><g id="Layer_2" data-name="Layer 2"><g id="newlogo"><path id="Path_339" data-name="Path 339" class="cls-1" d="M147.25,340l-.32-.08-1.6-.48a190.61,190.61,0,0,1-100.18-74,174.75,174.75,0,0,1-25.33-57.16,172.83,172.83,0,0,1-3-64.8c3.52-24.9,2.63-46-2.4-57.92L0,51.5,33.66,39.69a28.35,28.35,0,0,0,9.73-8.64L58.79,9.33l24.27,9a57.42,57.42,0,0,0,15.17,1.79h.28c19-.07,41.53-11,42.6-11.52L157.89,0,175,8.77l.2.1a87.67,87.67,0,0,0,42,11.25,58.66,58.66,0,0,0,15.55-1.82l24.21-9L272.36,31a28.26,28.26,0,0,0,9.76,8.65L315.8,51.5l-14.41,34c-5,11.91-5.89,33-2.38,57.92a173.3,173.3,0,0,1-28.37,122,190.61,190.61,0,0,1-100.21,74l-1.57.49-.32.07-10.64,2.56Z"/><path id="Path_340" data-name="Path 340" class="cls-2" d="M149.53,331.21l-.18,0-1.27-.38a181.62,181.62,0,0,1-95.43-70.45,165.91,165.91,0,0,1-24-54.2,163.73,163.73,0,0,1-2.88-61.39c3.79-26.87,2.73-49.17-3-62.72L12.09,56.87l25.05-8.78A37,37,0,0,0,50.79,36.31l11.38-16,18,6.67a63.64,63.64,0,0,0,18,2.28h.31c21.49-.08,45.83-12.09,46.64-12.49l12.72-6.52,12.86,6.6.11.05A96.32,96.32,0,0,0,217.2,29.21a66.83,66.83,0,0,0,18.4-2.28l18-6.67L265,36.31a36.85,36.85,0,0,0,13.65,11.78l25,8.78L293,82c-5.74,13.55-6.83,35.85-3,62.72a163.53,163.53,0,0,1-2.88,61.39,166.05,166.05,0,0,1-24,54.2,181.67,181.67,0,0,1-95.47,70.45l-1.26.38-.15,0-8.37,2Z"/><path id="Path_341" data-name="Path 341" class="cls-3" d="M166.54,24.83A105.43,105.43,0,0,0,217.2,38.28a73.9,73.9,0,0,0,21.33-2.75l11.68-4.33,7.36,10.37a45.69,45.69,0,0,0,17.69,15l16.29,5.69-6.88,16.26C278.2,93.75,277,117.11,281,146a154.32,154.32,0,0,1-2.73,58,156.16,156.16,0,0,1-22.71,51.24,172.58,172.58,0,0,1-90.65,66.9l-1,.28-6.09,1.47-6.12-1.47-.93-.28a172.66,172.66,0,0,1-90.69-66.9A157.37,157.37,0,0,1,37.45,204a154.94,154.94,0,0,1-2.71-58c4.07-28.89,2.81-52.25-3.63-67.52L24.23,62.22l16.28-5.69a46,46,0,0,0,17.7-15L65.54,31.2l11.68,4.33a72,72,0,0,0,21.36,2.75c24.24-.1,50.71-13.47,50.71-13.47l8.6-4.4Z"/><path id="Path_342" data-name="Path 342" class="cls-1" d="M157.9,20.41l8.64,4.42a105.47,105.47,0,0,0,50.67,13.45,73.94,73.94,0,0,0,21.33-2.75l11.68-4.33,7.36,10.37a45.69,45.69,0,0,0,17.69,15l16.28,5.69-6.87,16.26C278.21,93.75,277,117.11,281,146a154.32,154.32,0,0,1-2.73,58,156.34,156.34,0,0,1-22.7,51.24A172.64,172.64,0,0,1,165,322.14l-1,.28-6.09,1.47Z"/><path id="Path_343" data-name="Path 343" class="cls-2" d="M157.89,32h0l-5.53,2.83a107.84,107.84,0,0,1-51.83,13.76,77,77,0,0,1-22.58-3l-7.18-2.66-4.52,6.35a49.12,49.12,0,0,1-19.8,16.55l-10,3.52,4.21,10c6.67,15.75,8,39.41,3.94,68.38a143.74,143.74,0,0,0,2.53,53.92,145.47,145.47,0,0,0,21.11,47.66,161,161,0,0,0,84.61,62.39c.84.26,1.78.49,2.68.71l2.33.53h.1Z"/><path id="Path_344" data-name="Path 344" class="cls-3" d="M157.89,32h0l5.52,2.83a107.86,107.86,0,0,0,51.85,13.76,77.23,77.23,0,0,0,22.57-3L245,42.88l4.53,6.35a48.9,48.9,0,0,0,19.77,16.55l10,3.52-4.22,10c-6.65,15.75-8,39.41-3.92,68.38a144.18,144.18,0,0,1-23.64,101.58A161,161,0,0,1,163,311.64c-.84.26-1.78.49-2.68.71l-2.33.53h-.1Z"/><path id="Path_345" data-name="Path 345" class="cls-1" d="M265.77,75.32a58.25,58.25,0,0,1-24.55-20.2S204,68.44,158.45,43.67l-.56-.31-.55.31c-45.56,24.77-82.8,11.45-82.8,11.45A58.24,58.24,0,0,1,50,75.32c8.82,20.88,8.11,49,4.62,73.79C44.89,218.31,89.3,280.78,155.92,302c.58.18,1.57.41,2,.51l2-.51c66.64-21.06,111-83.65,101.25-152.85C257.63,124.31,256.94,96.2,265.77,75.32Z"/><path id="Path_346" data-name="Path 346" class="cls-2" d="M248.61,133.64l-35.7,8.51-4,24.14L227.21,162l.88-5.06-7.77,1.83,2.35-14.08,25.12-6-3.88,23.11A23.28,23.28,0,0,1,228,179.13l-26.07,6.19a9,9,0,0,1-8.05-1.28,8.73,8.73,0,0,1-3.14-7.26c0-.4,0-.79,0-1.19a7.9,7.9,0,0,1,.15-1.19l5.34-32.16a20.85,20.85,0,0,1,5.6-10.89A20.39,20.39,0,0,1,212.14,125l39.51-9.39Z"/><path id="Path_347" data-name="Path 347" class="cls-2" d="M184.25,134.68a9.25,9.25,0,0,0-8.14-1.25l-39.61,9.42-3,18.05,17.31-4.12,2.54-.58,15.85-3.78-.88,5.06-15.92,3.78-2.41.58L132.66,166l-6.25,37.19L143.7,199l3.94-23.11L166,171.57l-4,23.1,17.38-4.11,4-23.14v-1a7.62,7.62,0,0,0-2.59-5.19c2.93-3.23,4.58-5.85,4.91-7.92l1.53-9.05c.06-.4.12-.79.15-1.19s.06-.76.06-1.16A8.61,8.61,0,0,0,184.25,134.68Z"/><path id="Path_348" data-name="Path 348" class="cls-2" d="M89.16,194.34,95,159.59l1.28-7.5-17.41,4.14L68.79,216.54l48.14-11.43L120,187Z"/></g><g id="Layer_4" data-name="Layer 4"><path id="Path_349" data-name="Path 349" class="cls-3" d="M267.82,101.37,43.72,154.29l-.2-12.14L267.61,89.27Z"/><path id="Path_352" data-name="Path 352" class="cls-2" d="M287.33,188,67.06,240l-4-11.52,224.09-52.89Z"/></g></g><g id="Group_39" data-name="Group 39"><g id="Group_33" data-name="Group 33"><path id="Path_387" data-name="Path 387" class="cls-1" d="M407.36,151.94H358.5l10.25-58.76H386.4l-7.24,41.16h31.35Z"/><path id="Path_388" data-name="Path 388" class="cls-1" d="M474.3,104.54a11.46,11.46,0,0,1-.06,1.17c0,.37-.1.76-.15,1.16l-5.47,31.34a15.94,15.94,0,0,1-5.77,9.72,15.77,15.77,0,0,1-10.41,4H426a10.92,10.92,0,0,1-8.17-3.23,11.29,11.29,0,0,1-3.19-8.14c0-.4,0-.8,0-1.19s.08-.78.13-1.18l5.43-31.34a16.94,16.94,0,0,1,16.14-13.69h26.43a11.22,11.22,0,0,1,8.26,3.24A11,11,0,0,1,474.3,104.54Zm-37.15,6.25-4.09,23.54h18.6l4.13-23.54Z"/><path id="Path_389" data-name="Path 389" class="cls-1" d="M533.06,104.54a9.18,9.18,0,0,1-.07,1.17c0,.37-.09.76-.14,1.16l-7.92,45.07H507.28l7.27-41.16H495.91l-7.23,41.16H471.16L481.4,93.18h40.17a11.17,11.17,0,0,1,8.26,3.23A11,11,0,0,1,533.06,104.54Z"/><path id="Path_390" data-name="Path 390" class="cls-1" d="M591.82,104.54a11.46,11.46,0,0,1-.06,1.17c0,.37-.1.76-.15,1.16l-5.47,31.34a15.94,15.94,0,0,1-5.77,9.72,15.77,15.77,0,0,1-10.42,4h-40l10.25-58.76h40.16a11.17,11.17,0,0,1,8.26,3.23A11,11,0,0,1,591.82,104.54Zm-37.15,6.25-4.09,23.55h18.6l4.13-23.55Z"/><path id="Path_391" data-name="Path 391" class="cls-1" d="M650.58,104.54a11.46,11.46,0,0,1-.06,1.17c0,.37-.1.76-.16,1.16l-5.46,31.34a16,16,0,0,1-5.77,9.72,15.77,15.77,0,0,1-10.42,4H602.28a10.92,10.92,0,0,1-8.18-3.23,11.28,11.28,0,0,1-3.18-8.14c0-.4,0-.8,0-1.19s.07-.78.13-1.18l5.42-31.34a17,17,0,0,1,16.14-13.69h26.44a11.22,11.22,0,0,1,8.26,3.24A11,11,0,0,1,650.58,104.54Zm-37.15,6.25-4.09,23.54h18.6l4.13-23.54Z"/><path id="Path_392" data-name="Path 392" class="cls-1" d="M709.34,104.54a11.48,11.48,0,0,1-.07,1.17c0,.37-.09.76-.15,1.16l-7.92,45.07H683.55l7.27-41.16H672.18L665,151.94h-17.5l10.24-58.76h40.16a11.18,11.18,0,0,1,8.27,3.23A11,11,0,0,1,709.34,104.54Z"/></g><g id="Group_34" data-name="Group 34"><path id="Path_393" data-name="Path 393" class="cls-1" d="M406.11,181.63a8.92,8.92,0,0,1-.07,1.16c0,.38-.09.76-.15,1.16l-1.54,8.83q-.53,3-5,6.84a9.92,9.92,0,0,1,2.63,5.9v1L398,229H380.32l4-22.52H365.72l-4,22.52H344.21l10.24-58.76h40.16a11.18,11.18,0,0,1,8.27,3.23A11,11,0,0,1,406.11,181.63ZM369,187.87l-.86,4.91h18.59l.91-4.91Z"/><path id="Path_394" data-name="Path 394" class="cls-1" d="M459.06,187.87H427.72l-.86,4.91H458.2l-2.37,13.73H424.49l-.86,4.91H455L451.83,229H403l10.25-58.76h49Z"/><path id="Path_395" data-name="Path 395" class="cls-1" d="M513,187.87H481.61l-.86,4.91h31.34l-2.37,13.73H478.39l-4,22.52H456.86l10.25-58.76h49Z"/><path id="Path_396" data-name="Path 396" class="cls-1" d="M566.85,187.87H535.51l-.86,4.91H566l-2.37,13.73H532.28l-.86,4.91h31.34L559.61,229H510.75L521,170.27h49Z"/><path id="Path_397" data-name="Path 397" class="cls-1" d="M626.55,181.63a8.92,8.92,0,0,1-.06,1.16c0,.37-.09.76-.15,1.16l-1.55,8.83c-.35,2-2,4.29-5,6.84a9.86,9.86,0,0,1,2.63,5.9v1l-4,22.52H600.77l4-22.52H586.17l-4,22.52H564.64l10.25-58.76h40.16a11.18,11.18,0,0,1,8.27,3.23A11,11,0,0,1,626.55,181.63Zm-37.15,6.24-.86,4.91h18.6l.9-4.91Z"/><path id="Path_398" data-name="Path 398" class="cls-1" d="M679.5,187.87H648.17l-.87,4.91h31.34l-2.37,13.73H644.94l-.86,4.91h31.34L672.27,229H623.41l10.25-58.76h49Z"/><path id="Path_399" data-name="Path 399" class="cls-1" d="M733.4,187.87H702.06l-.86,4.91h31.34l-2.37,13.73H698.83l-.86,4.91h31.34L726.17,229H677.31l10.24-58.76h49Z"/><path id="Path_400" data-name="Path 400" class="cls-1" d="M787.29,187.87H756l-.86,4.91h31.34l-2.37,13.73H752.72l-.86,4.91H783.2L780.06,229H731.2l10.24-58.76h49Z"/><path id="Path_401" data-name="Path 401" class="cls-1" d="M846.1,187.87H809.85l-.86,4.91h22.52a11.3,11.3,0,0,1,8.35,3.23,11,11,0,0,1,3.23,8.13,9.5,9.5,0,0,1-.07,1.19c0,.39-.09.78-.15,1.18l-1.55,8.78a16,16,0,0,1-5.76,9.73,15.78,15.78,0,0,1-10.42,4h-40l3-17.61h36.24l.91-4.91H802.71a11.22,11.22,0,0,1-8.31-3.23,11,11,0,0,1-3.23-8.05c0-.43,0-.85,0-1.25s.08-.81.13-1.2l1.6-8.83a16.94,16.94,0,0,1,16.14-13.69h40.16Z"/></g><g id="Group_36" data-name="Group 36"><g id="Group_35" data-name="Group 35"><path id="Path_402" data-name="Path 402" class="cls-1" d="M390.61,265H354.36l-4.09,23.54h18.6l.9-4.9H361.9l2.36-13.74h25.49l-3.92,22.52a17.11,17.11,0,0,1-16.18,13.73H343.21a10.9,10.9,0,0,1-8.17-3.23,11.29,11.29,0,0,1-3.19-8.14c0-.4,0-.8,0-1.18s.07-.79.13-1.19L337.44,261a17,17,0,0,1,16.15-13.69h40.16Z"/><path id="Path_403" data-name="Path 403" class="cls-1" d="M450.27,258.72a11.41,11.41,0,0,1-.06,1.16c0,.37-.1.76-.15,1.16l-1.55,8.82c-.35,2-2,4.3-5,6.85a9.83,9.83,0,0,1,2.63,5.9v1l-4,22.51H424.49l4-22.51H409.89l-4,22.51H388.36l10.25-58.76h40.16a11.21,11.21,0,0,1,8.27,3.23A11,11,0,0,1,450.27,258.72ZM413.12,265l-.86,4.9h18.6l.9-4.9Z"/><path id="Path_404" data-name="Path 404" class="cls-1" d="M509,258.72a9.14,9.14,0,0,1-.07,1.16c0,.37-.09.76-.15,1.16l-5.47,31.34a16,16,0,0,1-5.76,9.73,15.78,15.78,0,0,1-10.42,4H460.74a10.89,10.89,0,0,1-8.18-3.23,11.33,11.33,0,0,1-3.19-8.14c0-.4,0-.79.05-1.18s.07-.78.13-1.19L455,261a16.93,16.93,0,0,1,16.14-13.68h26.43a11.18,11.18,0,0,1,8.27,3.23A11,11,0,0,1,509,258.72ZM471.89,265,467.8,288.5h18.59L490.53,265Z"/><path id="Path_405" data-name="Path 405" class="cls-1" d="M562.11,292.38a16,16,0,0,1-5.76,9.73,15.78,15.78,0,0,1-10.42,4H519.5a10.89,10.89,0,0,1-8.18-3.23,11.33,11.33,0,0,1-3.19-8.14c0-.4,0-.79,0-1.18s.08-.78.13-1.19l7.84-45h17.65l-7.23,41.15h18.59l7.23-41.15H570Z"/><path id="Path_406" data-name="Path 406" class="cls-1" d="M626.55,258.72a9.11,9.11,0,0,1-.06,1.16c0,.37-.09.76-.15,1.16l-1.55,8.82a16.29,16.29,0,0,1-5.68,9.73,15.74,15.74,0,0,1-10.38,4H586.18l-4,22.51H564.65l10.25-58.76h40.16a11.21,11.21,0,0,1,8.27,3.23A11,11,0,0,1,626.55,258.72ZM589.4,265l-.86,4.9h18.6l.9-4.9Z"/></g></g><g id="Group_38" data-name="Group 38"><g id="Group_37" data-name="Group 37"><path id="Path_407" data-name="Path 407" class="cls-2" d="M415.59,48H391.92l-.65,3.21h23.67l-1.79,9H389.48l-.65,3.2h23.68l-2.38,11.52h-36.9L381,36.44h37Z"/><path id="Path_408" data-name="Path 408" class="cls-2" d="M460,48H432.63L432,51.16h17a9.26,9.26,0,0,1,6.3,2.11,6.89,6.89,0,0,1,2.39,6.09c0,.25-.07.51-.12.77l-1.17,5.74A10.27,10.27,0,0,1,452,72.24a13.05,13.05,0,0,1-7.87,2.61H413.92l2.27-11.51h27.38l.69-3.21h-17A9.21,9.21,0,0,1,420.94,58a6.77,6.77,0,0,1-2.44-5.26c0-.28,0-.56,0-.82s0-.52.09-.79l1.21-5.77a10.15,10.15,0,0,1,4.29-6.33,13.24,13.24,0,0,1,7.9-2.62h30.35Z"/><path id="Path_409" data-name="Path 409" class="cls-2" d="M504.4,48H490.71l-5.47,26.91H471.91L477.41,48H463.72l2.34-11.52h40.72Z"/><path id="Path_410" data-name="Path 410" class="cls-2" d="M516.68,74.86H505.56l1.92-9.6H518.6Z"/><path id="Path_411" data-name="Path 411" class="cls-2" d="M590.15,43.86a6.64,6.64,0,0,1,0,.77q0,.36-.12.75l-1.17,5.78a10.44,10.44,0,0,1-4.29,6.36,13,13,0,0,1-7.84,2.62h-17l-.65,3.2h27.38L584,74.86H543.38l3-14.72a10.07,10.07,0,0,1,4.26-6.34,12.89,12.89,0,0,1,7.87-2.64h17l.69-3.21H548.78l2.34-11.51h30.34a9.2,9.2,0,0,1,6.24,2.11A6.77,6.77,0,0,1,590.15,43.86Z"/><path id="Path_412" data-name="Path 412" class="cls-2" d="M634.53,43.86a6.62,6.62,0,0,1,0,.77q-.06.36-.12.75l-4.13,20.5a10.31,10.31,0,0,1-4.36,6.36A13.06,13.06,0,0,1,618,74.86h-20a9,9,0,0,1-6.18-2.12,6.89,6.89,0,0,1-2.41-5.32,6.51,6.51,0,0,1,0-.77c0-.25,0-.51.09-.77l4.09-20.49a10.2,10.2,0,0,1,4.3-6.33,13.21,13.21,0,0,1,7.9-2.62h20a9.2,9.2,0,0,1,6.24,2.11A6.73,6.73,0,0,1,634.53,43.86ZM606.47,48l-3.09,15.39h14L620.55,48Z"/><path id="Path_413" data-name="Path 413" class="cls-2" d="M678.92,43.86a5,5,0,0,1,0,.77c0,.24-.07.49-.11.75l-4.13,20.5a10.29,10.29,0,0,1-4.36,6.36,13.13,13.13,0,0,1-7.87,2.62h-20a9,9,0,0,1-6.18-2.12,6.85,6.85,0,0,1-2.4-5.32c0-.26,0-.52,0-.77s.06-.51.1-.77l4.1-20.5a10.15,10.15,0,0,1,4.29-6.33,13.24,13.24,0,0,1,7.9-2.62h20a9.2,9.2,0,0,1,6.24,2.11A6.75,6.75,0,0,1,678.92,43.86ZM650.86,48l-3.09,15.39h14.05L664.94,48Z"/><path id="Path_414" data-name="Path 414" class="cls-2" d="M692.74,74.86H676.55L699,48H682l2.34-11.52H725Z"/></g></g></g></g></svg>