<?xml version="1.0" encoding="utf-8"?>
<!-- Generator: Adobe Illustrator 24.3.0, SVG Export Plug-In . SVG Version: 6.00 Build 0)  -->
<svg version="1.1" id="Layer_1" xmlns="http://www.w3.org/2000/svg" xmlns:xlink="http://www.w3.org/1999/xlink" x="0px" y="0px"
	 viewBox="0 0 549.7 309.2" style="enable-background:new 0 0 549.7 309.2;" xml:space="preserve">
<style type="text/css">
	.st0{fill:#1E1C1C;}
	.st1{fill:#FFFFFF;}
	.st2{fill:#C11010;}
	.st3{display:none;fill:#C11010;}
	.st4{display:none;fill:#FFFFFF;}
	.st5{display:none;}
	.st6{display:inline;fill:#C11010;}
	.st7{display:inline;fill:#FFFFFF;}
</style>
<g id="Layer_2_4_">
	<g id="newlogo_6_">
		<path class="st0" d="M142.2,235.3H142l-0.8-0.2c-19.7-6.2-36.7-18.8-47.9-35.4c-5.6-8.3-9.7-17.6-12.1-27.3
			c-2.4-10.1-2.9-20.7-1.5-31c1.7-11.9,1.3-22-1.1-27.7l-6.9-16.3l16.1-5.6c1.9-1,3.4-2.4,4.7-4.1l7.4-10.4l11.6,4.3
			c0.6,0.2,3.2,0.9,7.3,0.9h0.1c9.1,0,19.9-5.3,20.4-5.5l8-4.1l8.2,4.2h0.1c6.6,3.6,13.3,5.4,20.1,5.4c4.1,0,6.8-0.7,7.4-0.9
			l11.6-4.3l7.4,10.4c1.8,2.6,4,3.8,4.7,4.1l16.1,5.6l-6.9,16.3c-2.4,5.7-2.8,15.8-1.1,27.7c1.5,10.4,1,20.9-1.5,31
			c-2.4,9.8-6.5,19-12.1,27.3c-11.3,16.5-28.3,29-48,35.3l-0.7,0.2h-0.2l-5.1,1.2L142.2,235.3z"/>
		<path class="st1" d="M143.3,231.1L143.3,231.1l-0.7-0.2c-18.8-6-35-17.9-45.6-33.7c-5.4-7.9-9.2-16.7-11.5-25.9
			c-2.3-9.6-2.8-19.6-1.4-29.3c1.8-12.8,1.3-23.5-1.4-30l-5.1-12l12-4.2c0.7-0.3,3.9-2,6.5-5.6l5.4-7.7l8.6,3.2
			c0.6,0.2,3.8,1.1,8.6,1.1h0.1c10.3,0,21.9-5.8,22.3-6l6.1-3.1l6.2,3.2l0,0c7.2,3.9,14.7,5.9,22.2,5.9c5,0,8.3-0.9,8.8-1.1l8.6-3.2
			l5.4,7.7c2.6,3.7,5.9,5.3,6.5,5.6l12,4.2l-5.1,12c-2.7,6.5-3.3,17.1-1.5,30c1.4,9.8,0.9,19.7-1.4,29.3c-2.2,9.3-6.1,18-11.5,25.9
			c-10.7,15.8-26.9,27.7-45.6,33.7l-0.6,0.2h-0.1l-4,1L143.3,231.1z"/>
		<path class="st2" d="M151.5,84.6c7.9,4.3,16,6.4,24.2,6.4c5.9,0,9.8-1.2,10.2-1.3l5.6-2.1l3.5,5c3.5,4.9,8,6.9,8.5,7.2l7.8,2.7
			l-3.3,7.8c-3.1,7.3-3.7,18.5-1.7,32.3c1.3,9.2,0.9,18.7-1.3,27.7c-2.1,8.8-5.8,17.1-10.9,24.5c-10.1,15-25.5,26.3-43.3,32
			l-0.5,0.1l-2.9,0.7l-2.9-0.7l-0.4-0.1c-17.8-5.7-33.2-17-43.4-32c-5.1-7.5-8.7-15.7-10.9-24.5c-2.2-9.1-2.6-18.5-1.3-27.7
			c1.9-13.8,1.3-25-1.7-32.3l-3.3-7.8l7.8-2.7c0.5-0.2,5-2.2,8.5-7.2l3.5-5l5.6,2.1c0.4,0.1,4.3,1.3,10.2,1.3
			c11.6,0,24.2-6.4,24.2-6.4l4.1-2.1L151.5,84.6z"/>
		<path class="st0" d="M147.3,82.5l4.1,2.1c7.9,4.3,16,6.4,24.2,6.4c5.9,0,9.8-1.2,10.2-1.3l5.6-2.1l3.5,5c3.5,4.9,8,6.9,8.5,7.2
			l7.8,2.7l-3.3,7.8c-3.1,7.3-3.7,18.5-1.7,32.3c1.3,9.2,0.9,18.7-1.3,27.7c-2.1,8.8-5.8,17.1-10.9,24.5c-10.1,15-25.5,26.3-43.3,32
			l-0.5,0.1l-2.9,0.7L147.3,82.5L147.3,82.5z"/>
		<path class="st1" d="M147.3,88L147.3,88l-2.6,1.4c-8,4.4-16.4,6.6-24.8,6.6c-6.4,0-10.5-1.4-10.8-1.4l-3.4-1.3l-2.2,3
			c-4,5.6-9.1,7.8-9.5,7.9l-4.8,1.7l2,4.8c3.2,7.5,3.8,18.8,1.9,32.7c-1.2,8.6-0.8,17.3,1.2,25.8c2,8.1,5.4,15.9,10.1,22.8
			c9.4,13.9,23.8,24.5,40.5,29.8c0.4,0.1,0.8,0.2,1.3,0.3l1.1,0.3l0,0V88z"/>
		<path class="st2" d="M147.3,88L147.3,88l2.6,1.4c8,4.4,16.4,6.6,24.8,6.6c6.4,0,10.5-1.4,10.8-1.4l3.4-1.3l2.2,3
			c4,5.6,9.1,7.8,9.5,7.9l4.8,1.7l-2,4.8c-3.2,7.5-3.8,18.8-1.9,32.7c1.2,8.6,0.8,17.3-1.2,25.8c-2,8.1-5.4,15.9-10.1,22.8
			c-9.4,13.9-23.8,24.5-40.5,29.8c-0.4,0.1-0.8,0.2-1.3,0.3l-1.1,0.3l0,0V88z"/>
		<path class="st0" d="M198.9,108.7c0,0-6.6-2.4-11.7-9.7c0,0-17.8,6.4-39.6-5.5l-0.3-0.1l-0.3,0.1c-21.8,11.8-39.6,5.5-39.6,5.5
			c-5.1,7.2-11.7,9.7-11.7,9.7c4.2,10,3.9,23.4,2.2,35.3c-4.7,33.1,16.6,62.9,48.4,73.1c0.3,0.1,0.7,0.2,0.9,0.2l0.9-0.2
			c31.9-10.1,53.1-40,48.4-73.1C195,132.1,194.7,118.7,198.9,108.7z"/>
		<path class="st1" d="M190.7,136.6l-17.1,4.1l-1.9,11.5l8.8-2.1l0.4-2.4l-3.7,0.9l1.1-6.7l12-2.8l-1.9,11c-0.3,1.9-1.2,3.6-2.7,5.2
			c-1.5,1.6-3.1,2.6-4.9,3.1l-12.5,3c-1.6,0.4-2.9,0.2-3.8-0.6c-1-0.8-1.5-2-1.5-3.5c0-0.2,0-0.4,0-0.6c0-0.2,0-0.4,0.1-0.6
			l2.6-15.4c0.3-1.9,1.2-3.6,2.7-5.2c1.5-1.6,3.1-2.6,4.9-3l18.9-4.5L190.7,136.6z"/>
		<path class="st1" d="M159.9,137.1c-1-0.8-2.3-1-3.9-0.6l-18.9,4.5l-1.4,8.6l8.3-2l1.2-0.3l7.6-1.8l-0.4,2.4l-7.6,1.8l-1.2,0.3
			l-8.3,2l-3,17.8l8.3-2l1.9-11l8.8-2.1l-1.9,11l8.3-2l1.9-11.1v-0.5c0-0.8-0.4-1.6-1.2-2.5c1.4-1.5,2.2-2.8,2.3-3.8l0.7-4.3
			c0-0.2,0.1-0.4,0.1-0.6s0-0.4,0-0.6C161.4,139,160.9,137.9,159.9,137.1z"/>
		<polygon class="st1" points="114.5,165.6 117.3,149 117.9,145.4 109.6,147.4 104.7,176.2 127.7,170.8 129.2,162.1 		"/>
	</g>
	<g id="Layer_4_3_">
		<polygon class="st2" points="199.9,121.2 92.7,146.5 92.6,140.7 199.8,115.4 		"/>
		<polygon class="st3" points="199.9,117.8 92.7,143.1 92.6,134.5 199.8,109.3 		"/>
		<polygon class="st4" points="209.2,164.9 103.9,189.8 102,181.5 209.1,156.2 		"/>
		<polygon class="st1" points="209.2,162.6 103.9,187.4 102,181.9 209.1,156.7 		"/>
		<g class="st5">
			<path class="st6" d="M113.6,185l-3.3,0.8l0.6-4.7l1.2-0.3l-0.4,3.3l2.1-0.5L113.6,185z"/>
			<path class="st6" d="M118.1,180.3L118.1,180.3c0,0.1,0,0.1,0,0.2l-0.3,2.5c0,0.3-0.2,0.6-0.4,0.8c-0.2,0.2-0.4,0.4-0.7,0.5
				l-1.8,0.4c-0.2,0.1-0.4,0-0.6-0.1c-0.1-0.2-0.2-0.4-0.2-0.6v-0.1v-0.1l0.3-2.5c0-0.3,0.2-0.6,0.4-0.8c0.2-0.2,0.4-0.4,0.7-0.5
				l1.8-0.4c0.2-0.1,0.4,0,0.6,0.1C118.1,179.9,118.2,180.1,118.1,180.3z M115.6,181.4l-0.3,1.9l1.3-0.3l0.3-1.9L115.6,181.4z"/>
			<path class="st6" d="M122.2,179.3L122.2,179.3c0,0.1,0,0.2,0,0.2l-0.5,3.6l-1.2,0.3l0.5-3.3l-1.3,0.3l-0.4,3.3L118,184l0.6-4.7
				l2.7-0.6c0.2-0.1,0.4,0,0.6,0.1C122.1,178.9,122.2,179.1,122.2,179.3z"/>
			<path class="st6" d="M126.2,178.4C126.2,178.4,126.2,178.5,126.2,178.4v0.2l-0.4,2.5c0,0.3-0.2,0.6-0.4,0.8
				c-0.2,0.2-0.4,0.4-0.7,0.5L122,183l0.6-4.7l2.7-0.6c0.2-0.1,0.4,0,0.6,0.1C126.1,178,126.2,178.2,126.2,178.4z M123.7,179.5
				l-0.3,1.9l1.3-0.3l0.3-1.9L123.7,179.5z"/>
			<path class="st6" d="M130.2,177.4L130.2,177.4c0,0.1,0,0.2,0,0.2l-0.3,2.5c0,0.3-0.2,0.6-0.4,0.8s-0.4,0.4-0.7,0.5l-1.8,0.4
				c-0.2,0.1-0.4,0-0.6-0.1c-0.1-0.2-0.2-0.4-0.2-0.6V181v-0.1l0.3-2.5c0-0.3,0.2-0.6,0.4-0.8c0.2-0.2,0.4-0.4,0.7-0.5l1.8-0.4
				c0.2-0.1,0.4,0,0.6,0.1C130.2,177,130.3,177.2,130.2,177.4z M127.7,178.5l-0.3,1.9l1.3-0.3l0.3-1.9L127.7,178.5z"/>
			<path class="st6" d="M134.3,176.5L134.3,176.5c0,0.1,0,0.2,0,0.2l-0.5,3.6l-1.2,0.3l0.4-3.3l-1.3,0.3l-0.5,3.3l-1.2,0.3l0.6-4.7
				l2.7-0.6c0.2-0.1,0.4,0,0.6,0.1C134.2,176.1,134.3,176.3,134.3,176.5z"/>
			<path class="st6" d="M140.7,175L140.7,175c0,0.1,0,0.2,0,0.2l-0.1,0.7c0,0.2-0.1,0.4-0.3,0.6c0.1,0.1,0.2,0.3,0.2,0.4v0.1
				l-0.2,1.8l-1.2,0.3l0.3-1.8l-1.3,0.3l-0.2,1.8l-1.2,0.3l0.6-4.7l2.7-0.6c0.2-0.1,0.4,0,0.6,0.1
				C140.6,174.6,140.7,174.8,140.7,175z M138.2,176.1l-0.1,0.4l1.3-0.3v-0.4L138.2,176.1z"/>
			<path class="st6" d="M144.3,174.6l-2.1,0.5l-0.1,0.4l2.1-0.5l-0.2,1.1l-2.1,0.5v0.4l2.1-0.5l-0.2,1.4l-3.3,0.8l0.6-4.7l3.3-0.8
				L144.3,174.6z"/>
			<path class="st6" d="M148,173.7l-2.1,0.5v0.4l2.1-0.5l-0.1,1.1l-2.1,0.5l-0.3,1.8l-1.2,0.3l0.6-4.7l3.3-0.8L148,173.7z"/>
			<path class="st6" d="M151.7,172.9l-2.1,0.5l-0.1,0.4l2.1-0.5l-0.1,1.1l-2.1,0.5v0.4l2.1-0.5l-0.2,1.4L148,177l0.6-4.7l3.3-0.8
				L151.7,172.9z"/>
			<path class="st6" d="M155.8,171.4L155.8,171.4c0,0.1,0,0.2,0,0.2l-0.1,0.7c0,0.2-0.1,0.4-0.3,0.6c0.1,0.1,0.2,0.3,0.2,0.4v0.1
				l-0.2,1.8l-1.2,0.3l0.3-1.8l-1.3,0.3l-0.2,1.8l-1.2,0.3l0.6-4.7l2.7-0.6c0.2-0.1,0.4,0,0.6,0.1
				C155.8,171,155.8,171.2,155.8,171.4z M153.3,172.5v0.4l1.3-0.3v-0.4L153.3,172.5z"/>
			<path class="st6" d="M159.5,171l-2.1,0.5l-0.1,0.4l2.1-0.5l-0.1,1.1l-2.1,0.5v0.4l2.1-0.5l-0.2,1.4l-3.3,0.8l0.6-4.7l3.3-0.8
				L159.5,171z"/>
			<path class="st6" d="M163.2,170.2l-2.1,0.5v0.4l2.1-0.5l-0.1,1.1l-2.1,0.5l-0.1,0.4l2.1-0.5l-0.2,1.4l-3.3,0.8l0.6-4.7l3.3-0.8
				L163.2,170.2z"/>
			<path class="st6" d="M167.2,169.2l-2.4,0.6l-0.1,0.4l1.5-0.4c0.2-0.1,0.4,0,0.6,0.1c0.2,0.2,0.2,0.4,0.2,0.6v0.1v0.1l-0.1,0.7
				c0,0.3-0.2,0.6-0.4,0.8s-0.4,0.4-0.7,0.5l-2.7,0.6l0.2-1.4l2.5-0.6v-0.4l-1.5,0.4c-0.2,0.1-0.4,0-0.6-0.1
				c-0.2-0.1-0.2-0.4-0.2-0.6v-0.2l0.1-0.7c0-0.3,0.2-0.6,0.4-0.8s0.4-0.4,0.7-0.5l2.7-0.6L167.2,169.2z"/>
			<path class="st6" d="M173.6,167.7l-2.5,0.6l-0.3,1.9l1.3-0.3l0.1-0.4l-0.5,0.1l0.1-1.1l1.7-0.4l-0.2,1.8c0,0.3-0.2,0.6-0.4,0.8
				s-0.4,0.4-0.7,0.5l-1.8,0.4c-0.2,0.1-0.4,0-0.6-0.1c-0.1-0.2-0.2-0.4-0.2-0.6v-0.1v-0.1l0.3-2.5c0-0.3,0.2-0.6,0.4-0.8
				s0.4-0.4,0.7-0.5l2.7-0.6L173.6,167.7z"/>
			<path class="st6" d="M177.7,166.3L177.7,166.3c0,0.1,0,0.2,0,0.2l-0.1,0.7c0,0.2-0.1,0.4-0.3,0.6c0.1,0.1,0.2,0.3,0.2,0.4v0.1
				l-0.3,1.8l-1.2,0.3l0.2-1.8l-1.3,0.3l-0.2,1.8l-1.2,0.3l0.6-4.7l2.7-0.6c0.2-0.1,0.4,0,0.6,0.1
				C177.6,165.8,177.7,166,177.7,166.3z M175.2,167.3l-0.1,0.4l1.3-0.3l0.1-0.4L175.2,167.3z"/>
			<path class="st6" d="M181.8,165.3C181.8,165.3,181.7,165.4,181.8,165.3v0.2l-0.3,2.5c0,0.3-0.2,0.6-0.4,0.8s-0.4,0.4-0.7,0.5
				l-1.8,0.4c-0.2,0.1-0.4,0-0.6-0.1c-0.2-0.2-0.2-0.4-0.2-0.6v0v-0.1l0.3-2.5c0.1-0.3,0.2-0.6,0.4-0.8s0.4-0.4,0.7-0.5l1.8-0.4
				c0.2-0.1,0.4,0,0.6,0.1C181.7,164.9,181.8,165.1,181.8,165.3z M179.2,166.4l-0.3,1.9l1.3-0.3l0.3-1.9L179.2,166.4z"/>
			<path class="st6" d="M185.4,167c0,0.3-0.2,0.6-0.4,0.8s-0.4,0.4-0.7,0.5l-1.8,0.4c-0.2,0.1-0.4,0-0.6-0.1
				c-0.1-0.2-0.2-0.4-0.2-0.6v-0.2l0.5-3.6l1.2-0.3l-0.4,3.3l1.3-0.3l0.4-3.3l1.2-0.3L185.4,167z"/>
			<path class="st6" d="M189.8,163.4L189.8,163.4c0,0.1,0,0.1,0,0.2l-0.1,0.7c0,0.3-0.2,0.6-0.4,0.8s-0.4,0.4-0.7,0.5l-1.5,0.4
				l-0.2,1.8l-1.2,0.3l0.6-4.7l2.7-0.6c0.2-0.1,0.4,0,0.6,0.1C189.7,163,189.8,163.2,189.8,163.4z M187.3,164.5l-0.1,0.4l1.3-0.3
				l0.1-0.4L187.3,164.5z"/>
		</g>
		<g class="st5">
			<path class="st7" d="M120.4,131.1l-2,0.5v0.4l2-0.5l-0.1,1l-2,0.5l-0.1,0.4l2.1-0.5l-0.2,1.3l-3.2,0.7l0.6-4.4l3.2-0.8
				L120.4,131.1z"/>
			<path class="st7" d="M124.3,130.2l-2.4,0.6v0.4l1.5-0.3c0.2-0.1,0.4,0,0.5,0.1c0.2,0.1,0.2,0.3,0.2,0.5v0.1v0.1l-0.1,0.7
				c0,0.3-0.2,0.6-0.4,0.8c-0.2,0.2-0.4,0.4-0.7,0.4l-2.6,0.6l0.2-1.3l2.4-0.6v-0.4l-1.5,0.4c-0.2,0.1-0.4,0-0.5-0.1
				s-0.2-0.3-0.2-0.5v-0.1v-0.1l0.1-0.7c0.1-0.3,0.2-0.6,0.4-0.8c0.2-0.2,0.4-0.4,0.7-0.4l2.6-0.6L124.3,130.2z"/>
			<path class="st7" d="M128.2,129.3l-1.2,0.3l-0.4,3.1l-1.1,0.3l0.4-3.1l-1.2,0.3l0.2-1.3l3.5-0.8L128.2,129.3z"/>
			<path class="st7" d="M130.5,131.7v-0.5l-1.1,0.3l-0.2,0.6l-1.1,0.3l1.6-4.6l1.7-0.4l0.3,4.1L130.5,131.7z M130.2,128.8l-0.5,1.5
				l0.6-0.1L130.2,128.8z"/>
			<path class="st7" d="M136,127L136,127c0,0.1,0,0.1,0,0.2l-0.1,0.7c0,0.1-0.1,0.3-0.3,0.6c0.1,0.1,0.2,0.2,0.2,0.4v0.1l-0.1,0.7
				c0,0.3-0.2,0.6-0.4,0.8s-0.4,0.4-0.7,0.4l-2.7,0.6l0.6-4.4l2.8-0.7c0.2-0.1,0.4,0,0.5,0.1C135.9,126.6,136,126.8,136,127z
				 M133.2,129.4v0.4l1.3-0.3v-0.4L133.2,129.4z M133.4,128l-0.1,0.4l1.3-0.3l0.1-0.4L133.4,128z"/>
			<path class="st7" d="M139,129.7l-3.2,0.8l0.6-4.4l1.1-0.3l-0.4,3l2.1-0.5L139,129.7z"/>
			<path class="st7" d="M140.6,129.3l-1.1,0.3l0.6-4.4l1.1-0.3L140.6,129.3z"/>
			<path class="st7" d="M144.9,125.3l-2.4,0.6v0.4l1.5-0.4c0.2-0.1,0.4,0,0.5,0.1c0.2,0.1,0.2,0.3,0.2,0.5v0.1v0.1l-0.1,0.7
				c0,0.3-0.2,0.6-0.4,0.8c-0.2,0.2-0.4,0.4-0.7,0.4l-2.6,0.6l0.2-1.3l2.4-0.6l0.1-0.4l-1.5,0.4c-0.2,0.1-0.4,0-0.5-0.1
				c-0.2-0.1-0.2-0.3-0.2-0.5v-0.1v-0.1l0.1-0.7c0-0.3,0.2-0.6,0.4-0.8c0.2-0.2,0.4-0.4,0.7-0.4l2.6-0.6L144.9,125.3z"/>
			<path class="st7" d="M148.4,127.5l-1.2,0.3l0.3-1.7l-1.2,0.3L146,128l-1.1,0.3l0.6-4.4l1.2-0.3l-0.3,1.7l1.2-0.3l0.2-1.7l1.1-0.3
				L148.4,127.5z"/>
			<path class="st7" d="M152.4,123.6l-2,0.5l-0.1,0.4l2.1-0.5l-0.2,1l-2,0.5v0.4l2-0.5l-0.2,1.3l-3.2,0.8l0.6-4.4l3.2-0.8
				L152.4,123.6z"/>
			<path class="st7" d="M156.3,122.2L156.3,122.2c0,0.1,0,0.1,0,0.2l-0.3,2.3c0,0.3-0.2,0.6-0.4,0.8c-0.2,0.2-0.4,0.4-0.7,0.4
				l-2.6,0.6l0.6-4.4l2.6-0.6c0.2-0.1,0.4,0,0.5,0.1C156.3,121.8,156.3,122,156.3,122.2z M153.9,123.2l-0.3,1.7l1.2-0.3l0.3-1.7
				L153.9,123.2z"/>
			<path class="st7" d="M162.5,120.7C162.5,120.7,162.5,120.8,162.5,120.7v0.2l-0.1,0.7c0,0.3-0.2,0.6-0.4,0.8
				c-0.2,0.2-0.4,0.4-0.7,0.4l-1.5,0.4v0.4l2.4-0.6l-0.2,1.3l-3.5,0.8l0.2-1.7c0-0.3,0.2-0.6,0.4-0.8c0.2-0.2,0.4-0.4,0.7-0.4
				l1.5-0.4l0.1-0.4L159,122l0.2-1.3l2.6-0.6c0.2-0.1,0.4,0,0.5,0.1C162.5,120.3,162.5,120.5,162.5,120.7z"/>
			<path class="st7" d="M166.4,119.8L166.4,119.8c0,0.1,0,0.1,0,0.2l-0.3,2.3c0,0.3-0.2,0.6-0.4,0.8c-0.2,0.2-0.4,0.4-0.7,0.4
				l-1.7,0.4c-0.2,0.1-0.4,0-0.5-0.1s-0.2-0.3-0.2-0.5v-0.2l0.3-2.3c0-0.3,0.2-0.6,0.4-0.8c0.2-0.2,0.4-0.4,0.7-0.4l1.7-0.4
				c0.2-0.1,0.4,0,0.5,0.1S166.4,119.6,166.4,119.8z M164,120.8l-0.3,1.8l1.2-0.3l0.3-1.7L164,120.8z"/>
			<path class="st7" d="M170.3,118.9L170.3,118.9c0,0.1,0,0.1,0,0.2l-0.3,2.3c0,0.3-0.2,0.6-0.4,0.8c-0.2,0.2-0.4,0.4-0.7,0.4
				l-1.7,0.4c-0.2,0.1-0.4,0-0.5-0.1s-0.2-0.3-0.2-0.5v-0.2l0.3-2.3c0-0.3,0.2-0.6,0.4-0.8c0.2-0.2,0.4-0.4,0.7-0.4l1.7-0.4
				c0.2-0.1,0.4,0,0.5,0.1C170.2,118.5,170.3,118.7,170.3,118.9z M167.9,119.9l-0.3,1.8l1.2-0.3l0.3-1.8L167.9,119.9z"/>
			<path class="st7" d="M171.6,122l-1.4,0.3l1.9-3.4l-1.5,0.3l0.2-1.3l3.5-0.8L171.6,122z"/>
		</g>
	</g>
</g>
<g>
	<g>
		<path class="st0" d="M266.6,145.4h-23.4l4.9-28.1h8.4L253,137h15L266.6,145.4z"/>
		<path class="st0" d="M298.6,122.7c0,0.2,0,0.4,0,0.6s0,0.4-0.1,0.6l-2.6,15c-0.3,1.8-1.2,3.4-2.8,4.7c-1.5,1.3-3.2,1.9-5,1.9
			h-12.6c-1.6,0-2.9-0.5-3.9-1.5c-1-1.1-1.5-2.4-1.5-3.9c0-0.2,0-0.4,0-0.6c0-0.2,0-0.4,0.1-0.6l2.6-15c0.3-1.8,1.2-3.4,2.7-4.6
			c1.5-1.3,3.2-1.9,5-1.9h12.6c1.6,0,2.9,0.5,4,1.5C298.1,119.8,298.6,121.1,298.6,122.7z M280.8,125.7l-2,11.3h8.9l2-11.3H280.8z"
			/>
		<path class="st0" d="M326.7,122.7c0,0.2,0,0.4,0,0.6s0,0.4-0.1,0.6l-3.8,21.5h-8.4l3.5-19.7H309l-3.5,19.7h-8.4l4.9-28.1h19.2
			c1.6,0,2.9,0.5,4,1.5C326.2,119.8,326.7,121.1,326.7,122.7z"/>
		<path class="st0" d="M354.8,122.7c0,0.2,0,0.4,0,0.6s0,0.4-0.1,0.6l-2.6,15c-0.3,1.8-1.2,3.4-2.8,4.7c-1.5,1.3-3.2,1.9-5,1.9
			h-19.1l4.9-28.1h19.2c1.6,0,2.9,0.5,4,1.5C354.3,119.8,354.8,121.1,354.8,122.7z M337,125.7l-2,11.3h8.9l2-11.3H337z"/>
		<path class="st0" d="M382.9,122.7c0,0.2,0,0.4,0,0.6s0,0.4-0.1,0.6l-2.6,15c-0.3,1.8-1.2,3.4-2.8,4.7c-1.5,1.3-3.2,1.9-5,1.9
			h-12.6c-1.6,0-2.9-0.5-3.9-1.5c-1-1.1-1.5-2.4-1.5-3.9c0-0.2,0-0.4,0-0.6c0-0.2,0-0.4,0.1-0.6l2.6-15c0.3-1.8,1.2-3.4,2.7-4.6
			c1.5-1.3,3.2-1.9,5-1.9h12.6c1.6,0,2.9,0.5,4,1.5C382.4,119.8,382.9,121.1,382.9,122.7z M365.1,125.7l-2,11.3h8.9l2-11.3H365.1z"
			/>
		<path class="st0" d="M411,122.7c0,0.2,0,0.4,0,0.6s0,0.4-0.1,0.6l-3.8,21.5h-8.4l3.5-19.7h-8.9l-3.5,19.7h-8.4l4.9-28.1h19.2
			c1.6,0,2.9,0.5,4,1.5C410.5,119.8,411,121.1,411,122.7z"/>
	</g>
	<g>
		<path class="st0" d="M266,159.6c0,0.2,0,0.4,0,0.6c0,0.2,0,0.4-0.1,0.6l-0.7,4.2c-0.2,1-1,2.1-2.4,3.3c0.8,1,1.3,2,1.3,2.8v0.5
			l-1.9,10.8h-8.4l1.9-10.8h-8.9l-1.9,10.8h-8.4l4.9-28.1h19.2c1.6,0,2.9,0.5,4,1.5S266,158,266,159.6z M248.2,162.5l-0.4,2.3h8.9
			l0.4-2.3H248.2z"/>
		<path class="st0" d="M291.3,162.5h-15l-0.4,2.3h15l-1.1,6.6h-15l-0.4,2.3h15l-1.5,8.4h-23.4l4.9-28.1h23.4L291.3,162.5z"/>
		<path class="st0" d="M317.1,162.5h-15l-0.4,2.3h15l-1.1,6.6h-15l-1.9,10.8h-8.4l4.9-28.1h23.4L317.1,162.5z"/>
		<path class="st0" d="M342.8,162.5h-15l-0.4,2.3h15l-1.1,6.6h-15l-0.4,2.3h15l-1.5,8.4H316l4.9-28.1h23.4L342.8,162.5z"/>
		<path class="st0" d="M371.4,159.6c0,0.2,0,0.4,0,0.6c0,0.2,0,0.4-0.1,0.6l-0.7,4.2c-0.2,1-1,2.1-2.4,3.3c0.8,1,1.3,2,1.3,2.8v0.5
			l-1.9,10.8h-8.4l1.9-10.8h-8.9l-1.9,10.8h-8.4l4.9-28.1H366c1.6,0,2.9,0.5,4,1.5C370.9,156.7,371.4,158,371.4,159.6z M353.6,162.5
			l-0.4,2.3h8.9l0.4-2.3H353.6z"/>
		<path class="st0" d="M396.7,162.5h-15l-0.4,2.3h15l-1.1,6.6h-15l-0.4,2.3h15l-1.5,8.4h-23.4l4.9-28.1h23.4L396.7,162.5z"/>
		<path class="st0" d="M422.5,162.5h-15l-0.4,2.3h15l-1.1,6.6h-15l-0.4,2.3h15l-1.5,8.4h-23.4l4.9-28.1H424L422.5,162.5z"/>
		<path class="st0" d="M450.3,162.5H433l-0.4,2.3h10.8c1.6,0,3,0.5,4,1.5s1.5,2.3,1.5,3.9c0,0.2,0,0.4,0,0.6c0,0.2,0,0.4-0.1,0.6
			l-0.7,4.2c-0.3,1.8-1.2,3.4-2.8,4.7c-1.5,1.3-3.2,1.9-5,1.9h-19.1l1.4-8.4H440l0.4-2.3h-10.8c-1.6,0-2.9-0.5-4-1.5
			c-1-1-1.5-2.3-1.5-3.8c0-0.2,0-0.4,0-0.6c0-0.2,0-0.4,0.1-0.6l0.8-4.2c0.3-1.8,1.2-3.4,2.7-4.6c1.5-1.3,3.2-1.9,5-1.9h19.2
			L450.3,162.5z"/>
	</g>
	<g>
		<g>
			<path class="st0" d="M258.6,199.4h-17.3l-2,11.3h8.9l0.4-2.3h-3.8l1.1-6.6h12.2l-1.9,10.8c-0.3,1.8-1.2,3.4-2.8,4.7
				c-1.5,1.3-3.2,1.9-5,1.9h-12.6c-1.6,0-2.9-0.5-3.9-1.5c-1-1.1-1.5-2.4-1.5-3.9c0-0.2,0-0.4,0-0.6c0-0.2,0-0.4,0.1-0.6l2.6-15
				c0.3-1.8,1.2-3.4,2.7-4.6c1.5-1.3,3.2-1.9,5-1.9H260L258.6,199.4z"/>
			<path class="st0" d="M287.1,196.4c0,0.2,0,0.4,0,0.6c0,0.2,0,0.4-0.1,0.6l-0.7,4.2c-0.2,1-1,2.1-2.4,3.3c0.8,1,1.3,2,1.3,2.8v0.5
				l-1.9,10.8h-8.4l1.9-10.8h-8.9l-1.9,10.8h-8.4l4.9-28.1h19.2c1.6,0,2.9,0.5,4,1.5S287.1,194.8,287.1,196.4z M269.4,199.4
				l-0.4,2.3h8.9l0.4-2.3H269.4z"/>
			<path class="st0" d="M315.2,196.4c0,0.2,0,0.4,0,0.6c0,0.2,0,0.4-0.1,0.6l-2.6,15c-0.3,1.8-1.2,3.4-2.8,4.7
				c-1.5,1.3-3.2,1.9-5,1.9h-12.6c-1.6,0-2.9-0.5-3.9-1.5c-1-1.1-1.5-2.4-1.5-3.9c0-0.2,0-0.4,0-0.6c0-0.2,0-0.4,0.1-0.6l2.6-15
				c0.3-1.8,1.2-3.4,2.7-4.6c1.5-1.3,3.2-1.9,5-1.9h12.6c1.6,0,2.9,0.5,4,1.5S315.2,194.8,315.2,196.4z M297.4,199.4l-2,11.3h8.9
				l2-11.3H297.4z"/>
			<path class="st0" d="M340.6,212.5c-0.3,1.8-1.2,3.4-2.8,4.7c-1.5,1.3-3.2,1.9-5,1.9h-12.6c-1.6,0-2.9-0.5-3.9-1.5
				c-1-1.1-1.5-2.4-1.5-3.9c0-0.2,0-0.4,0-0.6c0-0.2,0-0.4,0.1-0.6l3.7-21.5h8.4l-3.5,19.7h8.9l3.5-19.7h8.4L340.6,212.5z"/>
			<path class="st0" d="M371.4,196.4c0,0.2,0,0.4,0,0.6c0,0.2,0,0.4-0.1,0.6l-0.7,4.2c-0.3,1.8-1.2,3.4-2.7,4.7s-3.2,1.9-5,1.9
				h-10.8l-1.9,10.8h-8.4l4.9-28.1h19.2c1.6,0,2.9,0.5,4,1.5C370.9,193.5,371.4,194.8,371.4,196.4z M353.6,199.4l-0.4,2.3h8.9
				l0.4-2.3H353.6z"/>
		</g>
	</g>
	<g>
		<g>
			<path class="st2" d="M270.5,95.6h-11.3l-0.3,1.5h11.3l-0.9,4.3H258l-0.3,1.5H269l-1.1,5.5h-17.6L254,90h17.7L270.5,95.6z"/>
			<path class="st2" d="M291.8,95.6h-13.1l-0.3,1.5h8.1c1.2,0,2.2,0.3,3,1s1.2,1.5,1.2,2.5c0,0.1,0,0.2,0,0.4c0,0.1,0,0.2-0.1,0.4
				l-0.6,2.7c-0.2,1.2-0.9,2.2-2.1,3c-1.1,0.8-2.4,1.3-3.8,1.3h-14.5l1.1-5.5h13.1l0.3-1.5H276c-1.2,0-2.2-0.3-3-1s-1.2-1.5-1.2-2.5
				c0-0.1,0-0.3,0-0.4s0-0.3,0-0.4l0.6-2.8c0.2-1.2,0.9-2.2,2.1-3s2.4-1.3,3.8-1.3h14.5L291.8,95.6z"/>
			<path class="st2" d="M313,95.6h-6.5l-2.6,12.9h-6.4l2.6-12.9h-6.5l1.1-5.5h19.5L313,95.6z"/>
			<path class="st2" d="M318.9,108.5h-5.3l0.9-4.6h5.3L318.9,108.5z"/>
			<path class="st2" d="M354,93.7c0,0.1,0,0.2,0,0.4c0,0.1,0,0.2-0.1,0.4l-0.6,2.8c-0.2,1.2-0.9,2.2-2.1,3c-1.1,0.8-2.4,1.3-3.7,1.3
				h-8.1l-0.3,1.5h13.1l-1.1,5.5h-19.4l1.4-7c0.2-1.2,0.9-2.2,2-3s2.4-1.3,3.8-1.3h8.1l0.3-1.5h-13.1l1.1-5.5h14.5
				c1.2,0,2.2,0.3,3,1C353.6,91.8,354,92.7,354,93.7z"/>
			<path class="st2" d="M375.2,93.7c0,0.1,0,0.2,0,0.4c0,0.1,0,0.2-0.1,0.4l-2,9.8c-0.2,1.2-0.9,2.2-2.1,3c-1.1,0.8-2.4,1.3-3.8,1.3
				h-9.5c-1.2,0-2.2-0.3-3-1s-1.2-1.5-1.2-2.5c0-0.1,0-0.2,0-0.4c0-0.1,0-0.2,0-0.4l2-9.8c0.2-1.2,0.9-2.2,2.1-3s2.4-1.3,3.8-1.3
				h9.5c1.2,0,2.2,0.3,3,1C374.8,91.8,375.2,92.7,375.2,93.7z M361.8,95.6l-1.5,7.4h6.7l1.5-7.4H361.8z"/>
			<path class="st2" d="M396.4,93.7c0,0.1,0,0.2,0,0.4c0,0.1,0,0.2-0.1,0.4l-2,9.8c-0.2,1.2-0.9,2.2-2.1,3c-1.1,0.8-2.4,1.3-3.8,1.3
				H379c-1.2,0-2.2-0.3-3-1s-1.2-1.5-1.2-2.5c0-0.1,0-0.2,0-0.4c0-0.1,0-0.2,0-0.4l2-9.8c0.2-1.2,0.9-2.2,2.1-3s2.4-1.3,3.8-1.3h9.5
				c1.2,0,2.2,0.3,3,1C396,91.8,396.4,92.7,396.4,93.7z M383,95.6l-1.5,7.4h6.7l1.5-7.4H383z"/>
			<path class="st2" d="M403,108.5h-7.7L406,95.6h-8.1l1.1-5.5h19.5L403,108.5z"/>
		</g>
	</g>
</g>
</svg>
