<svg id="Layer_1" data-name="Layer 1" xmlns="http://www.w3.org/2000/svg" viewBox="0 0 724.04 292.04"><defs><style>.cls-1{fill:#1e1b1c;}.cls-2{fill:#fff;}.cls-3{fill:#c12026;}</style></defs><g id="Group_40" data-name="Group 40"><g id="Layer_2" data-name="Layer 2"><g id="newlogo"><path id="Path_339" data-name="Path 339" class="cls-1" d="M125.54,289.87l-.27-.07-1.36-.41a162.51,162.51,0,0,1-85.42-63.11,149.14,149.14,0,0,1-21.6-48.73,147.41,147.41,0,0,1-2.58-55.24c3-21.23,2.24-39.23-2.05-49.38L0,43.91,28.71,33.85A24.21,24.21,0,0,0,37,26.47L50.13,8l20.69,7.68a49.12,49.12,0,0,0,12.94,1.53H84c16.21-.07,35.42-9.38,36.32-9.83L134.63,0l14.56,7.48.18.09a74.8,74.8,0,0,0,35.82,9.59,50.22,50.22,0,0,0,13.26-1.55L219.1,8l13.12,18.52a24.18,24.18,0,0,0,8.32,7.38l28.71,10.06L257,72.93c-4.29,10.15-5,28.15-2,49.38a147.76,147.76,0,0,1-24.18,104,162.55,162.55,0,0,1-85.44,63.11l-1.34.41-.28.07L134.63,292Z"/><path id="Path_340" data-name="Path 340" class="cls-2" d="M127.49,282.39l-.15-.05-1.08-.32A154.79,154.79,0,0,1,44.9,222a141.12,141.12,0,0,1-20.48-46.21A139.49,139.49,0,0,1,22,123.41c3.23-22.91,2.33-41.92-2.57-53.47L10.32,48.49,31.68,41A31.68,31.68,0,0,0,43.32,31L53,17.28,68.36,23a54.49,54.49,0,0,0,15.4,1.92H84c18.32-.06,39.08-10.3,39.77-10.64l10.85-5.56,11,5.62.08,0A82,82,0,0,0,185.2,24.89,57.23,57.23,0,0,0,200.89,23l15.35-5.69L225.94,31a31.42,31.42,0,0,0,11.64,10l21.33,7.48-9.05,21.45C245,81.48,244,100.5,247.27,123.41a139.07,139.07,0,0,1-2.45,52.33A141.37,141.37,0,0,1,224.36,222,154.88,154.88,0,0,1,143,282l-1.08.32-.13.05-7.13,1.7Z"/><path id="Path_341" data-name="Path 341" class="cls-3" d="M142,21.18a89.9,89.9,0,0,0,43.19,11.46,63.11,63.11,0,0,0,18.19-2.34l9.95-3.69,6.27,8.84a39.11,39.11,0,0,0,15.07,12.76l13.88,4.85-5.86,13.86c-5.52,13-6.58,32.93-3.11,57.57a131.26,131.26,0,0,1-2.32,49.44,133.39,133.39,0,0,1-19.36,43.69,147.17,147.17,0,0,1-77.3,57l-.82.24-5.2,1.25-5.21-1.25-.8-.24a147.17,147.17,0,0,1-77.3-57A134.12,134.12,0,0,1,31.9,173.93a132.1,132.1,0,0,1-2.31-49.44c3.48-24.64,2.4-44.55-3.1-57.57L20.63,53.06l13.88-4.85A39.2,39.2,0,0,0,49.58,35.45l6.25-8.84,10,3.69A61.22,61.22,0,0,0,84,32.64c20.67-.08,43.23-11.48,43.23-11.48l7.33-3.75Z"/><path id="Path_342" data-name="Path 342" class="cls-1" d="M134.63,17.4,142,21.18A89.9,89.9,0,0,0,185.2,32.64a63.11,63.11,0,0,0,18.19-2.34l10-3.69,6.27,8.84a39.11,39.11,0,0,0,15.07,12.76l13.88,4.85L242.7,66.92c-5.51,13-6.57,32.93-3.1,57.57a131.47,131.47,0,0,1-2.33,49.44,133.39,133.39,0,0,1-19.36,43.69,147.17,147.17,0,0,1-77.3,57l-.82.24-5.19,1.25Z"/><path id="Path_343" data-name="Path 343" class="cls-2" d="M134.62,27.25h0l-4.72,2.42A91.9,91.9,0,0,1,85.72,41.39a64.92,64.92,0,0,1-19.25-2.57l-6.12-2.26L56.5,42A41.9,41.9,0,0,1,39.63,56.09l-8.54,3,3.58,8.51C40.36,81,41.52,101.2,38,125.9a122.47,122.47,0,0,0,2.16,46,124,124,0,0,0,18,40.63,137.26,137.26,0,0,0,72.14,53.2c.71.21,1.51.41,2.29.6l2,.45h.09Z"/><path id="Path_344" data-name="Path 344" class="cls-3" d="M134.62,27.25h0l4.7,2.42a92,92,0,0,0,44.21,11.72,65.19,65.19,0,0,0,19.24-2.57l6.12-2.26L212.74,42A41.8,41.8,0,0,0,229.6,56.09l8.55,3-3.6,8.51c-5.66,13.43-6.83,33.61-3.34,58.31a122.84,122.84,0,0,1-20.15,86.6,137.37,137.37,0,0,1-72.14,53.2c-.71.21-1.51.41-2.28.6l-2,.45h-.08Z"/><path id="Path_345" data-name="Path 345" class="cls-1" d="M226.59,64.22A49.64,49.64,0,0,1,205.66,47s-31.73,11.36-70.57-9.76l-.47-.26-.48.26C95.3,58.35,63.55,47,63.55,47a49.64,49.64,0,0,1-20.9,17.23C50.17,82,49.57,106,46.59,127.13c-8.32,59,29.55,112.27,86.35,130.32.49.15,1.33.34,1.68.43l1.68-.43c56.81-18,94.64-71.33,86.32-130.32C219.65,106,219.07,82,226.59,64.22Z"/><path id="Path_346" data-name="Path 346" class="cls-2" d="M212,113.94l-30.44,7.25-3.43,20.59,15.62-3.69.75-4.32-6.62,1.56,2-12,21.42-5.07L208,138a17.77,17.77,0,0,1-4.85,9.3,17.58,17.58,0,0,1-8.74,5.45L172.15,158a7.63,7.63,0,0,1-6.86-1.09,7.44,7.44,0,0,1-2.68-6.19c0-.33,0-.67,0-1a5.7,5.7,0,0,1,.13-1l4.55-27.43A17.71,17.71,0,0,1,172.1,112a17.3,17.3,0,0,1,8.78-5.43l33.68-8Z"/><path id="Path_347" data-name="Path 347" class="cls-2" d="M157.09,114.82a7.89,7.89,0,0,0-6.94-1.06l-33.76,8-2.57,15.39,14.76-3.51,2.15-.49L144.25,130l-.76,4.32-13.56,3.2-2.06.5-14.75,3.51-5.33,31.71,14.74-3.51L125.88,150l15.65-3.71L138.15,166,153,162.46l3.37-19.73v-.83a6.48,6.48,0,0,0-2.21-4.42,15,15,0,0,0,4.17-6.76l1.3-7.72a8.45,8.45,0,0,0,.13-1c0-.34.06-.64.06-1A7.36,7.36,0,0,0,157.09,114.82Z"/><path id="Path_348" data-name="Path 348" class="cls-2" d="M76,165.7l5-29.64,1.09-6.39L67.26,133.2l-8.6,51.41,41.05-9.74,2.66-15.42Z"/></g><g id="Layer_4" data-name="Layer 4"><path id="Path_349" data-name="Path 349" class="cls-3" d="M228.33,86.43,37.27,131.54,37.1,121.2,228.16,76.11Z"/><path id="Path_352" data-name="Path 352" class="cls-2" d="M245,160.26,57.17,204.6l-3.42-9.83L244.8,149.68Z"/></g></g><g id="Group_39" data-name="Group 39"><g id="Group_33" data-name="Group 33"><path id="Path_387" data-name="Path 387" class="cls-1" d="M347.31,129.54H305.65l8.73-50.09h15.05l-6.17,35.08H350Z"/><path id="Path_388" data-name="Path 388" class="cls-1" d="M404.38,89.13a8.1,8.1,0,0,1-.06,1c0,.32-.08.65-.13,1l-4.66,26.71a13.61,13.61,0,0,1-4.91,8.3,13.44,13.44,0,0,1-8.89,3.41H363.2a9.3,9.3,0,0,1-7-2.75,9.58,9.58,0,0,1-2.71-6.94c0-.34,0-.68,0-1s.06-.67.11-1l4.63-26.72A14.43,14.43,0,0,1,372,79.44h22.53a9.57,9.57,0,0,1,7.06,2.75A9.44,9.44,0,0,1,404.38,89.13ZM372.7,94.45l-3.48,20.08h15.85l3.53-20.08Z"/><path id="Path_389" data-name="Path 389" class="cls-1" d="M454.47,89.13a8.1,8.1,0,0,1-.05,1c0,.32-.08.65-.13,1l-6.75,38.42H432.49l6.2-35.08H422.8l-6.16,35.08H401.7l8.73-50.1h34.24a9.54,9.54,0,0,1,7.06,2.75A9.39,9.39,0,0,1,454.47,89.13Z"/><path id="Path_390" data-name="Path 390" class="cls-1" d="M504.57,89.13a8.1,8.1,0,0,1-.06,1c0,.32-.08.65-.12,1l-4.66,26.71a13.67,13.67,0,0,1-4.92,8.3,13.44,13.44,0,0,1-8.88,3.41H451.79l8.74-50.09h34.24a9.55,9.55,0,0,1,7.06,2.75A9.39,9.39,0,0,1,504.57,89.13ZM472.9,94.45l-3.49,20.08h15.86l3.52-20.08Z"/><path id="Path_391" data-name="Path 391" class="cls-1" d="M554.67,89.13a8.1,8.1,0,0,1-.06,1c0,.32-.08.65-.13,1l-4.66,26.71A14.57,14.57,0,0,1,536,129.54H513.49a9.27,9.27,0,0,1-7-2.75,9.63,9.63,0,0,1-2.72-6.94c0-.34,0-.68,0-1s.07-.67.12-1l4.62-26.72a14.43,14.43,0,0,1,13.76-11.67h22.54a9.55,9.55,0,0,1,7,2.75A9.4,9.4,0,0,1,554.67,89.13ZM523,94.45l-3.48,20.08h15.85l3.53-20.08Z"/><path id="Path_392" data-name="Path 392" class="cls-1" d="M604.77,89.13a8.1,8.1,0,0,1-.06,1c0,.32-.08.65-.13,1l-6.75,38.42h-15L589,94.46H573.11l-6.17,35.08H552l8.73-50.09H595A9.54,9.54,0,0,1,602,82.2,9.44,9.44,0,0,1,604.77,89.13Z"/></g><g id="Group_34" data-name="Group 34"><path id="Path_393" data-name="Path 393" class="cls-1" d="M346.24,154.86a8.22,8.22,0,0,1-.06,1c0,.32-.08.64-.12,1l-1.33,7.52a11.17,11.17,0,0,1-4.26,5.84,8.36,8.36,0,0,1,2.25,5v.84l-3.41,19.2H324.26l3.45-19.2h-15.9l-3.41,19.2H293.46l8.74-50.1h34.24a9.55,9.55,0,0,1,7.06,2.75A9.43,9.43,0,0,1,346.24,154.86Zm-31.67,5.32-.74,4.17h15.86l.77-4.17Z"/><path id="Path_394" data-name="Path 394" class="cls-1" d="M391.38,160.18H364.66l-.73,4.17h26.72l-2,11.71H361.91l-.73,4.17H387.9l-2.68,15H343.56l8.74-50.1h41.76Z"/><path id="Path_395" data-name="Path 395" class="cls-1" d="M437.33,160.18H410.61l-.73,4.17H436.6l-2,11.71H407.86l-3.41,19.19H389.52l8.73-50.1H440Z"/><path id="Path_396" data-name="Path 396" class="cls-1" d="M483.28,160.18H456.56l-.73,4.17h26.72l-2,11.71H453.81l-.73,4.17H479.8l-2.68,15H435.46l8.74-50.1H486Z"/><path id="Path_397" data-name="Path 397" class="cls-1" d="M534.2,154.86a8.22,8.22,0,0,1-.06,1c0,.32-.08.65-.13,1l-1.32,7.52a11.15,11.15,0,0,1-4.25,5.84,8.41,8.41,0,0,1,2.24,5v.84l-3.41,19.2h-15l3.45-19.2H499.78l-3.41,19.2H481.43l8.73-50.1H524.4a9.4,9.4,0,0,1,9.8,9.69Zm-31.68,5.32-.73,4.17h15.85l.77-4.17Z"/><path id="Path_398" data-name="Path 398" class="cls-1" d="M579.33,160.18H552.61l-.74,4.17h26.72l-2,11.71H549.86l-.74,4.17h26.72l-2.68,15H531.51l8.73-50.1H582Z"/><path id="Path_399" data-name="Path 399" class="cls-1" d="M625.28,160.18H598.56l-.74,4.17h26.72l-2,11.71H595.8l-.73,4.17h26.72l-2.68,15H577.45l8.74-50.1H628Z"/><path id="Path_400" data-name="Path 400" class="cls-1" d="M671.22,160.18H644.5l-.74,4.17h26.72l-2,11.71H641.75l-.74,4.17h26.72l-2.68,15H623.39l8.74-50.1h41.76Z"/><path id="Path_401" data-name="Path 401" class="cls-1" d="M721.36,160.18H690.48l-.74,4.17h19.2a9.61,9.61,0,0,1,7.11,2.75A9.37,9.37,0,0,1,718.8,174a6.9,6.9,0,0,1,0,1c0,.32-.08.66-.13,1l-1.32,7.48a13.6,13.6,0,0,1-4.92,8.3,13.45,13.45,0,0,1-8.88,3.41H669.37l2.56-15h30.91l.77-4.17H684.36a9.58,9.58,0,0,1-7.08-2.75,9.4,9.4,0,0,1-2.75-6.87c0-.37,0-.72,0-1.06s.06-.69.11-1l1.36-7.52a14.42,14.42,0,0,1,13.76-11.67H724Z"/></g><g id="Group_36" data-name="Group 36"><g id="Group_35" data-name="Group 35"><path id="Path_402" data-name="Path 402" class="cls-1" d="M333,225.9H302.12L298.64,246h15.85l.77-4.17h-6.71l2-11.71h21.73L329,249.29a13.63,13.63,0,0,1-4.92,8.3,13.45,13.45,0,0,1-8.88,3.41H292.62a9.3,9.3,0,0,1-7-2.75,9.64,9.64,0,0,1-2.72-6.94c0-.34,0-.68,0-1s.06-.67.11-1l4.63-26.72a14.43,14.43,0,0,1,13.76-11.67H335.7Z"/><path id="Path_403" data-name="Path 403" class="cls-1" d="M383.9,220.58a8.22,8.22,0,0,1-.06,1c0,.32-.08.65-.13,1l-1.32,7.53a11.19,11.19,0,0,1-4.26,5.83,8.36,8.36,0,0,1,2.25,5v.84L377,261H361.92l3.45-19.2H349.48L346.06,261H331.13l8.73-50.1H374.1a9.57,9.57,0,0,1,7.06,2.75A9.43,9.43,0,0,1,383.9,220.58Zm-31.69,5.32-.73,4.17h15.86l.76-4.17Z"/><path id="Path_404" data-name="Path 404" class="cls-1" d="M434,220.58a8.22,8.22,0,0,1-.06,1c0,.32-.08.64-.12,1l-4.66,26.72a13.67,13.67,0,0,1-4.92,8.29,13.45,13.45,0,0,1-8.88,3.42H392.82a9.3,9.3,0,0,1-7-2.75,9.66,9.66,0,0,1-2.72-6.94c0-.34,0-.68,0-1s.06-.67.11-1l4.62-26.72a14.44,14.44,0,0,1,13.77-11.67H424.2a9.55,9.55,0,0,1,7.05,2.75A9.43,9.43,0,0,1,434,220.58Zm-31.67,5.32L398.83,246h15.86l3.52-20.08Z"/><path id="Path_405" data-name="Path 405" class="cls-1" d="M479.24,249.28a13.61,13.61,0,0,1-4.91,8.29,13.44,13.44,0,0,1-8.89,3.41H442.9a9.23,9.23,0,0,1-7-2.75,9.62,9.62,0,0,1-2.72-6.93c0-.34,0-.68,0-1s.06-.67.11-1L440,210.89h15L448.92,246h15.86l6.16-35.08H486Z"/><path id="Path_406" data-name="Path 406" class="cls-1" d="M534.2,220.58a8.22,8.22,0,0,1-.06,1c0,.32-.08.65-.13,1l-1.32,7.53a13.84,13.84,0,0,1-4.84,8.29,13.39,13.39,0,0,1-8.85,3.41H499.76L496.34,261H481.41l8.73-50.1h34.24a9.57,9.57,0,0,1,7.06,2.75A9.47,9.47,0,0,1,534.2,220.58Zm-31.68,5.32-.73,4.17h15.85l.77-4.17Z"/></g></g><g id="Group_38" data-name="Group 38"><g id="Group_37" data-name="Group 37"><path id="Path_407" data-name="Path 407" class="cls-3" d="M354.32,40.88H334.14l-.56,2.74h20.19l-1.53,7.65H332.06L331.5,54h20.18l-2,9.81H318.19l6.6-32.75h31.55Z"/><path id="Path_408" data-name="Path 408" class="cls-3" d="M392.19,40.88H368.85l-.56,2.74h14.5a7.85,7.85,0,0,1,5.38,1.8A5.73,5.73,0,0,1,390.25,50a4.87,4.87,0,0,1,0,.66c0,.22-.06.44-.1.66l-1,4.9a8.76,8.76,0,0,1-3.71,5.42,11.15,11.15,0,0,1-6.71,2.25H352.9L354.83,54h23.34l.59-2.73H364.23a7.88,7.88,0,0,1-5.35-1.8A5.74,5.74,0,0,1,356.8,45c0-.24,0-.48,0-.7s0-.45.08-.67l1-4.92a8.64,8.64,0,0,1,3.66-5.4,11.21,11.21,0,0,1,6.74-2.24H394.2Z"/><path id="Path_409" data-name="Path 409" class="cls-3" d="M430,40.88H418.36l-4.65,22.94H402.34L407,40.88H395.35l2-9.81h34.71Z"/><path id="Path_410" data-name="Path 410" class="cls-3" d="M440.52,63.82H431l1.64-8.18h9.48Z"/><path id="Path_411" data-name="Path 411" class="cls-3" d="M503.15,37.4a4.48,4.48,0,0,1,0,.64c0,.22-.06.43-.1.64l-1,4.92A8.94,8.94,0,0,1,498.35,49a11.05,11.05,0,0,1-6.68,2.24H477.14L476.58,54h23.34l-2,9.82H463.26l2.52-12.56a8.6,8.6,0,0,1,3.63-5.39,11,11,0,0,1,6.71-2.25h14.5l.58-2.74H467.85l2-9.81h25.87a7.82,7.82,0,0,1,5.32,1.8A5.77,5.77,0,0,1,503.15,37.4Z"/><path id="Path_412" data-name="Path 412" class="cls-3" d="M541,37.4c0,.22,0,.43,0,.64s-.07.43-.1.64l-3.53,17.47a8.79,8.79,0,0,1-3.72,5.43,11.12,11.12,0,0,1-6.71,2.24h-17A7.63,7.63,0,0,1,504.6,62a5.87,5.87,0,0,1-2.05-4.53q0-.33,0-.66c0-.22,0-.44.08-.66l3.5-17.47a8.64,8.64,0,0,1,3.66-5.4,11.19,11.19,0,0,1,6.73-2.25h17a7.87,7.87,0,0,1,5.32,1.8A5.78,5.78,0,0,1,541,37.4Zm-23.93,3.48L514.43,54h12l2.66-13.13Z"/><path id="Path_413" data-name="Path 413" class="cls-3" d="M578.83,37.4c0,.22,0,.43,0,.64s-.06.43-.1.64l-3.53,17.47a8.77,8.77,0,0,1-3.71,5.43,11.14,11.14,0,0,1-6.71,2.24h-17a7.6,7.6,0,0,1-5.26-1.8,5.85,5.85,0,0,1-2.06-4.53c0-.22,0-.44,0-.66a6.57,6.57,0,0,1,.09-.66L544,38.7a8.64,8.64,0,0,1,3.66-5.4,11.22,11.22,0,0,1,6.74-2.25h17a7.87,7.87,0,0,1,5.32,1.8A5.75,5.75,0,0,1,578.83,37.4ZM554.9,40.88,552.27,54h12l2.66-13.13Z"/><path id="Path_414" data-name="Path 414" class="cls-3" d="M590.62,63.82h-13.8l19.11-22.94h-14.5l2-9.82h34.71Z"/></g></g></g></g></svg>