<svg id="Layer_1" data-name="Layer 1" xmlns="http://www.w3.org/2000/svg" viewBox="0 0 380.01 163.76"><defs><style>.cls-1{fill:#1e1c1c;}.cls-2{fill:#fff;}.cls-3{fill:#c11010;}</style></defs><g id="Layer_2" data-name="Layer 2"><g id="newlogo"><path class="cls-1" d="M142.24,235.26l-.16,0-.76-.23a91.16,91.16,0,0,1-47.9-35.39,82.66,82.66,0,0,1-13.56-58.3c1.68-11.91,1.26-22-1.15-27.69L71.84,97.34,87.93,91.7a13.53,13.53,0,0,0,4.66-4.14L100,77.18l11.6,4.3a27.32,27.32,0,0,0,7.25.86h.14c9.09,0,19.85-5.26,20.36-5.51l8-4.11,8.17,4.19.09,0a41.94,41.94,0,0,0,20.09,5.38,28.12,28.12,0,0,0,7.44-.87l11.57-4.29,7.37,10.38a13.6,13.6,0,0,0,4.66,4.14l16.1,5.64-6.89,16.27c-2.4,5.69-2.82,15.78-1.14,27.69a82.8,82.8,0,0,1-13.56,58.3A91.11,91.11,0,0,1,153.32,235l-.75.23-.15,0-5.09,1.22Z" transform="translate(-71.84 -72.72)"/><path class="cls-2" d="M143.33,231.06l-.09,0-.6-.18A86.79,86.79,0,0,1,97,197.17a79.23,79.23,0,0,1-11.48-25.91,78.17,78.17,0,0,1-1.38-29.35c1.81-12.84,1.31-23.5-1.44-30l-5.09-12,12-4.19a17.68,17.68,0,0,0,6.53-5.63l5.44-7.68,8.6,3.19a30.58,30.58,0,0,0,8.63,1.09H119c10.27,0,21.91-5.78,22.3-6l6.08-3.12,6.15,3.15.05,0a46,46,0,0,0,22.15,5.91,31.86,31.86,0,0,0,8.8-1.09l8.61-3.19,5.44,7.68a17.61,17.61,0,0,0,6.52,5.63l12,4.19-5.08,12c-2.74,6.48-3.26,17.14-1.45,30a77.76,77.76,0,0,1-1.38,29.35,79,79,0,0,1-11.47,25.91A86.79,86.79,0,0,1,152,230.86l-.61.18-.07,0-4,1Z" transform="translate(-71.84 -72.72)"/><path class="cls-3" d="M151.46,84.59A50.55,50.55,0,0,0,175.68,91a34.92,34.92,0,0,0,10.2-1.32l5.59-2.07,3.51,5a21.77,21.77,0,0,0,8.47,7.15l7.78,2.72-3.29,7.78c-3.09,7.3-3.68,18.46-1.74,32.28a73.77,73.77,0,0,1-1.3,27.73A74.72,74.72,0,0,1,194,194.74a82.46,82.46,0,0,1-43.34,32l-.46.13-2.91.7-2.93-.7-.44-.13a82.55,82.55,0,0,1-43.36-32,75.21,75.21,0,0,1-10.85-24.49,74,74,0,0,1-1.3-27.73c2-13.82,1.35-25-1.74-32.28l-3.28-7.78,7.78-2.72a21.78,21.78,0,0,0,8.46-7.15l3.51-5,5.58,2.07A34.4,34.4,0,0,0,119,91c11.59,0,24.25-6.44,24.25-6.44l4.11-2.11Z" transform="translate(-71.84 -72.72)"/><path class="cls-1" d="M147.33,82.47l4.13,2.12A50.55,50.55,0,0,0,175.68,91a34.92,34.92,0,0,0,10.2-1.32l5.59-2.07,3.51,5a21.77,21.77,0,0,0,8.47,7.15l7.78,2.72-3.29,7.78c-3.09,7.3-3.68,18.46-1.74,32.28a73.77,73.77,0,0,1-1.3,27.73A74.72,74.72,0,0,1,194,194.74a82.46,82.46,0,0,1-43.34,32l-.46.13-2.91.7Z" transform="translate(-71.84 -72.72)"/><path class="cls-2" d="M147.33,88h0l-2.65,1.35a51.55,51.55,0,0,1-24.78,6.58,36.7,36.7,0,0,1-10.79-1.44l-3.43-1.27-2.17,3a23.41,23.41,0,0,1-9.46,7.92l-4.79,1.68,2,4.77c3.19,7.53,3.84,18.85,1.89,32.7a68.85,68.85,0,0,0,1.2,25.78,69.66,69.66,0,0,0,10.1,22.78,77,77,0,0,0,40.45,29.83c.4.12.85.23,1.28.34l1.11.25h0Z" transform="translate(-71.84 -72.72)"/><path class="cls-3" d="M147.33,88h0L150,89.35a51.64,51.64,0,0,0,24.79,6.58,37,37,0,0,0,10.8-1.44L189,93.22l2.16,3a23.34,23.34,0,0,0,9.45,7.92l4.8,1.68-2,4.77c-3.18,7.53-3.83,18.85-1.87,32.7a69.06,69.06,0,0,1-1.21,25.78,69.85,69.85,0,0,1-10.09,22.78,77,77,0,0,1-40.45,29.83c-.4.12-.85.23-1.29.34l-1.11.25h0Z" transform="translate(-71.84 -72.72)"/><path class="cls-1" d="M198.9,108.73a27.88,27.88,0,0,1-11.74-9.66s-17.79,6.37-39.57-5.48l-.26-.14-.27.14c-21.78,11.85-39.58,5.48-39.58,5.48a27.88,27.88,0,0,1-11.73,9.66c4.22,10,3.88,23.42,2.22,35.28-4.67,33.08,16.57,62.94,48.42,73.07.27.09.74.19.94.24l.94-.24c31.86-10.07,53.07-40,48.41-73.07C195,132.15,194.68,118.71,198.9,108.73Z" transform="translate(-71.84 -72.72)"/><path class="cls-2" d="M190.7,136.61l-17.07,4.07-1.92,11.54,8.76-2.07.42-2.42-3.72.87,1.13-6.73,12-2.84-1.86,11.05a11.13,11.13,0,0,1-7.62,8.28l-12.46,2.95a4.27,4.27,0,0,1-3.85-.61,4.15,4.15,0,0,1-1.5-3.47c0-.19,0-.38,0-.56a3.72,3.72,0,0,1,.08-.57l2.55-15.38a9.9,9.9,0,0,1,2.68-5.2,9.67,9.67,0,0,1,4.93-3.05L192.16,128Z" transform="translate(-71.84 -72.72)"/><path class="cls-2" d="M159.93,137.1a4.44,4.44,0,0,0-3.89-.59L137.1,141l-1.44,8.63,8.28-2,1.21-.28,7.58-1.8-.42,2.42-7.61,1.8-1.15.28-8.28,2-3,17.78,8.26-2,1.88-11,8.78-2.09-1.9,11,8.31-2,1.9-11.06v-.47a3.7,3.7,0,0,0-1.24-2.48,8.43,8.43,0,0,0,2.34-3.79l.73-4.32c0-.19.06-.38.08-.57s0-.37,0-.56A4.12,4.12,0,0,0,159.93,137.1Z" transform="translate(-71.84 -72.72)"/><polygon class="cls-2" points="42.63 92.91 45.43 76.29 46.04 72.71 37.72 74.69 32.89 103.52 55.91 98.06 57.4 89.41 42.63 92.91"/></g><g id="Layer_4" data-name="Layer 4"><polygon class="cls-3" points="128.04 48.46 20.91 73.76 20.81 67.96 127.95 42.67 128.04 48.46"/><polygon class="cls-2" points="137.38 89.86 32.06 114.72 30.14 109.22 137.28 83.93 137.38 89.86"/></g></g><path class="cls-1" d="M266.6,145.36H243.24l4.89-28.1h8.44l-3.46,19.68h15Z" transform="translate(-71.84 -72.72)"/><path class="cls-1" d="M298.6,122.7a4.8,4.8,0,0,1,0,.55c0,.18-.05.37-.08.56l-2.61,15a8.2,8.2,0,0,1-7.74,6.57H275.51a5.2,5.2,0,0,1-3.91-1.55,5.37,5.37,0,0,1-1.53-3.89c0-.19,0-.38,0-.56s0-.38.07-.57l2.59-15a8.12,8.12,0,0,1,7.72-6.55H293.1a5.33,5.33,0,0,1,3.95,1.55A5.27,5.27,0,0,1,298.6,122.7Zm-17.76,3-2,11.26h8.89l2-11.26Z" transform="translate(-71.84 -72.72)"/><path class="cls-1" d="M326.69,122.7a4.8,4.8,0,0,1,0,.55c0,.18-.05.37-.07.56l-3.79,21.55h-8.44l3.48-19.68h-8.91l-3.46,19.68H297.1l4.89-28.1H321.2a5.36,5.36,0,0,1,3.95,1.55A5.26,5.26,0,0,1,326.69,122.7Z" transform="translate(-71.84 -72.72)"/><path class="cls-1" d="M354.78,122.7a4.8,4.8,0,0,1,0,.55c0,.18,0,.37-.07.56l-2.61,15a7.64,7.64,0,0,1-2.76,4.65,7.53,7.53,0,0,1-5,1.92H325.19l4.9-28.1h19.2a5.36,5.36,0,0,1,3.95,1.55A5.26,5.26,0,0,1,354.78,122.7Zm-17.76,3-1.95,11.26H344l2-11.26Z" transform="translate(-71.84 -72.72)"/><path class="cls-1" d="M382.88,122.7a4.74,4.74,0,0,1,0,.55c0,.18,0,.37-.07.56l-2.61,15a7.64,7.64,0,0,1-2.76,4.65,7.53,7.53,0,0,1-5,1.92H359.78a5.22,5.22,0,0,1-3.91-1.55,5.4,5.4,0,0,1-1.52-3.89c0-.19,0-.38,0-.56s0-.38.06-.57l2.6-15a7.53,7.53,0,0,1,2.71-4.63,7.62,7.62,0,0,1,5-1.92h12.64a5.34,5.34,0,0,1,3.95,1.55A5.27,5.27,0,0,1,382.88,122.7Zm-17.77,3-1.95,11.26h8.89l2-11.26Z" transform="translate(-71.84 -72.72)"/><path class="cls-1" d="M411,122.7a4.8,4.8,0,0,1,0,.55c0,.18-.05.37-.08.56l-3.78,21.55h-8.44l3.48-19.68h-8.91l-3.46,19.68h-8.38l4.9-28.1h19.2a5.34,5.34,0,0,1,3.95,1.55A5.27,5.27,0,0,1,411,122.7Z" transform="translate(-71.84 -72.72)"/><path class="cls-1" d="M266,159.55a3.43,3.43,0,0,1,0,.56c0,.18,0,.36-.07.55l-.74,4.22a6.25,6.25,0,0,1-2.39,3.27A4.75,4.75,0,0,1,264,171v.48l-1.91,10.76h-8.44l1.93-10.76h-8.91l-1.91,10.76H236.4l4.9-28.09h19.2a5.29,5.29,0,0,1,5.5,5.43Zm-17.77,3-.41,2.34h8.89l.44-2.34Z" transform="translate(-71.84 -72.72)"/><path class="cls-1" d="M291.31,162.54h-15l-.41,2.34h15l-1.13,6.57h-15l-.41,2.34h15l-1.5,8.42H264.49l4.9-28.09h23.42Z" transform="translate(-71.84 -72.72)"/><path class="cls-1" d="M317.08,162.54h-15l-.41,2.34h15l-1.13,6.57h-15l-1.91,10.76h-8.38l4.9-28.09h23.42Z" transform="translate(-71.84 -72.72)"/><path class="cls-1" d="M342.84,162.54h-15l-.41,2.34h15l-1.13,6.57h-15l-.41,2.34h15l-1.5,8.42H316l4.9-28.09h23.42Z" transform="translate(-71.84 -72.72)"/><path class="cls-1" d="M371.39,159.55a5.12,5.12,0,0,1,0,.56c0,.18-.05.36-.07.55l-.75,4.22a6.27,6.27,0,0,1-2.38,3.27,4.79,4.79,0,0,1,1.25,2.82v.48l-1.91,10.76h-8.44L361,171.45h-8.92l-1.91,10.76h-8.38l4.9-28.09h19.2a5.29,5.29,0,0,1,5.5,5.43Zm-17.76,3-.41,2.34h8.89l.43-2.34Z" transform="translate(-71.84 -72.72)"/><path class="cls-1" d="M396.7,162.54h-15l-.41,2.34h15l-1.13,6.57h-15l-.42,2.34h15l-1.51,8.42H369.89l4.89-28.09H398.2Z" transform="translate(-71.84 -72.72)"/><path class="cls-1" d="M422.47,162.54h-15l-.42,2.34h15l-1.13,6.57h-15l-.41,2.34h15l-1.5,8.42H395.65l4.9-28.09H424Z" transform="translate(-71.84 -72.72)"/><path class="cls-1" d="M450.34,162.54H433l-.41,2.34h10.77a5.4,5.4,0,0,1,4,1.55,5.24,5.24,0,0,1,1.54,3.88,5.17,5.17,0,0,1,0,.57c0,.19,0,.37-.07.57l-.74,4.2a7.7,7.7,0,0,1-2.76,4.65,7.57,7.57,0,0,1-5,1.91H421.18l1.44-8.42H440l.43-2.34H429.6a5.37,5.37,0,0,1-4-1.55,5.26,5.26,0,0,1-1.55-3.85c0-.2,0-.4,0-.59s0-.39.07-.58l.76-4.22a7.56,7.56,0,0,1,2.71-4.63,7.66,7.66,0,0,1,5-1.91h19.21Z" transform="translate(-71.84 -72.72)"/><path class="cls-1" d="M258.59,199.39H241.26l-2,11.26h8.89l.44-2.35h-3.77l1.13-6.57h12.18L256.3,212.5a7.6,7.6,0,0,1-2.76,4.65,7.5,7.5,0,0,1-5,1.91H235.93a5.2,5.2,0,0,1-3.91-1.54,5.39,5.39,0,0,1-1.53-3.89c0-.19,0-.38,0-.57s0-.37.07-.56l2.59-15a7.52,7.52,0,0,1,2.72-4.63,7.6,7.6,0,0,1,5-1.92h19.2Z" transform="translate(-71.84 -72.72)"/><path class="cls-1" d="M287.11,196.4a5,5,0,0,1,0,.56c0,.18,0,.36-.07.56l-.74,4.21a6.28,6.28,0,0,1-2.39,3.28,4.7,4.7,0,0,1,1.26,2.82v.47l-1.92,10.76h-8.44l1.94-10.76h-8.91l-1.92,10.76h-8.37L262.41,191h19.21a5.39,5.39,0,0,1,3.95,1.54A5.28,5.28,0,0,1,287.11,196.4Zm-17.76,3-.41,2.34h8.89l.43-2.34Z" transform="translate(-71.84 -72.72)"/><path class="cls-1" d="M315.2,196.4a5,5,0,0,1,0,.56c0,.18,0,.36-.07.56l-2.61,15a7.7,7.7,0,0,1-2.76,4.65,7.52,7.52,0,0,1-5,1.91H292.11a5.21,5.21,0,0,1-3.91-1.54,5.42,5.42,0,0,1-1.52-3.89c0-.19,0-.38,0-.57a5.62,5.62,0,0,1,.06-.56l2.59-15a8.12,8.12,0,0,1,7.72-6.55h12.64a5.39,5.39,0,0,1,4,1.54A5.28,5.28,0,0,1,315.2,196.4Zm-17.76,3-1.95,11.26h8.89l2-11.26Z" transform="translate(-71.84 -72.72)"/><path class="cls-1" d="M340.58,212.5a7.7,7.7,0,0,1-2.76,4.65,7.52,7.52,0,0,1-5,1.91H320.2a5.23,5.23,0,0,1-3.91-1.54,5.42,5.42,0,0,1-1.52-3.89c0-.19,0-.38,0-.57l.06-.56L318.6,191H327l-3.46,19.68h8.89L335.93,191h8.44Z" transform="translate(-71.84 -72.72)"/><path class="cls-1" d="M371.39,196.4a5,5,0,0,1,0,.56c0,.18-.05.36-.07.56l-.75,4.21a7.77,7.77,0,0,1-2.71,4.66,7.54,7.54,0,0,1-5,1.91H352.08l-1.91,10.76h-8.38l4.9-28.09h19.2a5.36,5.36,0,0,1,3.95,1.54A5.28,5.28,0,0,1,371.39,196.4Zm-17.76,3-.41,2.34h8.89l.43-2.34Z" transform="translate(-71.84 -72.72)"/><path class="cls-2" d="M270.53,95.64H259.21l-.31,1.53h11.32l-.86,4.3H258l-.31,1.53h11.32l-1.13,5.5H250.27L254,90.14h17.69Z" transform="translate(-71.84 -72.72)"/><path class="cls-2" d="M291.76,95.64H278.67l-.31,1.53h8.13a4.46,4.46,0,0,1,3,1,3.23,3.23,0,0,1,1.17,2.55,2.4,2.4,0,0,1,0,.37c0,.12,0,.24,0,.37l-.56,2.74a4.91,4.91,0,0,1-2.08,3,6.21,6.21,0,0,1-3.77,1.25H269.73l1.09-5.5h13.09l.33-1.53h-8.15a4.44,4.44,0,0,1-3-1,3.25,3.25,0,0,1-1.16-2.52c0-.13,0-.26,0-.39s0-.25.05-.38l.57-2.76a4.86,4.86,0,0,1,2.06-3,6.25,6.25,0,0,1,3.77-1.25H292.9Z" transform="translate(-71.84 -72.72)"/><path class="cls-2" d="M313,95.64h-6.55l-2.61,12.86h-6.38l2.63-12.86h-6.54l1.12-5.5h19.46Z" transform="translate(-71.84 -72.72)"/><path class="cls-2" d="M318.86,108.5h-5.32l.92-4.58h5.32Z" transform="translate(-71.84 -72.72)"/><path class="cls-2" d="M354,93.69c0,.12,0,.24,0,.36s0,.24-.06.36l-.56,2.76a4.93,4.93,0,0,1-2,3,6.18,6.18,0,0,1-3.74,1.26H339.4l-.31,1.53h13.09L351,108.5H331.63l1.41-7a4.81,4.81,0,0,1,2-3,6.1,6.1,0,0,1,3.76-1.27H347l.33-1.53H334.21l1.12-5.5h14.5a4.43,4.43,0,0,1,3,1A3.25,3.25,0,0,1,354,93.69Z" transform="translate(-71.84 -72.72)"/><path class="cls-2" d="M375.2,93.69a2.17,2.17,0,0,1,0,.36c0,.12,0,.24-.05.36l-2,9.8a4.91,4.91,0,0,1-2.08,3,6.2,6.2,0,0,1-3.76,1.25h-9.55a4.23,4.23,0,0,1-2.95-1,3.27,3.27,0,0,1-1.15-2.54c0-.12,0-.25,0-.37s0-.24.05-.37l2-9.8a4.81,4.81,0,0,1,2.05-3,6.26,6.26,0,0,1,3.78-1.25h9.54a4.41,4.41,0,0,1,3,1A3.25,3.25,0,0,1,375.2,93.69Zm-13.41,2L360.31,103H367l1.49-7.36Z" transform="translate(-71.84 -72.72)"/><path class="cls-2" d="M396.42,93.69a2.17,2.17,0,0,1,0,.36c0,.12,0,.24,0,.36l-2,9.8a4.91,4.91,0,0,1-2.08,3,6.18,6.18,0,0,1-3.76,1.25H379a4.23,4.23,0,0,1-3-1,3.27,3.27,0,0,1-1.15-2.54c0-.12,0-.25,0-.37s0-.24.05-.37l2-9.8a4.85,4.85,0,0,1,2.05-3,6.26,6.26,0,0,1,3.78-1.25h9.54a4.41,4.41,0,0,1,3,1A3.22,3.22,0,0,1,396.42,93.69Zm-13.41,2L381.53,103h6.72l1.49-7.36Z" transform="translate(-71.84 -72.72)"/><path class="cls-2" d="M403,108.5h-7.74L406,95.64h-8.13l1.12-5.5h19.46Z" transform="translate(-71.84 -72.72)"/></svg>