<?xml version="1.0" encoding="utf-8"?>
<!-- Generator: Adobe Illustrator 25.1.0, SVG Export Plug-In . SVG Version: 6.00 Build 0)  -->
<svg version="1.1" id="Слой_1" xmlns="http://www.w3.org/2000/svg" xmlns:xlink="http://www.w3.org/1999/xlink" x="0px" y="0px"
	 viewBox="0 0 445.61 359.27" style="enable-background:new 0 0 445.61 359.27;" xml:space="preserve">
<style type="text/css">
	.st0{fill:#0F1016;}
	.st1{fill:#EAEAF4;}
	.st2{fill:none;stroke:#EAEAF4;stroke-miterlimit:10;}
	.st3{fill:#DB4A1D;}
	.st4{fill:#F5BE54;}
	.st5{fill:none;stroke:#EC9D3B;stroke-miterlimit:10;}
	.st6{fill:#EC9D3B;}
	.st7{fill:#F19938;}
	.st8{fill:#EB672A;}
	.st9{fill:#9D2117;}
	.st10{fill:none;stroke:#9D2117;stroke-miterlimit:10;}
	.st11{fill:#EC682B;}
	.st12{fill:#4C1314;}
	.st13{fill:#F6DBA6;}
	.st14{fill:#EF9938;}
	.st15{fill:#46515B;}
	.st16{fill:#EFCA8F;}
	.st17{fill:url(#SVGID_1_);}
	.st18{fill:none;stroke:#0F1016;stroke-miterlimit:10;}
	.st19{fill:url(#SVGID_2_);}
	.st20{fill:url(#SVGID_3_);}
	.st21{fill:url(#SVGID_4_);}
	.st22{fill:url(#SVGID_5_);}
	.st23{fill:url(#SVGID_6_);}
	.st24{fill:url(#SVGID_7_);}
	.st25{fill:url(#SVGID_8_);}
	.st26{fill:url(#SVGID_9_);}
	.st27{fill:url(#SVGID_10_);}
	.st28{fill:url(#SVGID_11_);}
	.st29{fill:url(#SVGID_12_);}
	.st30{fill:url(#SVGID_13_);}
	.st31{fill:url(#SVGID_14_);}
	.st32{fill:url(#SVGID_15_);}
	.st33{fill:#030205;}
	.st34{opacity:0.11;fill:#EAEAF4;}
	.st35{fill:url(#SVGID_16_);}
	.st36{fill:url(#SVGID_17_);}
	.st37{fill:url(#SVGID_18_);}
	.st38{fill:url(#SVGID_19_);}
	.st39{fill:url(#SVGID_20_);}
	.st40{fill:url(#SVGID_21_);}
	.st41{fill:url(#SVGID_22_);}
	.st42{fill:url(#SVGID_23_);}
	.st43{fill:url(#SVGID_24_);}
	.st44{fill:url(#SVGID_25_);}
	.st45{fill:url(#SVGID_26_);}
	.st46{fill:url(#SVGID_27_);}
	.st47{fill:url(#SVGID_28_);}
	.st48{fill:url(#SVGID_29_);}
	.st49{fill:url(#SVGID_30_);}
	.st50{fill:url(#SVGID_31_);}
	.st51{opacity:0.2;fill:#46515B;}
	.st52{fill:#050712;}
	.st53{fill:url(#SVGID_32_);}
	.st54{fill:url(#SVGID_33_);}
	.st55{fill:url(#SVGID_34_);}
</style>
<path class="st0" d="M184.92,140.75c0.02-1.05-0.85-1.9-1.9-1.86c-1.72,0.08-4.51,0.12-7.79-0.12c0,0-5.46-0.25-8.22,5.76
	c-0.24,0.53-0.72,0.91-1.29,1.03c-2.71,0.56-10.53,2.98-11.93,12.34c-0.1,0.68-0.56,1.25-1.21,1.47
	c-4.46,1.51-21.6,7.48-29.29,12.21c-0.03,0.02-0.07,0.04-0.1,0.06l-11.84,6.13c0,0-10.83,5.76-16.93,9.08
	c-0.05,0.03-0.1,0.05-0.15,0.07c-0.75,0.32-7.24,3.18-10.65,7.78c-0.05,0.06-0.09,0.12-0.15,0.17l-14.03,14.28
	c-0.09,0.09-0.17,0.19-0.23,0.29c-1.27,2-14.23,22.41-21.07,36.42c-0.02,0.04-0.04,0.08-0.06,0.11
	c-1.02,1.74-25.59,43.72-29.65,60.78l-7.78,27.43c-0.07,0.24-0.18,0.46-0.34,0.65c-1.4,1.72-8.67,10.87-10.26,16.63
	c-0.32,1.15,0.56,2.29,1.76,2.29h99.16h336.04c0.26,0,0.52-0.06,0.76-0.17c1.95-0.91,10.29-5.82,7.11-22.52
	c-0.03-0.16-0.04-0.32-0.03-0.48l0.7-8.38c0.03-0.33-0.04-0.66-0.18-0.96l-13.34-26.81c-0.04-0.07-0.07-0.15-0.09-0.22
	c-0.57-1.66-7.4-21.46-16.52-32.2c-0.03-0.03-0.05-0.06-0.07-0.09c-0.64-0.89-9.99-13.76-23.19-28.57c0,0-18.94-22.83-23.44-25.91
	c-0.38-0.26-0.67-0.65-0.77-1.1c-0.45-2.01-2.17-7.48-7.97-11.53c-0.03-0.02-0.05-0.04-0.08-0.06c-0.36-0.23-3.1-2.04-3.56-3.85
	c-0.46-1.83-2.15-6.14-6.38-8.3c-0.44-0.23-0.76-0.62-0.9-1.1c-0.33-1.1-1.31-3.11-4.2-3.95c0,0-3.44-1.1-7.42-1.11
	c-0.25,0-0.5-0.05-0.73-0.15c-1.28-0.56-5.8-2.5-8.15-2.8c-0.1-0.01-0.19-0.03-0.28-0.06c-1.38-0.41-12.73-3.7-17.64-2.5
	c-0.4,0.1-0.83,0.08-1.21-0.09c-1.98-0.89-8.62-3.51-15.94-2.54c-0.99,0.13-1.88-0.56-2.03-1.55c-0.34-2.36-1.38-6.37-4.46-8.54
	c-0.28-0.2-0.52-0.46-0.66-0.77c-0.53-1.2-2.04-4.35-3.82-5.55c-0.19-0.13-0.36-0.27-0.5-0.45l-1.2-1.57
	c-0.74-0.97-2.21-0.94-2.92,0.05l-5.52,7.76c-0.07,0.1-0.14,0.22-0.19,0.34l-2.16,5.02c-0.05,0.11-0.09,0.23-0.11,0.35
	c-0.55,2.72-8.32,36.89-52,38.05c0,0-6.07,0.01-10.65,0c-4.56-0.01-13.42-9.2-15.88-14.78c-0.02-0.04-0.03-0.07-0.04-0.11
	c-0.35-0.91-5.15-13.34-11.97-21.51c-0.03-0.03-0.06-0.06-0.09-0.1c-0.32-0.34-2.3-2.52-3.18-5.14c-0.28-0.82,0.07-1.73,0.82-2.15
	c1.03-0.58,2.45-1.51,3.16-2.6C180.14,155.06,184.74,149.89,184.92,140.75z"/>
<path class="st1" d="M153.64,166.1l-26.53,11.25c0,0-42.31,19.46-47.7,30.47c0,0-21.15,28.78-22.4,39.39l-15.76,54.17l-15.76-2.89
	c0,0,26.57-60.18,27.48-61.82c0.91-1.64,16.35-27.37,16.35-27.37l16.48-16.97l37.45-20.71c0,0,22.4-11.58,30.42-12.6L153.64,166.1z"
	/>
<path class="st1" d="M103.47,210.19c0,0-5.39,4.49-4.98,7.81c0,0-17.42,17.84-16.59,20.33l-0.03,8.88c0,0-13.24,16-13.24,20.15v9.96
	c0,0-9.13,15.35-11.2,24.06l-4.98,6.64c0,0,4.98,6.64,4.98,9.54c0,0,9.96,10.37,10.37,13.69c0.41,3.32,0.41,3.32,0.41,3.32
	s13.27-29.43,16.18-36.08c0,0,9.96-32.37,9.13-40.25C93.51,258.24,95.17,223.54,103.47,210.19z"/>
<path class="st1" d="M98.49,315.89c0,0-8.3,10.37,0,21.98c0,0,5.81,8.95,2.49,15.88h10.37c0,0-5.39-1.78-2.49-7.59
	c0,0,2.49-1.8,1.84-5.3c0,0-0.83-4.33-3.87-7.19c0,0-1.55-1.28-2.11-4.7c-0.35-2.1-1.26-4.1-2.73-5.64
	c-0.66-0.7-1.43-1.31-2.25-1.64C99.74,321.7,97.89,320.78,98.49,315.89z"/>
<path class="st1" d="M131.26,201.9c0,0-16.59,26.05-19.91,50.94l3.73,19.53c0,0-1.66,3.7,1.24,8.26c0,0,0.41,3.28,1.66,7.03
	l-2.49,5.83v7.88c0,0,4.15,12.77,3.96,16.82c0,0,0.37,14.93,8.3,23.6c0,0,4.61,6.42,2.03,11.96h26.24c0,0-15-85.52-13.71-97.32
	l4.98-5.35c0,0-2.03-8.3-3.13-11.06C144.17,240.03,136.05,210.05,131.26,201.9z"/>
<path class="st1" d="M163.34,198.73c0,0,2.49,15.12,9.4,26.73v19.36c0,0,6.08,82.68,7.47,89.73l1.66,19.2h35.19
	c0,0-5.6-71.88-4.22-95.94l0.62-41.18c0,0-8.78-10.3-17.97,0.51c0,0-19.42,3.9-20.81,3.07
	C173.29,219.38,163.34,198.73,163.34,198.73z"/>
<path class="st1" d="M246.31,206.65l-6.97,8.89c0,0,0.51,4.11,0,10.47c0,0-0.43,41.48,0.77,48.12l4.06,79.62h32.54l7.47-109.49
	l-0.37-67.72L246.31,206.65"/>
<path class="st1" d="M309.18,189.09c0,0-1.31,147.78-5.62,164.67h20.99c0,0-0.41-10.9,0-14.22c0,0,10.78-15.35,9.54-23.64
	c0,0,10.78-77.57,10.37-79.23s-0.41-1.66-0.41-1.66l-9.54-8.71c0,0-6.22-16.21-6.64-18.48
	C327.87,207.82,323.67,199.59,309.18,189.09z"/>
<path class="st2" d="M306.72,215.55"/>
<path class="st0" d="M158.59,148.98c0,0-7.79,2.56-3.82,23.58c0,0,7.47,23.6,8.57,26.18c0,0,1.47,10.59,6.45,17.09l2.95,9.64
	c0,0-1.11,6.27,5.35,2.58c0,0,10.14-6.08,13.27-7.56c0,0,8.85-8.85,16.59-6.82c0,0,9.45,4.7,18.78,11.43l21.96-16.64
	c0,0,6.01,1.29,7.11,4.44c0,0,30.32-31.68,34-39.42c0,0,2.34-3.87,0.89-9.96c0,0-1.03-4.01-4.14-5.6c0,0-1.46-4.36-4.31-6.2
	l-2.9-3.79c0,0-7.65,9.55-9.36,15.29c-1.71,5.74-8.42,35.03-49.97,38.22h-12.7c0,0-13.48-5.1-18-19.8c0,0-7.02-12.97-8.48-14.81
	c0,0-4.48-4.33-5.04-8.57c0,0,8.52-2.35,9.1-19.5h-9.65c0,0-6.02-0.51-8.59,6.64C166.64,145.41,161.67,145.72,158.59,148.98z"/>
<path class="st3" d="M22.58,306.77c0,0,22.68,6.64,32.35,18.25l1.94,6.91c0,0,15.9,20.43,21.09,21.83H1.82c0,0-4.87-3.56,8.5-18.91
	l8.11-28.08C18.44,306.77,19.34,305.7,22.58,306.77z"/>
<path class="st4" d="M172.33,87.06c0,0-3.04-2.63-4.7,3.32c0,0-2.21,3.82,0,10.34l2.63,9.29c0,0,1.8,6.36,5.12,9.96
	c0,0,1.66,2.35,3.04,4.7c0,0,1.38,2.9,5.95,3.73c0,0,3.32,19.77-5.95,28.62c0,0-1.37,0.69-2.62,1.24l3.31,10.51
	c0,0,4.42,26.69,29.45,35.12l19.77,0.83l19.08-8.02c0,0,21.29-27.38,24.89-38.85c0,0-1.38,0.28,4.56-6.91c0,0,6.5-8.16,8.16-23.09
	c0,0,4.01-12.58,2.63-25.03l-1.94-20.19l-77.84-1.66l-14.66,5.39L172.33,87.06z"/>
<path class="st5" d="M222.53,114.06"/>
<path class="st6" d="M193.56,102.22c-0.05,0.17-0.16,0.31-0.27,0.45c-1.2,1.49-7.49,10.02-4.26,21.27
	c3.37,11.72-9.29,32.61-10.02,34.87c-3.58,11.08,15.61,45.09,25.22,41.11c1.43-0.59,5.18-1.24,6.44,0
	c12.99,12.74,32.09-1.12,36.04-2.89c0.45-0.2,0.84-0.52,1.14-0.92l5.63-7.68c1.64-2.23-0.52-5.26-3.17-4.44h0
	c-3.93,1.29-6.18,0.41-7.46-0.89c-1.11-1.13-2.96-1.14-4.07-0.01c-2.04,2.07-7.41-0.99-7.41-0.99c-2.75-1.88-5.66-7.56-5.47-8.66
	c0.02-0.1,0.04-0.2,0.04-0.3c-0.66-9.05-7.04-10.04-8.17-13.17c-6-16.55-0.73-33.33-0.71-33.35c0.35-0.37,6.07-7.86,13.99-7.95
	c0.02,0,0.04,0,0.05,0c0.43-0.04,5.94-0.59,7.02-2.98c0,0,0.15-2.06,4.01,4.88c0.01,0.02,0.02,0.03,0.03,0.05
	c0.29,0.62,6.25,13.15,7.46-0.49c0-0.03,0-0.06,0-0.1c-0.02-0.64-0.14-7.88,2.53-9.74c3.13-2.18,3.13-7.19,3.13-7.19l0.26-9.77
	c0-0.05,0-0.1-0.01-0.15c-0.11-0.73-1.09-6.49-4.64-6.92c-0.25-0.03-0.46-0.17-0.6-0.39c-0.37-0.6-1.44-1.83-4.42-2.81
	c-0.07-0.02-0.13-0.05-0.19-0.09l-1.73-1.12c-0.13-0.08-0.28-0.13-0.44-0.13l-35.5-0.76c-0.11,0-0.21,0.02-0.31,0.05l-13.73,5.05
	c-0.42,0.16-0.65,0.61-0.51,1.04C194.12,89.22,195.64,95.35,193.56,102.22z"/>
<path class="st7" d="M266.48,88.68c0,0-6.05-1.2-7.87,2.81c0,0-6.51-3.73-4.72,2.35c0,0,0.65,5.14,0.1,10.67
	c0,0,3.91,20.15,6.67,22.11c0,0,2.41,3.03,0.45,6.13c0,0,0.04,0.04,0.11,0.1c3.97,3.69,6.39,8.76,6.73,14.17
	c0.12,1.91,0.12,3.81-0.18,5.08c0,0,2.98,7,4.5,5.76c0,0,4.11-5.62,5.9-8.9c0,0,5.99-11.15,6.82-21.1c0,0,1.13-6.66,2.15-9.83
	c0,0,1.01-7.27,0.74-11.23l-0.47-6.06l-1.22-12.74c0,0-5.21-2.31-8.81,1.08c0,0-2.41,1.6-5.61,1.02
	C271.8,90.09,267.5,88.4,266.48,88.68z"/>
<path class="st8" d="M248.11,105.45c0,0-1.09,3.45-0.33,5.24c0,0,2.43,11.92-3.6,8.88c0,0-4.6-10.64-7.11-7.4
	c0,0-5.01,10.01-22.84,0.88c0,0-3.59-3.73-4.7-3.18c0,0-4.98-2.21-5.81-4.42c0,0-2.65-2.8-2.77-5.29c0,0-3.12-4.71-1.98-6.21
	c0,0-0.1-0.44,2.67,0c0,0,4.01,0.69,6.78-1.79c0,0,0.5-1.23,2.25-0.96c0,0,8.95-1.19,16.14,1.13c0,0,12.03,3.41,15.69-0.17
	c0,0,0.06-1.61-3.02-0.95c0,0-5.78,2.4-12.68-2.15c0,0-3.59-1.28-7.05-1.85c0,0-7.59-0.74-7.39-2.73l31.17,0.1
	c0,0,4.07,1.41,4.25,4.36c0,0-0.24,5.53,1.21,5c0,0,9.85,5.84,1.92,9.29C250.91,103.24,248.9,103.63,248.11,105.45z"/>
<path class="st9" d="M240.16,88.94c0,0-1.31-2.32-3.54-1.51c0,0-2.68,0.78-4.68-0.7c0,0-3.88-1.74-3.73,0c0,0,1.67,1.62,3.73,2.78
	c0,0-1.09,1.28,4.42,0L240.16,88.94z"/>
<path class="st10" d="M231.37,108.11"/>
<path class="st3" d="M213.94,106.14c-1.41,1.37-2.49,1.71-2.49,1.71c-6.45,1.47-6.08-3.7-6.08-3.7c-0.37-2.04-2.4-3.73-2.4-3.73
	c-6.08-6.69,0-5.11,0-5.11c2.58,0.37,4.98-1.11,4.98-1.11c5.48-3.36,11.8-1.55,11.8-1.55c3.74-0.61,14.24,2.01,14.24,2.01
	c5.12,1.11,8.3-0.46,8.3-0.46c4.71-3.49,3.59,0,3.59,0c-2.21,2.44,0.28,2.64,0.28,2.64c6.5-0.86,3.73,3.58,3.73,3.58
	c-5.81,7-13.37,7.19-13.37,7.19s-12.88,6.75-11.15,5.72c0,0,3.5-2.26,3.78-4.11c0,0,0.95-1.84-4.22-0.09c0,0-5.75-0.22-8.22-2.35
	C216.71,106.79,215,105.11,213.94,106.14z"/>
<path class="st11" d="M269.83,91.57l-2.26-1.49c-1.78-0.89-2.64,1.49-2.64,1.49c-1.01,1.05-2.77-0.41-2.77-0.41
	c-1.57-1.01-3.53,1.77-3.53,1.77s-0.46,0.73-1.54-0.21c0,0-0.89-1.28-1.8,10.37c0,0-0.43,4.57,4.9,5.05c0,0,7.96,8.08,11.55,10.16
	c0,0,5.35-0.41,3.78,11.06c0,0-2.01,11.71,0.29,14.73c0,0,1.91,3.51,6.18-6.16l5.18-19.92c0,0,0.1-10.31-2.34-5.77
	c0,0-3.87,5.23-9.31,2.47c0,0-2.26-1.11,0.78-3.59c0,0,2.77-1.61,5.67-4.33c0,0,1.52-2.75,3.59-3.36c0,0,2.21-1.84,1.6-7.75
	l-0.95-7.69c0,0-2.31-0.68-5.9,2.1c0,0-3.83,1.84-7.19,2.08C273.12,92.17,271.14,92.44,269.83,91.57z"/>
<path class="st3" d="M257.64,103.7c0,0,2.76-0.66,5.11,0.45c0,0,3.72,4.79,12.31,2.64c0,0,6.08-2.18-0.74-1.89
	c0,0-8.9-1.77,3.94-1.39c0,0,4.73,1.06,6.2-1.68c0,0,2.64-2.09,1.09-6.05c0,0-0.3-2.12-3.65-1.47c0,0-24.72,0.49-25.27,6.13
	C256.64,100.43,255.79,102.87,257.64,103.7z"/>
<path class="st12" d="M205.37,99.05c0,0,0-1.9,4.06-3.19c0,0,2.21-1.11,3.69-2.03c0,0,2.36-1.29,7.27,0c0,0,3.47,0.37,4.56,0.37
	c0,0,3.41-0.52,7.04,1.95c0,0,3.26,1.22,7.5,0c0,0-1.66,2.95-9.22,2.9c0,0-2.95,0.06-7.84,0c0,0-4.15-0.61-10.05,0.87
	C212.38,99.92,208.51,101.51,205.37,99.05z"/>
<path class="st11" d="M188.32,126.61c-2.16,2.34-3.96,1.79-3.96,1.79l-0.3,20.35c3.43,6.94,3.76,17.34,3.76,17.34
	c1.66,3.4,5.64,16.86,5.64,16.86c1.63,12.11,11.35,14.63,14.41,13.84c1.84-0.48,2.77,1.23,2.77,1.23
	c6.66,6.32,15.27,3.01,15.27,3.01l0.04-2.4l1.36-14.84l-5.97-8.48c-9.86-18.97-11.25-32.47-11.25-32.47c-0.62-7.67,2-14.59,2-14.59
	c2.56-5.66-0.37-6.27-1.41-6.59c-5.28-2.19-9.35-7.19-9.35-7.19c-7.93-13.27-11.63-5.35-11.63-5.35c-3.8,6.69-0.66,14.81-0.66,14.81
	S189,125.87,188.32,126.61z"/>
<path class="st13" d="M253.21,129.65c0,0-1.66-1.11-6.29,0c0,0-2.83,0.14-3.94-1.52c0,0-2.49-3.87-4.7,0.76c0,0-1.38,1.73,4.01,2.14
	c0,0,1.94,0.1,3.87,1.71c0,0,3.04,3.23,7.05,0c0,0,2.1-1.71,5.41-1.43c0,0,3.3,0.69,2.34-2.63c0,0-0.55-3.04-5.53-0.55
	L253.21,129.65z"/>
<path class="st12" d="M256.82,95.62c0,0,1.37,1.4,2.76,0c0,0,1.8-2.6,3.18-1.79c0,0,1.47,0.45,3.04-0.17c0,0,0.28-2.75,1.8-1.93
	c0,0,0.88-0.09,1.11,1.01c0,0,0.28,1.45,4.42,0.91c0,0,7.74-1.93,9.68-0.63c0,0,1.38,0.59,2.03,2.6c0,0-1.11,1.92-7.1,1.09
	c0,0-2.67-0.32-6.08,0.21c0,0-5.16,1.2-9.03,1.42c0,0-3.78,1.51-4.79,0.77C257.82,99.1,256.09,98.13,256.82,95.62z"/>
<path class="st14" d="M264.92,102.63"/>
<path class="st6" d="M255.55,133.6l-6.24,3.56l-11.23-3.09l0.19-1.33c0,0-4.09-0.1-3.15-3.32c0,0,0.84-3.5,4.35-4.79
	c0,0,2.77-0.92,0-3.32c0,0-0.43-2.21-3.44,2.4c0,0-8.31,11.78-11.59,15.07c0,0-7.58,9.94-5.71,15.54c0,0,3.94-2.14,6.19-6.62
	l4.17-5.68c1.27-1.73,2.98-3.09,4.97-3.89c1.87-0.75,6.17,0.01,7.48,1.71c0,0,3.14,6.21,7.44,5.19c0.7-0.17,3.02-2.34,4.17-4.04
	c0,0,7.97-2.22,7.97-5.24C261.13,135.75,262.46,131.04,255.55,133.6z"/>
<path class="st9" d="M284.34,117.62c0,0-7.07,4.63-5.97,12.78c0,0-0.37,3.36,2.3-0.7c0,0,2.07-4.87,3.66-5.9
	C284.34,123.79,287.05,120.41,284.34,117.62z"/>
<path class="st12" d="M239,98.56c0,0-0.67-0.81-5.55,0.71c-1.21,0.38-2.45,0.55-3.68,0.54c-3.59-0.05-11.35,0.04-16.18,1.49
	c0,0-2.18,0.28-3.97,2.56c0,0-1.17-1.18,8.86-0.45c0,0,6.34,1.89,13.03,0.9C231.51,104.32,242.49,101.4,239,98.56z"/>
<path class="st0" d="M219.3,100.77c0,0-0.53,0.98,3.25,2.4c0,0,4.63,0.92,7.92-0.5c0,0,1.66-1.27,1.14-2.81l-4.23-0.05
	c0,0-5.67,0.11-8.06,0.43L219.3,100.77z"/>
<path class="st12" d="M225.16,100.34c0,0-0.04,1.11,1,1.15c0,0,1.02,0.18,1.27-1.37C227.43,100.13,226.03,100.13,225.16,100.34z"/>
<path class="st10" d="M282.8,109.88"/>
<path class="st13" d="M226.55,123.69c0,0-5.62,0.81-3.18,5.76c0,0-0.01,7.19,2.67,3.82c0,0,3.13-3.81,3.48-5.85
	C229.52,127.43,230.84,122.79,226.55,123.69z"/>
<path class="st3" d="M194.94,113.93c0,0,5.33,5.64,9.45,23.79c0,0,0.19,6.7,5.4,24.21c1.58,5.28,8.64,15.87,2.28,14.31
	c0,0-12.1-3.26-3.02,2.45c0,0,7.6,6.2,18.01,7.46l-1.18,14.88c0,0-18.35-0.13-28.22-18.94c0,0-12.75-20.32-0.74-13.68
	c0,0,2.04,1.17-2.14-4.35c0,0-9.34-14.17-6.48-19.98c0,0-4.33-6-3.96-15.68c0,0,3.25,0.88,3.96-1.79
	C188.32,126.61,187.75,104.7,194.94,113.93z"/>
<path class="st9" d="M192.93,120.59c0,0,1.53,10.27,2.01,14.8c0,0,0.64,2.59-1.56,10.11c0,0-1.74,3.07,3.56,12.67l5.18,10.83
	c0,0,6.71,6.55,0-7.94c0,0-3.71-2.63-3.73-16.95c0,0,1.68-11.26,0-17.49C198.39,126.61,194.31,116.38,192.93,120.59z"/>
<path class="st15" d="M175.79,158.27l2.47,7.83c0,0,5.89-4.09,7.1-10.43c0,0,0.29-10.38,2.96-11.59c2.67-1.21,5.78-8.02,5.06-11.34
	c0,0-3.64-11.48-4.35-8.8s0,0,0,0s0.3,5.48-4.67,4.47c-4.98-1.01,0,0,0,0l-0.21,13.91C184.15,142.31,182.43,154.26,175.79,158.27"/>
<path class="st12" d="M259.49,99.45c0,0,5.6-1.99,11.24-0.74c0,0,7.85,0.71,10.48,0.59c0,0,0.97,3.16-6.29,3.39
	c0,0-5.73-0.83-7.36-0.79C267.56,101.91,262.16,103.28,259.49,99.45z"/>
<path class="st0" d="M262.89,98.92c0,0-1.31,2.28,4.08,2.14c0,0,4.7,0.29,5.74-1.76c0,0-0.83-1.03-5.46-1L262.89,98.92z"/>
<path class="st7" d="M263.17,86.37c0,0,0.55-2.76,6.36-1.89c0,0,3.78,0.45,5.81-0.79l3.5-0.28c0,0-1.47,2.49-3.04,2.95
	c0,0,0.36,1.51-5.42,0c0,0-4.81-0.23-5.45,0.67C264.92,87.04,262.23,87.6,263.17,86.37z"/>
<path class="st13" d="M199.01,106.79c0,0,5.28,7.93,7.62,8.76c0,0,7.59,1.41,9.32,0.77c0,0-0.18-1.49-8.49-4.66
	c0,0-3.61-2.02-5.34-4.46C202.12,107.2,198.21,101.42,199.01,106.79z"/>
<path class="st11" d="M236.07,133.52c0,0,0.98-2,5.12,0.41l1.38,0.9c0,0,5.25,4.42,11.55,0.48c0,0,1.94-2.49,5.74-1.87
	c0,0,1.8,1.24-2.9,3.94c0,0-4.32,0.82-5.29,2.76c0,0-3.14,5.96-6.37,0.24c0,0-3.34-3.41-6.66-4.24
	C238.62,136.15,235.72,135.59,236.07,133.52z"/>
<path class="st9" d="M238.28,132.74c0,0,3.23-0.41,6.64,2.42c0,0,3.08,2.1,7.65,0.24c0,0,3.3-2.68,4.88-1.93c0,0-0.39,2.04-4.25,3.7
	c-3.85,1.66-3.57,3.07-3.57,3.07s-1.88,2.19-3.85-0.85c0,0-1.33-3-3.63-3.62C242.15,135.75,235.51,133.94,238.28,132.74z"/>
<path class="st12" d="M265.91,98.99c0,0,0.37,1.63,2.17,0.56c0,0,0.21-0.41,0.24-0.65C268.32,98.9,266.97,98.84,265.91,98.99z"/>
<path class="st6" d="M229.1,142.02"/>
<path class="st11" d="M172.74,90.09c0,0-4.94,0.77-3.06,10.04l1.54,6.75c0,0,0.76,2.38,0.97-4.88c0,0,0.26-3.42,1.93-3.65s0,0,0,0
	L172.74,90.09"/>
<path class="st9" d="M170.94,96.49c0,0-0.28-2.56,0-3.23c0,0-1.87,0.67-0.76,5.08l1.27,7.42c0,0,0.31-2.46,0.66-6.39
	c0.06-0.65-0.18-1.35-0.74-1.69C171.16,97.56,170.99,97.22,170.94,96.49z"/>
<path class="st11" d="M176.69,109.46l-2.19-7.51c0,0-1.43-4.89-1.75,1.75c0,0-1.31,7.97,1.97,10.05c0,0,3.17,2.7,2.82,0
	C177.53,113.75,176.91,110.23,176.69,109.46"/>
<path class="st3" d="M174.49,103.75c0,0,0.74,2.11,1.35,4.27c0.4,1.38,0.74,2.78,0.81,3.65c0,0-1.43,2.07-2.58-1.17
	C174.08,110.49,173.02,106.33,174.49,103.75z"/>
<path class="st9" d="M175.02,109.7c0.62,3.14,1.53,0.91,1.18-0.39l-0.58-2.06C175.62,107.25,174.5,107.09,175.02,109.7z"/>
<path class="st11" d="M177.3,122.94c0,0-2.62-8.53,2.87-4.4c5.49,4.13,0,0,0,0s5.08,2.35,5.7,2.24l1.43,7.31
	C187.3,128.08,179.86,129.79,177.3,122.94"/>
<path class="st16" d="M231.71,157.07c0,0,0.94,5.85,4.58,6.57c0,0,2.17-0.81-0.78-4.06C235.51,159.58,232.71,156.24,231.71,157.07z"
	/>
<path class="st7" d="M231.14,175.23c15.26,11.06,25.72,3.47,25.72,3.47c5.32-2.45,6.17-8.09,6.17-8.09
	c0.12-4.48,2.53-10.65,2.53-10.65c2.86-1.62,2.38,7.01,2.38,7.01l4.35-9.12c0,0-3.87-9.73-4.5-5.76c-0.63,3.97-1.38,2.21-1.38,2.21
	c-1.54-1.93-1.97-7.74-11.04-7.99c-3.12-0.08-3.89-0.17-5.42,1.12c-1.95,1.64-3.37,1.34-3.37,1.34c-3.92-2.77-6.78-3.61-7.75-3.76
	c-11.32-1.69-13.9,2.67-13.9,2.67l-4.13-3.27c0,0,0.33,3.78-1.19,5.77c0,0-4.93,6.14,4.38,9.39c0,0,2.54,1.04,3.09,5.88
	C227.08,165.46,227.84,172.83,231.14,175.23z"/>
<path class="st11" d="M231.97,164c0,0,0.4,0.55,1.27,1.28c2.6,2.2,9.38,6.08,22.04,1.82c0,0,4-1.73,4.91-3.1
	c0,0,3.33-2.83,2.78,1.42c0,0-0.09,7.81-7.69,10.35c0,0-12.39,4.63-20.5-1.99c0,0-5.59-2.99-4.98-4.73c0,0-0.88-2.54,0.97-1.95
	C230.76,167.1,227.46,158.74,231.97,164z"/>
<path class="st11" d="M227.84,156.94c0,0,0.83,0.12,1.94,0c0,0,1.52-1.47,5.32,0c0,0,3.39,1.05,4.42,2.64c0,0,9.86,3.52,16.61-1.42
	c0,0,1.71-1.51,5.44-2.64c0,0,6.29-0.64,0-3.06c0,0-4.77-2.49-9.19-1.87c0,0-1.78,0.14-3.07,0.69c0,0-1.29,0.97-2.81-0.41
	c0,0-1.93-1.56-6.39-0.68c0,0-4.12,0.12-5.43-0.64c0,0-3.46-3.73-6.98-0.28C227.7,149.28,221.82,156.78,227.84,156.94z"/>
<path class="st9" d="M233.92,153.07c-1.27,0.07-2.55-0.19-3.67-0.78c-0.97-0.5-2.33-0.89-3.18,0.27c0,0-1.7,1.84,3.19,2.77
	c0,0,5.91,0.46,10.01,0c0,0,4.45-0.98,5.84-0.61c0,0,2.95,1.51,5.77-0.56l1.29,1.19c0,0,4.21,0.16,6.32-0.3c0,0,4.09-0.92-3.35-2.3
	l-2.13-0.28c0,0-1.12-0.55-1.7-0.18c0,0-2.88,4.52-6.93,0.46c0,0-0.91-1.79-5.34-0.94C240.04,151.8,237.24,152.87,233.92,153.07z"/>
<radialGradient id="SVGID_1_" cx="232.3661" cy="16.0879" r="61.7449" gradientUnits="userSpaceOnUse">
	<stop  offset="0" style="stop-color:#33353D"/>
	<stop  offset="1" style="stop-color:#0F1016"/>
</radialGradient>
<path class="st17" d="M171.57,113.68c-2.56,2.97-2.07,8.78-2.07,8.78h-1.24c-2.7,1.73-2.21,3.59-2.21,3.59l0.55,0.76
	c1.66-0.48,2.21-2.28,2.21-2.28l0.76-0.28l0.14,3.59l-0.55,0.62l0.48,4.22c2.97,15,10.58,20.46,10.58,20.46
	c0.07,1.52,1.94,5.46,1.94,5.46l-2.42-2.14l-0.48,1.24l2.63,4.63c-1.31,1.45-0.41,4.08-0.41,4.08c0.55,1.8,0.83,4.29,0.83,4.29
	c-0.14,7.33,4.56,7.88,4.56,7.88l1.24-1.66c3.32,6.78,8.3,14.66,8.3,14.66c8.71,8.3,17.56,9.68,17.56,9.68
	c25.3,1.52,32.63-7.19,32.63-7.19l-1.24-4.98l-19.91,6.64l-16.73-0.83c-10.23-0.69-14.52-10.23-14.52-10.23
	c-1.38-3.87-6.22-11.2-6.22-11.2l1.94,1.11c0.35-2.28-0.55-3.59-0.55-3.59c0.28-3.53-0.9-5.6-0.9-5.6c0.07-4.56,2.07-7.6,2.07-7.6
	c1.59-3.87,1.18-5.88,1.18-5.88c4.01-6.57-0.28-18.46-0.28-18.46l-0.07-3.39c-0.14-2.97-3.59-8.3-3.59-8.3
	c-0.76-1.04-0.41-1.11-0.41-1.11l2.14-2.07c2.42-2,1.87-3.59,1.87-3.59l-0.28-2.28l3.87-2.28c2.7-1.18,2.49-3.46,2.49-3.46
	l-0.35-10.78c-0.48-10.92,5.88-11.61,5.88-11.61l14.73-0.14c24.89,0.97,67.61-1.24,67.61-1.24l1.27,6.57l1.22,0.48
	c1.18,1.11,1.66,2.49,1.66,2.49l0.9,14.79l3.18-0.28l-0.14,0.76c-4.49,4.22-0.07,9.82-0.07,9.82l-6.08-0.69
	c-0.21,5.39-3.04,11.55-3.04,11.55c-2.63,15.62-8.64,22.26-8.64,22.26c-4.63,5.74-2.77,6.5-2.77,6.5c1.38,2.7,0.55,7.4,0.55,7.4
	l1.24,0.55c1.59-0.83,4.42-0.69,4.42-0.69l0.21-4.56c2.28-1.59,1.38-3.73,1.38-3.73c2.83-8.09,0.83-9.96,0.83-9.96l14.17-22.33
	c2.83,0.97,3.53-0.55,3.53-0.55c1.04-1.8,0-3.8,0-3.8c5.67-8.09,5.39-15.21,5.39-15.21c3.73-1.73,3.04-3.11,3.04-3.11l-0.14-3.18
	l0.55-0.83c1.73-3.25-0.41-4.22-0.41-4.22l-0.07-3.73l1.59-1.04c0.55-3.18-1.18-3.59-1.18-3.59c-0.55-6.64-2.65-9.82-2.65-9.82
	v-3.87v-6.64l-1.61-0.92c2.03-0.46,1.57-1.47,1.57-1.47l-0.55-2.4c-0.37-1.29-2.12-0.46-2.12-0.46l2.12-4.06
	c0.09-2.12-2.03-7.47-2.03-7.47c-1.11-1.75-6.27-5.9-6.27-5.9c-1.47-3.13-5.44-9.96-5.44-9.96c-7.28-12.54-25.72-27.1-25.72-27.1
	c-4.33-5.81-8.66-4.71-8.66-4.71c-5.44-0.29-8.94,4.8-8.94,4.8c-15.58-6.36-33.92,0.83-33.92,0.83c-1.94-0.83-4.06-2.21-4.06-2.21
	c-6.45-5.16-12.17-2.95-12.17-2.95s-8.11,0.74-25.81,26.18c0,0-1.84,1.66,0,3.87l-4.56,8.34c-0.69,1.38-0.97,3.18-0.97,3.18
	c-5.25,1.8-10.07,11.2-10.07,11.2l-1.26,9.26l2.49,1.11c0.14,5.67,4.42,12.31,4.42,12.31c-1.24,5.81,5.02,20.49,5.02,20.49
	c0.28-6.36,4.65-10.95,4.65-10.95l1.11,2.77c-0.14,7.74,5.39,23.23,5.39,23.23l6.5,8.85c-1.24-0.55-1.87,0.35-1.87,0.35
	c-1.31,0.83-0.35,2.83-0.35,2.83c1.24,2.97,3.59,2.28,3.59,2.28l3.04,9.4c1.87,7.67,0,13.07,0,13.07l-0.41-0.62l-3.94,2.77
	c-1.04,0.69-1.38,0.21-1.38,0.21c-0.35-0.62,1.24-0.69,1.31-0.9s0.21-0.97,0.21-0.97l-0.83-0.07c-2-0.69-0.41-1.11-0.41-1.11
	l1.45,0.21c0.55-2.83,0-8.92,0-8.92l-4.77,9.33c-2.42-1.73-5.81-9.68-5.81-9.68l-1.18-4.42c0.14-2.07-0.62-4.77-0.62-4.77
	l-1.45-4.42c-0.41-1.24,1.52-0.83,1.52-0.83c4.42,0.48,4.84-1.18,4.84-1.18l-1.87-2.49c-1.59,2.28-4.98,2-4.98,2
	c-0.14-1.04,0.35-2.28,0.35-2.28s0.44-2.35,3.33-1.75c0,0-0.63-0.86-1.5-2.67C171.79,113.97,171.57,113.68,171.57,113.68z"/>
<path class="st18" d="M157.77,50.35c0,0-0.89-3.67,25.84,0c0,0,22.97,2.44,48.36-0.82c0,0,33.64-2.24,54.58-0.82
	c0,0,12.65,1.06,16.06-0.97c0,0,2.02,2.95,2.03,7.47l-7.19,4.02l7.79,8.98v6.82c0,0-20.54-9.55-58.13-6.16
	c0,0-60.99,2.15-80.47-4.76c0,0-7.45-1.66-9.39-0.41l-2.49-1.11l1.26-9.26L157.77,50.35z"/>
<path class="st0" d="M166.16,41.82c0,0,0.36,0.38,1.05,0c0,0,0.48-1.56,3.66-1.63h8.09c0,0-6.94-1.05-9.68-0.48c0,0,1.47-1,7.6-0.17
	l8.07,1.06c0,0,2.3,0.24,4.93-2.76l2.03-2.4c0,0,0.18-1.38,0.92-3.36c0,0,7.56-6.5,12.58-10.05c0,0,10.51-7.65,15.67-9.08h2.63
	c0,0,7.65-2.21,18.48-2.26c0,0,10.97-0.18,18.57,1.61l1.06,0.55l2.3-0.23c0,0,15.58,7.23,20.92,13.71c0,0-10.69-9.84-20.97-13.02
	c0,0-12.72-2.17-21.98-1.98c0,0-10.28,0.46-18.76,2.21c0,0-14.2,5.81-25.58,16.08l-3.64,3.32c0,0-0.55,0.18-0.83,2.07l-0.18,1.8
	l-5.99,4.65c0,0-0.32,0.78-4.61,0.14l-8.9-0.74c0,0-3.83-0.74-5.3,0.37C168.32,41.25,167,42.62,166.16,41.82z"/>
<path class="st0" d="M171.54,56.97c0,0-2.58,1.47-2.12,4.15c0,0-1.01,3.96,4.89,5.62c0,0,1.11,2.12,1.75,2.21h3.32h4.06
	c0,0,3.41,0.74,11.8,1.38c0,0,14.44,1.11,25.15,0.74c0,0,6.93,0.55,8.96-3.41c0,0,1.71-3.23-0.67-5.9l-3.97-4.26
	c-0.92-0.99-2.2-1.56-3.56-1.57c-6.73-0.08-27.65-0.28-34.57,0.03C186.57,55.95,175.41,56.41,171.54,56.97z"/>
<g>
	<linearGradient id="SVGID_2_" gradientUnits="userSpaceOnUse" x1="174.6762" y1="61.0819" x2="188.3964" y2="61.0819">
		<stop  offset="0" style="stop-color:#000000"/>
		<stop  offset="0.5252" style="stop-color:#CCCCCC"/>
		<stop  offset="0.7262" style="stop-color:#747474"/>
		<stop  offset="1" style="stop-color:#000000"/>
	</linearGradient>
	<path class="st19" d="M174.68,60.84c2.28-0.38,4.58-0.41,6.86-0.31c2.28,0.14,4.58,0.4,6.78,1.14c-2.31,0.05-4.56-0.03-6.83-0.14
		C179.22,61.4,176.95,61.24,174.68,60.84z"/>
</g>
<g>
	<linearGradient id="SVGID_3_" gradientUnits="userSpaceOnUse" x1="199.9501" y1="62.417" x2="212.0772" y2="62.417">
		<stop  offset="0" style="stop-color:#000000"/>
		<stop  offset="0.5252" style="stop-color:#CCCCCC"/>
		<stop  offset="0.7262" style="stop-color:#747474"/>
		<stop  offset="1" style="stop-color:#000000"/>
	</linearGradient>
	<path class="st20" d="M199.98,62.1c2.04-0.29,4.05-0.28,6.06-0.19c2.01,0.12,4.02,0.31,6.03,0.81c-2.02,0.29-4.04,0.28-6.06,0.19
		C203.99,62.79,201.97,62.6,199.98,62.1z"/>
</g>
<g>
	<linearGradient id="SVGID_4_" gradientUnits="userSpaceOnUse" x1="217.9535" y1="62.7271" x2="222.4471" y2="62.7271">
		<stop  offset="0" style="stop-color:#000000"/>
		<stop  offset="0.5252" style="stop-color:#CCCCCC"/>
		<stop  offset="0.7262" style="stop-color:#747474"/>
		<stop  offset="1" style="stop-color:#000000"/>
	</linearGradient>
	<polygon class="st21" points="217.95,62.73 222.45,62.23 222.45,63.23 	"/>
</g>
<g>
	<linearGradient id="SVGID_5_" gradientUnits="userSpaceOnUse" x1="174.9669" y1="63.455" x2="221.7558" y2="63.455">
		<stop  offset="0" style="stop-color:#000000"/>
		<stop  offset="0.5252" style="stop-color:#CCCCCC"/>
		<stop  offset="0.7262" style="stop-color:#747474"/>
		<stop  offset="1" style="stop-color:#000000"/>
	</linearGradient>
	<path class="st22" d="M175.02,62.1l5.85,0.35l5.84,0.39c3.89,0.25,7.78,0.53,11.67,0.68L210.06,64l5.85,0.31
		c1.95,0.14,3.9,0.25,5.85,0.42c-1.95,0.06-3.9,0.05-5.85,0.07l-5.86-0.03c-3.91-0.05-7.8-0.13-11.72-0.25
		c-3.91-0.23-7.8-0.5-11.69-0.91C182.76,63.2,178.88,62.73,175.02,62.1z"/>
</g>
<g>
	<linearGradient id="SVGID_6_" gradientUnits="userSpaceOnUse" x1="177.1233" y1="67.7402" x2="186.1693" y2="67.7402">
		<stop  offset="0" style="stop-color:#000000"/>
		<stop  offset="0.5252" style="stop-color:#CCCCCC"/>
		<stop  offset="0.7262" style="stop-color:#747474"/>
		<stop  offset="1" style="stop-color:#000000"/>
	</linearGradient>
	<path class="st23" d="M177.23,66.81c1.56-0.07,3.05,0.15,4.52,0.44c1.47,0.32,2.92,0.72,4.33,1.42c-1.54,0.08-3.04-0.15-4.52-0.44
		C180.08,67.9,178.62,67.5,177.23,66.81z"/>
</g>
<g>
	<linearGradient id="SVGID_7_" gradientUnits="userSpaceOnUse" x1="199.6265" y1="70.3322" x2="213.4013" y2="70.3322">
		<stop  offset="0" style="stop-color:#000000"/>
		<stop  offset="0.5252" style="stop-color:#CCCCCC"/>
		<stop  offset="0.7262" style="stop-color:#747474"/>
		<stop  offset="1" style="stop-color:#000000"/>
	</linearGradient>
	<path class="st24" d="M199.64,70.19c2.3-0.35,4.59-0.39,6.88-0.36c2.29,0.06,4.57,0.2,6.87,0.64c-2.28,0.35-4.58,0.39-6.88,0.36
		C204.22,70.77,201.92,70.63,199.64,70.19z"/>
</g>
<g>
	<linearGradient id="SVGID_8_" gradientUnits="userSpaceOnUse" x1="216.6061" y1="70.3129" x2="226.7093" y2="70.3129">
		<stop  offset="0" style="stop-color:#000000"/>
		<stop  offset="0.5252" style="stop-color:#CCCCCC"/>
		<stop  offset="0.7262" style="stop-color:#747474"/>
		<stop  offset="1" style="stop-color:#000000"/>
	</linearGradient>
	<path class="st25" d="M216.64,70.48c1.67-0.3,3.3-0.36,4.93-0.43l2.43-0.1c0.8-0.07,1.6-0.08,2.39-0.38
		c-0.57,0.67-1.47,0.94-2.27,1.15c-0.83,0.2-1.67,0.28-2.5,0.32C219.94,71.09,218.27,70.97,216.64,70.48z"/>
</g>
<linearGradient id="SVGID_9_" gradientUnits="userSpaceOnUse" x1="199.0227" y1="64.9939" x2="199.276" y2="42.8783">
	<stop  offset="0" style="stop-color:#000000"/>
	<stop  offset="0.5252" style="stop-color:#CCCCCC"/>
	<stop  offset="0.7262" style="stop-color:#747474"/>
	<stop  offset="1" style="stop-color:#000000"/>
</linearGradient>
<path class="st26" d="M179.38,59.69c0,0-3.73,0-5.6,0.41c0,0-2.63-0.07-2.7-0.76c0,0-1.45-2.21,2.28-2.21c0,0,5.05-0.83,10.99-0.69
	c0-0.27,35.19-0.43,37.4-0.3c0,0,2.59-0.12,3.85,2.92l1.7,6.81c0.03,1.32-0.51,1.46-0.99,1.28c0,0-0.38-0.02-0.71-0.83l-0.6-1.59
	c0,0,1.04-0.07,1.04-0.83l-0.43-1.8c0,0-0.22-0.73-1.36-0.44l-0.69-2.4c0,0,0.14-0.9-5.18-0.35l-1.11,0.07v-1.18
	c0,0-0.09-1.19-2.42-1.19v2.92c0,0,1.22,0.21,2.19,0.64c0,0-1.71-0.02-5.24-0.09c0,0-2.42,0.09-4.42,0.02c0,0,2.81-0.64,3.28-0.96
	c0,0,0.36-1.93,0.15-2.5h-5.32c0,0-2.28,2.17-2.88,2.52c0,0-0.69,0.32,0.32,0.53l3.83,0.35c0,0-4.82,0.46-6.87,0.07
	c0,0,1.29-0.39,1.34-0.76L201.15,57c-0.01-0.23-0.19-0.42-0.43-0.43c-0.63-0.03-1.83-0.06-2.57-0.02c-0.29,0.02-0.52,0.27-0.51,0.56
	l0.04,1.56l-4.29,0.21l0.18,1.59c0,0-0.63-0.22-1.08-0.43c-0.07-0.03-0.67-0.06-0.46-1c0,0,0.41-1.22-0.58-1.45
	c0,0-4.33-0.41-6.11,1.22c0,0-0.74,1.13-1.24,0.12c0,0,0.12-0.88-1.13-1.01c0,0-1.85-0.41-1.73-1.06c0,0-0.51-0.14-3.55,0.12
	c0,0-0.39,0.14,0.44,0.81C178.13,57.77,179.17,58.74,179.38,59.69z"/>
<linearGradient id="SVGID_10_" gradientUnits="userSpaceOnUse" x1="212.5611" y1="58.0895" x2="214.8425" y2="58.0895">
	<stop  offset="0" style="stop-color:#CCCCCC"/>
	<stop  offset="0.4234" style="stop-color:#747474"/>
	<stop  offset="1" style="stop-color:#000000"/>
</linearGradient>
<path class="st27" d="M212.56,56.76v1.85c0,0.39,0.29,0.71,0.68,0.76l1.6,0.18v-2.92h-2.28V56.76z"/>
<linearGradient id="SVGID_11_" gradientUnits="userSpaceOnUse" x1="202.3275" y1="58.051" x2="205.4865" y2="58.051">
	<stop  offset="0" style="stop-color:#CCCCCC"/>
	<stop  offset="0.4234" style="stop-color:#747474"/>
	<stop  offset="1" style="stop-color:#000000"/>
</linearGradient>
<path class="st28" d="M202.33,57.08l0.05,2.36l3.11-2.78l-2.73,0C202.52,56.65,202.32,56.84,202.33,57.08z"/>
<linearGradient id="SVGID_12_" gradientUnits="userSpaceOnUse" x1="193.224" y1="57.6707" x2="197.3542" y2="57.6707">
	<stop  offset="0" style="stop-color:#CCCCCC"/>
	<stop  offset="0.4234" style="stop-color:#747474"/>
	<stop  offset="1" style="stop-color:#000000"/>
</linearGradient>
<path class="st29" d="M193.23,57.13c0.06,0.34,0.11,0.88,0.16,1.75l3.97-0.19l-0.07-1.44c-0.02-0.44-0.39-0.79-0.83-0.78
	c-0.58,0.01-1.49,0.03-2.73,0.07C193.41,56.55,193.18,56.82,193.23,57.13z"/>
<g>
	<linearGradient id="SVGID_13_" gradientUnits="userSpaceOnUse" x1="175.842" y1="64.8603" x2="193.0793" y2="64.8603">
		<stop  offset="0" style="stop-color:#000000"/>
		<stop  offset="0.5252" style="stop-color:#CCCCCC"/>
		<stop  offset="0.7262" style="stop-color:#747474"/>
		<stop  offset="1" style="stop-color:#000000"/>
	</linearGradient>
	<path class="st30" d="M175.92,65.91c0.51-0.02,0.99-0.17,1.41-0.41c0.41-0.25,0.75-0.58,1.02-0.96l-0.02,0.03l0.34-0.65l0.09-0.16
		l0.23-0.01c2.35-0.06,4.7,0.03,7.04,0.25c1.17,0.12,2.34,0.27,3.5,0.48c1.16,0.23,2.33,0.49,3.41,0.97
		c-1.17-0.18-2.33-0.23-3.49-0.3l-3.49-0.2c-2.33-0.13-4.66-0.29-6.99-0.5l0.31-0.17l-0.42,0.6l-0.02,0.03
		c-0.37,0.4-0.84,0.73-1.35,0.89C176.96,65.99,176.42,66.04,175.92,65.91z"/>
</g>
<g>
	<linearGradient id="SVGID_14_" gradientUnits="userSpaceOnUse" x1="196.5603" y1="66.3971" x2="216.6824" y2="66.3971">
		<stop  offset="0" style="stop-color:#000000"/>
		<stop  offset="0.5252" style="stop-color:#CCCCCC"/>
		<stop  offset="0.7262" style="stop-color:#747474"/>
		<stop  offset="1" style="stop-color:#000000"/>
	</linearGradient>
	<path class="st31" d="M196.94,67.53c0.47-0.71,0.99-1.37,1.48-2.06l0.05-0.07l0.12-0.01c1.44-0.12,2.85-0.14,4.27-0.12
		c1.41,0.01,2.83,0.06,4.24,0.14c2.82,0.13,5.64,0.32,8.45,0.71l0.04,0.01l0.01,0.01c0.27,0.2,0.52,0.42,0.74,0.68
		c-0.27-0.2-0.57-0.34-0.85-0.5l0.05,0.02c-2.83,0.17-5.66,0.16-8.49,0.07c-1.41-0.06-2.82-0.13-4.23-0.23l-4.21-0.29l0.17-0.08
		C198.16,66.37,197.57,66.97,196.94,67.53z"/>
</g>
<g>
	<linearGradient id="SVGID_15_" gradientUnits="userSpaceOnUse" x1="217.7691" y1="68.2117" x2="224.8668" y2="68.2117">
		<stop  offset="0" style="stop-color:#000000"/>
		<stop  offset="0.5252" style="stop-color:#CCCCCC"/>
		<stop  offset="0.7262" style="stop-color:#747474"/>
		<stop  offset="1" style="stop-color:#000000"/>
	</linearGradient>
	<polygon class="st32" points="224.87,68.71 217.77,68.21 224.87,67.71 	"/>
</g>
<path class="st33" d="M167.53,83.05c0,0-0.03,3.78,0.59,5.91c0,0,1.21-3.54,3.73-2.2l-0.39-0.97L167.53,83.05z"/>
<path class="st33" d="M161.68,76c0,0-0.9,4.59,2.94,14.69l2.09,5.79c0,0-0.41-2.74,0.92-6.11c0,0-1.72-4.02-1.18-8.28
	C166.44,82.1,162.12,77.76,161.68,76z"/>
<path class="st34" d="M172.74,85.79c0,0,0.55,19.76,8.16,34.18c0,0,9.76,5.03,25.62,2.72c0,0,21.15-4.38,36.34-5.07
	c0,0,31.34-2.63,42.69-0.55c0,0,14.12,1.94,17.71,4.29c0,0,1.8,1.06,2.63-0.58c0,0,5.53-14.67,4.29-30.69c0,0-0.87-10.28-2.9-13.98
	c0,0-19.17-11.72-67.8-6.53C239.48,69.57,200.67,70.82,172.74,85.79z"/>
<path class="st1" d="M171.46,85.79c0,0-6.73-3.64-9.78-9.79c0,0-3.08-4.49-3.91-9.57c0,0,0.24,4.42,4.08,8.5
	c0,0,2.04,2.11,3.56,3.18C165.41,78.11,169.9,81.57,171.46,85.79z"/>
<path class="st18" d="M304.65,55.21c0,0-5.81-1.08-12.31,0c0,0-4.19,0.12-5.07,4.23c0,0-2.68,9.78,4.65,10.13
	c0,0,11.15,0.39,13.32-1.36v-3.69l-1.61-0.92c0,0,1.57-0.24,1.57-1.47l-0.55-2.4c0,0-0.44-1.36-2.12-0.46L304.65,55.21z"/>
<linearGradient id="SVGID_16_" gradientUnits="userSpaceOnUse" x1="293.3309" y1="57.2234" x2="299.5997" y2="57.2234">
	<stop  offset="0" style="stop-color:#000000"/>
	<stop  offset="0.1442" style="stop-color:#040404"/>
	<stop  offset="0.2847" style="stop-color:#101010"/>
	<stop  offset="0.4238" style="stop-color:#232323"/>
	<stop  offset="0.5621" style="stop-color:#3F3F3F"/>
	<stop  offset="0.6998" style="stop-color:#626262"/>
	<stop  offset="0.837" style="stop-color:#8E8E8E"/>
	<stop  offset="0.9715" style="stop-color:#C0C0C0"/>
	<stop  offset="1" style="stop-color:#CCCCCC"/>
</linearGradient>
<path class="st35" d="M294.48,59.24h2.97l1.87-2.7c0,0,0.8-0.87-0.31-1.04c0,0-2.87-0.66-4.7,0
	C294.31,55.5,291.99,57.99,294.48,59.24z"/>
<linearGradient id="SVGID_17_" gradientUnits="userSpaceOnUse" x1="292.5169" y1="56.0041" x2="304.6463" y2="56.0041">
	<stop  offset="0" style="stop-color:#000000"/>
	<stop  offset="0.5252" style="stop-color:#CCCCCC"/>
	<stop  offset="0.7262" style="stop-color:#747474"/>
	<stop  offset="1" style="stop-color:#000000"/>
</linearGradient>
<path class="st36" d="M292.52,55.53c0,0,4.98-0.34,8.13-0.13c0.22,0.01,0.36,0.24,0.28,0.45l-0.5,1.21
	c-0.03,0.08,0.03,0.17,0.11,0.17h0.82c0.35,0,0.68-0.17,0.88-0.46l0.54-0.76c0.15-0.21,0.4-0.32,0.66-0.28l0.85,0.13l0.34-0.66
	C304.65,55.21,295.33,54.02,292.52,55.53z"/>
<linearGradient id="SVGID_18_" gradientUnits="userSpaceOnUse" x1="286.5563" y1="60.9933" x2="295.6049" y2="60.9933">
	<stop  offset="0" style="stop-color:#000000"/>
	<stop  offset="0.5252" style="stop-color:#CCCCCC"/>
	<stop  offset="0.7262" style="stop-color:#747474"/>
	<stop  offset="1" style="stop-color:#000000"/>
</linearGradient>
<path class="st37" d="M290.2,58.51c0,0-1.45-0.03-1.38,2.39c0,0,0.05,5.57-1.17,6.26c0,0-2.59-3.73,0.21-9.28
	c0,0,1.15-3.11,7.75-3.04c0,0-2.57,0.84-2.02,3.3c0,0,0.45,0.97,0.9,1.11h-2.07l0.24-0.86L290.2,58.51z"/>
<g>
	<linearGradient id="SVGID_19_" gradientUnits="userSpaceOnUse" x1="290.7311" y1="63.3242" x2="305.3108" y2="63.3242">
		<stop  offset="0" style="stop-color:#000000"/>
		<stop  offset="0.5252" style="stop-color:#CCCCCC"/>
		<stop  offset="0.7262" style="stop-color:#747474"/>
		<stop  offset="1" style="stop-color:#000000"/>
	</linearGradient>
	<path class="st38" d="M290.75,63.8c2.43-0.33,4.83-0.47,7.22-0.67c2.4-0.18,4.76-0.4,7.19-0.69c-2.22,1.07-4.69,1.48-7.11,1.69
		c-1.22,0.09-2.44,0.12-3.66,0.07C293.17,64.15,291.96,64.04,290.75,63.8z"/>
</g>
<g>
	<linearGradient id="SVGID_20_" gradientUnits="userSpaceOnUse" x1="291.0611" y1="60.4924" x2="304.7923" y2="60.4924">
		<stop  offset="0" style="stop-color:#000000"/>
		<stop  offset="0.5252" style="stop-color:#CCCCCC"/>
		<stop  offset="0.7262" style="stop-color:#747474"/>
		<stop  offset="1" style="stop-color:#000000"/>
	</linearGradient>
	<path class="st39" d="M291.08,60.93c2.29-0.33,4.54-0.48,6.79-0.66c2.26-0.17,4.48-0.37,6.77-0.62c-2.09,1.03-4.41,1.42-6.69,1.62
		c-1.15,0.08-2.3,0.11-3.44,0.06C293.36,61.27,292.21,61.17,291.08,60.93z"/>
</g>
<g>
	<linearGradient id="SVGID_21_" gradientUnits="userSpaceOnUse" x1="200.2708" y1="49.0152" x2="302.7658" y2="49.0152">
		<stop  offset="0" style="stop-color:#000000"/>
		<stop  offset="0.5252" style="stop-color:#CCCCCC"/>
		<stop  offset="0.7262" style="stop-color:#747474"/>
		<stop  offset="1" style="stop-color:#000000"/>
	</linearGradient>
	<path class="st40" d="M200.27,50.7c6.64-0.42,13.29-0.81,19.93-1.14c6.64-0.36,13.29-0.67,19.94-0.95l-0.03,0
		c5.21-0.55,10.42-0.94,15.65-1.12c5.23-0.19,10.46-0.22,15.69-0.04c1.31,0.03,2.61,0.1,3.92,0.2c1.31,0.07,2.61,0.19,3.92,0.31
		c2.61,0.26,5.18,0.56,7.78,0.67c5.19,0.24,10.44,0.25,15.55-0.88c-2.52,0.71-5.12,1.06-7.73,1.26c-2.61,0.2-5.23,0.25-7.85,0.17
		c-2.61-0.05-5.24-0.3-7.83-0.5c-2.59-0.19-5.19-0.29-7.8-0.37c-5.2-0.14-10.42-0.08-15.62,0.15c-5.2,0.25-10.41,0.53-15.59,1.06
		l-0.02,0l-0.01,0c-6.65,0.26-13.3,0.49-19.95,0.68C213.58,50.42,206.93,50.58,200.27,50.7z"/>
</g>
<g>
	<linearGradient id="SVGID_22_" gradientUnits="userSpaceOnUse" x1="192.7249" y1="32.0616" x2="212.0772" y2="32.0616">
		<stop  offset="0" style="stop-color:#000000"/>
		<stop  offset="0.5252" style="stop-color:#CCCCCC"/>
		<stop  offset="0.7262" style="stop-color:#747474"/>
		<stop  offset="1" style="stop-color:#000000"/>
	</linearGradient>
	<path class="st41" d="M209.47,20.89c-1.44,1.1-2.9,2.17-4.32,3.29c-1.44,1.09-2.86,2.21-4.25,3.36c-1.38,1.16-2.77,2.31-4.05,3.56
		c-0.65,0.61-1.27,1.25-1.83,1.92c-0.55,0.66-1.08,1.41-1.24,2.09l-0.26-0.52c3.04,1.56,6.1,3.09,9.16,4.62
		c1.53,0.76,3.07,1.51,4.62,2.21c1.55,0.7,3.1,1.46,4.77,1.82c-0.86-0.04-1.7-0.29-2.52-0.54c-0.82-0.25-1.63-0.54-2.44-0.84
		c-1.61-0.61-3.18-1.29-4.76-1.97c-3.15-1.37-6.23-2.87-9.29-4.42l-0.34-0.17l0.08-0.35c0.25-1.11,0.88-1.83,1.47-2.56
		c0.61-0.71,1.26-1.36,1.93-1.99c1.36-1.23,2.76-2.39,4.22-3.47C203.33,24.75,206.34,22.73,209.47,20.89z"/>
</g>
<g>
	<linearGradient id="SVGID_23_" gradientUnits="userSpaceOnUse" x1="239.9732" y1="33.8453" x2="270.9182" y2="33.8453">
		<stop  offset="0" style="stop-color:#000000"/>
		<stop  offset="0.5252" style="stop-color:#CCCCCC"/>
		<stop  offset="0.7262" style="stop-color:#747474"/>
		<stop  offset="1" style="stop-color:#000000"/>
	</linearGradient>
	<path class="st42" d="M240.16,34.94c1.18-0.57,2.43-0.97,3.68-1.36c1.26-0.35,2.54-0.64,3.83-0.88c2.58-0.48,5.22-0.68,7.85-0.61
		c2.63,0.07,5.26,0.34,7.81,0.97c1.29,0.27,2.54,0.68,3.78,1.08c0.63,0.19,1.22,0.46,1.83,0.72c0.6,0.25,1.2,0.51,1.79,0.78
		c-2.51-0.71-5-1.44-7.55-1.82c-2.54-0.45-5.11-0.68-7.68-0.73c-2.57-0.08-5.15,0.08-7.71,0.37
		C245.22,33.75,242.67,34.23,240.16,34.94z"/>
</g>
<g>
	<linearGradient id="SVGID_24_" gradientUnits="userSpaceOnUse" x1="205.2232" y1="7.0005" x2="221.4216" y2="7.0005">
		<stop  offset="0" style="stop-color:#000000"/>
		<stop  offset="0.5252" style="stop-color:#CCCCCC"/>
		<stop  offset="0.7262" style="stop-color:#747474"/>
		<stop  offset="1" style="stop-color:#000000"/>
	</linearGradient>
	<path class="st43" d="M221.05,12.99c-1.45-0.83-2.76-1.8-3.97-2.9c-0.58-0.57-1.13-1.2-1.74-1.74c-0.61-0.54-1.3-1-2-1.43
		c-1.41-0.84-2.75-1.77-4.09-2.7c-1.31-0.98-2.59-1.98-3.8-3.12l0.05-0.09c1.55,0.6,3,1.41,4.37,2.33c0.68,0.47,1.32,0.98,1.96,1.5
		c0.65,0.51,1.25,1.06,1.85,1.64c0.59,0.57,1.2,1.12,1.86,1.61c0.66,0.48,1.39,0.89,2.07,1.35c1.31,0.99,2.51,2.13,3.5,3.47
		L221.05,12.99z"/>
</g>
<g>
	<linearGradient id="SVGID_25_" gradientUnits="userSpaceOnUse" x1="217.7036" y1="6.8946" x2="266.0507" y2="6.8946">
		<stop  offset="0" style="stop-color:#999999"/>
		<stop  offset="0.524" style="stop-color:#E6E6E6"/>
		<stop  offset="0.9988" style="stop-color:#B3B3B3"/>
	</linearGradient>
	<path class="st44" d="M217.93,8.21c2.27-1.37,4.84-2.15,7.41-2.73c2.59-0.56,5.24-0.8,7.88-0.81c1.32,0.08,2.64,0.09,3.95,0.25
		l1.96,0.24c0.65,0.07,1.31,0.14,1.95,0.26c1.29,0.23,2.6,0.36,3.89,0.61c1.28,0.28,2.58,0.5,3.87,0.75
		c2.55,0.64,5.12,1.24,7.59,2.17c2.52,0.79,4.92,1.88,7.34,2.92l0.86,0.37c0.24,0.11,0.51,0.09,0.39,0.1
		c-0.01,0.05,0.08-0.23,0.01-0.5c-0.03-0.28-0.11-0.58-0.19-0.88c-0.37-1.2-0.91-2.39-1.47-3.56c-1.12-2.35-2.37-4.65-3.62-6.96
		l0.08-0.05c1.53,2.13,2.95,4.35,4.23,6.65c0.62,1.16,1.23,2.34,1.69,3.62c0.11,0.33,0.21,0.66,0.27,1.03
		c0.03,0.18,0.05,0.38,0.03,0.61c-0.02,0.22-0.07,0.5-0.32,0.76c-0.11,0.13-0.28,0.19-0.43,0.26c-0.14,0.03-0.27,0.03-0.41,0.04
		c-0.22-0.03-0.45-0.06-0.62-0.14c-0.38-0.14-0.65-0.26-0.95-0.39c-4.75-2.15-9.61-4.01-14.61-5.53c-1.27-0.31-2.53-0.65-3.8-0.94
		c-1.27-0.29-2.57-0.45-3.87-0.64c-2.6-0.31-5.21-0.31-7.81-0.24c-5.17,0.19-10.4,0.81-15.24,2.79L217.93,8.21z"/>
</g>
<path class="st18" d="M223.35,13.55c0,0,15.41,15.02,30.24,14.66c0,0,11.97,0.74,10.55-15.58"/>
<path class="st0" d="M235.61,39.73h12.72l3.12-2.58c0,0,2.69-2.58,5.64,0l3.04,2.58h16.04c0,0-9.03-7.47-23.6-6.54
	C252.57,33.18,241.97,32.63,235.61,39.73z"/>
<path class="st11" d="M172.46,88.31c0,0-0.7,1.57-3.21,2.9c0,0-2.19,2.03-1.63,5.85l2.21,8.39c0,0-0.33,1.93-1.27-1.4
	c0,0-2.06-6.53-2.12-8.28c-0.06-1.75,0,0,0,0s-0.02-12.4,5.88-8.71"/>
<path class="st1" d="M240.79,153.65c0,0-1.52,3.13,0,5.9c0,0,1.12,4.84-0.34,8.3l-0.34,2.77l5.93,21.71l8.71-1.23l1.96-1.28
	l1.68-25.28l0.12-1.15l-0.41-0.12c0,0,0.6-0.65-0.02-1.36c0,0,0.03-0.92-0.05-1.39c-0.02-0.09-0.04-0.16-0.06-0.2
	c-0.16-0.3-0.53-0.62-1.29-0.44l-0.14-1.13l-0.92-0.09c0,0,0.07-0.9-0.74-0.92l-0.37-1.15l-2.63-2.42c0,0-1.95,1.24-4.03,0.94
	c-0.83-0.12-1.65-0.32-2.32-0.84l-0.79-0.61H240.79z"/>
<linearGradient id="SVGID_26_" gradientUnits="userSpaceOnUse" x1="235.4422" y1="163.022" x2="245.63" y2="161.2059">
	<stop  offset="0" style="stop-color:#000000"/>
	<stop  offset="0.3199" style="stop-color:#999999"/>
	<stop  offset="0.4362" style="stop-color:#747474"/>
	<stop  offset="0.815" style="stop-color:#000000"/>
</linearGradient>
<path class="st45" d="M241.57,160.1c0,0,1.47,0.18,1.71,1.75v0.74c0,0-0.05,1.01,0.23,1.38c0,0-0.23,0.55,0.28,0.83l0.39,2.44
	l-4.06,3.36l0.34-2.77c0,0,0.86-4.07,0.34-8.3c0,0-1.58-2.29,0-5.9h0.2c0,0-0.5,1.23-0.57,2.34c0,0-0.05,2.21,0.71,3.28
	L241.57,160.1z"/>
<g>
	<linearGradient id="SVGID_27_" gradientUnits="userSpaceOnUse" x1="243.7476" y1="159.772" x2="256.1531" y2="159.772">
		<stop  offset="0" style="stop-color:#FFFFFF"/>
		<stop  offset="0.4799" style="stop-color:#878787"/>
		<stop  offset="1" style="stop-color:#000000"/>
	</linearGradient>
	<path class="st46" d="M243.76,159.96c2.05-0.46,4.11-0.61,6.17-0.69c2.06-0.05,4.13-0.02,6.2,0.31c-2.05,0.46-4.11,0.61-6.17,0.69
		C247.9,160.32,245.84,160.29,243.76,159.96z"/>
</g>
<g>
	<linearGradient id="SVGID_28_" gradientUnits="userSpaceOnUse" x1="244.1541" y1="161.0524" x2="256.6108" y2="161.0524">
		<stop  offset="0" style="stop-color:#FFFFFF"/>
		<stop  offset="0.4799" style="stop-color:#878787"/>
		<stop  offset="1" style="stop-color:#000000"/>
	</linearGradient>
	<path class="st47" d="M256.59,160.76c-2.05,0.49-4.11,0.68-6.18,0.79c-2.07,0.08-4.14,0.09-6.23-0.21
		c2.05-0.49,4.11-0.68,6.18-0.79C252.43,160.47,254.5,160.46,256.59,160.76z"/>
</g>
<g>
	<linearGradient id="SVGID_29_" gradientUnits="userSpaceOnUse" x1="244.4997" y1="162.2261" x2="256.9219" y2="162.2261">
		<stop  offset="0" style="stop-color:#FFFFFF"/>
		<stop  offset="0.4799" style="stop-color:#878787"/>
		<stop  offset="1" style="stop-color:#000000"/>
	</linearGradient>
	<path class="st48" d="M244.52,162.52c2.04-0.49,4.1-0.68,6.16-0.79c2.06-0.08,4.13-0.09,6.21,0.21c-2.04,0.49-4.1,0.68-6.16,0.79
		C248.67,162.81,246.6,162.82,244.52,162.52z"/>
</g>
<g>
	<linearGradient id="SVGID_30_" gradientUnits="userSpaceOnUse" x1="244.3526" y1="163.6391" x2="257.4757" y2="163.6391">
		<stop  offset="0" style="stop-color:#FFFFFF"/>
		<stop  offset="0.4799" style="stop-color:#878787"/>
		<stop  offset="1" style="stop-color:#000000"/>
	</linearGradient>
	<path class="st49" d="M257.44,163.21c-2.15,0.54-4.32,0.77-6.5,0.92c-2.18,0.13-4.36,0.18-6.56-0.07c2.15-0.54,4.32-0.77,6.5-0.92
		C253.06,163.01,255.24,162.96,257.44,163.21z"/>
</g>
<g>
	<linearGradient id="SVGID_31_" gradientUnits="userSpaceOnUse" x1="243.4008" y1="158.6256" x2="254.5872" y2="158.6256">
		<stop  offset="0" style="stop-color:#FFFFFF"/>
		<stop  offset="0.4799" style="stop-color:#878787"/>
		<stop  offset="1" style="stop-color:#000000"/>
	</linearGradient>
	<path class="st50" d="M243.42,158.81c1.85-0.46,3.7-0.61,5.56-0.68c1.86-0.05,3.72-0.02,5.59,0.32c-1.85,0.46-3.7,0.61-5.56,0.68
		C247.15,159.17,245.29,159.14,243.42,158.81z"/>
</g>
<path class="st51" d="M240.82,154.12c0,0,3.02-0.36,3.83,0.31c0,0,2.33,2.63,5.5,1.09l2.04-1.08l-0.32-0.29c0,0-3.73,2.36-7.14-0.51
	h-3.74"/>
<path class="st7" d="M246.88,166.18c0,0-1.53-0.81-4.99,2.5l-4.56,4.3c0,0-1.66,0.39-4.7,5.23l-4.3,4.15c0,0-2.06,4.29-2.4,7.74
	v2.03c0,0-1.87,3.36-1.94,6.96l0.55,1.8c0,0-3.21,3.1-3.03,6.93c0,0,0.75,2.06,3.03,2.06c0,0,2.53,0.38,4.69-2.37l1.11,8.04
	c0,0,1.83,3.46,5.03,0.83c0,0,5.58-6.69,4.74-10.67l-0.98-5.23c0,0,2.35,0.28,3.46-1.94l9.95,18.82c0,0,1.11,13.67,17.29,21.41
	l4.42,1.94c0,0,2.9,4.01,8.3,6.5h1.27c0,0,17.95-15.21,19.75-23.23c0,0-4.84-7.19-8.3-18.8c0,0-4.15-11.34-6.22-14.93l-5.23-13.69
	c0,0-0.86-6.73-12.06-3.57c0,0-7.6-5-11.34-5.28c0,0-5.88-0.83-7.78-0.41C252.64,167.29,248.59,166,246.88,166.18z"/>
<path class="st11" d="M233.3,188.22c0,0,1.37-5.99,2.08-6.64c0,0,7.26-6.91,7.99-7.56c0,0,4.06-5.97,7.65-5.33
	c0,0-1.52-1.67-6.84,3.31l-6.21,5.62c0,0-3.98,2.75-4.67,8.85c0,0-3.73,4.06-4.06,5.85c0,0-0.41,2.35,0,3.46
	C229.23,195.77,228.47,192.82,233.3,188.22z"/>
<path class="st4" d="M225.93,192.13c0,0,1.38-1.5,1.87,0c0,0-0.41,6.68-0.93,7.51c0,0-1.97,0.9-2.87-0.55
	C223.99,199.09,224.2,195.13,225.93,192.13z"/>
<path class="st11" d="M224.54,200.89c0,0,0.99,2.07,4.51,0.76c0,0,4.55-2,5.73-4.56c0,0,0.41-0.48,1.52-0.83c0,0,1.94,0.62-0.69,2
	c0,0-1.59,0.62-2.28,1.66c0,0-0.81,2.63-4.27,2.97c0,0,0.65,2.45,0.18,4.61c0,0-1.86-0.19-1.02-2.4c0,0,0.1-1.42-0.07-2.28
	C228.14,202.83,225.92,202.69,224.54,200.89z"/>
<path class="st4" d="M230.34,215.55c0,0,1.39-1.8,2.36-2.14l-0.48-5.28c0,0-1.83-2.5-2.99-0.62"/>
<path class="st4" d="M221.51,207.82c0,0,3.52-0.02,4.38-1.68l1.19-3.54c0,0-2.13-0.61-2.54-1.72
	C224.13,199.78,221.66,204.72,221.51,207.82z"/>
<path class="st11" d="M236.3,196.26c0,0,4.84-1.66,6.29-7.81l0.28-1.04c0,0-2.28-1.18-2.42-2c0,0,2,1.33,3.11,1.59
	c0,0,1.31,0.62,4.01-0.97l4.08-4.42l-0.62-2.9c0,0,1.37,1.24,1.51,2.9l0.63,2.21c0,0-0.62,0.21-2.14-0.44c0,0-2.67,4.29-7.28,4.47
	c0,0-0.92,2.49-1.94,4.47C241.8,192.32,241.48,196.93,236.3,196.26z"/>
<path class="st11" d="M253.17,183.81c0,0,2.56,2.74,10.12,3.3c0,0,1.75,0.18,3.13-0.55c0,0-4.15,2.95-5.35,3.04l-1.28-2.09
	C259.79,187.51,254.69,186.03,253.17,183.81z"/>
<path class="st4" d="M229.23,195.77c0,0,0.99,0.55,1.74,0.39c0,0,2.63-2.05,1.99-7.07C232.96,189.09,229.29,191.44,229.23,195.77z"
	/>
<path class="st11" d="M229.59,196.26c0,0,1.09,2.47,4.56,0.9l0.62-0.07c0,0-2.51,2.69-4.54,2.83c0,0-1.84,0.02-1.47-1.83
	C228.76,198.09,228.21,195.54,229.59,196.26z"/>
<g>
	<path class="st11" d="M267.2,214.2c0,0-3.55,1.76-7.74,8.81c0,0-1.36,1.86-3.37,0.89c0,0,0.88,3.78,4.58,3.78
		c0,0,2.81,1.56,4.74-0.66c0,0,0.2,2.51,6.86,4.49C271.29,230.98,268.83,228.26,267.2,214.2z"/>
	<path class="st11" d="M272.68,231.63c-0.14-0.04-0.28-0.08-0.42-0.12C272.53,231.65,272.68,231.63,272.68,231.63z"/>
</g>
<path class="st11" d="M265.13,196.32c0,0-2.7,1.11-3.43-0.07c0,0-3.9,4.96-5.01,10.4c0,0-2.96,4.28-2.9,10c0,0,0.41,11.2,5.67,6.36
	c0,0,2.35-4.01,4.84-1.38c0,0,2.85,0.92,2.81-4.47c-0.01-1.29,0.01-2.34,0.09-2.96c0,0-0.35-6.23-0.28-6.69
	c0.07-0.46-2.63-8.07-0.83-9.31c0,0-0.69-0.48-0.55-1c0,0,2.66-0.86,3.98-0.69C269.51,196.5,266.82,195.88,265.13,196.32z"/>
<path class="st52" d="M300.69,221.06c0,0-4.39,13.41-21.19,25.03l-1.97-1.73c0,0-2.11,2.21-0.66,3.66l1.28,1.21
	c0,0-1.93,1.35,0.28,4.42l8.3,9.59l5.71,13.7l26.73,41.43l45.72,40.91h41.66h24.8c0,0,11.78-3.61,7.47-22.93l0.76-9.13l-14.4-24.7
	c0,0-9.03-6.44-27.47-12.34c0,0-13.46-8.51-17.88-8.41c0,0-7.56-6.54-9.59-5.98c0,0-10.88-15.37-25.99-24
	c0,0-16.04-25.66-25.07-23.41c0,0-4.79,5.01-12.9-3.65C306.26,224.71,301.63,218.79,300.69,221.06z"/>
<path class="st3" d="M419.81,268.06c0,0-3.87-3.88-11.75-1.94c0,0-7.46,1.68-16.17,0.7c0,0-3.87-2.36-15.62,3.45l13.69,9.26
	l41.76,22.26l10.09,12.44l-9.82-19.91C431.99,294.32,425.47,275.84,419.81,268.06z"/>
<path class="st1" d="M291.65,168.64l-2.58,1.97c0,0,0.55,2.8,8.48,2.37c0,0,4.79,0.13,6.82,1.42c0,0,6.08-1.22,12.9,2.15l16.41,2.14
	l3.59,1.6c0,0,2.12,1.11,5.9,0c0,0,4.19-1.34,6.06,1.96c0,0-1.02-7.04-12.17-5.81c0,0-15.46-6.48-27.03-5.32
	C310.04,171.13,298.65,165.74,291.65,168.64z"/>
<path class="st1" d="M342.72,192.64c0,0,8.85,4.28,9.03,9.24c0,0-1.27,7.36-7.27,16.58c0,0-0.47,4.9,1.19,10.75l6.08-13.28
	c0,0,3.5-8.46,2.58-14.03c0,0,0.37-9.9-7.93-8.42C346.4,193.48,342.72,191.07,342.72,192.64z"/>
<path class="st1" d="M353.04,216.76c0,0,2.49,2.9,0.83,10.09c0,0-0.97,3.18,3.04,7.05c0,0,4.15,3.18,5.67,9.4
	c0,0,5.39,7.6,5.81,9.54c0,0,11.75,0.23,16.04,4.89l1.94,3.55c0,0-3.32-3.46-4.15-2.35l-7.24,9.62c0,0-15.85-20.57-24.7-22.28
	l-6.73-10.29C343.55,235.97,350.37,223.44,353.04,216.76z"/>
<path class="st1" d="M349.95,183.62c0,0,1.71,3.55,1.94,4.79c0,0,3.18,0.94,3.92,3.7l0.9,5.84c0,0,1.59,4.08,3.73,5.39
	c0,0,8.23,4.36,7.74,10.78c0,0-0.69,3.18,3.04,6.91l4.15,5.25l24.75,29.93l2.56,3.46c0,0,2,2.7,4.77,1.24l2.63-1.24
	c0,0,2.57-1.39,4.21,0.76c0,0-36.29-46.32-46.18-53.34c0,0-1.11-7.78-8.16-12.34c0,0-2.46-0.95-3.59-3.87c0,0-1.04-5.88-7.12-8.64
	L349.95,183.62z"/>
<linearGradient id="SVGID_32_" gradientUnits="userSpaceOnUse" x1="248.1656" y1="201.4186" x2="252.6746" y2="179.3942">
	<stop  offset="0" style="stop-color:#666666"/>
	<stop  offset="0.7467" style="stop-color:#000000"/>
	<stop  offset="1" style="stop-color:#272324"/>
</linearGradient>
<path class="st53" d="M256.93,186.44l-0.22,3.36l-1.96,1.28l-7.36,1.04c-0.77,0.11-1.5-0.37-1.71-1.12l-0.89-3.25
	c0,0,3.53-0.47,6.23-4.37c0,0,1.23,0.59,2.14,0.44C253.17,183.81,254.11,185.27,256.93,186.44z"/>
<linearGradient id="SVGID_33_" gradientUnits="userSpaceOnUse" x1="252.9518" y1="188.2567" x2="252.4857" y2="180.0658">
	<stop  offset="0" style="stop-color:#FFFFFF"/>
	<stop  offset="0.4799" style="stop-color:#878787"/>
	<stop  offset="1" style="stop-color:#000000"/>
</linearGradient>
<path class="st54" d="M248.73,185.86c0,0,0.78-0.71,2.29-2.48c0,0,0.92,0.47,2.14,0.44c0,0,1.04,1.51,3.77,2.63l-0.07,1.07
	l-3.39,0.92l-2.76,0.66l-1.4-0.54L248.73,185.86z"/>
<path class="st1" d="M251.02,183.38"/>
<linearGradient id="SVGID_34_" gradientUnits="userSpaceOnUse" x1="252.3349" y1="189.6417" x2="252.3142" y2="185.8392">
	<stop  offset="2.397487e-03" style="stop-color:#CCCCCC"/>
	<stop  offset="0.4919" style="stop-color:#565656"/>
	<stop  offset="0.836" style="stop-color:#000000"/>
</linearGradient>
<path class="st55" d="M248.2,186.26c0,0-0.74,0.87-0.26,1.05c0,0,0.55-0.1,0.41,1.14c0,0-0.07,1.23,1.45,1.15c0,0,1.59-0.43,2.14,0
	c0,0,0.69,0.16,1.21-0.15c0,0,0.86-0.33,1.42-0.36c0,0,1.55-0.43,2.18,0l0.1-1.58c0,0-0.67-0.07-1.65-0.28l-0.23,0.47l-2.81,0.18
	c0,0-0.86-0.44-0.68,0.06l0.18,0.5c0,0-1.3,0.36-2.15-0.5l-0.79-2.09L248.2,186.26z"/>
<path class="st3" d="M285.14,272.46c0,0,6.74,9.4,12.39,12.86c0,0-0.02,3.28,2.19,7.86c0,0,9.82,24.49,14.79,28.37
	c0,0,14.79,28.58,36.64,37.73h13.73c0,0-21.2-23.58-23.97-26.9c-2.77-3.32-22.09-30.49-22.93-34.84c0,0-20.2-11.25-22.23-18.25
	c0,0-7.19-7.37-5.71-11.98l-3.32-4.06c0,0-1.58,1.47-1.58,5.35C285.14,268.58,283.52,270.31,285.14,272.46z"/>
<path class="st1" d="M324.65,250.33l12.12,23.78c0,0,5.25,9.46,11.61,15.79c0,0,11.06,9.93,20.74,26.52c0,0,22.31,34.81,37.42,42.84
	h24.8c0,0,9.36-5.79,8.42-14.36c0,0-32.47-16.59-46.85-18.8l-6.36-19.22c0,0-2.49-5.12-14.66-12.03l-7.01-3.87
	c0,0-0.75-6.16-6.83-7.64l-9.03-2.77c0,0-5.16-0.28-9.4-6.64l-4.18-6.81c0,0-1.16-3.91-5.22-8.86L324.65,250.33z"/>
<path class="st1" d="M370.23,275.77c0,0,8.64,14.21,9.96,19.91c0,0,2.58,2.58,7.65,3.32c0,0,4.06,0.65,5.53,3.04
	c0,0,0.74,2.01,6.36,2.76c0,0,3.87-1,6.36,4.07l0.83,1.47c0,0,0.37,1.47,3.96,0c0,0,1.2-1.47,5.81-0.28l2.4,0.28
	c0,0,2.77,0.83,5.44,2.86c0,0,2.49,2.03,4.15,1.94c0,0,1.2,0.09,2.67,2.21c0,0,2.47,3.78,2.48,0l-3.42-5.86
	c-3.42-5.86-8.43-10.63-14.46-13.75l-5.68-2.94l-0.49,2c0,0-5.9-3.41-7.28-2.49c0,0-2.86-4.15-8.02-5.07c0,0-2.67-0.46-3.59,0
	c0,0-7.28-8.13-11.06-7.48C379.82,281.76,371.34,274.94,370.23,275.77z"/>
<path class="st1" d="M303.15,221.44l5.14,6.92c0,0,2.16,2.74,9.7,2.25c0,0,5.7-3.5,6.67,2.77c0,0-0.32,6.27,5.39,8.3
	c0,0,6.82,0.37,10.69,7.37l3.13,4.98c0,0,0.55,2.21,1.29,5.35v2.95c0,0-0.74,0.92,4.06,0.92c0,0,9.32,1.11,14.8,4.98
	c0,0-13.33-13.47-19.78-16.44c-6.45-2.98-9.59-22.34-25.07-23.41c0,0-4.17,3.65-8.54,0C310.63,228.36,303.45,222.68,303.15,221.44z"
	/>
</svg>
