<svg xmlns="http://www.w3.org/2000/svg" xmlns:xlink="http://www.w3.org/1999/xlink" width="1087.127" height="876.485" viewBox="0 0 1087.127 876.485">
  <defs>
    <radialGradient id="radial-gradient" cx="0.503" cy="0.08" r="0.307" gradientTransform="translate(-0.152) scale(1.305 1)" gradientUnits="objectBoundingBox">
      <stop offset="0" stop-color="#33353d"/>
      <stop offset="1" stop-color="#0f1016"/>
    </radialGradient>
    <linearGradient id="linear-gradient" x1="0.499" y1="0.8" x2="0.504" y2="-1.188" gradientUnits="objectBoundingBox">
      <stop offset="0"/>
      <stop offset="0.525" stop-color="#ccc"/>
      <stop offset="0.726" stop-color="#747474"/>
      <stop offset="1"/>
    </linearGradient>
    <linearGradient id="linear-gradient-2" y1="0.5" x2="1" y2="0.5" gradientUnits="objectBoundingBox">
      <stop offset="0" stop-color="#ccc"/>
      <stop offset="0.423" stop-color="#747474"/>
      <stop offset="1"/>
    </linearGradient>
    <linearGradient id="linear-gradient-3" x1="0" y1="0.5" x2="1" y2="0.5" xlink:href="#linear-gradient-2"/>
    <linearGradient id="linear-gradient-4" x1="0" y1="0.5" x2="1" y2="0.5" xlink:href="#linear-gradient-2"/>
    <linearGradient id="linear-gradient-5" y1="0.5" x2="1" y2="0.5" gradientUnits="objectBoundingBox">
      <stop offset="0"/>
      <stop offset="0.144" stop-color="#030303"/>
      <stop offset="0.285" stop-color="#0f0f0f"/>
      <stop offset="0.424" stop-color="#232323"/>
      <stop offset="0.562" stop-color="#3e3e3e"/>
      <stop offset="0.7" stop-color="#626262"/>
      <stop offset="0.837" stop-color="#8d8d8d"/>
      <stop offset="0.972" stop-color="silver"/>
      <stop offset="1" stop-color="#ccc"/>
    </linearGradient>
    <linearGradient id="linear-gradient-6" x1="0" y1="0.5" x2="1" y2="0.5" xlink:href="#linear-gradient"/>
    <linearGradient id="linear-gradient-8" x1="-1.135" y1="0.553" x2="1.355" y2="0.446" gradientUnits="objectBoundingBox">
      <stop offset="0"/>
      <stop offset="0.32" stop-color="#999"/>
      <stop offset="0.436" stop-color="#747474"/>
      <stop offset="0.815"/>
    </linearGradient>
    <linearGradient id="linear-gradient-9" x1="0.278" y1="2.058" x2="0.649" y2="-0.454" gradientUnits="objectBoundingBox">
      <stop offset="0" stop-color="#666"/>
      <stop offset="0.747"/>
      <stop offset="1" stop-color="#272324"/>
    </linearGradient>
    <linearGradient id="linear-gradient-10" x1="0.515" y1="0.854" x2="0.458" y2="-0.579" gradientUnits="objectBoundingBox">
      <stop offset="0" stop-color="#fff"/>
      <stop offset="0.48" stop-color="#868686"/>
      <stop offset="1"/>
    </linearGradient>
    <linearGradient id="linear-gradient-11" x1="0.501" y1="1" x2="0.499" y2="-0.005" gradientUnits="objectBoundingBox">
      <stop offset="0.002" stop-color="#ccc"/>
      <stop offset="0.492" stop-color="#555"/>
      <stop offset="0.836"/>
    </linearGradient>
  </defs>
  <g id="Сгруппировать_61" data-name="Сгруппировать 61" transform="translate(-399 1791.485)">
    <g id="clothes" transform="translate(399 -1452.949)">
      <path id="Контур_76" data-name="Контур 76" d="M965.266,627a4.442,4.442,0,0,0-4.635-4.532,161.415,161.415,0,0,1-19-.3s-13.316-.614-20.059,14.055a4.46,4.46,0,0,1-3.148,2.518c-6.613,1.369-25.7,7.271-29.1,30.112a4.438,4.438,0,0,1-2.947,3.576c-10.88,3.7-52.7,18.252-71.462,29.781-.082.05-.163.1-.249.141L785.794,717.3s-26.421,14.047-41.3,22.159a3.987,3.987,0,0,1-.366.177c-1.839.783-17.669,7.747-25.971,18.99a4.1,4.1,0,0,1-.36.423l-34.223,34.829a4.327,4.327,0,0,0-.573.719c-3.11,4.879-34.719,54.672-51.4,88.858-.047.1-.1.188-.151.28-2.494,4.253-62.422,106.668-72.331,148.284l-18.976,66.918a4.423,4.423,0,0,1-.821,1.581c-3.413,4.207-21.142,26.51-25.019,40.563a4.426,4.426,0,0,0,4.283,5.582H1580.3a4.394,4.394,0,0,0,1.861-.409c4.765-2.209,25.115-14.187,17.357-54.95a4.424,4.424,0,0,1-.065-1.184l1.707-20.436a4.436,4.436,0,0,0-.448-2.342l-32.544-65.411a4.444,4.444,0,0,1-.226-.544c-1.378-4.062-18.053-52.359-40.291-78.547-.064-.075-.122-.151-.181-.231-1.56-2.159-24.36-33.577-56.585-69.707,0,0-46.2-55.707-57.174-63.211a4.471,4.471,0,0,1-1.876-2.689,47.971,47.971,0,0,0-19.434-28.135c-.07-.048-.133-.09-.2-.136-.871-.558-7.574-4.972-8.677-9.386-1.118-4.468-5.255-14.978-15.558-20.239a4.389,4.389,0,0,1-2.2-2.682c-.8-2.69-3.191-7.6-10.24-9.629a66.763,66.763,0,0,0-18.11-2.705,4.448,4.448,0,0,1-1.792-.368c-3.123-1.376-14.15-6.1-19.887-6.837a4.3,4.3,0,0,1-.688-.141c-3.359-1-31.066-9.033-43.029-6.093a4.54,4.54,0,0,1-2.948-.223c-4.823-2.16-21.035-8.571-38.888-6.184a4.423,4.423,0,0,1-4.947-3.774c-.84-5.755-3.358-15.531-10.885-20.846a4.617,4.617,0,0,1-1.6-1.884c-1.289-2.928-4.978-10.615-9.319-13.536a5.087,5.087,0,0,1-1.219-1.091l-2.928-3.818a4.429,4.429,0,0,0-7.124.128l-13.455,18.92a4.434,4.434,0,0,0-.459.818l-5.261,12.237a4.347,4.347,0,0,0-.268.855c-1.339,6.63-20.288,90.005-126.85,92.827,0,0-14.812.013-25.974,0-11.124-.014-32.729-22.451-38.733-36.056-.039-.09-.072-.173-.107-.265-.85-2.23-12.576-32.557-29.193-52.479-.069-.081-.137-.158-.209-.235a38.56,38.56,0,0,1-7.757-12.544,4.408,4.408,0,0,1,2-5.243c2.5-1.4,5.975-3.692,7.715-6.346C953.613,661.909,964.848,649.3,965.266,627Z" transform="translate(-514.139 -622.152)" fill="#0f1016"/>
      <path id="Контур_77" data-name="Контур 77" d="M882.078,682.66l-64.72,27.45s-103.22,47.474-116.375,74.334c0,0-51.609,70.207-54.645,96.1l-53.972,156.674-30.022-11.373s71.9-167.018,74.131-171.029,39.883-66.781,39.883-66.781l40.2-41.405,91.359-50.514s54.646-28.251,74.211-30.738Z" transform="translate(-507.249 -615.977)" fill="#eaeaf4"/>
      <path id="Контур_78" data-name="Контур 78" d="M752.223,774.624s-13.155,10.946-12.144,19.041c0,0-42.5,43.515-40.478,49.586l-.07,21.672s-32.312,39.045-32.312,49.165v24.287S644.956,975.818,639.9,997.07l-25.412,34.1s17.019,20.816,17.019,27.9c0,0,20.62,20.132,18,27.859-5.464,16.126,16.7-8.907,16.7-8.907s32.383-71.8,39.467-88.014c0,0,24.286-78.959,22.263-98.186C727.937,891.825,731.984,807.192,752.223,774.624Z" transform="translate(-499.796 -600.36)" fill="#eaeaf4"/>
      <path id="Контур_79" data-name="Контур 79" d="M725.5,1000.239s-20.239,25.3,0,53.634c0,0,14.168,21.835,6.072,38.747h25.3s-13.155-4.34-6.072-18.508a13.171,13.171,0,0,0,4.5-12.93s-2.024-10.57-9.445-17.541c0,0-3.776-3.119-5.156-11.461a26.1,26.1,0,0,0-6.659-13.766,16.264,16.264,0,0,0-5.5-4.008S724.036,1012.157,725.5,1000.239Z" transform="translate(-485.214 -568.111)" fill="#eaeaf4"/>
      <path id="Контур_80" data-name="Контур 80" d="M800.394,756.923S759.915,820.483,751.82,881.2l9.107,47.655S756.88,937.87,763.964,949a101.5,101.5,0,0,0,4.047,17.152l-6.071,14.218V999.6s10.12,31.145,9.669,41.041c0,0,.9,36.43,20.239,57.569,0,0,11.244,15.651,4.948,29.19h64.026S824.231,918.755,827.38,889.971l12.143-13.043s-4.947-20.239-7.645-26.986C831.877,849.942,812.087,776.794,800.394,756.923Z" transform="translate(-480.165 -602.891)" fill="#eaeaf4"/>
      <path id="Контур_81" data-name="Контур 81" d="M862.79,750.163s6.071,36.88,22.938,65.215V862.6s14.842,201.717,18.215,218.921l4.048,46.842h85.858S980.177,953,983.551,894.31l1.506-100.468s-21.417-25.135-43.844,1.236c0,0-47.39,9.5-50.763,7.482S862.79,750.163,862.79,750.163Z" transform="translate(-464.303 -603.857)" fill="#eaeaf4"/>
      <path id="Контур_82" data-name="Контур 82" d="M1042.041,776.248l-17,21.694a139.3,139.3,0,0,1,0,25.551s-1.056,101.2,1.886,117.388l9.914,194.25h79.383l18.215-267.112-.891-165.2-91.508,73.43" transform="translate(-441.138 -610.624)" fill="#eaeaf4"/>
      <path id="Контур_83" data-name="Контур 83" d="M1175.807,729.577s-3.19,360.532-13.7,401.73h51.216s-1.012-26.6,0-34.7c0,0,26.312-37.443,23.275-57.682,0,0,26.312-189.236,25.3-193.285l-1.012-4.047-23.275-21.252s-15.179-39.555-16.192-45.076C1221.416,775.267,1211.154,755.186,1175.807,729.577Z" transform="translate(-421.52 -606.8)" fill="#eaeaf4"/>
      <path id="Контур_84" data-name="Контур 84" d="M1168.843,786.046" transform="translate(-420.557 -598.728)" fill="none" stroke="#eaeaf4" stroke-miterlimit="10" stroke-width="1"/>
      <path id="Контур_85" data-name="Контур 85" d="M854.158,647.069s-18.993,6.253-9.323,57.525c0,0,16.312,71.085,19.01,77.383,0,0,2.384,14.649,14.528,30.515l3.9,24.93s3.712,11.545,19.454,2.55c0,0,24.737-14.842,32.383-18.44,0,0,21.588-21.589,40.478-16.641a372.472,372.472,0,0,1,45.816,27.885l53.58-40.591s14.671,3.152,17.343,10.839c0,0,73.958-77.291,82.953-96.181,0,0,5.714-9.445,2.183-24.287,0,0-2.5-9.782-10.1-13.662,0,0-3.55-10.626-10.522-15.123l-7.083-9.237s-25.086,25.347-29.252,39.344-14.135,83.429-115.506,91.2H973.016s-32.878-12.435-43.917-48.315c0,0-17.135-31.645-20.678-36.127,0,0-10.94-10.554-12.3-20.9,0,0,20.782-5.725,22.191-47.565H894.758s-14.691-1.234-20.951,16.194C873.806,638.368,861.682,639.124,854.158,647.069Z" transform="translate(-467.262 -622.154)" fill="#0f1016"/>
      <path id="Контур_86" data-name="Контур 86" d="M576.318,979.805a262.717,262.717,0,0,1,41.17,16.727c13.953,7.174,28.368,16.526,37.764,27.8l4.721,16.866s38.792,49.832,51.441,53.25H525.665s-11.879-8.68,20.736-46.145l21.487-67.213S568.392,977.214,576.318,979.805Z" transform="translate(-512.793 -571.16)" fill="#eaeaf4"/>
      <path id="Контур_87" data-name="Контур 87" d="M596.306,983.588l-30,64.427L557.656,1095h34l8.981-25.617,3.545-21.962,20.2-50.546Z" transform="translate(-507.919 -570.492)" fill="#0f1016"/>
    </g>
    <g id="face" transform="translate(805.545 -1600.852)">
      <path id="Контур_88" data-name="Контур 88" d="M883.708,513.649s-7.421-6.409-11.469,8.1c0,0-5.4,9.316,0,25.234l6.41,22.664s4.384,15.518,12.481,24.287c0,0,4.047,5.734,7.42,11.469,0,0,3.374,7.083,14.505,9.107,0,0,8.1,48.237-14.505,69.825,0,0-3.349,1.686-6.4,3.036L900.236,713s10.794,65.1,71.849,85.679l48.238,2.024,46.55-19.565s51.947-66.789,60.717-94.786c0,0-3.373.674,11.131-16.866,0,0,15.855-19.9,19.9-56.332,0,0,9.782-30.7,6.41-61.055l-4.723-49.249L970.4,498.808l-35.756,13.155Z" transform="translate(-869.84 -491.882)" fill="#f5be54"/>
      <path id="Контур_89" data-name="Контур 89" d="M989.139,569.426" transform="translate(-852.788 -481.788)" fill="none" stroke="#ec9d3b" stroke-miterlimit="10" stroke-width="1"/>
      <path id="Контур_90" data-name="Контур 90" d="M931.873,550.629a3.367,3.367,0,0,1-.664,1.1c-2.927,3.635-18.285,24.442-10.394,51.885,8.22,28.589-22.663,79.569-24.443,85.076-8.729,27.025,38.072,110,61.519,100.293,3.486-1.443,12.627-3.03,15.714,0,31.679,31.083,78.3-2.737,87.916-7.042a6.977,6.977,0,0,0,2.775-2.247l13.745-18.745a7.008,7.008,0,0,0-7.724-10.838h0c-9.594,3.137-15.078,1.009-18.2-2.16a7.013,7.013,0,0,0-9.932-.033c-4.972,5.039-18.069-2.423-18.069-2.423-6.71-4.576-13.81-18.455-13.341-21.136a3,3,0,0,0,.09-.73c-1.618-22.07-17.17-24.5-19.933-32.127-14.632-40.374-1.776-81.315-1.733-81.361.864-.912,14.8-19.179,34.121-19.387a1.25,1.25,0,0,0,.131-.007c1.049-.1,14.487-1.438,17.128-7.271,0,0,.367-5.035,9.785,11.913.024.042.044.081.065.126.708,1.511,15.245,32.078,18.209-1.2a1.855,1.855,0,0,0,.008-.24c-.039-1.574-.33-19.227,6.165-23.753,7.626-5.314,7.645-17.541,7.645-17.541l.641-23.825a2.023,2.023,0,0,0-.023-.361c-.269-1.786-2.656-15.84-11.322-16.875a1.98,1.98,0,0,1-1.452-.941c-.894-1.46-3.521-4.46-10.788-6.846a2.051,2.051,0,0,1-.464-.218l-4.213-2.723a2.065,2.065,0,0,0-1.072-.328l-86.619-1.846a2.039,2.039,0,0,0-.753.126l-33.506,12.328a2.054,2.054,0,0,0-1.249,2.548A64.658,64.658,0,0,1,931.873,550.629Z" transform="translate(-866.201 -491.881)" fill="#ec9d3b"/>
      <path id="Контур_91" data-name="Контур 91" d="M1086.894,515.682s-14.767-2.924-19.189,6.859c0,0-15.893-9.108-11.507,5.734a130.127,130.127,0,0,1,.246,26.022s9.537,49.17,16.283,53.939c0,0,5.886,7.391,1.108,14.947,0,0,.1.088.276.254a51.6,51.6,0,0,1,16.42,34.573c.29,4.665.285,9.307-.448,12.4,0,0,7.268,17.079,10.979,14.043,0,0,10.03-13.714,14.4-21.722,0,0,14.606-27.19,16.63-51.477,0,0,2.757-16.249,5.258-23.979,0,0,2.466-17.741,1.809-27.409l-1.149-14.792-2.981-31.085s-12.72-5.631-21.49,2.639a20.074,20.074,0,0,1-13.677,2.494S1089.368,515.007,1086.894,515.682Z" transform="translate(-843.312 -489.979)" fill="#f19938"/>
      <path id="Контур_92" data-name="Контур 92" d="M1058.811,557.443s-2.662,8.41-.806,12.8c0,0,5.935,29.084-8.792,21.663,0,0-11.213-25.954-17.357-18.063,0,0-12.215,24.42-55.729,2.157,0,0-8.771-9.107-11.469-7.758,0,0-12.143-5.4-14.167-10.794,0,0-6.456-6.828-6.747-12.91,0,0-7.614-11.488-4.819-15.143,0,0-.241-1.066,6.506,0,0,0,9.782,1.69,16.528-4.356,0,0,1.21-3.011,5.5-2.336,0,0,21.823-2.911,39.365,2.761,0,0,29.343,8.319,38.285-.425,0,0,.147-3.917-7.362-2.317,0,0-14.095,5.853-30.923-5.254a114.329,114.329,0,0,0-17.19-4.511s-18.516-1.816-18.033-6.661l76.041.254s9.936,3.445,10.365,10.642c0,0-.584,13.5,2.959,12.2,0,0,24.042,14.238,4.684,22.663C1065.648,552.054,1060.731,552.994,1058.811,557.443Z" transform="translate(-860.053 -490.812)" fill="#eb672a"/>
      <path id="Контур_93" data-name="Контур 93" d="M1030.419,516.708s-3.2-5.661-8.642-3.679c0,0-6.536,1.9-11.427-1.7,0,0-9.46-4.246-9.1,0a50.015,50.015,0,0,0,9.1,6.793s-2.655,3.113,10.787,0Z" transform="translate(-851.058 -490.362)" fill="#9d2117"/>
      <path id="Контур_94" data-name="Контур 94" d="M1008.008,556.727" transform="translate(-850.091 -483.603)" fill="none" stroke="#9d2117" stroke-miterlimit="10" stroke-width="1"/>
      <path id="Контур_95" data-name="Контур 95" d="M974.981,556.786a17.458,17.458,0,0,1-6.072,4.16c-15.742,3.6-14.842-9.018-14.842-9.018-.9-4.971-5.846-9.092-5.846-9.092-14.842-16.31,0-12.474,0-12.474,6.3.9,12.144-2.7,12.144-2.7,13.38-8.208,28.784-3.781,28.784-3.781,9.116-1.494,34.744,4.905,34.744,4.905,12.481,2.7,20.239-1.125,20.239-1.125,11.5-8.507,8.77,0,8.77,0-5.4,5.959.675,6.437.675,6.437,15.854-2.109,9.107,8.735,9.107,8.735-14.167,17.085-32.607,17.537-32.607,17.537s-31.426,16.471-27.21,13.966c0,0,8.544-5.523,9.219-10.02,0,0,2.327-4.5-10.3-.225,0,0-14.027-.543-20.054-5.736C981.726,558.358,977.567,554.277,974.981,556.786Z" transform="translate(-859.58 -488.468)" fill="#db4a1d"/>
      <path id="Контур_96" data-name="Контур 96" d="M1094.531,522.54l-5.525-3.627c-4.344-2.18-6.45,3.627-6.45,3.627-2.472,2.572-6.747-1-6.747-1-3.823-2.473-8.62,4.329-8.62,4.329s-1.135,1.77-3.749-.506c0,0-2.167-3.12-4.385,25.3,0,0-1.051,11.152,11.955,12.322,0,0,19.416,19.723,28.186,24.782,0,0,13.043-1.011,9.22,26.986,0,0-4.893,28.568.7,35.943,0,0,4.651,8.571,15.074-15.035l12.644-48.6s.253-25.161-5.707-14.084c0,0-9.445,12.764-22.714,6.018,0,0-5.509-2.7,1.912-8.77a86.638,86.638,0,0,0,13.83-10.572s3.711-6.712,8.771-8.19c0,0,5.392-4.479,3.909-18.917l-2.321-18.769s-5.636-1.656-14.405,5.133c0,0-9.333,4.488-17.541,5.077C1102.571,523.99,1097.744,524.648,1094.531,522.54Z" transform="translate(-842.797 -489.767)" fill="#ec682b"/>
      <path id="Контур_97" data-name="Контур 97" d="M1064.435,550.214s6.733-1.621,12.474,1.1c0,0,9.073,11.681,30.028,6.429,0,0,14.841-5.308-1.8-4.621,0,0-21.711-4.317,9.609-3.389,0,0,11.53,2.574,15.129-4.095,0,0,6.439-5.1,2.657-14.77,0,0-.736-5.168-8.893-3.593,0,0-60.3,1.194-61.643,14.947C1062,542.224,1059.937,548.19,1064.435,550.214Z" transform="translate(-842.441 -487.855)" fill="#db4a1d"/>
      <path id="Контур_98" data-name="Контур 98" d="M952.51,539.158s0-4.632,9.9-7.78c0,0,5.4-2.7,8.995-4.948,0,0,5.764-3.149,17.724,0,0,0,8.467.9,11.113.9,0,0,8.31-1.264,17.171,4.765a31.7,31.7,0,0,0,18.308,0s-4.048,7.2-22.488,7.063c0,0-7.2.139-19.115,0,0,0-10.119-1.486-24.511,2.112C969.6,541.272,960.156,545.14,952.51,539.158Z" transform="translate(-858.024 -488.134)" fill="#4c1314"/>
      <path id="Контур_99" data-name="Контур 99" d="M917.412,602.265c-5.272,5.715-9.67,4.368-9.67,4.368l-.736,49.651c8.371,16.93,9.163,42.309,9.163,42.309,4.04,8.306,13.759,41.139,13.759,41.139,3.97,29.544,27.7,35.685,35.159,33.761,4.5-1.16,6.746,2.992,6.746,2.992,16.257,15.413,37.244,7.348,37.244,7.348l.087-5.843,3.315-36.206L997.919,721.1c-24.062-46.284-27.435-79.214-27.435-79.214-1.518-18.721,4.891-35.588,4.891-35.588,6.24-13.8-.91-15.288-3.443-16.079-12.885-5.344-22.812-17.541-22.812-17.541-19.34-32.383-28.375-13.058-28.375-13.058-9.26,16.328-1.6,36.121-1.6,36.121S919.08,600.457,917.412,602.265Z" transform="translate(-864.528 -484.007)" fill="#ec682b"/>
      <path id="Контур_100" data-name="Контур 100" d="M1059.23,603.62s-4.047-2.7-15.347,0c0,0-6.915.338-9.613-3.71,0,0-6.072-9.438-11.469,1.858,0,0-3.373,4.213,9.782,5.226a17.655,17.655,0,0,1,9.445,4.169s7.421,7.879,17.2,0a19.582,19.582,0,0,1,13.194-3.5s8.057,1.687,5.7-6.41c0,0-1.35-7.42-13.492-1.349Z" transform="translate(-848.032 -477.958)" fill="#f6dba6"/>
      <path id="Контур_101" data-name="Контур 101" d="M1062.374,531.3s3.351,3.422,6.725,0c0,0,4.384-6.333,7.758-4.372a12.369,12.369,0,0,0,7.421-.426s.674-6.72,4.384-4.7c0,0,2.137-.225,2.7,2.473,0,0,.675,3.547,10.795,2.223,0,0,18.889-4.7,23.612-1.547,0,0,3.373,1.447,4.948,6.346,0,0-2.7,4.674-17.317,2.649a60.325,60.325,0,0,0-14.841.509s-12.594,2.92-22.038,3.455c0,0-9.22,3.683-11.695,1.883C1064.825,539.792,1060.6,537.416,1062.374,531.3Z" transform="translate(-842.382 -488.649)" fill="#4c1314"/>
      <path id="Контур_102" data-name="Контур 102" d="M1079.615,545.022" transform="translate(-839.855 -485.276)" fill="#ef9938"/>
      <path id="Контур_103" data-name="Контур 103" d="M1070.94,615.051l-15.216,8.676-27.391-7.526.471-3.256s-9.968-.234-7.683-8.106c0,0,2.061-8.545,10.606-11.693,0,0,6.747-2.248,0-8.1,0,0-1.039-5.4-8.39,5.847,0,0-20.266,28.745-28.265,36.761,0,0-18.5,24.241-13.943,37.9a40.683,40.683,0,0,0,15.106-16.139l10.175-13.847a28.054,28.054,0,0,1,12.127-9.491c4.572-1.829,15.043.022,18.247,4.167,0,0,7.667,15.159,18.161,12.66,1.716-.409,7.365-5.7,10.176-9.845,0,0,19.436-5.427,19.436-12.775C1084.558,620.291,1087.8,608.808,1070.94,615.051Z" transform="translate(-854.036 -479.74)" fill="#ec9d3b"/>
      <path id="Контур_104" data-name="Контур 104" d="M1122.937,577.018s-17.258,11.286-14.56,31.167c0,0-.9,8.187,5.622-1.708,0,0,5.059-11.872,8.938-14.393C1122.937,592.084,1129.55,583.832,1122.937,577.018Z" transform="translate(-835.785 -480.703)" fill="#9d2117"/>
      <path id="Контур_105" data-name="Контур 105" d="M1033.278,536.41s-1.641-1.984-13.539,1.734a28.726,28.726,0,0,1-8.98,1.313c-8.753-.118-27.691.091-39.474,3.636,0,0-5.321.679-9.683,6.243,0,0-2.864-2.885,21.6-1.089,0,0,15.476,4.612,31.8,2.2C1015,550.445,1041.775,543.318,1033.278,536.41Z" transform="translate(-856.739 -486.583)" fill="#4c1314"/>
      <path id="Контур_106" data-name="Контур 106" d="M982.26,541.343s-1.291,2.4,7.917,5.848c0,0,11.3,2.247,19.329-1.215,0,0,4.052-3.105,2.79-6.866L1001.982,539s-13.826.266-19.669,1.053Z" transform="translate(-853.78 -486.137)" fill="#0f1016"/>
      <path id="Контур_107" data-name="Контур 107" d="M994.755,540.208s-.1,2.7,2.441,2.8c0,0,2.481.434,3.1-3.331A30.421,30.421,0,0,0,994.755,540.208Z" transform="translate(-851.985 -486.04)" fill="#4c1314"/>
      <path id="Контур_108" data-name="Контур 108" d="M1117.785,560.49" transform="translate(-834.399 -483.065)" fill="none" stroke="#9d2117" stroke-miterlimit="10" stroke-width="1"/>
      <path id="Контур_109" data-name="Контур 109" d="M998.882,590.021s-13.7,1.979-7.766,14.063c0,0-.034,17.54,6.51,9.309,0,0,7.643-9.287,8.5-14.262C1006.122,599.132,1009.345,587.827,998.882,590.021Z" transform="translate(-852.718 -478.884)" fill="#f6dba6"/>
      <path id="Контур_110" data-name="Контур 110" d="M933.476,569.84s13.01,13.769,23.062,58.043c0,0,.453,16.351,13.186,59.063,3.843,12.889,21.084,38.71,5.565,34.912,0,0-29.515-7.955-7.364,5.988,0,0,18.53,15.117,43.942,18.2l-2.876,36.306s-44.777-.311-68.839-46.215c0,0-31.1-49.562-1.8-33.371,0,0,4.985,2.85-5.21-10.615,0,0-22.788-34.565-15.816-48.751,0,0-10.57-14.636-9.67-38.25,0,0,7.94,2.157,9.67-4.368C917.327,600.777,915.95,547.322,933.476,569.84Z" transform="translate(-864.443 -482.52)" fill="#db4a1d"/>
      <path id="Контур_111" data-name="Контур 111" d="M925.948,583.68s3.738,25.046,4.905,36.1c0,0,1.56,6.316-3.808,24.653,0,0-4.245,7.482,8.685,30.9l12.65,26.424s16.36,15.969,0-19.379c0,0-9.052-6.415-9.108-41.346,0,0,4.1-27.476,0-42.673C939.272,598.363,929.322,573.4,925.948,583.68Z" transform="translate(-861.82 -480.105)" fill="#9d2117"/>
      <path id="Контур_112" data-name="Контур 112" d="M889.362,674.385l6.023,19.1s14.372-9.972,17.325-25.443c0,0,.7-25.326,7.225-28.268s14.111-19.566,12.34-27.671c0,0-8.882-28-10.611-21.472h0s.744,13.368-11.4,10.893h0l-.5,33.926s-4.2,29.153-20.4,38.935" transform="translate(-867.05 -478.898)" fill="#46515b"/>
      <path id="Контур_113" data-name="Контур 113" d="M1068.026,538.591s13.674-4.844,27.43-1.808c0,0,19.153,1.721,25.563,1.451,0,0,2.361,7.713-15.349,8.275,0,0-13.972-2.037-17.949-1.918C1087.721,544.592,1074.549,547.939,1068.026,538.591Z" transform="translate(-841.512 -486.597)" fill="#4c1314"/>
      <path id="Контур_114" data-name="Контур 114" d="M1075.329,537.289s-3.2,5.566,9.95,5.229c0,0,11.469.709,14-4.284,0,0-2.024-2.524-13.323-2.451Z" transform="translate(-840.517 -486.597)" fill="#0f1016"/>
      <path id="Контур_115" data-name="Контур 115" d="M1075.937,511.218s1.35-6.728,15.517-4.6c0,0,9.228,1.1,14.168-1.92l8.546-.674s-3.6,6.071-7.421,7.2c0,0,.89,3.676-13.233,0,0,0-11.727-.555-13.3,1.633C1080.21,512.851,1073.64,514.209,1075.937,511.218Z" transform="translate(-840.451 -491.136)" fill="#f19938"/>
      <path id="Контур_116" data-name="Контур 116" d="M938.975,554.594s12.893,19.342,18.586,21.366c0,0,18.526,3.433,22.734,1.886,0,0-.434-3.625-20.714-11.357,0,0-8.81-4.922-13.026-10.881C946.557,555.607,937.006,541.493,938.975,554.594Z" transform="translate(-859.996 -484.704)" fill="#f6dba6"/>
      <path id="Контур_117" data-name="Контур 117" d="M1018.039,611.2s2.391-4.89,12.5,1.012l3.358,2.191s12.818,10.791,28.167,1.181c0,0,4.723-6.07,14-4.552,0,0,4.386,3.035-7.084,9.61,0,0-10.549,2.006-12.911,6.726,0,0-7.665,14.529-15.543.579,0,0-8.146-8.317-16.241-10.34C1024.279,617.6,1017.2,616.253,1018.039,611.2Z" transform="translate(-848.667 -476.089)" fill="#ec682b"/>
      <path id="Контур_118" data-name="Контур 118" d="M1022.958,609.3s7.871-1.009,16.191,5.9c0,0,7.515,5.126,18.666.574,0,0,8.055-6.538,11.9-4.711,0,0-.961,4.97-10.365,9.02s-8.706,7.479-8.706,7.479-4.582,5.341-9.386-2.08c0,0-3.249-7.325-8.862-8.835C1032.393,616.647,1016.211,612.232,1022.958,609.3Z" transform="translate(-848.189 -476.095)" fill="#9d2117"/>
      <path id="Контур_119" data-name="Контур 119" d="M1081.723,537.277s.907,3.984,5.292,1.375a7.229,7.229,0,0,0,.591-1.6A38.278,38.278,0,0,0,1081.723,537.277Z" transform="translate(-839.554 -486.419)" fill="#4c1314"/>
      <path id="Контур_120" data-name="Контур 120" d="M1147.038,553.456s-45.2,14.134-52.668,24.5l-8.174-22.376s-9.458-30.24-28.615,1.892c0,0-6.543,16.887-27.09,15.587s-3.8,1.373-3.8,1.373-48.758-32.886-74.434-25.019a17.827,17.827,0,0,0-8.612,17.649s-5.821,33.441-19.1,32.35l-4.134-5.222,1.636-6.17-3.974-7.715s10.048-6.6,9.356-12.393l-1.5-7.058s14.783-4.656,15.37-10.495l-1.006-29.654s2.086-26.482,18.836-25.091l97.743-.054s72.351.266,88.193-2.817c0,0,5.176,51.561,5.087,55.71l.105,4.573Z" transform="translate(-862.946 -492.748)" fill="#46515b" opacity="0.2"/>
      <path id="Контур_121" data-name="Контур 121" d="M1003.16,629.094" transform="translate(-850.784 -473.259)" fill="#ec9d3b"/>
      <path id="Контур_122" data-name="Контур 122" d="M883.922,518.249s-12.043,1.887-7.455,24.493l3.751,16.473s1.849,5.795,2.354-11.914c0,0,.626-8.355,4.7-8.9h0l-3.349-20.152" transform="translate(-869.042 -489.103)" fill="#ec682b"/>
      <path id="Контур_123" data-name="Контур 123" d="M879.361,532.9s-.674-6.234,0-7.87c0,0-4.553,1.646-1.855,12.4l3.108,18.093s.759-6,1.608-15.59a4.293,4.293,0,0,0-1.809-4.113C879.9,535.514,879.466,534.695,879.361,532.9Z" transform="translate(-868.867 -488.133)" fill="#9d2117"/>
      <path id="Контур_124" data-name="Контур 124" d="M892.562,562.417,887.21,544.1s-3.485-11.919-4.272,4.273c0,0-3.193,19.452,4.812,24.512,0,0,7.727,6.578,6.882,0,0,0-1.517-8.576-2.069-10.466" transform="translate(-868.058 -486.012)" fill="#ec682b"/>
      <path id="Контур_125" data-name="Контур 125" d="M886.836,547.406s1.8,5.157,3.3,10.414a55.1,55.1,0,0,1,1.985,8.9s-3.486,5.061-6.3-2.854C885.824,563.865,883.238,553.7,886.836,547.406Z" transform="translate(-867.684 -484.935)" fill="#db4a1d"/>
      <path id="Контур_126" data-name="Контур 126" d="M887.77,560.87c1.522,7.668,3.73,2.221,2.869-.949l-1.408-5.035S886.506,554.507,887.77,560.87Z" transform="translate(-867.325 -483.867)" fill="#9d2117"/>
      <path id="Контур_127" data-name="Контур 127" d="M892.789,590.068s-6.4-20.815,7.005-10.745h0s12.392,5.739,13.91,5.459l3.485,17.832s-18.159,4.152-24.4-12.546" transform="translate(-866.778 -480.766)" fill="#ec682b"/>
    </g>
    <g id="mouth" transform="translate(931.589 -1439.138)">
      <path id="Контур_128" data-name="Контур 128" d="M1008.739,661.269s2.3,14.28,11.18,16.023c0,0,5.286-1.968-1.911-9.894C1018.008,667.4,1011.163,659.245,1008.739,661.269Z" transform="translate(-976.03 -630.42)" fill="#efca8f"/>
      <path id="Контур_129" data-name="Контур 129" d="M1011.439,709.388c37.229,26.973,62.746,8.461,62.746,8.461,12.967-5.989,15.042-19.733,15.042-19.733.3-10.924,6.183-25.974,6.183-25.974,6.971-3.963,5.795,17.106,5.795,17.106L1111.826,667s-9.445-23.74-10.979-14.043-3.358,5.389-3.358,5.389c-3.767-4.719-4.813-18.894-26.937-19.492-7.623-.206-9.48-.416-13.232,2.734-4.757,3.993-8.227,3.271-8.227,3.271-9.556-6.754-16.531-8.81-18.9-9.163-27.609-4.115-33.918,6.51-33.918,6.51l-10.072-7.967s.813,9.22-2.9,14.075c0,0-12.037,14.975,10.679,22.9,0,0,6.205,2.529,7.546,14.336C1001.532,685.551,1003.369,703.541,1011.439,709.388Z" transform="translate(-980.121 -634.238)" fill="#f19938"/>
      <path id="Контур_130" data-name="Контур 130" d="M1010.019,676.544a20.7,20.7,0,0,0,3.088,3.126c6.335,5.377,22.876,14.842,53.766,4.437,0,0,9.763-4.233,11.975-7.563,0,0,8.134-6.911,6.786,3.471,0,0-.229,19.061-18.76,25.26,0,0-30.227,11.3-50.016-4.853,0,0-13.641-7.3-12.143-11.549,0,0-2.151-6.2,2.354-4.766C1007.07,684.107,999.022,663.718,1010.019,676.544Z" transform="translate(-976.679 -628.796)" fill="#ec682b"/>
      <path id="Контур_131" data-name="Контур 131" d="M1001.3,663.731a20.651,20.651,0,0,0,4.721,0s3.711-3.584,12.987,0c0,0,8.265,2.572,10.794,6.451,0,0,24.061,8.6,40.534-3.461,0,0,4.16-3.692,13.268-6.441,0,0,15.348-1.568,0-7.471,0,0-11.637-6.071-22.431-4.554a28.094,28.094,0,0,0-7.487,1.687s-3.139,2.361-6.848-1.013c0,0-4.706-3.807-15.593-1.65,0,0-10.044.3-13.248-1.553,0,0-8.434-9.108-17.035-.675C1000.958,645.051,986.622,663.352,1001.3,663.731Z" transform="translate(-978.039 -633.204)" fill="#ec682b"/>
      <path id="Контур_132" data-name="Контур 132" d="M1015.635,653.136a17.322,17.322,0,0,1-8.963-1.9c-2.356-1.221-5.692-2.166-7.758.651,0,0-4.139,4.5,7.78,6.747,0,0,14.425,1.125,24.415,0,0,0,10.859-2.39,14.25-1.48a14.093,14.093,0,0,0,14.068-1.359l3.149,2.9s10.279.388,15.427-.735c0,0,9.984-2.249-8.175-5.622l-5.207-.675s-2.741-1.349-4.135-.449c0,0-7.016,11.019-16.912,1.125,0,0-2.219-4.36-13.028-2.293A55.516,55.516,0,0,1,1015.635,653.136Z" transform="translate(-977.534 -632.058)" fill="#9d2117"/>
    </g>
    <g id="halmet" transform="translate(776.573 -1791.485)">
      <path id="Контур_133" data-name="Контур 133" d="M885.475,603.291c-6.24,7.252-5.06,21.419-5.06,21.419H877.38c-6.578,4.217-5.4,8.771-5.4,8.771l1.35,1.855c4.047-1.181,5.4-5.566,5.4-5.566l1.855-.674.337,8.771-1.349,1.518,1.18,10.288c7.253,36.6,25.805,49.924,25.805,49.924.169,3.711,4.723,13.324,4.723,13.324l-5.9-5.229-1.181,3.036,6.41,11.3c-3.2,3.542-1.013,9.952-1.013,9.952a69.07,69.07,0,0,1,2.024,10.457c-.337,17.878,11.132,19.228,11.132,19.228l3.036-4.048c8.1,16.528,20.239,35.756,20.239,35.756,21.251,20.239,42.84,23.612,42.84,23.612,61.729,3.711,79.607-17.541,79.607-17.541l-3.036-12.143-48.574,16.191-40.815-2.024c-24.962-1.686-35.418-24.962-35.418-24.962-3.374-9.444-15.18-27.322-15.18-27.322l4.722,2.7c.844-5.566-1.349-8.771-1.349-8.771.674-8.6-2.192-13.662-2.192-13.662a37.409,37.409,0,0,1,5.06-18.552c3.879-9.445,2.866-14.336,2.866-14.336,9.783-16.023-.674-45.032-.674-45.032l-.169-8.265c-.337-7.253-8.77-20.239-8.77-20.239-1.855-2.531-1.012-2.7-1.012-2.7l5.228-5.06c5.9-4.892,4.554-8.771,4.554-8.771l-.674-5.565,9.445-5.566c6.578-2.868,6.071-8.433,6.071-8.433l-.844-26.312c-1.181-26.648,14.337-28.335,14.337-28.335l35.924-.337c60.717,2.361,164.949-3.036,164.949-3.036l3.1,16.022,2.972,1.181a17.112,17.112,0,0,1,4.047,6.072l2.193,36.093,7.758-.674-.337,1.855c-10.963,10.289-.169,23.95-.169,23.95l-14.842-1.687c-.505,13.155-7.421,28.165-7.421,28.165-6.408,38.118-21.083,54.309-21.083,54.309-11.3,14-6.746,15.854-6.746,15.854,3.373,6.578,1.349,18.047,1.349,18.047l3.037,1.349c3.879-2.023,10.794-1.686,10.794-1.686l.506-11.132c5.565-3.879,3.373-9.107,3.373-9.107,6.915-19.734,2.024-24.287,2.024-24.287l34.575-54.477c6.915,2.361,8.6-1.349,8.6-1.349,2.529-4.385,0-9.277,0-9.277,13.83-19.733,13.155-37.1,13.155-37.1,9.107-4.216,7.421-7.59,7.421-7.59l-.337-7.758,1.349-2.024c4.216-7.926-1.012-10.288-1.012-10.288l-.169-9.108,3.879-2.529c1.35-7.758-2.866-8.771-2.866-8.771-1.35-16.191-6.468-23.949-6.468-23.949V483.374l-3.933-2.249c4.947-1.125,3.823-3.6,3.823-3.6l-1.343-5.847c-.892-3.148-5.179-1.124-5.179-1.124l5.172-9.9c.225-5.172-4.948-18.215-4.948-18.215-2.7-4.272-15.292-14.392-15.292-14.392-3.6-7.646-13.268-24.287-13.268-24.287-17.765-30.583-62.74-66.114-62.74-66.114-10.57-14.167-21.139-11.495-21.139-11.495-13.268-.7-21.814,11.72-21.814,11.72-38-15.517-82.755,2.024-82.755,2.024a77.491,77.491,0,0,1-9.894-5.4c-15.742-12.594-29.684-7.2-29.684-7.2s-19.789,1.8-62.966,63.866c0,0-4.5,4.048,0,9.445L874.514,420.97a30.747,30.747,0,0,0-2.361,7.758c-12.818,4.385-24.577,27.323-24.577,27.323l-3.084,22.6,6.071,2.7c.337,13.83,10.794,30.022,10.794,30.022-3.036,14.167,12.257,49.985,12.257,49.985.674-15.517,11.356-26.71,11.356-26.71l2.7,6.747c-.337,18.889,13.155,56.669,13.155,56.669l15.854,21.588c-3.036-1.349-4.554.844-4.554.844-3.2,2.024-.844,6.916-.844,6.916,3.036,7.252,8.771,5.565,8.771,5.565l7.42,22.938c4.555,18.721,0,31.877,0,31.877l-1.011-1.518-9.613,6.747c-2.53,1.687-3.374.506-3.374.506-.842-1.518,3.037-1.687,3.2-2.193s.506-2.361.506-2.361l-2.024-.168c-4.891-1.687-1.012-2.7-1.012-2.7l3.542.505c1.349-6.915,0-21.757,0-21.757l-11.639,22.77c-5.9-4.216-14.167-23.613-14.167-23.613l-2.868-10.794c.337-5.06-1.518-11.637-1.518-11.637l-3.542-10.794c-1.011-3.036,3.711-2.024,3.711-2.024,10.794,1.181,11.805-2.868,11.805-2.868l-4.553-6.071c-3.879,5.566-12.144,4.891-12.144,4.891a13.407,13.407,0,0,1,.843-5.565s1.071-5.742,8.125-4.277a43.431,43.431,0,0,1-3.655-6.517A41.439,41.439,0,0,0,885.475,603.291Z" transform="translate(-844.492 -325.957)" fill="url(#radial-gradient)"/>
      <path id="Контур_134" data-name="Контур 134" d="M851.829,434.219s-2.165-8.949,63.05,0c0,0,56.036,5.963,117.969-1.989,0,0,82.06-5.471,133.164-1.989,0,0,30.865,2.583,39.186-2.365a34.619,34.619,0,0,1,4.948,18.215L1192.6,455.9l19,21.9v16.641s-50.112-23.3-141.824-15.025c0,0-148.793,5.243-196.318-11.624,0,0-18.177-4.047-22.9-1.012l-6.071-2.7,3.084-22.6Z" transform="translate(-844.492 -311.388)" fill="none" stroke="#0f1016" stroke-miterlimit="10" stroke-width="1"/>
      <path id="Контур_135" data-name="Контур 135" d="M868.81,424.718s.878.937,2.565,0c0,0,1.181-3.8,8.939-3.974h19.733s-16.942-2.555-23.612-1.181c0,0,3.6-2.441,18.552-.406l19.677,2.583s5.622.578,12.03-6.731l4.948-5.847a42.115,42.115,0,0,1,2.249-8.207s18.44-15.854,30.7-24.513c0,0,25.636-18.664,38.229-22.15h6.41s18.664-5.4,45.088-5.51c0,0,26.761-.449,45.313,3.936l2.586,1.349,5.622-.562s38,17.646,51.047,33.447c0,0-26.085-24-51.159-31.76,0,0-31.034-5.285-53.635-4.835,0,0-25.074,1.125-45.762,5.4,0,0-34.632,14.168-62.4,39.242l-8.883,8.1s-1.349.449-2.024,5.06l-.449,4.385-14.617,11.356s-.788,1.911-11.244.337l-21.7-1.8s-9.332-1.8-12.93.9C874.073,423.331,870.855,426.668,868.81,424.718Z" transform="translate(-841.016 -322.696)" fill="#0f1016"/>
      <path id="Контур_136" data-name="Контур 136" d="M880.968,447.912s-6.3,3.6-5.172,10.12c0,0-2.474,9.669,11.919,13.718,0,0,2.7,5.172,4.272,5.4h17.991s8.321,1.8,28.784,3.373c0,0,35.223,2.7,61.351,1.8,0,0,16.907,1.35,21.855-8.321,0,0,4.16-7.87-1.631-14.392l-9.693-10.4a12.039,12.039,0,0,0-8.674-3.835c-16.429-.186-67.457-.688-84.346.062C917.623,445.438,890.413,446.563,880.968,447.912Z" transform="translate(-840.041 -308.935)" fill="#0f1016"/>
      <path id="Контур_137" data-name="Контур 137" d="M886.991,455.816s20.464,0,33.282,2.024" transform="translate(-838.417 -307.395)" fill="none" stroke="#707070" stroke-miterlimit="10" stroke-width="1"/>
      <path id="Контур_138" data-name="Контур 138" d="M941,458.522s26.312,1.518,29.515,1.518" transform="translate(-830.697 -307.008)" fill="none" stroke="#707070" stroke-miterlimit="10" stroke-width="1"/>
      <line id="Линия_1" data-name="Линия 1" x2="10.963" transform="translate(154.154 153.032)" fill="none" stroke="#707070" stroke-miterlimit="10" stroke-width="1"/>
      <path id="Контур_139" data-name="Контур 139" d="M887.729,458.522s36.6,4.047,62.4,4.891c0,0,48.743,1.518,51.61,1.518" transform="translate(-838.312 -307.008)" fill="none" stroke="#707070" stroke-miterlimit="10" stroke-width="1"/>
      <path id="Контур_140" data-name="Контур 140" d="M892.451,468.556s14.842,3.374,21.588,4.555" transform="translate(-837.637 -305.574)" fill="none" stroke="#707070" stroke-miterlimit="10" stroke-width="1"/>
      <path id="Контур_141" data-name="Контур 141" d="M940.283,475.787s25.613.843,33.54.674" transform="translate(-830.8 -304.54)" fill="none" stroke="#707070" stroke-miterlimit="10" stroke-width="1"/>
      <path id="Контур_142" data-name="Контур 142" d="M976.564,476.674s19.564,1.327,23.781-2.215" transform="translate(-825.614 -304.73)" fill="none" stroke="#707070" stroke-miterlimit="10" stroke-width="1"/>
      <path id="Контур_143" data-name="Контур 143" d="M899.641,454.453s-9.107,0-13.662,1.012c0,0-6.408-.168-6.578-1.855,0,0-3.542-5.4,5.566-5.4a161.876,161.876,0,0,1,26.817-1.687c.006-.663,85.853-1.053,91.245-.719,0,0,6.318-.293,9.4,7.129l4.136,16.621c.079,3.225-1.253,3.563-2.414,3.112,0,0-.919-.056-1.723-2.024l-1.473-3.879s2.53-.168,2.53-2.023l-1.057-4.385s-.545-1.772-3.328-1.069l-1.687-5.846s.338-2.193-12.649-.843l-2.7.168V449.9s-.225-2.9-5.9-2.9v7.113a27.837,27.837,0,0,1,5.355,1.56s-4.174-.042-12.776-.211c0,0-5.9.211-10.794.042,0,0,6.845-1.553,8.011-2.34,0,0,.867-4.716.366-6.1H963.338s-5.565,5.3-7.027,6.147c0,0-1.687.787.786,1.293l9.333.844s-11.75,1.125-16.754.169c0,0,3.149-.957,3.261-1.856l-.18-5.765a1.085,1.085,0,0,0-1.039-1.055c-1.533-.062-4.462-.154-6.272-.04a1.34,1.34,0,0,0-1.251,1.375l.084,3.8-10.457.505.45,3.879s-1.543-.531-2.643-1.042c-.161-.074-1.631-.138-1.125-2.442,0,0,1.011-2.98-1.406-3.542,0,0-10.569-1.013-14.9,2.98,0,0-1.8,2.755-3.036.281,0,0,.281-2.136-2.755-2.474,0,0-4.5-1.008-4.216-2.585,0,0-1.253-.337-8.658.281,0,0-.957.337,1.068,1.967C896.605,449.787,899.136,452.148,899.641,454.453Z" transform="translate(-839.599 -308.843)" fill="url(#linear-gradient)"/>
      <path id="Контур_144" data-name="Контур 144" d="M967.857,447.149v4.52a1.861,1.861,0,0,0,1.654,1.848l3.912.434v-7.113h-5.566Z" transform="translate(-826.858 -308.678)" fill="url(#linear-gradient-2)"/>
      <path id="Контур_145" data-name="Контур 145" d="M946.014,447.921l.128,5.77,7.578-6.794h-6.669A1,1,0,0,0,946.014,447.921Z" transform="translate(-829.98 -308.67)" fill="url(#linear-gradient-3)"/>
      <path id="Контур_146" data-name="Контур 146" d="M926.6,448.094a39.623,39.623,0,0,1,.384,4.278l9.676-.467-.168-3.516a2.007,2.007,0,0,0-2.031-1.911c-1.422.018-3.635.063-6.667.174A1.248,1.248,0,0,0,926.6,448.094Z" transform="translate(-832.758 -308.729)" fill="url(#linear-gradient-4)"/>
      <path id="Контур_147" data-name="Контур 147" d="M889.647,467.186a7.341,7.341,0,0,0,6.493-2.868l.928-1.518s26.142.759,34.069,3.289" transform="translate(-838.038 -306.396)" fill="none" stroke="#707070" stroke-miterlimit="10" stroke-width="1"/>
      <path id="Контур_148" data-name="Контур 148" d="M934.507,470.688l4.048-4.638s3.542-.2,21.672.7l19.649.733a14.729,14.729,0,0,1,1.94,1.433" transform="translate(-831.625 -305.934)" fill="none" stroke="#707070" stroke-miterlimit="10" stroke-width="1"/>
      <line id="Линия_2" data-name="Линия 2" x1="17.316" transform="translate(153.705 166.412)" fill="none" stroke="#707070" stroke-miterlimit="10" stroke-width="1"/>
      <path id="Контур_149" data-name="Контур 149" d="M871.73,503.22s-.074,9.233,1.431,14.407c0,0,2.946-8.641,9.1-5.359l-.943-2.359Z" transform="translate(-840.599 -300.619)" fill="#030205"/>
      <path id="Контур_150" data-name="Контур 150" d="M859.276,488.183s-2.206,11.208,7.162,35.851l5.1,14.135a31.465,31.465,0,0,1,2.248-14.9s-4.191-9.8-2.883-20.193C870.9,503.071,860.341,492.47,859.276,488.183Z" transform="translate(-842.411 -302.768)" fill="#030205"/>
      <path id="Контур_151" data-name="Контур 151" d="M882.859,514.423s1.35,48.2,19.9,83.392c0,0,23.805,12.262,62.5,6.637,0,0,51.588-10.685,88.656-12.371,0,0,76.452-6.41,104.153-1.35,0,0,34.447,4.723,43.218,10.457,0,0,4.384,2.583,6.409-1.407,0,0,13.493-35.783,10.457-74.869,0,0-2.134-25.078-7.083-34.106,0,0-46.776-28.592-165.4-15.943C1045.672,474.863,951,477.918,882.859,514.423Z" transform="translate(-839.008 -305.134)" fill="#eaeaf4" opacity="0.11"/>
      <path id="Контур_153" data-name="Контур 153" d="M884.293,514.979s-16.418-8.893-23.853-23.875c0,0-7.5-10.963-9.529-23.359,0,0,.59,10.794,9.95,20.744a79.431,79.431,0,0,0,8.686,7.759S880.484,504.7,884.293,514.979Z" transform="translate(-843.574 -305.69)" fill="#eaeaf4"/>
      <path id="Контур_154" data-name="Контур 154" d="M1169.862,443.961a96.58,96.58,0,0,0-30.021,0s-10.217.282-12.361,10.317c0,0-6.528,23.865,11.349,24.708,0,0,27.205.955,32.493-3.317v-8.995l-3.933-2.249s3.823-.59,3.823-3.6l-1.343-5.847s-1.076-3.317-5.179-1.124Z" transform="translate(-804.208 -309.257)" fill="none" stroke="#0f1016" stroke-miterlimit="10" stroke-width="1"/>
      <path id="Контур_155" data-name="Контур 155" d="M1143.076,453.626h7.252l4.553-6.578s1.941-2.128-.759-2.531c0,0-7-1.6-11.468,0C1142.654,444.518,1137,450.591,1143.076,453.626Z" transform="translate(-802.215 -309.111)" fill="url(#linear-gradient-5)"/>
      <path id="Контур_156" data-name="Контур 156" d="M1138.526,444.732a189.432,189.432,0,0,1,19.837-.313.8.8,0,0,1,.682,1.1l-1.216,2.964a.3.3,0,0,0,.278.414h2.007a2.642,2.642,0,0,0,2.158-1.118l1.317-1.865a1.659,1.659,0,0,1,1.608-.682l2.081.323.839-1.606S1145.389,441.028,1138.526,444.732Z" transform="translate(-802.463 -309.247)" fill="url(#linear-gradient-6)"/>
      <path id="Контур_157" data-name="Контур 157" d="M1134.686,451.97s-3.542-.083-3.374,5.819c0,0,.121,13.6-2.849,15.275,0,0-6.309-9.091.505-22.64,0,0,2.808-7.594,18.91-7.427,0,0-6.277,2.058-4.928,8.046,0,0,1.1,2.361,2.193,2.7h-5.06l.59-2.109Z" transform="translate(-804.282 -309.227)" fill="url(#linear-gradient-6)"/>
      <path id="Контур_158" data-name="Контур 158" d="M1134.755,462.554s21.5.838,35.166-3.334" transform="translate(-803.002 -306.908)" fill="none" stroke="#707070" stroke-miterlimit="10" stroke-width="1"/>
      <path id="Контур_159" data-name="Контур 159" d="M1135.46,456.4s20.238.789,33.095-3.137" transform="translate(-802.902 -307.76)" fill="none" stroke="#707070" stroke-miterlimit="10" stroke-width="1"/>
      <path id="Контур_160" data-name="Контур 160" d="M941.623,435.073s60.073-2.5,97.318-3.974c0,0,52.042-5.837,98.272-1.606,0,0,32.625,4.006,54.1-1.616" transform="translate(-830.608 -311.388)" fill="none" stroke="#707070" stroke-miterlimit="10" stroke-width="1"/>
      <path id="Контур_161" data-name="Контур 161" d="M966.193,370.551s-37.883,24.93-39.458,34.487c0,0,38.23,19.677,45.819,20.014" transform="translate(-832.736 -319.582)" fill="none" stroke="#707070" stroke-miterlimit="10" stroke-width="1"/>
      <path id="Контур_162" data-name="Контур 162" d="M1026.77,401.256s35.022-14.167,74.583,1.687" transform="translate(-818.438 -316.026)" fill="none" stroke="#707070" stroke-miterlimit="10" stroke-width="1"/>
      <path id="Контур_163" data-name="Контур 163" d="M990.817,357.232s-19.565-17.567-38.061-29.023" transform="translate(-829.017 -325.635)" fill="none" stroke="#707070" stroke-miterlimit="10" stroke-width="1"/>
      <path id="Контур_164" data-name="Контур 164" d="M979.368,345.951s40.14-23.162,112.664,10.682c11.86,5.535-10.615-29.747-10.615-29.747" transform="translate(-825.213 -325.824)" fill="none" stroke="#707070" stroke-miterlimit="10" stroke-width="1"/>
      <path id="Контур_165" data-name="Контур 165" d="M990.878,355.162s37.6,36.655,73.782,35.756c0,0,29.212,1.8,25.726-38.005" transform="translate(-823.568 -322.103)" fill="none" stroke="#0f1016" stroke-miterlimit="10" stroke-width="1"/>
      <path id="Контур_166" data-name="Контур 166" d="M1017.046,412.78h31.033l7.609-6.3s6.559-6.3,13.755,0l7.421,6.3h39.129s-22.038-18.215-57.57-15.966C1058.424,396.814,1032.562,395.464,1017.046,412.78Z" transform="translate(-819.827 -315.856)" fill="#0f1016"/>
      <path id="Контур_167" data-name="Контур 167" d="M884.114,515.039s-1.7,3.822-7.823,7.083c0,0-5.332,4.948-3.983,14.28l5.385,20.464s-.8,4.7-3.091-3.417c0,0-5.02-15.93-5.175-20.2h0s-.043-30.242,14.35-21.247" transform="translate(-840.938 -299.603)" fill="#ec682b"/>
    </g>
    <g id="whistle" transform="translate(984.723 -1416.637)">
      <path id="Контур_168" data-name="Контур 168" d="M1028.319,653.925s-3.71,7.645,0,14.392c0,0,2.736,11.807-.824,20.239l-.825,6.747,14.467,52.959,21.252-3.009,4.771-3.123,4.1-61.669.3-2.812-1.013-.281a2.442,2.442,0,0,0-.056-3.317,21.39,21.39,0,0,0-.131-3.38,1.81,1.81,0,0,0-.15-.5c-.393-.73-1.292-1.518-3.149-1.068l-.337-2.755-2.248-.224s.168-2.193-1.8-2.249l-.9-2.81-6.41-5.9s-4.75,3.036-9.835,2.3a11.774,11.774,0,0,1-5.657-2.04l-1.935-1.495Z" transform="translate(-1026.602 -653.925)" fill="#eaeaf4"/>
      <path id="Контур_169" data-name="Контур 169" d="M1030.24,669.666a4.99,4.99,0,0,1,4.16,4.273v1.8s-.113,2.473.562,3.373a1.6,1.6,0,0,0,.674,2.024l.956,5.959-9.914,8.208.825-6.747a69.473,69.473,0,0,0,.824-20.239s-3.864-5.58,0-14.392h.493a21.48,21.48,0,0,0-1.391,5.706s-.127,5.4,1.728,8.012Z" transform="translate(-1026.61 -653.925)" fill="url(#linear-gradient-8)"/>
      <line id="Линия_3" data-name="Линия 3" y1="0.928" x2="30.19" transform="translate(8.97 14.476)" fill="none" stroke="#707070" stroke-miterlimit="10" stroke-width="1"/>
      <line id="Линия_4" data-name="Линия 4" x1="30.274" y2="1.434" transform="translate(9.982 17.343)" fill="none" stroke="#707070" stroke-miterlimit="10" stroke-width="1"/>
      <line id="Линия_5" data-name="Линия 5" y1="1.434" x2="30.19" transform="translate(10.825 20.211)" fill="none" stroke="#707070" stroke-miterlimit="10" stroke-width="1"/>
      <line id="Линия_6" data-name="Линия 6" x1="31.857" y2="2.08" transform="translate(10.488 23.331)" fill="none" stroke="#707070" stroke-miterlimit="10" stroke-width="1"/>
      <line id="Линия_7" data-name="Линия 7" y1="0.9" x2="27.21" transform="translate(8.127 11.693)" fill="none" stroke="#707070" stroke-miterlimit="10" stroke-width="1"/>
      <path id="Контур_170" data-name="Контур 170" d="M1028.18,655.079s7.373-.888,9.355.757c0,0,5.692,6.424,13.409,2.664l4.974-2.628-.773-.711s-9.108,5.748-17.427-1.237H1028.6" transform="translate(-1026.386 -653.925)" fill="#46515b" opacity="0.2"/>
    </g>
    <g id="hand" transform="translate(939.386 -1386.266)">
      <path id="Контур_171" data-name="Контур 171" d="M1048.863,680.709s-3.733-1.967-12.167,6.1l-11.131,10.485s-4.048.956-11.469,12.762l-10.5,10.12s-5.02,10.457-5.863,18.889v4.95s-4.559,8.206-4.725,16.976l1.35,4.385s-7.834,7.562-7.4,16.905a8.028,8.028,0,0,0,7.4,5.02s6.172.917,11.436-5.782l2.713,19.613s4.473,8.433,12.282,2.024c0,0,13.618-16.311,11.556-26.034l-2.4-12.759a8.645,8.645,0,0,0,8.432-4.721l24.267,45.917s2.719,33.352,42.185,52.242l10.8,4.723a55.792,55.792,0,0,0,20.238,15.854h3.1s43.787-37.1,48.173-56.669c0,0-11.807-17.541-20.239-45.875,0,0-10.12-27.66-15.179-36.43l-12.754-33.4s-2.088-16.416-29.411-8.714c0,0-18.552-12.2-27.66-12.874,0,0-14.356-2.024-18.984-1.013C1062.913,683.408,1053.032,680.271,1048.863,680.709Z" transform="translate(-986.943 -680.498)" fill="#f19938"/>
      <path id="Контур_172" data-name="Контур 172" d="M1013.41,733.749s3.342-14.617,5.079-16.191c0,0,17.7-16.866,19.5-18.44,0,0,9.9-14.561,18.665-13.016,0,0-3.71-4.076-16.7,8.068L1024.8,707.888s-9.7,6.71-11.388,21.589c0,0-9.109,9.895-9.916,14.28,0,0-.992,5.734,0,8.433C1003.494,752.189,1001.647,744.993,1013.41,733.749Z" transform="translate(-984.64 -679.791)" fill="#ec682b"/>
      <path id="Контур_173" data-name="Контур 173" d="M996.977,736.275s3.374-3.652,4.555,0c0,0-1.013,16.3-2.277,18.326,0,0-4.813,2.192-7-1.35C992.252,753.251,992.761,743.586,996.977,736.275Z" transform="translate(-986.184 -672.757)" fill="#f5be54"/>
      <path id="Контур_174" data-name="Контур 174" d="M993.433,756.175s2.423,5.06,11,1.855c0,0,11.1-4.891,13.969-11.131a8.343,8.343,0,0,1,3.71-2.024s4.723,1.518-1.686,4.891c0,0-3.879,1.511-5.566,4.045,0,0-1.964,6.412-10.427,7.255,0,0,1.586,5.976.441,11.252,0,0-4.549-.458-2.5-5.855a27.378,27.378,0,0,0-.168-5.565A13.077,13.077,0,0,1,993.433,756.175Z" transform="translate(-986.015 -671.296)" fill="#ec682b"/>
      <path id="Контур_175" data-name="Контур 175" d="M1006.152,788.713s3.393-4.386,5.755-5.229l-1.181-12.878s-4.456-6.108-7.287-1.506" transform="translate(-984.585 -668.079)" fill="#f5be54"/>
      <path id="Контур_176" data-name="Контур 176" d="M986.958,771.715s8.581-.04,10.69-4.087l2.906-8.633s-5.186-1.487-6.2-4.185S987.313,764.166,986.958,771.715Z" transform="translate(-986.941 -669.931)" fill="#f5be54"/>
      <path id="Контур_177" data-name="Контур 177" d="M1018.521,750.233s11.807-4.048,15.348-19.059l.675-2.53s-5.565-2.867-5.9-4.891c0,0,4.892,3.24,7.59,3.879,0,0,3.2,1.518,9.782-2.361l9.951-10.794-1.518-7.084s3.333,3.036,3.691,7.084l1.538,5.4s-1.518.506-5.229-1.069c0,0-6.522,10.457-17.766,10.907,0,0-2.248,6.071-4.722,10.907C1031.958,740.619,1031.171,751.862,1018.521,750.233Z" transform="translate(-982.429 -676.654)" fill="#ec682b"/>
      <path id="Контур_178" data-name="Контур 178" d="M1054.528,718.313s6.24,6.69,24.681,8.039a15.147,15.147,0,0,0,7.645-1.35s-10.12,7.2-13.043,7.421l-3.12-5.091S1058.238,723.71,1054.528,718.313Z" transform="translate(-977.282 -675.093)" fill="#ec682b"/>
      <path id="Контур_179" data-name="Контур 179" d="M1003.439,745.881s2.417,1.342,4.234.952c0,0,6.427-5,4.853-17.256C1012.525,729.577,1003.571,735.311,1003.439,745.881Z" transform="translate(-984.585 -673.483)" fill="#f5be54"/>
      <path id="Контур_180" data-name="Контур 180" d="M1004.493,744.914s2.661,6.023,11.132,2.192l1.518-.168s-6.128,6.57-11.075,6.911c0,0-4.5.056-3.6-4.468C1002.47,749.381,1001.12,743.171,1004.493,744.914Z" transform="translate(-984.761 -671.335)" fill="#ec682b"/>
      <g id="Сгруппировать_14" data-name="Сгруппировать 14" transform="translate(84.363 117.345)">
        <path id="Контур_181" data-name="Контур 181" d="M1087.876,783.168s-8.66,4.3-18.892,21.5c0,0-3.318,4.534-8.229,2.17,0,0,2.138,9.214,11.169,9.214,0,0,6.844,3.795,11.567-1.6,0,0,.5,6.122,16.74,10.944C1097.852,824.122,1091.857,817.476,1087.876,783.168Z" transform="translate(-1060.755 -783.168)" fill="#ec682b"/>
        <path id="Контур_182" data-name="Контур 182" d="M1096.319,820.418c-.353-.1-.687-.2-1.025-.3A1.943,1.943,0,0,0,1096.319,820.418Z" transform="translate(-1055.818 -777.886)" fill="#ec682b"/>
      </g>
      <path id="Контур_183" data-name="Контур 183" d="M1083.516,745.065s-6.593,2.705-8.356-.161c0,0-9.522,12.1-12.22,25.362a46,46,0,0,0-7.084,24.393s1.009,27.323,13.828,15.516c0,0,5.736-9.782,11.808-3.373,0,0,6.964,2.256,6.853-10.9a61.782,61.782,0,0,1,.231-7.232s-.844-15.191-.676-16.324-6.408-19.685-2.023-22.721c0,0-1.687-1.181-1.35-2.446,0,0,6.493-2.109,9.7-1.687C1094.226,745.493,1087.64,743.984,1083.516,745.065Z" transform="translate(-977.093 -671.325)" fill="#ec682b"/>
      <path id="Контур_184" data-name="Контур 184" d="M1163.384,797.963s-10.709,32.72-51.694,61.055l-4.807-4.216s-5.143,5.4-1.6,8.939l3.113,2.951s-4.715,3.289.682,10.794l20.239,23.388,13.943,33.414,65.215,101.064,111.539,99.8h162.139s28.731-8.814,18.215-55.95l1.859-22.263-35.141-60.267s-22.038-15.7-67.014-30.114c0,0-32.832-20.755-43.626-20.507,0,0-18.44-15.944-23.388-14.594,0,0-26.536-37.494-63.416-58.55,0,0-39.128-62.6-61.167-57.118,0,0-11.694,12.224-31.483-8.915C1176.99,806.873,1165.679,792.45,1163.384,797.963Z" transform="translate(-970.206 -663.887)" fill="#050712"/>
      <path id="Контур_185" data-name="Контур 185" d="M1379.682,895.405l13.579,33.407,50.381,52.372,24.625,30.359-23.949-48.574s-15.895-45.087-29.705-64.078c0,0-9.452-9.458-28.666-4.735" transform="translate(-930.805 -650.147)" fill="#eaeaf4"/>
      <path id="Контур_186" data-name="Контур 186" d="M1137.462,686.184l-6.3,4.807s1.35,6.83,20.69,5.79c0,0,11.693.31,16.641,3.457,0,0,14.842-2.98,31.483,5.256l40.028,5.229,8.77,3.908s5.173,2.7,14.393,0c0,0,10.232-3.261,14.785,4.779,0,0-2.481-17.176-29.683-14.168,0,0-37.724-15.8-65.946-12.987C1182.324,692.255,1154.552,679.1,1137.462,686.184Z" transform="translate(-966.328 -679.985)" fill="#eaeaf4"/>
      <path id="Контур_187" data-name="Контур 187" d="M1245.676,737.32s21.589,10.432,22.038,22.542c0,0-3.092,17.959-17.737,40.446a78.74,78.74,0,0,0,2.9,26.222l14.842-32.4s8.546-20.644,6.3-34.219c0,0,.9-24.143-19.34-20.544C1254.671,739.367,1245.676,733.474,1245.676,737.32Z" transform="translate(-949.96 -672.562)" fill="#eaeaf4"/>
      <path id="Контур_188" data-name="Контур 188" d="M1270.61,788.628s6.071,7.084,2.023,24.625c0,0-2.36,7.758,7.421,17.2a43.6,43.6,0,0,1,13.831,22.938s13.155,18.552,14.167,23.275c0,0,28.673.562,39.13,11.918l4.723,8.658s-8.1-8.432-10.12-5.734l-17.654,23.471s-38.679-50.172-60.267-54.362l-16.416-25.1S1264.088,804.932,1270.61,788.628Z" transform="translate(-949.707 -665.042)" fill="#eaeaf4"/>
      <path id="Контур_189" data-name="Контур 189" d="M1431.485,924.383s-99.685-132.136-123.8-149.255c0,0-2.7-18.975-19.9-30.106a17.019,17.019,0,0,1-8.771-9.445,30.939,30.939,0,0,0-17.372-21.081l1.743,3.317s4.16,8.658,4.723,11.693c0,0,7.758,2.3,9.557,9.019l2.192,14.256s3.879,9.952,9.108,13.155c0,0,20.07,10.626,18.889,26.312,0,0-1.686,7.758,7.421,16.865l10.12,12.818,60.38,73.03,10.784,25.937s14.91,2.982,21.656-.56" transform="translate(-947.678 -675.638)" fill="#eaeaf4"/>
      <path id="Контур_190" data-name="Контур 190" d="M1066.276,724.856l-.545,8.2-4.771,3.122L1043,738.726a3.772,3.772,0,0,1-4.168-2.742l-2.168-7.934s8.623-1.157,15.187-10.672c0,0,3.007,1.448,5.229,1.069C1057.081,718.447,1059.378,721.989,1066.276,724.856Z" transform="translate(-979.836 -675.226)" fill="url(#linear-gradient-9)"/>
      <path id="Контур_191" data-name="Контур 191" d="M1045.061,723.435a73.707,73.707,0,0,0,5.591-6.058,11.82,11.82,0,0,0,5.229,1.069s2.531,3.682,9.2,6.41l-.174,2.61-8.268,2.24-6.741,1.614-3.41-1.321Z" transform="translate(-978.635 -675.226)" fill="url(#linear-gradient-10)"/>
      <path id="Контур_192" data-name="Контур 192" d="M1049.953,717.378" transform="translate(-977.936 -675.227)" fill="#eaeaf4"/>
      <path id="Контур_193" data-name="Контур 193" d="M1044.061,723.654s-1.806,2.13-.625,2.552c0,0,1.35-.253,1.013,2.783,0,0-.169,3.007,3.542,2.81,0,0,3.879-1.049,5.228.009a4.529,4.529,0,0,0,2.952-.375,14.249,14.249,0,0,1,3.457-.871s3.785-1.04,5.308,0l.256-3.854s-1.629-.166-4.018-.672l-.562,1.153-6.859.449s-2.105-1.067-1.671.141l.433,1.209s-3.167.871-5.237-1.209l-1.928-5.1Z" transform="translate(-978.925 -674.469)" fill="url(#linear-gradient-11)"/>
      <path id="Контур_194" data-name="Контур 194" d="M1122.995,910.333s16.454,22.939,30.229,31.371c0,0-.056,7.992,5.341,19.176,0,0,23.95,59.756,36.094,69.2,0,0,36.093,69.734,89.389,92.043h33.506s-51.721-57.524-58.468-65.62-53.887-74.385-55.952-85c0,0-49.292-27.435-54.238-44.527,0,0-17.541-17.99-13.943-29.234l-8.1-9.894s-3.862,3.6-3.862,13.043A7.231,7.231,0,0,0,1122.995,910.333Z" transform="translate(-967.747 -650.86)" fill="#eaeaf4"/>
      <path id="Контур_195" data-name="Контур 195" d="M1207.119,860.3l29.571,58.019s12.818,23.07,28.335,38.52c0,0,26.986,24.221,50.6,64.7,0,0,54.421,84.914,91.3,104.524h60.492s22.844-14.122,20.529-35.037c0,0-79.223-40.478-114.3-45.875l-15.517-46.887s-6.072-12.481-35.756-29.347l-17.092-9.445s-1.825-15.031-16.654-18.647l-22.026-6.764s-12.582-.686-22.938-16.191l-10.207-16.624s-2.834-9.546-12.73-21.606Z" transform="translate(-955.471 -654.797)" fill="#eaeaf4"/>
      <path id="Контур_196" data-name="Контур 196" d="M1304.414,914.626s21.073,34.666,24.287,48.574c0,0,6.3,6.3,18.664,8.1,0,0,9.9,1.574,13.494,7.421,0,0,1.8,4.9,15.516,6.724,0,0,9.445-2.452,15.517,9.917l2.024,3.6s.9,3.6,9.669,0c0,0,2.924-3.6,14.168-.674l5.847.674a46.907,46.907,0,0,1,13.267,6.971s6.072,4.948,10.12,4.723c0,0,2.924.225,6.522,5.4,0,0,6.016,9.22,6.044,0l-8.342-14.306a87.284,87.284,0,0,0-35.28-33.551l-13.852-7.171-1.191,4.88s-14.392-8.321-17.765-6.071c0,0-6.972-10.12-19.565-12.369,0,0-6.522-1.125-8.771,0,0,0-17.765-19.835-26.985-18.238C1327.8,929.221,1307.113,912.6,1304.414,914.626Z" transform="translate(-941.564 -647.056)" fill="#eaeaf4"/>
      <path id="Контур_197" data-name="Контур 197" d="M1161.212,798.622l12.553,16.893s5.264,6.678,23.654,5.478c0,0,13.9-8.546,16.262,6.746,0,0-.787,15.293,13.155,20.239,0,0,16.641.9,26.085,17.991l7.646,12.143s1.35,5.4,3.149,13.043v7.2s-1.8,2.249,9.894,2.249c0,0,22.745,2.711,36.11,12.149,0,0-32.512-32.853-48.254-40.116s-23.387-54.5-61.167-57.118c0,0-10.172,8.915-20.828,0C1179.473,815.515,1161.949,801.654,1161.212,798.622Z" transform="translate(-962.033 -663.613)" fill="#eaeaf4"/>
    </g>
  </g>
</svg>
