<svg xmlns="http://www.w3.org/2000/svg" viewBox="0 0 33.892 33.885">
  <g id="map" transform="translate(-12.7 -7.8)">
    <path id="Контур_335" data-name="Контур 335" d="M219.016,176.3a3.116,3.116,0,1,0,3.116,3.116A3.12,3.12,0,0,0,219.016,176.3Z" transform="translate(-189.377 -157.037)" fill="#fff"/>
    <path id="Контур_336" data-name="Контур 336" d="M29.639,7.8A16.943,16.943,0,1,0,46.592,24.739,16.941,16.941,0,0,0,29.639,7.8Zm.415,25.307a.561.561,0,0,1-.83,0c-.238-.265-5.782-6.483-5.782-10.728a6.2,6.2,0,1,1,12.395,0C35.837,26.624,30.292,32.848,30.054,33.107Z" fill="#fff"/>
  </g>
</svg>