<svg xmlns="http://www.w3.org/2000/svg" viewBox="0 0 525.9 460.8">
  <g id="Layer_2" data-name="Layer 2">
    <g id="Layer_1-2" data-name="Layer 1">
      <path d="M396,132.8a3.6,3.6,0,0,0-.4-.9l-2.2-4.3c-.5-4.8-3.5-31.6-3.5-31.6a16.1,16.1,0,0,0-1.5-5.3c-3.4-6.6-12.6-22.4-25-27a13.7,13.7,0,0,0-2.9-.7,234.6,234.6,0,0,0-30.9-2.7,20.2,20.2,0,0,0-.7-2.3,16.5,16.5,0,0,0-2-3.7l-6.6-8.9c-3.1-5.8-11.1-14-30.9-11.8l-1.3.3-14.6,3a14,14,0,0,0-6.2,2.8c-3.9,3-13,11.2-13.9,21.8v.8l-.4,13v.4a16.1,16.1,0,0,0,.6,4.4c-8.9,5.7-20.7,14.1-27.2,22.5a13.7,13.7,0,0,0-1.3,2c-.8,1.4-5.5,10.6-5.5,25a75.2,75.2,0,0,0,.9,11.1,12.6,12.6,0,0,0-2,2c-1.4,1.7-6,8.2-8.4,21.1a67.6,67.6,0,0,0-5,25.9,20.9,20.9,0,0,0,.1,2.5,300.8,300.8,0,0,0-3,32.5,6.3,6.3,0,0,0-1,1.2c-3.7,4.5-14.2,25.6-17.9,67.3v.5a17.2,17.2,0,0,0-1.9,4.9c-5,4.7-12.3,12.5-15.8,21.5a5.6,5.6,0,0,0-.4,1.2,38.7,38.7,0,0,0-1.6,11.3,34.3,34.3,0,0,0,2.3,12.5,41.5,41.5,0,0,0-.5,5.9c0,4.2,1,8.1,4.3,11.5,1.4,1.4,8.9,8.4,19.9,2.1l3.4-2.2a25.5,25.5,0,0,0,18.8-7.7,29.9,29.9,0,0,0,5.4-8.3c3-3.4,6.3-8.7,8.8-17.1a28.5,28.5,0,0,0,5.5-7.4,190,190,0,0,0,20.4-21c6.3,4.7,14.1,8.2,22.5,7.2a39,39,0,0,0,18.6-7.3c-9.1,34.1-19.3,72-19.3,72a.4.4,0,0,0-.1.3,57.8,57.8,0,0,0-1.7,12v.7a18.9,18.9,0,0,0,3.8,11.1l.2.3a17.7,17.7,0,0,0,5.6,5.1,14.8,14.8,0,0,0,6.3,4.6c13.1,5,25.8,1.2,28.2.4a14.9,14.9,0,0,0,10.3-14v-5.7a25.5,25.5,0,0,0,2.6-10.1v-.6a16.6,16.6,0,0,0-4.8-11.8,17.3,17.3,0,0,0-8.1-4.6c5.7-21.3,18.4-69.2,22.3-83.7,9.1-3,17.1-11.5,17.1-22.7,0-.3-.1-.5-.1-.7l.8-1.7.4-.9a24.2,24.2,0,0,0,1.4-7.9,18.7,18.7,0,0,0-.4-4,17.2,17.2,0,0,0,.7-5.2,18.5,18.5,0,0,0-.5-4.6,19.8,19.8,0,0,0-3.9-7.7c2.4-9.1,5-19.3,7-26.6a19.9,19.9,0,0,0,3.9-2.5c3.7-3.2,22.6-20.1,29.2-34.8a16.3,16.3,0,0,0,1.2-5.3,16.4,16.4,0,0,0,3.1-9.9A22.4,22.4,0,0,0,396,132.8Z"/>
      <path d="M476.5,152.7a15,15,0,0,0-6.7-12.5,14.9,14.9,0,0,0-16.1-.2c-10.7,6.5-28.6,14.4-41.4,15.8-.2-2.6-.5-5.9-.5-5.9a15.1,15.1,0,0,0-23.2-11.1,470.1,470.1,0,0,1-44.5,26c2.6-12.7,7.3-32.8,16.1-64.4a18.3,18.3,0,0,0,.5-4,14.8,14.8,0,0,0-3.7-9.8,15.1,15.1,0,0,0-13.2-5.1c-8.1,1.1-17.7,1.4-21.3.9-2-1.8-7.4-9.1-9.9-25.2a15.3,15.3,0,0,0-8.7-11.3,14.9,14.9,0,0,0-12.9.3c-3.8-9-8.6-21-11.2-27.6l-3.7-9.2a15,15,0,0,0-27.8,0l-3.5,8.9L233.5,46.2a15.2,15.2,0,0,0-13-.3,15,15,0,0,0-8.6,11.3c-2.2,13.7-6.5,21-8.9,24-4.8-1.1-14-4.6-21.8-8.4a15,15,0,0,0-16.1,2,14.9,14.9,0,0,0-5.4,11.5,17.5,17.5,0,0,0,.5,4c9.8,35.5,15.5,58.9,18.7,73.8a471.6,471.6,0,0,1-43.1-25.3,15.1,15.1,0,0,0-14.7-.9,14.8,14.8,0,0,0-8.4,12s-.4,3.3-.6,5.9c-12.8-1.4-30.7-9.3-41.4-15.8a14.9,14.9,0,0,0-16.1.2,15.3,15.3,0,0,0-6.7,12.5A16.9,16.9,0,0,0,48,155c4.1,26.6,10.6,40.3,14.9,48.7a15.1,15.1,0,0,0-4.2,9.2V214a15.3,15.3,0,0,0,4.1,10.4c6.6,6.8,16.8,18.5,19,22.7a56.3,56.3,0,0,1,3.7,8.5,48,48,0,0,1-13.4,3.8,15,15,0,0,0-12.8,10.8,14.5,14.5,0,0,0-.6,4.1A15,15,0,0,0,64.3,286c11.5,9.2,46.9,25,58.3,29.9l9.1,8a15.5,15.5,0,0,0,8.1,3.7l2.2.2c-7.5,14.6-34.8,22.3-35.2,22.4a15.1,15.1,0,0,0-11.1,13.9v.6a15,15,0,0,0,9.8,14.1c25.4,9.2,54.5,13,66.3,14.3l4.3,3.8a15.2,15.2,0,0,0,10.6,3.8l10.9-.4,1.4,2.6a15,15,0,0,0,15.5,7.2c16.9-2.8,33.8-17.3,47.7-29.7,13.9,12.4,30.8,26.9,47.7,29.7a14.9,14.9,0,0,0,15.5-7.2l1.5-2.6,10.9.4a15.1,15.1,0,0,0,10.5-3.8l4.3-3.8c11.9-1.3,40.9-5.1,66.3-14.3a15,15,0,0,0,9.8-14.1v-.6a15.1,15.1,0,0,0-11.1-13.9c-.3-.1-27.7-7.8-35.2-22.4l2.2-.2a15.5,15.5,0,0,0,8.1-3.7l9.1-8c11.4-4.9,46.8-20.7,58.3-29.9a15,15,0,0,0,5.6-11.7,14.5,14.5,0,0,0-.6-4.1,15,15,0,0,0-12.7-10.8,47.7,47.7,0,0,1-13.5-3.8,68.7,68.7,0,0,1,3.7-8.5c2.1-4.1,12.5-15.9,18.9-22.6a15.4,15.4,0,0,0,4.2-10.5v-1.1a15.1,15.1,0,0,0-4.2-9.2c4.3-8.4,10.8-22.1,14.9-48.7A16.9,16.9,0,0,0,476.5,152.7Z"/>
      <path d="M466.5,153.5v-.8a4.9,4.9,0,0,0-2.2-4.1,5,5,0,0,0-5.4-.1c-9.8,6.1-37.9,20.1-55.7,16.9-.4-4.6-1.4-14.5-1.4-14.5a4.9,4.9,0,0,0-2.8-4,5,5,0,0,0-4.9.3c-26.1,17.1-52.3,31.1-62.8,33.8.8-8.1,4.4-29.6,19.2-83.3a5.9,5.9,0,0,0,.2-1.3,5,5,0,0,0-1.2-3.3,5.4,5.4,0,0,0-4.5-1.7c-10.2,1.4-23.4,1.8-26.7.3S305.9,79,302.7,58.8a5.2,5.2,0,0,0-2.9-3.8,4.9,4.9,0,0,0-4.8.4,60.8,60.8,0,0,1-9,4.7c-3.3-7.3-11.7-28.1-15.5-37.8l-3.7-9.1a5,5,0,0,0-9.2,0L254,22c-3.8,9.7-12.2,30.7-15.6,38.1a66.2,66.2,0,0,1-9-4.7,4.9,4.9,0,0,0-4.8-.4,5.2,5.2,0,0,0-2.9,3.8c-3.2,20.1-11,30.6-15.5,32.8s-16.8-3.7-29.3-9.8a5.1,5.1,0,0,0-5.4.7,4.8,4.8,0,0,0-1.8,3.8,6.8,6.8,0,0,0,.2,1.4c15.6,56.7,20.8,82.8,22.5,93.1-10.9-3.1-36.5-16.9-62.1-33.6a5,5,0,0,0-4.9-.3,4.9,4.9,0,0,0-2.8,4s-1,9.9-1.4,14.5c-17.8,3.2-45.8-10.8-55.7-16.9a5,5,0,0,0-5.4.1,4.9,4.9,0,0,0-2.2,4.1v.8c4.1,26.4,10.7,39.3,14.6,47a47.1,47.1,0,0,1,2.3,5.1,19.1,19.1,0,0,1-4.2,4.4,5.2,5.2,0,0,0-1.9,3.6v.4a5.2,5.2,0,0,0,1.4,3.5c3.5,3.6,17.2,18.5,20.6,25a69.3,69.3,0,0,1,6.4,17.3c-6.8,6.4-19.3,9-23.9,9.5a5.2,5.2,0,0,0-4.3,3.6,7.8,7.8,0,0,0-.2,1.4,4.9,4.9,0,0,0,1.9,3.9c11.1,8.9,51.3,26.5,57.4,29.2l10.3,9a4.7,4.7,0,0,0,2.7,1.2l13,1.6v1.3c0,27.3-44.1,39.3-44.6,39.4a4.9,4.9,0,0,0-3.7,4.6v.2a5,5,0,0,0,3.2,4.7c27.1,9.8,59.5,13.3,67.2,14l6.7,6a4.9,4.9,0,0,0,3.5,1.3l16.9-.6,4.5,7.7a5,5,0,0,0,5.2,2.5c15-2.6,31.7-17.5,45.1-29.5l4.2-3.8,4.3,3.7c13.3,12.1,30,27,45.1,29.6a4.9,4.9,0,0,0,5.1-2.5l4.5-7.7,16.9.6a4.9,4.9,0,0,0,3.5-1.3l6.7-6c7.7-.7,40.1-4.2,67.2-14a5,5,0,0,0,3.3-4.7v-.2a4.9,4.9,0,0,0-3.8-4.6c-.4-.1-44.6-12.1-44.6-39.5v-1.2l13-1.6a4.7,4.7,0,0,0,2.7-1.2l10.3-9c6.1-2.7,46.3-20.3,57.5-29.2a4.8,4.8,0,0,0,1.8-3.9,3.6,3.6,0,0,0-.2-1.4,5.1,5.1,0,0,0-4.2-3.6c-4.7-.5-17.2-3.1-24-9.5a69.3,69.3,0,0,1,6.4-17.3c3.5-6.7,17.9-22.2,20.6-25a5,5,0,0,0,1.4-3.5v-.3a5.2,5.2,0,0,0-1.9-3.7,19.1,19.1,0,0,1-4.2-4.4,35.6,35.6,0,0,1,2.4-5.1C455.9,192.8,462.4,179.9,466.5,153.5Z" fill="#fff"/>
      <path d="M450.8,214s-5.6-4.2-6.5-8.1c0,0,.1-.5.4-1.5,2.1-6.7,11.6-17.4,16.8-51.7,0,0-39.4,24.4-62.9,16.8l-1.8-18.1s-58.1,38.1-70.6,34.9c0,0-2.7-9.3,19.5-89.9,0,0-22.8,2.9-29.5-.2s-15.1-15.8-18.5-36.6c0,0-11,7-14.4,6-1.4-.5-17.7-42.2-21.1-50.5-3.4,8.3-19.7,50-21.1,50.5-3.4,1-14.4-6-14.4-6C223.3,80.4,215,93,208.3,96.2s-33.6-9.9-33.6-9.9c22.2,80.6,23.6,100,23.5,100-12.5,3.2-70.6-34.9-70.6-34.9l-1.8,18.1c-23.5,7.6-62.9-16.8-62.9-16.8,5.3,34.3,14.8,45,16.8,51.7.3,1,.4,1.5.4,1.5-.9,3.9-6.4,8.1-6.4,8.1s17.1,17.9,21.4,26.1c6.3,12,7.4,21.4,7.4,21.4-8.9,10.7-28.8,12.8-28.8,12.8,11.4,9.1,57,28.8,57,28.8l10.9,9.6,16.9,2c6.6,35.7-47.8,50-47.8,50,29.6,10.8,65.8,13.8,67.5,13.9l7.9,7.1L206,385l6,10.3c16.5-2.8,36.5-23.2,50.2-35,13.7,11.8,33.8,32.2,50.2,35l6-10.3,19.9.7,7.9-7.1c1.7-.1,37.9-3.1,67.6-13.9,0,0-54.5-14.3-47.9-50l16.9-2,10.9-9.6s45.6-19.7,57-28.8c0,0-19.9-2.1-28.8-12.8,0,0,1.1-9.4,7.4-21.4C433.6,231.9,450.7,214,450.8,214Z" fill="#1f1f1f"/>
      <path d="M524.6,364.1a15.1,15.1,0,0,0-13.7-9H388.2a15.3,15.3,0,0,0-8.9,2.9,15.2,15.2,0,0,0-8.8-2.9H326.3a15,15,0,0,0-14,9.8s-3.9,10.2-7,18.6H302l3-8.1a13.9,13.9,0,0,0,1-5.3,14.6,14.6,0,0,0-2.7-8.5,14.9,14.9,0,0,0-12.3-6.5H246.8a15,15,0,0,0-14,9.8l-.7,1.8c-6.1-7.7-16-11.6-29.5-11.6H15a15.2,15.2,0,0,0-13.8,9,16.1,16.1,0,0,0-1.2,6,15.5,15.5,0,0,0,4,10.3l7.7,8.1a4.3,4.3,0,0,1-.1.5,14.9,14.9,0,0,0,4.1,10.3l7.6,8.2a4.3,4.3,0,0,0-.1.5,14.7,14.7,0,0,0,4.1,10.2l8.8,9.5a15.3,15.3,0,0,0,11,4.8H68.3A27.9,27.9,0,0,0,73,447.8c6,8.7,16.3,13,30.6,13h70.6c13.1,0,23.2-3.6,30.7-8.5a11.3,11.3,0,0,0,1.2,2.1,15,15,0,0,0,12.3,6.4h44.2a14.9,14.9,0,0,0,14-9.7s3.9-10.2,7-18.6h3.3l-3,8.1a13.7,13.7,0,0,0-1,5.2,14.9,14.9,0,0,0,2.7,8.6,15,15,0,0,0,12.3,6.4h44.2a15.1,15.1,0,0,0,8.8-2.8,15.4,15.4,0,0,0,8.9,2.8h44.1a14.9,14.9,0,0,0,14.1-9.7s3.8-10.2,7-18.6h41.1a14.8,14.8,0,0,0,11-4.9l17.5-18.9a16.2,16.2,0,0,0,3.1-5.4,13.9,13.9,0,0,0,6.6-4.1l17.6-18.9a15.1,15.1,0,0,0,4-10.2A14.4,14.4,0,0,0,524.6,364.1Z"/>
      <g>
        <path d="M374.6,367.3a4.9,4.9,0,0,0-4.1-2.2H326.3a5.1,5.1,0,0,0-4.7,3.3l-9.4,25.1H287.6l8.1-21.6a5.7,5.7,0,0,0,.3-1.8,4.7,4.7,0,0,0-.9-2.8,4.9,4.9,0,0,0-4.1-2.2H246.8a5.1,5.1,0,0,0-4.7,3.3l-28.4,75.7a5.4,5.4,0,0,0,.6,4.6,5.1,5.1,0,0,0,4.1,2.1h44.2a5,5,0,0,0,4.7-3.2l9.4-25.1h24.7c-3,7.8-8.2,21.6-8.2,21.6a5.5,5.5,0,0,0-.3,1.7,5,5,0,0,0,.9,2.9,5.1,5.1,0,0,0,4.1,2.1h44.2a5,5,0,0,0,4.7-3.2l28.4-75.7A5,5,0,0,0,374.6,367.3Z" fill="#fff"/>
        <path d="M515.5,368.1a5.1,5.1,0,0,0-4.6-3H388.2a5,5,0,0,0-4.7,3.3l-28.4,75.7a4.8,4.8,0,0,0,.6,4.6,4.9,4.9,0,0,0,4.1,2.1h44.1a4.9,4.9,0,0,0,4.7-3.2s7.5-20.1,9.5-25.1h48a4.6,4.6,0,0,0,3.6-1.7l17.5-18.9a4.7,4.7,0,0,0,1.3-3.4,4.8,4.8,0,0,0-.4-2,4.9,4.9,0,0,0-2.5-2.4h7.7a5.2,5.2,0,0,0,3.7-1.6l17.5-19a4.8,4.8,0,0,0,1.4-3.4A7.1,7.1,0,0,0,515.5,368.1Z" fill="#fff"/>
        <path d="M225,373.8c-4-5.7-11.6-8.7-22.4-8.7H15a5,5,0,0,0-3.7,8.4l8.9,9.5a5,5,0,0,0,3.6,1.6h.7a4.7,4.7,0,0,0-2.5,2.5,6.5,6.5,0,0,0-.4,2,5.1,5.1,0,0,0,1.4,3.4l8.8,9.4a5.1,5.1,0,0,0,3.7,1.6h.6a4.9,4.9,0,0,0-2.4,2.5,4.6,4.6,0,0,0-.5,2,4.9,4.9,0,0,0,1.4,3.4l8.8,9.5a5.2,5.2,0,0,0,3.7,1.6H80.5l-1,2.7a20.4,20.4,0,0,0-1.2,6.9,17.5,17.5,0,0,0,2.9,10c4,5.8,11.6,8.7,22.4,8.7h70.6c29.7,0,38-21.2,38.3-22.1l14.2-37.9C228,387.3,229.1,379.8,225,373.8Zm-70.2,48.1H137.2l-1.4-.2,9.3-24.6c1.1-2.8,6.3-3,6.3-3H169a4.4,4.4,0,0,1,1.6.2c-.5,1.2-9.2,24.6-9.2,24.6C160.3,421.7,154.9,421.9,154.8,421.9Z" fill="#fff"/>
      </g>
      <g>
        <polygon points="326.3 370.1 315.7 398.5 280.3 398.5 291 370.1 246.8 370.1 218.4 445.9 262.6 445.9 273.2 417.5 308.6 417.5 297.9 445.9 342.1 445.9 370.5 370.1 326.3 370.1"/>
        <polygon points="493.3 389.1 510.9 370.1 388.2 370.1 359.8 445.9 403.9 445.9 414.6 417.5 466.1 417.5 483.5 398.5 421.7 398.5 425.2 389.1 493.3 389.1"/>
        <path d="M202.6,370.1H15l8.8,9.5h81.6c-4,3.5-7,9.5-7,9.5H26.6l8.9,9.4H94.8L91.3,408H38.2l8.9,9.5H87.7l-3.5,9.4s-7.1,18.9,19.4,18.9h70.6c26.5,0,33.6-18.9,33.6-18.9L222,389.1S229.1,370.1,202.6,370.1Zm-47.8,56.8H137.2s-8.6,0-6.3-6.3l9.5-25.2c2.4-6.3,11-6.3,11-6.3H169s8.9,0,6.5,6.3L166,420.6C163.7,426.9,154.8,426.9,154.8,426.9Z"/>
      </g>
      <path d="M330.3,375.8l-10.7,28.4H272.1s7.6-20.2,10.6-28.4H250.8c-2.3,6-19.7,52.6-24.1,64.3h31.9l10.7-28.4h47.5l-10.6,28.4h31.9c2.3-5.9,19.7-52.5,24.2-64.3Z" fill="#333" stroke="#333"/>
      <path d="M392.1,375.8c-2.2,6-19.7,52.6-24.1,64.3h32l10.6-28.4h53l6.9-7.5h-57l7.8-20.9h69.5l7-7.5Z" fill="#333" stroke="#333"/>
      <path d="M210.3,404.2h0l6.4-17.1a12.2,12.2,0,0,0,.5-2.8,6.7,6.7,0,0,0-1.1-4.4c-1.8-2.6-6.6-4.1-13.5-4.1H132c-9.6,0-16.2,2.8-20.6,6.1l-2.3,2a28.8,28.8,0,0,0-5.5,7.5l-.5,1.4h0s-6.8,18.1-7.2,18.9h0l-6.4,17.2a12,12,0,0,0-.5,2.7,6.9,6.9,0,0,0,1.1,4.5c1.8,2.6,6.6,4,13.5,4h70.6c9.6,0,16.2-2.8,20.6-6l2.3-2a30.6,30.6,0,0,0,5.5-7.5l.6-1.4h-.1S209.9,405.1,210.3,404.2Zm-29.4-6.8c-.1,0-9.5,25.2-9.5,25.2-3,7.9-11.8,10-16.6,10H137.2c-1.3,0-7.8-.2-11-4.8-1.1-1.5-2.5-4.7-.8-9.2l9.4-25.2c3-7.9,11.8-10.1,16.6-10.1H169c1.3,0,7.8.3,11,4.9C181.1,389.7,182.5,392.9,180.9,397.4Z" fill="#333" stroke="#333"/>
      <path d="M390.2,150.3a11.9,11.9,0,0,0,3-8,18.1,18.1,0,0,0-1.7-7.5l-.3-.5-2.7-5.3c-.4-3.3-3.5-32.5-3.5-32.5a11,11,0,0,0-1.1-3.5c-2.4-4.7-11.2-20.5-22.2-24.6l-2-.5c-.9-.1-18.6-2.8-34.4-2.6a21.4,21.4,0,0,0-1.1-5.6,8.9,8.9,0,0,0-1.4-2.5l-6.7-9.1c-2.3-4.4-8.7-11.5-26.1-9.5h-.9l-14.6,3.1a9.1,9.1,0,0,0-4.1,1.9c-3.4,2.6-11.3,9.6-12,18.2v.5l-.4,13v.3a10,10,0,0,0,1.6,5.5l.5.7c-8.7,5.3-22.7,14.7-29.8,23.7a10,10,0,0,0-.8,1.4c-.7,1.2-4.9,9.5-4.9,22.5a64.5,64.5,0,0,0,1.4,13.2l-2.1,1.7a6.7,6.7,0,0,0-1.5,1.4c-.9,1.1-5.3,7-7.5,19.5a61.6,61.6,0,0,0-4.8,24.4,27.2,27.2,0,0,0,.1,2.8,281.6,281.6,0,0,0-3,34.4,10.4,10.4,0,0,0-2.1,2.1c-3.2,4-13.2,24.4-16.8,64.7,0,.3-.1.6-.1.9s.1.4.1.7a10.1,10.1,0,0,0-2.2,5.3v.6c-4.6,4.1-12.4,11.9-15.9,20.7a2.4,2.4,0,0,0-.2.8,33.6,33.6,0,0,0-1.4,9.9,28,28,0,0,0,2.5,11.9,41.3,41.3,0,0,0-.7,6.5,10.7,10.7,0,0,0,2.9,8c6.3,6.7,14.1,1.2,17.4-1.1l.8-.6c5.6.3,11.9-1,16.7-6.1a23.1,23.1,0,0,0,4.7-7.6c2.8-2.9,6.2-8.1,8.7-17.1a22.8,22.8,0,0,0,5.9-7.7c4.8-4.3,15.8-14.3,23.6-25,6.1,5.4,14.1,10.3,22.7,9.3a34.7,34.7,0,0,0,19.2-8.6h.9c2.5-.3,4.6-1.3,7.1-3.9-9.2,33.9-22.5,83.6-22.5,83.6v.2a60.2,60.2,0,0,0-1.5,10.8v.6a13.5,13.5,0,0,0,2.9,8.2l.3.4a11,11,0,0,0,4.7,4,8.9,8.9,0,0,0,4.8,3.9c11.7,4.5,23.5.8,24.8.4a10.1,10.1,0,0,0,6.9-9.4v-6.6h-.1a21.8,21.8,0,0,0,2.6-9.2v-.4a12.1,12.1,0,0,0-3.3-8.3,13.3,13.3,0,0,0-9.4-3.7h-1.6c4.3-16.3,21.5-80.7,24.6-92.5l2.1-.3c7.5-2.3,14-9.2,14-18.3a8.6,8.6,0,0,0-.1-1.6c.7-1.4,1.3-2.8,1.3-2.8l.3-.6a16.4,16.4,0,0,0,1.1-6,20.3,20.3,0,0,0-.6-4.2,16.6,16.6,0,0,0,.9-5.2,12.9,12.9,0,0,0-.4-3.3,13.9,13.9,0,0,0-4.6-7.5c2.2-8.3,6.7-25.4,8.4-31.7l2-.8a11.7,11.7,0,0,0,2.8-1.7c2.2-1.9,21.6-19.1,27.9-33.2a9.8,9.8,0,0,0,.9-4.1,2.8,2.8,0,0,0-.1-.9l.2-.2A.1.1,0,0,0,390.2,150.3Z"/>
      <path d="M386.4,147a6.4,6.4,0,0,0,1.8-4.7,13.1,13.1,0,0,0-1.3-5.5c0-.1-.1-.1-.1-.2l-3.2-6.1L380,97a8.4,8.4,0,0,0-.5-1.7c-1.6-3.1-10-18.7-19.5-22.2l-1-.3c-1-.1-22.5-3.3-38.6-2.4,0-.8.1-1.6.1-2.5a19.1,19.1,0,0,0-1-6.4,5.4,5.4,0,0,0-.7-1.3l-6.9-9.4c-1.3-3-5.9-9-21.3-7.2h-.5l-14.6,3.1a4,4,0,0,0-2,.9c-1.6,1.2-9.6,7.7-10.1,14.7v.3l-.4,13h0a4.3,4.3,0,0,0,.8,2.7l1.6,2.5h.1v2.4c0,.3.1.7.1,1-7.7,4.6-24,14.9-31.3,24.3l-.5.7c-.2.4-4.2,8-4.2,20.2a60.8,60.8,0,0,0,2,15l-4.6,3.7a2.7,2.7,0,0,0-.8.7c-.5.6-4.5,5.9-6.5,17.8a56.6,56.6,0,0,0-4.6,22.9c0,1,0,2,.1,3.1-.5,3.1-3,21.3-3,34.6v2.3a7.3,7.3,0,0,0-3.2,2.4c-2.3,2.8-12.2,22.7-15.7,62a.9.9,0,0,0-.1.5c0,.3.1.6.1.9s.2.9.3,1.6l-.4.3a4.9,4.9,0,0,0-2.1,3.6l-.2,2.7c-3.8,3.1-12.6,11.2-16,20a.6.6,0,0,0-.1.4,31.8,31.8,0,0,0-1.2,8.5,22.9,22.9,0,0,0,2.7,11,50.2,50.2,0,0,0-.9,7.7,5.5,5.5,0,0,0,1.5,4.3c3.4,3.5,7.6.8,13.3-3.5,4.2.7,10.1.2,14.3-4.3a18.5,18.5,0,0,0,4.1-6.9c2.3-2.2,6.1-7.1,8.6-17.3a18.1,18.1,0,0,0,6.1-7.8c4.1-3.6,19.3-17.2,27-29.8,5.4,5.8,14.1,13.2,22.9,12.2a29.3,29.3,0,0,0,17.6-8.6l2.4-.2c2.1-.2,4.9-.6,12.1-16.2a133.5,133.5,0,0,0,5.6-14.4l3,2.7L283.3,375.4a48.6,48.6,0,0,0-1.4,9.7v.4a8.7,8.7,0,0,0,1.9,5.5l.4.5a7.5,7.5,0,0,0,4.2,2.9,5,5,0,0,0,3,3.2c10.3,3.9,21,.4,21.5.2a5,5,0,0,0,3.4-4.6v-6.6c0-.3-.2-.7-.2-1a19.8,19.8,0,0,0,2.7-8.5v-.2a6.6,6.6,0,0,0-1.9-4.8,8.2,8.2,0,0,0-5.7-2.2h-.4l-8,.8c1.8-6.9,25.6-96.2,27.5-103.2h2.7a4.7,4.7,0,0,0,1.7-.2c4.7-1.5,10.6-6.1,10.6-13.5a9.9,9.9,0,0,0-.3-2.4c.8-1.6,1.9-4.1,1.9-4.1a.4.4,0,0,0,.1-.3,12.7,12.7,0,0,0,.8-4.3,11.8,11.8,0,0,0-.9-4.3,11.1,11.1,0,0,0,1.2-4.9,15,15,0,0,0-.2-2.2,9.9,9.9,0,0,0-5.5-6.5c1.4-5.4,8.8-33.6,9.9-37.6l4.3-1.8a3.9,3.9,0,0,0,1.4-.8c.8-.7,20.7-18.1,26.6-31.4a5.4,5.4,0,0,0,.5-2.1v-.5l-.3-2.1,1.6-1.8Zm-41.9-6-4.6,4.8-2.8,1.2a19.3,19.3,0,0,0-.1-2.5c-.1-1.8-.2-3.4-.2-4.9,0-11,2.9-15.3,3.2-15.9h0v.3a22.2,22.2,0,0,0,2.8,11.1,5.3,5.3,0,0,0,1.3,1.3l.4.4a19.2,19.2,0,0,0-.3,2.2A6.9,6.9,0,0,0,344.5,141Zm-16.4,41.6a8.9,8.9,0,0,0,3.4,2.2h-.1l2.9,1.1c-1.1,4-2.8,10.4-5.1,19.1l-.5-.8a4.7,4.7,0,0,0-3.7-2.7l-1.8-.3A75.8,75.8,0,0,0,328.1,182.6Z" fill="#fff"/>
      <path d="M314.4,76.1c15.5-2.6,43.8,1.7,43.8,1.7,8.2,3,16.8,19.8,16.8,19.8l3.8,34.4,3.5,6.9c1.8,3.8.5,4.7.5,4.7l-3,3.4.4,4.3c-5.6,12.5-25.4,29.7-25.4,29.7l-6.6,2.7L336.7,227l2.8,2c7.3,3.1,1.7,9.6,1.7,9.6,2.8,2.8,1.3,6.8,1.3,6.8l-2.6,5.6c2.6,8.9-6.6,11.7-6.6,11.7l-6.7-.4L297,373.3s-.2,3.1,1.7,2.9l12.7-1.3s2.6,0,2.5,2.1c-.1,4.4-4.5,9.6-4.5,9.6h2v6.5s-9.4,3.1-18.2-.2l.2-2.7c-1.7-.3-4.2-.3-5-1.5s-1.4-1.6-1.4-3.3a44.6,44.6,0,0,1,1.2-8.7l31.4-116.6c-2.6-3-11.6-10.5-11.6-10.5-1.3,11.2-12.8,34.5-15.3,34.9s-4.1.2-4.1.2a23.6,23.6,0,0,1-15.9,8.5c-10.7,1.3-23.3-16.3-23.3-16.3-4.7,14.2-30,35.7-30,35.7-3,7.4-6.4,7.4-6.4,7.4-3.1,14.8-8.6,18-8.6,18a14.7,14.7,0,0,1-3.4,6.4c-4.5,4.7-12,2.4-12,2.4s-7.7,6-8.4,5.3,1.1-9.5,1.1-9.5c-5.2-6.5-2-17.1-2-17.1,3.8-9.9,16.1-19.3,16.1-19.3l.4-4.7,3-2.2-.9-4.7c3.5-38.3,12.9-57.2,14.7-59.4s4.7-.4,4.7-.4c-1.7-12.5,2.6-41.7,2.6-41.7-.9-15.1,4.3-24.7,4.3-24.7,1.8-11.6,5.6-16.2,5.6-16.2l7.2-5.7c-6.5-21,.9-34.7.9-34.7,9.1-11.6,34-25.4,34-25.4l-1.7-3V78.7l-.9-.5L268,75.7l.3-13c.5-5.1,8.2-11.1,8.2-11.1l14.6-3.1c15.1-1.7,16.4,4.8,16.4,4.8l7.3,9.9C316.5,67.9,314.4,76.1,314.4,76.1Zm28.4,74,7.7-8.2a4,4,0,0,1-.9-4.7s.9-2.2-2.5-4.8c0,0-3-4.7-1.8-12l-1.7-.5s-.8-6-7.3.5c0,0-5.6,6-4.3,24.5,0,0,1.3,12.5-3.9,13.8,0,0,.7,15.4-4.4,18.9,0,0-1.2,16.3-7.5,26.2l2.5,1.7,5.6.9,6.3,12.5,9.7-35.9-7-2.8s-5.2-1.8-.9-8.2c0,0-1.3-8.2,3.9-11.6C336.3,160.4,332.4,153.1,342.8,150.1Z"/>
    </g>
  </g>
</svg>
