<?xml version="1.0" encoding="utf-8"?>
<!-- Generator: Adobe Illustrator 24.3.0, SVG Export Plug-In . SVG Version: 6.00 Build 0)  -->
<svg version="1.1" id="Layer_1" xmlns="http://www.w3.org/2000/svg" xmlns:xlink="http://www.w3.org/1999/xlink" x="0px" y="0px"
	 viewBox="0 0 192.8 192.8" style="enable-background:new 0 0 192.8 192.8;" xml:space="preserve">
<style type="text/css">
	.st0{fill-rule:evenodd;clip-rule:evenodd;fill:#5E5E5E;}
	.st1{fill-rule:evenodd;clip-rule:evenodd;}
	.st2{fill-rule:evenodd;clip-rule:evenodd;fill:#FFFFFF;}
</style>
<g id="Layer_2_1_">
	<g id="Layer_1-2">
		<g>
			<path class="st0" d="M32.5,150.6c0,0-4.2-5.1,0.9-6.2s13.9-4.9,15.2-11.9c2.1-11.8,7-62,7-62l1.7,0.6c0.2,6.8-4.9,54.2-7.2,69.5
				C48.4,147.2,35.3,153.9,32.5,150.6z"/>
			<path class="st1" d="M70.9,52.5c-14.4-5.1-25,14.6-16.8,24.5c-0.6-2.7,0.9-3.8,2.6-1.7s3.1-0.2,1.5-2.9
				C55.2,67.1,57.1,51.2,70.9,52.5z"/>
			<path class="st1" d="M72.1,55c-0.4-1.5,2.2-11.4,10.6-8.7s4.3,20.8-8,20.4c10.4-2.6,10.4-15.5,5.9-17S73.4,50.6,72.1,55z"/>
			<path class="st1" d="M54.8,93.1c2.5,0,2.1,2.8,1.2,3.6c14.2,1.3,45.4-20.3,32.4-39.4C94.6,73.9,71.3,90.2,55,89.8
				c-4.1-0.3-3.6,3.8,0.6,3.3L54.8,93.1z"/>
			<path class="st1" d="M64.9,115c-2.1,0.1-4.1-0.1-6.1-0.7c1.5,1.4,3.5,2.3,5.5,2.6C65.8,116.9,66,115,64.9,115z"/>
			<path class="st1" d="M92.3,61.4c4.6,10.3,7.2,37.9-14.2,50.2c-1.5,0.6-4.7,5.5-0.9,4.2C111.5,101.2,98.6,67.1,92.3,61.4z"/>
			<path class="st1" d="M55.2,139.3c11.4-13.3,24.6-27.9,25.2-46.4c0-4-7.4-0.2-8.1,3.8C71.3,106.5,65.1,123.4,55.2,139.3z"/>
			<path class="st1" d="M61.3,62.2c6.8-1.3,14.2,6.6,16.1,14.6c0.5,3-4.8,6-5.1,3.2S69.2,63.5,61.3,62.2z"/>
			<path class="st1" d="M109.6,72c6.4,1.9,14,5.3,19.5,6.3c0,0-15.2-1.5-19-2.1S106,70.7,109.6,72z"/>
			<path class="st1" d="M106.9,103.3c9.7-2.1,40.2-5.7,47.6-6.1s-43,0-46.6,0.8S103.3,103.9,106.9,103.3z"/>
			<path class="st1" d="M109,83.8c9.7,1.7,57,4.7,69.3,4.7c0,0-64.4,1-68,0.6S105.4,83.2,109,83.8z"/>
			<path class="st0" d="M93.5,129.8c-0.8,6.4-6.3,10-12.3,10s-10.1-3.6-9.1-10c1-6,6.2-10.3,12.3-10.2
				C90.4,119.6,94.6,123.7,93.5,129.8z M79.1,129.8c-0.5,1.6,0.5,3.3,2.1,3.7c0.4,0.1,0.8,0.1,1.1,0.1c2.2,0,3.9-1.7,4.2-3.8
				c0.4-1.7-0.7-3.3-2.3-3.7c-0.3-0.1-0.5-0.1-0.8-0.1C81.3,126.1,79.5,127.7,79.1,129.8z"/>
			<path class="st0" d="M98.2,120h7.2l1.1,10.2h0.2c0.2-0.8,0.6-1.7,0.8-2.5l3.4-7.7h7.4v19.5h-6.8l0.7-10.8l0,0
				c-0.4,0.6-0.7,1.2-0.9,1.9l-4.2,8.9h-4l-1.3-8.2c-0.2-0.9-0.2-1.7-0.2-2.6h-0.2c0,0.8-0.2,1.6-0.5,2.4l-2.1,8.4h-7L98.2,120z"/>
			<polygon class="st0" points="122.1,120 128.9,120 127.9,126.6 132.3,126.6 133.4,120 140.1,120 137,139.5 130.2,139.5 
				131.2,132.8 127,132.8 125.9,139.5 119,139.5 122.1,120 			"/>
			<polygon class="st0" points="145,139.5 137.4,139.5 147.3,120 155.2,120 159,139.5 151.6,139.5 151.4,137 145.9,137 145,139.5 
							"/>
			<path class="st2" d="M149,135.9l0.5-2.1l2.5,0.7c-0.4-1.3,0.8-1.7,3.4-3.4c-2.1,0.2-0.9-0.9-0.4-1.9c-2.8,1.2-1.9,0-1.7-0.7
				c-4.5,5.1-1.5-0.4-0.9-1.9c-1.7,1.5-1.7-0.2-1.9-1.3c-0.4,1.1-1,2.8-2.1,1.3c0,1.5,1.1,7-1.7,1.9c0.2,0.7,0.4,1.9-1.9,0.7
				c0.2,1,1.1,2.1-1.1,1.9c1.9,1.7,3.4,2.1,2.4,3.4l2.7-0.7l-0.2,2.1H149z"/>
			<polygon class="st1" points="157.9,122.4 157.5,122.4 157.5,120.5 156.9,120.5 156.9,120 158.8,120 158.8,120.5 157.9,120.5 
				157.9,122.4 			"/>
			<polygon class="st1" points="161.3,122.4 160.9,122.4 160.9,120.3 160.7,120.3 160.3,122.4 159.8,122.4 159.4,120.3 159.4,120.3 
				159.4,122.4 159,122.4 159,120 159.6,120 160.1,121.7 160.1,121.7 160.5,120 161.3,120 161.3,122.4 			"/>
		</g>
	</g>
</g>
</svg>
