<svg xmlns="http://www.w3.org/2000/svg" viewBox="0 0 147.5 105.6">
  <g id="Layer_2" data-name="Layer 2">
    <g id="Layer_1-2" data-name="Layer 1">
      <g>
        <path d="M1.7,104.8s-4.2-5.1.8-6.1,14-4.9,15.3-11.9c2.1-11.9,7-62.1,7-62.1l1.7.6c.2,6.8-4.9,54.2-7.2,69.5-1.7,6.6-14.8,13.3-17.6,10Z" fill="#ef3e33" fill-rule="evenodd"/>
        <path d="M40.1,6.7c-14.4-5.1-25,14.6-16.7,24.6-.6-2.8.8-3.8,2.5-1.7s3.2-.2,1.5-3c-3-5.3-1.1-21.2,12.7-19.9Z" fill-rule="evenodd"/>
        <path d="M41.3,9.2C40.9,7.7,43.4-2.2,51.9.5s4.2,20.8-8,20.3C54.3,18.3,54.3,5.3,49.8,3.9s-7.2.9-8.5,5.3Z" fill-rule="evenodd"/>
        <path d="M24,47.3c2.5,0,2.1,2.8,1.3,3.6,14.2,1.3,45.3-20.3,32.4-39.4C63.8,28,40.5,44.3,24.2,43.9c-4-.2-3.6,3.8.6,3.4Z" fill-rule="evenodd"/>
        <path d="M34.1,69.2a23.4,23.4,0,0,1-6.1-.6,10.1,10.1,0,0,0,5.5,2.5c1.5,0,1.7-1.9.6-1.9Z" fill-rule="evenodd"/>
        <path d="M61.5,15.6C66.2,26,68.7,53.5,47.3,65.8c-1.5.6-4.7,5.5-.8,4.2,34.2-14.6,21.3-48.7,15-54.4Z" fill-rule="evenodd"/>
        <path d="M24.4,93.5C35.8,80.2,49,65.5,49.6,47.1c0-4-7.4-.2-8,3.8-1.1,9.8-7.3,26.7-17.2,42.6Z" fill-rule="evenodd"/>
        <path d="M30.5,16.4C37.3,15.1,44.7,23,46.6,31c.4,3-4.9,5.9-5.1,3.2s-3.1-16.5-11-17.8Z" fill-rule="evenodd"/>
        <path d="M78.8,26.2c6.4,1.9,14,5.3,19.5,6.4,0,0-15.3-1.5-19.1-2.1s-4-5.6-.4-4.3Z" fill-rule="evenodd"/>
        <path d="M76.1,57.5c9.7-2.1,40.3-5.7,47.7-6.1s-43,0-46.6.8-4.7,5.9-1.1,5.3Z" fill-rule="evenodd"/>
        <path d="M78.2,38c9.7,1.7,57,4.7,69.3,4.7,0,0-64.4,1.1-68,.6s-4.9-5.9-1.3-5.3Z" fill-rule="evenodd"/>
        <path d="M62.7,84c-.8,6.4-6.4,10-12.3,10s-10.2-3.6-9.1-10,6.4-10.2,12.3-10.2S63.8,77.9,62.7,84ZM48.3,84c-.4,2.3.8,3.8,3.2,3.8A4.3,4.3,0,0,0,55.7,84c.2-1.9-.8-3.8-3.2-3.8A4.7,4.7,0,0,0,48.3,84Z" fill="#ef3e33" fill-rule="evenodd"/>
        <path d="M67.4,74.2h7.2l1.1,10.2h.2c.2-.8.6-1.7.8-2.5l3.4-7.6h7.4V93.8H80.7L81.3,83h0a13.2,13.2,0,0,0-.8,1.9l-4.2,8.9h-4L71,85.5a10.6,10.6,0,0,1-.2-2.5h-.2a7.9,7.9,0,0,1-.4,2.3l-2.1,8.5h-7l6.3-19.6Z" fill="#ef3e33" fill-rule="evenodd"/>
        <polygon points="91.3 74.2 98 74.2 97 80.8 101.5 80.8 102.5 74.2 109.3 74.2 106.2 93.7 99.3 93.7 100.3 87 96.2 87 95 93.7 88.2 93.7 91.3 74.2" fill="#ef3e33" fill-rule="evenodd"/>
        <polygon points="114.2 93.7 106.5 93.7 116.5 74.2 124.3 74.2 128.2 93.7 120.8 93.7 120.5 91.2 115 91.2 114.2 93.7" fill="#ef3e33" fill-rule="evenodd"/>
        <path d="M118.2,90.1l.4-2.1,2.5.6c-.4-1.3.8-1.7,3.4-3.4-2.1.2-.8-.8-.4-1.9-2.8,1.3-1.9,0-1.7-.6-4.4,5.1-1.5-.4-.8-1.9-1.7,1.5-1.7-.2-1.9-1.3-.4,1.1-1.1,2.8-2.1,1.3,0,1.5,1.1,7-1.7,1.9.2.6.4,1.9-1.9.6.2,1.1,1.1,2.1-1.1,1.9,1.9,1.7,3.4,2.1,2.3,3.4L118,88l-.2,2.1Z" fill="#fff" fill-rule="evenodd"/>
        <polygon points="127 76.6 126.7 76.6 126.7 74.7 126 74.7 126 74.2 128 74.2 128 74.7 127 74.7 127 76.6" fill-rule="evenodd"/>
        <polygon points="130.4 76.6 130.1 76.6 130.1 74.5 129.8 74.5 129.4 76.6 128.9 76.6 128.6 74.5 128.6 74.5 128.6 76.6 128.2 76.6 128.2 74.2 128.8 74.2 129.3 75.9 129.3 75.9 129.7 74.2 130.4 74.2 130.4 76.6" fill-rule="evenodd"/>
      </g>
    </g>
  </g>
</svg>
