<?xml version="1.0" encoding="utf-8"?>
<!-- Generator: Adobe Illustrator 25.1.0, SVG Export Plug-In . SVG Version: 6.00 Build 0)  -->
<svg version="1.1" id="Слой_1" xmlns="http://www.w3.org/2000/svg" xmlns:xlink="http://www.w3.org/1999/xlink" x="0px" y="0px"
	 viewBox="0 0 147.5 105.6" style="enable-background:new 0 0 147.5 105.6;" xml:space="preserve">
<style type="text/css">
	.st0{fill-rule:evenodd;clip-rule:evenodd;fill:#727272;}
	.st1{fill-rule:evenodd;clip-rule:evenodd;}
	.st2{fill-rule:evenodd;clip-rule:evenodd;fill:#FFFFFF;}
</style>
<g id="Layer_2">
	<g id="Layer_1-2">
		<g>
			<path class="st0" d="M1.7,104.8c0,0-4.2-5.1,0.8-6.1s14-4.9,15.3-11.9c2.1-11.9,7-62.1,7-62.1l1.7,0.6c0.2,6.8-4.9,54.2-7.2,69.5
				C17.6,101.4,4.5,108.1,1.7,104.8z"/>
			<path class="st1" d="M40.1,6.7c-14.4-5.1-25,14.6-16.7,24.6c-0.6-2.8,0.8-3.8,2.5-1.7s3.2-0.2,1.5-3C24.4,21.3,26.3,5.4,40.1,6.7
				z"/>
			<path class="st1" d="M41.3,9.2c-0.4-1.5,2.1-11.4,10.6-8.7s4.2,20.8-8,20.3c10.4-2.5,10.4-15.5,5.9-16.9S42.6,4.8,41.3,9.2z"/>
			<path class="st1" d="M24,47.3c2.5,0,2.1,2.8,1.3,3.6c14.2,1.3,45.3-20.3,32.4-39.4C63.8,28,40.5,44.3,24.2,43.9
				c-4-0.2-3.6,3.8,0.6,3.4L24,47.3z"/>
			<path class="st1" d="M34.1,69.2C32,69.3,30,69.1,28,68.6c1.5,1.4,3.5,2.2,5.5,2.5C35,71.1,35.2,69.2,34.1,69.2z"/>
			<path class="st1" d="M61.5,15.6c4.7,10.4,7.2,37.9-14.2,50.2c-1.5,0.6-4.7,5.5-0.8,4.2C80.7,55.4,67.8,21.3,61.5,15.6z"/>
			<path class="st1" d="M24.4,93.5c11.4-13.3,24.6-28,25.2-46.4c0-4-7.4-0.2-8,3.8C40.5,60.7,34.3,77.6,24.4,93.5z"/>
			<path class="st1" d="M30.5,16.4C37.3,15.1,44.7,23,46.6,31c0.4,3-4.9,5.9-5.1,3.2S38.4,17.7,30.5,16.4z"/>
			<path class="st1" d="M78.8,26.2c6.4,1.9,14,5.3,19.5,6.4c0,0-15.3-1.5-19.1-2.1S75.2,24.9,78.8,26.2z"/>
			<path class="st1" d="M76.1,57.5c9.7-2.1,40.3-5.7,47.7-6.1s-43,0-46.6,0.8S72.5,58.1,76.1,57.5z"/>
			<path class="st1" d="M78.2,38c9.7,1.7,57,4.7,69.3,4.7c0,0-64.4,1.1-68,0.6S74.6,37.4,78.2,38z"/>
			<path class="st0" d="M62.7,84c-0.8,6.4-6.4,10-12.3,10s-10.2-3.6-9.1-10s6.4-10.2,12.3-10.2S63.8,77.9,62.7,84z M48.3,84
				c-0.4,2.3,0.8,3.8,3.2,3.8c2.2,0,3.9-1.7,4.2-3.8c0.2-1.9-0.8-3.8-3.2-3.8C50.4,80.4,48.7,81.9,48.3,84z"/>
			<path class="st0" d="M67.4,74.2h7.2l1.1,10.2h0.2c0.2-0.8,0.6-1.7,0.8-2.5l3.4-7.6h7.4v19.5h-6.8L81.3,83l0,0
				c-0.3,0.6-0.6,1.2-0.8,1.9l-4.2,8.9h-4L71,85.5c-0.2-0.8-0.2-1.7-0.2-2.5h-0.2c0,0.8-0.2,1.6-0.4,2.3l-2.1,8.5h-7
				C61.1,93.8,67.4,74.2,67.4,74.2z"/>
			<polygon class="st0" points="91.3,74.2 98,74.2 97,80.8 101.5,80.8 102.5,74.2 109.3,74.2 106.2,93.7 99.3,93.7 100.3,87 
				96.2,87 95,93.7 88.2,93.7 			"/>
			<polygon class="st0" points="114.2,93.7 106.5,93.7 116.5,74.2 124.3,74.2 128.2,93.7 120.8,93.7 120.5,91.2 115,91.2 			"/>
			<path class="st2" d="M118.2,90.1l0.4-2.1l2.5,0.6c-0.4-1.3,0.8-1.7,3.4-3.4c-2.1,0.2-0.8-0.8-0.4-1.9c-2.8,1.3-1.9,0-1.7-0.6
				c-4.4,5.1-1.5-0.4-0.8-1.9c-1.7,1.5-1.7-0.2-1.9-1.3c-0.4,1.1-1.1,2.8-2.1,1.3c0,1.5,1.1,7-1.7,1.9c0.2,0.6,0.4,1.9-1.9,0.6
				c0.2,1.1,1.1,2.1-1.1,1.9c1.9,1.7,3.4,2.1,2.3,3.4L118,88l-0.2,2.1H118.2z"/>
			<polygon class="st1" points="127,76.6 126.7,76.6 126.7,74.7 126,74.7 126,74.2 128,74.2 128,74.7 127,74.7 			"/>
			<polygon class="st1" points="130.4,76.6 130.1,76.6 130.1,74.5 129.8,74.5 129.4,76.6 128.9,76.6 128.6,74.5 128.6,74.5 
				128.6,76.6 128.2,76.6 128.2,74.2 128.8,74.2 129.3,75.9 129.3,75.9 129.7,74.2 130.4,74.2 			"/>
		</g>
	</g>
</g>
</svg>
