<?xml version="1.0" encoding="utf-8"?>
<!-- Generator: Adobe Illustrator 24.3.0, SVG Export Plug-In . SVG Version: 6.00 Build 0)  -->
<svg version="1.1" id="Layer_1" xmlns="http://www.w3.org/2000/svg" xmlns:xlink="http://www.w3.org/1999/xlink" x="0px" y="0px"
	 viewBox="0 0 192.8 192.8" style="enable-background:new 0 0 192.8 192.8;" xml:space="preserve">
<style type="text/css">
	.st0{fill-rule:evenodd;clip-rule:evenodd;fill:#4F4F4F;}
	.st1{fill:none;stroke:#373737;stroke-width:0.35;stroke-miterlimit:2.61;}
	.st2{fill:none;stroke:#D3D3D3;stroke-width:0.63;stroke-linecap:round;stroke-linejoin:round;}
	.st3{fill:none;stroke:#373737;stroke-width:0.63;stroke-linecap:round;stroke-linejoin:round;}
	.st4{fill:none;stroke:#000000;stroke-width:0.63;stroke-linecap:round;stroke-linejoin:round;}
	.st5{fill-rule:evenodd;clip-rule:evenodd;fill:#373737;}
	.st6{fill-rule:evenodd;clip-rule:evenodd;fill:#FFFFFF;stroke:#373737;stroke-width:2.45;stroke-miterlimit:2.61;}
	.st7{fill:none;stroke:#FFFFFF;stroke-width:1.26;stroke-linecap:round;stroke-miterlimit:2.61;}
	.st8{fill:none;stroke:#373737;stroke-width:0.92;stroke-linecap:round;stroke-miterlimit:2.61;}
	.st9{fill:none;stroke:#373737;stroke-width:0.89;stroke-linecap:round;stroke-miterlimit:2.61;}
	.st10{fill-rule:evenodd;clip-rule:evenodd;fill:#373737;stroke:#FFFFFF;stroke-width:0.36;stroke-miterlimit:2.61;}
	.st11{fill-rule:evenodd;clip-rule:evenodd;fill:#373737;stroke:#FFFFFF;stroke-width:0.35;stroke-miterlimit:2.61;}
	.st12{fill:none;stroke:#FFFFFF;stroke-width:0.63;stroke-linecap:round;stroke-miterlimit:2.61;}
	.st13{fill:none;stroke:#373737;stroke-width:0.35;stroke-linecap:round;stroke-miterlimit:2.61;}
	.st14{fill:none;stroke:#FFFFFF;stroke-width:0.89;stroke-linecap:round;stroke-miterlimit:2.61;}
	.st15{fill:none;stroke:#373737;stroke-width:0.82;stroke-linecap:round;stroke-miterlimit:2.61;}
	.st16{fill:none;stroke:#FFFFFF;stroke-width:0.61;stroke-linecap:round;stroke-miterlimit:2.61;}
	.st17{fill:none;stroke:#D3D3D3;stroke-width:0.63;stroke-linecap:round;stroke-miterlimit:2.61;}
	.st18{fill:none;stroke:#D3D3D3;stroke-width:0.61;stroke-linecap:round;stroke-miterlimit:2.61;}
	.st19{fill:none;stroke:#373737;stroke-width:0.21;stroke-linecap:round;stroke-miterlimit:2.61;}
	
		.st20{fill-rule:evenodd;clip-rule:evenodd;fill:#4F4F4F;stroke:#373737;stroke-width:0.21;stroke-linecap:round;stroke-miterlimit:2.61;}
</style>
<g id="Layer_2_1_">
	<g id="Layer_1-2">
		<g>
			<path class="st0" d="M87.4,78.6c0,1.7,6.7,8.2,6.7,9.7s1.9,4.6,2.8,6.6c1.6,3.8,2.6,6.8,2.6,6.8l12.6-0.3l-4.8-3.4l19.9-18
				c-9.1-4.8-0.5-14.3-0.5-14.3c-14.2,5-13.1-6.8-13.1-6.8l-12.4,3.8l3.8-12.3c-14.8,3.5-17.4-10.1-17.4-11.6c0,0-0.2,6.7-5,8.5
				s3.3,7.5,3.3,7.5L87.4,78.6z"/>
			<path class="st1" d="M87.4,78.6c0,1.7,6.7,8.2,6.7,9.7s1.9,4.6,2.8,6.6c1.6,3.8,2.6,6.8,2.6,6.8l12.6-0.3l-4.8-3.4l19.9-18
				c-9.1-4.8-0.5-14.3-0.5-14.3c-14.2,5-13.1-6.8-13.1-6.8l-12.4,3.8l3.8-12.3c-14.8,3.5-17.4-10.1-17.4-11.6c0,0-0.2,6.7-5,8.5
				s3.3,7.5,3.3,7.5"/>
			<path class="st2" d="M80.5,50.8c0,0,2.9,3.3,5.3,1.1s3.3-2.3,5.6-0.6s2.8,2.5,5.1,0.6 M81.5,47.8c0,0,2.9,3.3,5.3,1.3
				s3.3-2.5,5.6-0.6s2.7,2.4,5,0.6"/>
			<path class="st3" d="M81.3,48.3c0,0,3,3.3,5.3,1.3s3.3-2.5,5.6-0.6s2.7,2.3,5,0.6 M81,49.1c0,0,2.9,3.3,5.3,1.3s3.3-2.4,5.6-0.6
				s2.8,2.3,5.1,0.6"/>
			<path class="st2" d="M81,48.8c0,0,2.9,3.3,5.3,1.3s3.3-2.5,5.6-0.6s2.8,2.3,5.1,0.6 M81.1,49.8c0,0,3,3.3,5.3,1.3
				s3.3-2.5,5.7-0.7s2.8,2.4,5.1,0.7 M80.1,51.9c0,0,3,3.4,5.2,1.4s3.5-2.5,5.8-0.7s2.6,2.3,4.9,0.7 M80.5,52.4
				c1.1,0.9,2.8,2.4,5.1,0.7"/>
			<path class="st3" d="M80.1,51.6c0,0,3,3.3,5.3,1.3s3.4-2.5,5.7-0.6c1.5,1.4,3.8,1.5,5.4,0.3"/>
			<path class="st4" d="M80.6,52.1c1,0.8,2.7,2.3,5,0.5"/>
			<path class="st3" d="M80.5,51.4c0,0,2.9,3.4,5.3,1.4s3.3-2.5,5.6-0.7s2.7,2.5,5,0.7 M81,51.9c1,0.9,2.6,2.5,4.9,0.7"/>
			<path class="st2" d="M80.8,50.9c0,0,3,3.4,5.3,1.4s3.3-2.5,5.6-0.7s2.9,2.3,5.2,0.7 M81.3,51.4c1,0.9,2.6,2.4,5,0.7"/>
			<path class="st3" d="M80.8,50.3c0,0,3,3.3,5.3,1.3s3.3-2.5,5.6-0.7s3.2,2.2,5.5,0.4 M81.3,50.8c1.2,0.8,2.8,2.3,5.1,0.6"/>
			<path class="st5" d="M83.6,50.1c-0.3-0.8-0.6-1.6-0.7-2.5c0,0-0.3-1.3-1.1-1.1H81l-1.2,0.4c-0.6-0.2-1.2-0.4-1.8-0.5
				c-0.5,0-0.4-0.2-0.7,0.1s-2.3,4.3,0.3,8.2c0,0-2.8,4.1-3.4,6.3s-1.2,9.7,0.3,13.7c0,0-1.8,1.3-1.5,2.2s-0.2,1.5,1.3,2
				s-0.6,3.5-1.3,4.3l-15.4,18.5c0,0-7.6-1.2-9.5-2.2c0,0,0.7,3.8,2,4.2l8.3-0.4l12.9-14.7c0,0-0.5,3.1-0.8,4.3s-2.1,4.5-0.8,6
				c0.9,0.6,1.3,1.6,1,2.6c0,0,0-2,0.6-2.1s1.7-2.2,1.4-4.5c0.7-0.7,1.4-1.4,2-2.2c0.6-1,1.6-4.3,2.6-4.9s3.3-4.5,3.7-5.7
				s4.6-6.3,5.6-6.3s1.2,6.3,3.8,9s3.5,4.1,3.5,5.1c0.6,2.1,1.6,4,3,5.6c1,0.9,1,4.4,1.3,5c0.2,0.5,0.7,0.8,1.2,0.9l0.6,1.8l0.4-2
				c0,0,1.8-2.5,1.1-3.8c-0.6-1.2-1.3-2.4-2-3.5c0,0-1.5-7.1-2.1-8l-0.5-0.8c0,0,0.3-5.1-0.5-7.8c0-0.9-0.2-1.7-0.5-2.5
				c-1.2-2.1-2.7-3.3-1.8-4.5c3.1-4.4,1.6-7.4,1.6-7.9s-2.3-6.1-4.3-6.6l-3.3-1.7c-0.6,0-1.2-0.2-1.7-0.5
				C85.9,53.1,83.6,50.1,83.6,50.1L83.6,50.1z"/>
			<path class="st6" d="M53.6,115.6c6.8,0,12.3-5.5,12.3-12.3c0-6.8-5.5-12.3-12.3-12.3s-12.3,5.5-12.3,12.3
				C41.3,110.1,46.8,115.6,53.6,115.6L53.6,115.6z"/>
			<path class="st7" d="M84.8,53.6c-0.4-1-2.2-6.3-2.2-6.3s-0.3-1.3-1-1.2l-0.8,0.2l-1.3,0.3l-1.7-0.5c-0.7,0-0.5,0-0.7,0.2
				s-2.4,4.3,0.4,8.3c0,0-3,4-3.7,6.1s-1,9.8,0.4,13.6c0,0-1.9,1.5-1.4,2.2s-0.1,1.6,1.4,2.1c-0.4,1.4-0.8,2.8-1.4,4.2l-16.5,20.7
				l-8.3-2.1l1.3,3.3l7.9-0.2L71,88.3c-0.1,1.5-0.4,2.9-0.8,4.3c-0.4,1.1-2.2,4.4-0.7,5.8c0.7,0.6,1.1,1.6,1,2.6c0,0,0-2,0.7-2.1
				s1.5-2.2,1.3-4.5c0.7-0.6,1.3-1.4,1.8-2.2c0.9-1,1.7-4.1,2.7-4.9s3.3-4.5,3.6-5.5s4-6.1,5-6.1s1.8,5.9,4.5,8.7s3.5,4.2,3.5,5
				s1.9,4.8,2.9,5.7s1,4.3,1.4,4.9c0.2,0.4,0.6,0.8,1.1,0.9l0.5,1.8l0.5-2c0,0,1.7-2.5,1.2-3.8c-0.6-1.2-1.3-2.4-2-3.5
				c0,0-1.5-7-2.2-8l-0.5-0.8"/>
			<path class="st8" d="M85.1,54.1c-0.5-1.2-2-7-2-7s-0.3-1.3-1-1.1h-0.8L80,46.4c-0.5-0.2-1.1-0.4-1.7-0.5
				c-0.7-0.2-0.5-0.2-0.7,0.1c-1.3,2.6-1.2,5.7,0.4,8.2c0,0-3,4.1-3.7,6.3s-1,9.6,0.4,13.6c0,0-1.9,1.3-1.4,2.1s-0.1,1.5,1.4,2
				c-0.4,1.5-0.8,2.9-1.4,4.3l-16.2,20.7l-8.8-1.5l1,2.5l8.3-0.4l14.2-16.5c0,0-0.6,3.6-1,4.9S68.7,96.7,70,98
				c0.7,0.7,1.1,1.7,1,2.7c0,0,0-1.8,0.7-2.2s1.5-2,1.3-4.3c0.7-0.6,1.3-1.3,1.8-2.1c0.9-1.2,1.7-4.3,2.8-5c1.5-1.7,2.7-3.5,3.5-5.6
				c0.4-1,4-6.2,5-6.2s1.8,6,4.5,8.8s3.5,4.2,3.5,5.1c0.5,2.1,1.5,4,2.9,5.7c1,0.6,1,4.3,1.4,5c0.3,0.4,0.6,0.7,1.1,0.8l0.5,1.1"/>
			<path class="st9" d="M97,84.3l0.5,1c0.7,0.8,2.2,7.8,2.2,7.8c0.8,1.1,1.4,2.4,2,3.6c0.6,1.2-1.2,3.8-1.2,3.8l-0.3,1.8l-0.2-0.5"
				/>
			<path class="st10" d="M137.2,105.3c-0.8,1.6-1.3,3.3-1.7,5c0,0.7,0.3,0.7,0.8,0.7h1.7v1h-6v-1h1c0.5,0,0.7-0.2,0.8-0.5
				c1.2-3.2,4.2-10.1,7.2-17.1l2.3-0.5c0.3,0,0.3,0.2,0.3,0.3s-0.5,0.5-0.5,1s3.2,9.6,4.8,14.1c0.9,2.3,1.2,2.7,2.2,2.7h0.7v1h-7.3
				v-1h1.1c0.7,0,0.7,0,0.5-0.7l-1.6-5H137.2z M140.5,97.2c-1,2.3-2,4.6-2.8,7h5.3L140.5,97.2z"/>
			<path class="st11" d="M71.3,92.6h4.9c1.1,4.8,2.4,9.6,3.8,14.6c1.6-5,3.4-9.8,4.9-14.6h3c1.3,4.8,3.2,9.6,4.7,14.6
				c1.5-4.9,3.1-9.8,4.3-14.6h2.6c-2.5,6.6-4.6,13.2-6.8,19.9l-1.3-0.2l-1.5,0.2c-1.3-4.8-3-9.5-4.8-14.3c-1.5,4.6-3.3,9.3-5,14.3
				l-1.5-0.2l-1.5,0.2c-1.6-6.5-3.6-12.8-5.6-19.1L71.3,92.6z"/>
			<path class="st11" d="M119.9,101v-3.6c0-3.2-0.3-3.3-2.5-3.7v-0.8h8.8v0.8c-2.3,0.4-2.5,0.5-2.5,3.7v9.9c0,3.2,0.2,3.3,2.5,3.7
				v0.8h-8.9V111c2.3-0.4,2.6-0.5,2.6-3.7v-4.8h-8.1v4.8c0,3.2,0.2,3.3,2.5,3.7v0.8h-8.8V111c2.3-0.4,2.5-0.5,2.5-3.7v-9.9
				c0-3.2-0.2-3.3-2.5-3.7v-0.8h8.6v0.8c-2.1,0.4-2.3,0.5-2.3,3.7v3.6H119.9z"/>
			<path class="st12" d="M79,55.4c-3.9,5-5,11.6-3.2,17.6 M87.6,75.3c0,0,1.6,5.5,5,9 M79.5,80.1c0,0-2,4.7-3.5,5.5
				s-2.3,4.5-2.3,4.5"/>
			<path class="st13" d="M121.6,69.8c0,0-5.3,6.3,1.6,10.7l-8.7,7.8"/>
			<path class="st14" d="M91.7,58.7c1.7,1.4,2.8,3.3,3.2,5.5c0.6,3.7-6.5,6.5-6.5,6.5"/>
			<path class="st8" d="M91.4,57.9c0,0,3.7,3,4.1,6.6s-7.1,6.2-7.1,6.2"/>
			<path class="st15" d="M74.2,78c0,0,2.3,1,3.6-0.7"/>
			<path class="st16" d="M89.7,62.4c0,0,1.2-0.3,1.5,1.5c0.3,1.8-3.3,4.6-3.3,4.6"/>
			<path class="st17" d="M79.6,55.8c-3.9,4.9-5.1,11.4-3.3,17.4 M88.3,75.5c1,3.3,2.6,6.4,4.8,9.1 M80,80.5c0,0-2,4.4-3.4,5.4"/>
			<path class="st18" d="M90.4,62.6c0,0,1-0.2,1.3,1.4c0.3,1.6-3.1,4.9-3.1,4.9"/>
			<polygon class="st5" points="73.2,82.9 57.1,103.2 48.6,102 49.5,103.8 57.6,103.7 77.1,80.3 73.2,82.9 			"/>
			<path class="st5" d="M50.1,104.2v1.5c0,0,3.2,2,6-0.2v-1.3H50.1z"/>
			<path class="st19" d="M50.1,104.2v1.5c0,0,3.2,2,6-0.2v-1.3"/>
			<path class="st20" d="M53.1,105.7c1.7,0,3-0.7,3-1.5s-1.3-1.4-3-1.4s-3,0.7-3,1.4S51.4,105.7,53.1,105.7z"/>
			<path class="st5" d="M13.1,130.7c2.3-0.1,4.1,1.7,4.2,4c0,0.1,0,0.2,0,0.3c0.1,2.4-1.7,4.4-4.1,4.5c-0.1,0-0.3,0-0.4,0
				c-2.3,0.1-4.2-1.6-4.3-3.9c0-0.1,0-0.3,0-0.4c0-2.5,2-4.5,4.5-4.5C13,130.7,13.1,130.7,13.1,130.7z M13.1,139
				c1.4,0,2.2-1.2,2.2-3.7s-0.8-3.9-2.5-3.9s-2.3,1.3-2.3,3.4S11.3,139,13.1,139z"/>
			<path class="st5" d="M25.9,139.5h-0.7l-5.1-6.5h-0.2v2.8c0,1.4,0.2,2,0.2,2.5s0.5,0.5,1.3,0.7v0.3h-3.3V139c0.7-0.2,1-0.3,1-0.7
				c0.2-0.8,0.3-1.7,0.2-2.5v-2.6c0.1-0.5,0-1-0.2-1.5c-0.3-0.3-0.6-0.3-1.1-0.3v-0.5h2.3l4.9,5.8l0,0v-2.2c0-0.8,0-1.7-0.1-2.5
				c0-0.5-0.3-0.6-1.2-0.6v-0.5h3.2v0.5c-0.7,0-0.9,0.1-1,0.6c-0.1,0.8-0.2,1.7-0.2,2.5C25.9,134.5,25.9,139.5,25.9,139.5z"/>
			<path class="st5" d="M32,137.3c0,1.5,0.2,1.5,1.4,1.7v0.3h-4.2V139c1.2-0.2,1.2-0.2,1.2-1.7v-5.8h-0.3c-1,0-1.4,0.2-1.5,0.4
				s-0.4,0.5-0.5,1.1h-0.5c0-0.8,0.1-1.8,0.1-2.5h0.2c0.2,0.3,0.5,0.4,0.8,0.4h5.2c0.3,0,0.5,0,0.6-0.4h0.4c0,0.8,0,1.7,0.1,2.5
				h-0.5c-0.1-0.6-0.3-1-0.5-1.1s-0.6-0.4-1.3-0.4H32V137.3z"/>
			<path class="st5" d="M40.2,139l0.3-0.2c0.5,0,0.5-0.1,0.3-0.6s-0.5-1.2-0.6-1.7h-2.3c-0.2,0.5-0.4,1-0.5,1.5
				c-0.2,0.7-0.2,0.8,0.5,0.8l0.3,0.2v0.3h-3V139c0.8-0.2,1-0.2,1.5-1.3l2.6-6.8l0.5-0.2l1,2.5c0.5,1.5,1,3,1.5,4.3s0.7,1.3,1.4,1.5
				v0.3h-3.5V139z M38,135.8h2l-1-2.6l0,0L38,135.8z"/>
			<path class="st5" d="M46.8,137.3c0,1.5,0,1.5,1,1.7v0.3H44V139c1-0.2,1.1-0.2,1.1-1.7v-4.4c0-1.4-0.1-1.5-0.9-1.5v-0.5h3.4
				c0.8-0.1,1.7,0.1,2.4,0.5c0.5,0.3,0.9,1,0.8,1.6c0,1-0.7,1.9-1.7,2.2l1,1.8c0.5,0.8,0.8,1.3,1.2,1.5c0.1,0.3,0.3,0.5,0.6,0.7v0.3
				h-0.5c-1.4-0.2-1.9-0.5-2.4-1.2l-1.2-2.1c-0.2-0.4-0.3-0.5-0.7-0.5h-0.3L46.8,137.3L46.8,137.3z M46.8,135.2h0.3
				c0.5,0,0.9,0,1.2-0.4c0.5-0.4,0.8-1,0.8-1.6c0.1-0.9-0.6-1.6-1.5-1.7c0,0-0.1,0-0.1,0c-0.7,0-0.7,0-0.7,0.5V135.2z"/>
			<path class="st5" d="M55.1,137.3c0,1.5,0.2,1.5,1.2,1.7v0.3h-3.9V139c0.9-0.2,1-0.2,1-1.7v-4.4c0-1.4-0.1-1.5-1-1.5v-0.5h3.9v0.5
				c-1,0-1.2,0.1-1.2,1.5C55.1,132.9,55.1,137.3,55.1,137.3z"/>
			<path class="st5" d="M61.7,130.7c2.3,0,4.2,1.9,4.2,4.2c0,0,0,0.1,0,0.1c0.1,2.4-1.9,4.4-4.3,4.5c-0.1,0-0.1,0-0.2,0
				c-2.3,0.1-4.2-1.6-4.3-3.9c0-0.1,0-0.3,0-0.4c0-2.5,2-4.5,4.5-4.5C61.6,130.7,61.7,130.7,61.7,130.7z M61.7,139
				c1.4,0,2.2-1.2,2.2-3.7s-0.8-3.9-2.5-3.9s-2.3,1.3-2.3,3.4S59.9,139,61.7,139z"/>
			<path class="st5" d="M72.7,131.4h-0.5c-0.5,0-0.5,0.1-0.4,0.8l1.5,4.8l0,0l1.9-6h0.6l2.2,6h0.1c0.5-1.7,1-3.8,1.2-4.6
				s0.2-1-0.5-1h-0.5v-0.5h3.2v0.5c-0.9,0-1,0.1-1.5,1.3s-1,3.1-2,6.8h-0.7l-2.3-5.8l0,0l-1.8,5.8h-0.9l-2.1-6.8
				c-0.4-1.2-0.5-1.3-1.2-1.3v-0.5h3.7V131.4z"/>
			<path class="st5" d="M86.4,130.7c2.3-0.1,4.2,1.6,4.3,3.9c0,0.1,0,0.3,0,0.4c0.1,2.4-1.7,4.4-4.1,4.5c-0.1,0-0.2,0-0.3,0
				c-2.2,0.2-4.1-1.5-4.3-3.7c0-0.2,0-0.4,0-0.6c-0.1-2.4,1.9-4.4,4.3-4.5C86.3,130.7,86.4,130.7,86.4,130.7z M86.4,139
				c1.4,0,2.4-1.2,2.4-3.7s-1-3.9-2.7-3.9s-2.2,1.3-2.2,3.4S84.8,139,86.4,139z"/>
			<path class="st5" d="M102,130.9v0.5c-1,0-1,0.1-1,1.5l0.2,4.4c0,1.5,0,1.5,1.1,1.7v0.3h-3.8V139c1-0.2,1-0.2,1-1.7v-4.8l0,0
				l-2.8,6.7h-0.5l-2.8-6.3l0,0v3.1c-0.2,0.8-0.2,1.5,0,2.3c0,0.5,0.3,0.5,1.2,0.7v0.3h-3.2V139c0.7-0.2,0.8-0.2,1-0.7
				s0.2-1.3,0.2-2.5v-2.4c0.2-1.9,0-2-1-2v-0.5h2.5l2.7,5.8l2.6-5.8L102,130.9z"/>
			<path class="st5" d="M104.2,132.9c0-1.4-0.2-1.5-1.2-1.5v-0.5h6c0,0.3,0.1,1.1,0.1,2h-0.5c-0.1-0.6-0.1-1-0.5-1.1
				s-0.4-0.4-1.3-0.4h-0.5c-0.5,0-0.5,0-0.5,0.4v2.8h0.9c1.1,0,1.1-0.2,1.3-1.2h0.5v2.8H108c-0.2-1-0.2-1-1.3-1h-0.9v2
				c0,1,0,1.2,0.4,1.4h1c0.6,0,1.3-0.1,1.4-0.5s0.5-0.6,0.7-1.3l0.5,0.2c-0.2,0.5-0.3,1.8-0.5,2.1h-6.5V139c1.2-0.2,1.4-0.2,1.4-1.7
				V132.9L104.2,132.9z"/>
			<path class="st5" d="M118.1,139.5h-0.8l-5.2-6.5l0,0v5.3c0.2,0.4,0.5,0.5,1.4,0.7v0.3h-3.2V139c0.5-0.2,0.8-0.3,1-0.7
				s0.2-1.1,0.2-2.5v-2.6c0-0.8,0-1.2-0.4-1.5s-0.5-0.3-1.1-0.3v-0.5h2.3l5,5.8h0.1v-2.2c0-1.5-0.1-2.1-0.1-2.5s-0.5-0.6-1.4-0.6
				v-0.5h3.4v0.5c-0.7,0-1,0.1-1.2,0.6C118.1,132,118.1,139.5,118.1,139.5z"/>
			<path class="st5" d="M123.2,136.8c0.2,0.7,1,2.2,2.2,2.2s1.3-0.7,1.3-1.5s-0.3-1.2-1.3-1.7h-0.3c-1.2-0.5-2-1.2-2-2.5
				c0.1-1.4,1.3-2.6,2.7-2.5c0,0,0.1,0,0.1,0c0.4,0,0.9,0,1.3,0.2h0.5c0,0.5,0.2,1,0.3,1.9h-0.5c-0.3-0.8-0.6-1.6-1.8-1.6
				c-0.5-0.1-1,0.3-1.1,0.9c0,0.1,0,0.1,0,0.2c0,0.7,0.3,1.2,1.3,1.7h0.5c1.1,0.3,1.9,1.3,2,2.5c0,1.5-1.3,2.7-3.2,2.7
				c-0.4,0.1-0.9,0-1.3-0.2c-0.3-0.1-0.7-0.1-0.8-0.3c-0.1-0.7-0.2-1.3-0.4-2l0.5-0.2L123.2,136.8z"/>
			<path class="st5" d="M138.7,134.5v-1.6c0-1.4-0.2-1.5-1.2-1.5v-0.5h4v0.5c-1.2,0-1.2,0.1-1.2,1.5v4.4c0,1.5,0,1.5,1,1.7v0.3h-4
				V139c1.2-0.2,1.4-0.2,1.4-1.7v-2.1H135v2.1c0,1.5,0,1.5,1,1.7v0.3h-3.8V139c1-0.2,1.2-0.2,1.2-1.7v-4.4c0-1.4-0.2-1.5-1.2-1.5
				v-0.5h3.8v0.5c-1,0-1,0.1-1,1.5v1.6L138.7,134.5z"/>
			<path class="st5" d="M146.8,130.7c2.3,0,4.1,1.8,4.1,4.1c0,0.1,0,0.1,0,0.2c0.1,2.4-1.7,4.4-4.1,4.5c-0.1,0-0.3,0-0.4,0
				c-2.2,0.1-4-1.7-4.1-3.9c0-0.1,0-0.3,0-0.4c-0.1-2.4,1.7-4.4,4.1-4.5C146.5,130.7,146.7,130.7,146.8,130.7z M146.8,139
				c1.3,0,2.3-1.2,2.3-3.7s-1-3.9-2.7-3.9s-2.3,1.3-2.3,3.4S145.1,139,146.8,139z"/>
			<path class="st5" d="M159.2,133.2c-0.2-1.1-1.2-1.9-2.3-1.8c-2,0-3,1.6-3,3.6s1.2,4,3,4s2-0.8,2.6-2.2l0.4,0.2
				c-0.2,0.8-0.4,1.5-0.7,2.2c-0.8,0.2-1.5,0.3-2.3,0.3c-3.5,0-4.8-2.2-4.8-4.3s2-4.5,5-4.5c0.8,0,1.5,0.1,2.3,0.3
				c0.1,0.7,0.2,1.5,0.3,2.2H159.2z"/>
			<path class="st5" d="M163.2,137.3c0,1.5,0.2,1.5,1.2,1.7v0.3h-3.9V139c1-0.2,1-0.2,1-1.7v-4.4c0-1.4,0-1.5-1-1.5v-0.5h3.9v0.5
				c-1,0-1.2,0.1-1.2,1.5v2.1c1-0.9,2-1.9,2.8-3c0.3-0.5,0.3-0.6,0-0.6h-0.5v-0.5h3.3v0.5c-0.8,0-1,0-2,0.8
				c-0.6,0.8-1.3,1.5-2.1,2.1c1,1.4,2,2.5,2.8,3.7c0.4,0.5,0.9,0.8,1.5,1v0.3h-2.7c-0.9-1.5-1.9-2.8-3.1-4.1l0,0V137.3z"/>
			<path class="st5" d="M170.5,132.9c0-1.4-0.2-1.5-1-1.5v-0.5h6c0,0.7,0,1.3,0.1,2h-0.5c-0.1-0.6-0.3-1-0.5-1.1s-0.6-0.4-1.5-0.4
				h-0.5c-0.5,0-0.5,0-0.5,0.4v2.8h1c1.2,0,1.2-0.2,1.4-1.2h0.3v2.8h-0.3c-0.2-1-0.2-1-1.4-1h-1v2c0,1,0,1.2,0.4,1.4h1.1
				c0.5,0,1.1-0.1,1.5-0.5c0.2-0.1,0.4-0.6,0.7-1.3l0.3,0.2c0,0.5-0.3,1.8-0.3,2.1h-6.5V139c1-0.2,1.2-0.2,1.2-1.7V132.9
				L170.5,132.9z"/>
			<path class="st5" d="M181.1,137.3c0,1.5,0.2,1.5,1.3,1.7v0.3h-4.1V139c1-0.2,1.1-0.2,1.1-1.7v-1.1c0-0.2,0-0.5-0.1-0.7l-1.7-3.1
				c-0.6-1-0.6-1-1.3-1v-0.5h3.5v0.5h-0.5c-0.4,0-0.4,0.1-0.2,0.6s1.2,2,1.7,2.8c0.5-0.9,0.9-1.8,1.3-2.8c0.2-0.5,0.2-0.6-0.3-0.6
				h-0.5v-0.5h3v0.5c-0.7,0-0.9,0.1-1.5,1s-0.9,1.5-1.4,2.6c-0.2,0.3-0.3,0.6-0.3,1V137.3z"/>
			<path class="st5" d="M57.9,153.2h0.3c0.5,0,0.5-0.1,0.4-0.8s-0.4-1-0.7-1.5h-2.1c-0.2,0.5-0.4,1-0.5,1.5
				c-0.4,0.7-0.2,0.8,0.3,0.8h0.3v0.5h-3v-0.5c0.9,0,1-0.1,1.5-1.3l2.7-6.6l0.6-0.2l0.9,2.5c0.5,1.5,1,3,1.5,4.3s0.6,1.3,1.5,1.3
				v0.5h-3.7V153.2z M55.9,150.3h1.8l-0.9-2.7l0,0C56.8,147.6,55.9,150.3,55.9,150.3z"/>
			<path class="st5" d="M62.4,151.3c0.2,0.6,1,2.1,2.3,2.1c0.7,0,1.3-0.6,1.3-1.3c0-0.1,0-0.1,0-0.2c0-0.8-0.5-1.3-1.5-1.6l-0.3-0.2
				c-1-0.5-2-1.2-2-2.5c0.1-1.5,1.4-2.6,2.9-2.5c0,0,0.1,0,0.1,0c0.4,0,0.8,0.1,1.2,0.2l0.5,0.2c0.1,0.5,0.1,1,0.3,1.8h-0.5
				c-0.3-0.7-0.7-1.7-1.8-1.7c-0.7,0.1-1.2,0.6-1.2,1.3c0,0.7,0.5,1.2,1.3,1.5l0.5,0.2c1.2,0.4,2,1.5,2,2.7c0,1.5-1.1,2.6-3.1,2.6
				l-1.3-0.2l-0.7-0.3c-0.2-0.6-0.4-1.3-0.5-2L62.4,151.3z"/>
			<path class="st5" d="M68.9,151.3c0.2,1.1,1.2,2,2.3,2.1c0.7,0,1.3-0.6,1.3-1.3c0-0.1,0-0.1,0-0.2c0-0.8-0.5-1.3-1.5-1.6l-0.3-0.2
				c-1-0.5-2-1.2-2-2.5c0.1-1.4,1.3-2.6,2.7-2.5c0,0,0.1,0,0.1,0c0.4,0,0.9,0,1.3,0.2l0.5,0.2c0.1,0.6,0.2,1.2,0.4,1.8h-0.5
				c-0.4-0.7-0.7-1.7-1.9-1.7c-0.6,0.1-1.1,0.7-1.1,1.3c0,0.7,0.5,1.2,1.3,1.5l0.5,0.2c1.2,0.4,2,1.5,2,2.7c0,1.5-1.2,2.6-3.2,2.6
				l-1.3-0.2l-0.6-0.3c-0.3-0.6-0.5-1.3-0.5-2L68.9,151.3z"/>
			<path class="st5" d="M79.5,145.1c2.2-0.1,4,1.7,4.1,3.9c0,0.1,0,0.3,0,0.4c0.1,2.4-1.7,4.4-4.1,4.5c-0.1,0-0.3,0-0.4,0
				c-2.3,0.1-4.2-1.6-4.3-3.9c0-0.1,0-0.3,0-0.4c0-2.5,2-4.5,4.5-4.5C79.4,145.1,79.4,145.1,79.5,145.1z M79.5,153.4
				c1.3,0,2.1-1.1,2.1-3.6s-0.8-4.2-2.5-4.2s-2.3,1.3-2.3,3.7S77.6,153.4,79.5,153.4z"/>
			<path class="st5" d="M91.7,147.6c0-1.2-1-2.1-2.2-2c0,0-0.1,0-0.1,0c-2,0-2.8,1.8-2.8,3.7s1.2,4.1,2.8,4.1s2-0.8,2.7-2.1h0.5
				c-0.2,0.8-0.4,1.5-0.7,2.3c-0.8,0.1-1.7,0.2-2.5,0.3c-3.5,0-4.8-2.1-4.8-4.3s2-4.5,5.1-4.5c0.8,0,1.6,0.1,2.4,0.4
				c0,0.6,0.1,1.3,0.1,1.9L91.7,147.6L91.7,147.6z"/>
			<path class="st5" d="M95.9,151.8c0,1.3,0.1,1.4,1.1,1.4v0.5h-3.8v-0.5c0.9,0,1-0.1,1-1.4v-4.5c0-1.5-0.1-1.5-1-1.7v-0.3H97v0.3
				c-1,0.2-1.1,0.2-1.1,1.7V151.8z"/>
			<path class="st5" d="M102.3,153.2h0.4c0.5,0,0.5-0.1,0.3-0.8c-0.3-0.5-0.5-1-0.7-1.5H100c-0.1,0.5-0.3,1-0.5,1.5
				c-0.1,0.7-0.1,0.8,0.5,0.8h0.4v0.5h-3v-0.5c0.8,0,1-0.1,1.5-1.3l2.5-6.6l0.6-0.2l1,2.5c0.5,1.5,1,3,1.5,4.3s0.7,1.3,1.3,1.3v0.5
				h-3.5V153.2z M100.2,150.3h2l-1-2.7l0,0L100.2,150.3z"/>
			<path class="st5" d="M110.6,151.8c0,1.3,0.2,1.4,1.4,1.4v0.5h-4.2v-0.5c1.2,0,1.2-0.1,1.2-1.4v-6h-0.4c-0.9,0-1.3,0.2-1.4,0.5
				c-0.3,0.3-0.5,0.7-0.5,1.1h-0.5c0-0.9,0.1-1.8,0.1-2.4h0.2c0.2,0.2,0.5,0.3,0.8,0.3h5.2c0.2,0,0.4-0.1,0.6-0.3h0.4
				c0,0.8,0,1.6,0.1,2.4h-0.5c-0.1-0.5-0.2-0.9-0.5-1.3c-0.4-0.2-0.8-0.3-1.3-0.3h-0.7C110.6,145.8,110.6,151.8,110.6,151.8z"/>
			<path class="st5" d="M117.1,151.8c0,1.3,0,1.4,1,1.4v0.5h-3.8v-0.5c1,0,1-0.1,1-1.4v-4.5c0-1.5,0-1.5-1-1.7v-0.3h3.8v0.3
				c-1,0.2-1,0.2-1,1.7V151.8z"/>
			<path class="st5" d="M123.6,145.1c2.2-0.1,4,1.7,4.1,3.9c0,0.1,0,0.3,0,0.4c0.1,2.4-1.7,4.4-4.1,4.5c-0.1,0-0.3,0-0.4,0
				c-2.2,0.1-4-1.7-4.1-3.9c0-0.1,0-0.3,0-0.4c-0.1-2.4,1.7-4.4,4.1-4.5C123.3,145.1,123.5,145.1,123.6,145.1z M123.6,153.4
				c1.3,0,2.3-1.1,2.3-3.6s-1-4.2-2.7-4.2s-2.3,1.3-2.3,3.7S121.9,153.4,123.6,153.4z"/>
			<path class="st5" d="M136.5,153.7h-0.8l-5.2-6.3l0,0v5.2c0.2,0.5,0.5,0.6,1.4,0.6v0.5h-3.4v-0.5c0.7,0,1-0.1,1.2-0.6v-5
				c0.1-0.5,0-1-0.2-1.5c-0.3-0.3-0.5-0.3-1.1-0.5v-0.3h2.3l5,5.8l0,0v-4.8c-0.2-0.3-0.5-0.5-1.4-0.7v-0.3h3.4v0.3
				c-0.5,0.1-0.9,0.3-1.2,0.7V153.7L136.5,153.7z"/>
			<path class="st5" d="M120.1,131c0-0.4,0.3-0.7,0.7-0.8c0.4,0,0.4,0.5,0.4,0.8l-0.3,3.3c0,0.2,0,0.5-0.1,0.5s-0.4-0.3-0.4-0.5
				C120.4,134.3,120.1,131,120.1,131z"/>
		</g>
	</g>
</g>
</svg>
