<svg xmlns="http://www.w3.org/2000/svg" viewBox="0 0 175.9 115.3">
  <g id="Layer_2" data-name="Layer 2">
    <g id="Layer_1-2" data-name="Layer 1">
      <g>
        <path d="M79,39.9c0,1.7,6.6,8.1,6.6,9.6s2,4.6,2.8,6.6c1.7,3.8,2.7,6.8,2.7,6.8l12.6-.3-4.8-3.3,19.9-18.1c-9.1-4.8-.5-14.3-.5-14.3-14.3,5-13.1-6.8-13.1-6.8L92.8,23.9l3.8-12.3C81.8,15.1,79.2,1.5,79.2,0c0,0-.2,6.6-5,8.5S77.5,16,77.5,16L79,39.9Z" fill="#ed1c2e" fill-rule="evenodd"/>
        <path d="M79,39.9c0,1.7,6.6,8.1,6.6,9.6s2,4.6,2.8,6.6c1.7,3.8,2.7,6.8,2.7,6.8l12.6-.3-4.8-3.3,19.9-18.1c-9.1-4.8-.5-14.3-.5-14.3-14.3,5-13.1-6.8-13.1-6.8L92.8,23.9l3.8-12.3C81.8,15.1,79.2,1.5,79.2,0c0,0-.2,6.6-5,8.5S77.5,16,77.5,16" fill="none" stroke="#00539f" stroke-miterlimit="2.61" stroke-width="0.35"/>
        <path d="M72.1,12.1s3,3.3,5.3,1.2,3.3-2.3,5.6-.7,2.8,2.5,5.1.7m-15-4.2s3,3.3,5.3,1.3,3.3-2.5,5.6-.7,2.7,2.5,5,.7" fill="none" stroke="#ffd65a" stroke-linecap="round" stroke-linejoin="round" stroke-width="0.63"/>
        <path d="M72.9,9.6s3,3.3,5.3,1.3,3.3-2.5,5.6-.7,2.7,2.3,5,.7m-16.2-.5s3,3.3,5.3,1.3,3.3-2.5,5.6-.7,2.8,2.3,5.1.7" fill="none" stroke="#00539f" stroke-linecap="round" stroke-linejoin="round" stroke-width="0.63"/>
        <path d="M72.6,10.1s3,3.3,5.3,1.3,3.3-2.5,5.6-.7,2.8,2.3,5.1.7m-15.9-.3s3,3.3,5.3,1.3,3.3-2.5,5.6-.7,2.8,2.3,5.1.7m-17,.8s3,3.3,5.1,1.3,3.5-2.5,5.8-.7,2.7,2.3,5,.7m-15.5-.8c1.2.8,2.8,2.3,5.1.7" fill="none" stroke="#ffd65a" stroke-linecap="round" stroke-linejoin="round" stroke-width="0.63"/>
        <path d="M71.7,12.9s3,3.3,5.3,1.3,3.3-2.5,5.6-.7a4.3,4.3,0,0,0,5.5.3" fill="none" stroke="#00539f" stroke-linecap="round" stroke-linejoin="round" stroke-width="0.63"/>
        <path d="M72.2,13.4c1,.8,2.7,2.3,5,.5" fill="none" stroke="#040607" stroke-linecap="round" stroke-linejoin="round" stroke-width="0.63"/>
        <path d="M72.1,12.7s3,3.3,5.3,1.3,3.3-2.5,5.6-.7,2.7,2.5,5,.7m-15.4-.8c1,.8,2.7,2.5,5,.7" fill="none" stroke="#00539f" stroke-linecap="round" stroke-linejoin="round" stroke-width="0.63"/>
        <path d="M72.4,12.2s3,3.3,5.3,1.3,3.3-2.5,5.6-.7,2.8,2.3,5.1.7m-15.5-.8c1,.8,2.7,2.3,5,.7" fill="none" stroke="#ffd65a" stroke-linecap="round" stroke-linejoin="round" stroke-width="0.63"/>
        <path d="M72.4,11.6s3,3.3,5.3,1.3,3.3-2.5,5.6-.7,3.2,2.2,5.5.3m-15.9-.4c1.2.8,2.8,2.3,5.1.7" fill="none" stroke="#00539f" stroke-linecap="round" stroke-linejoin="round" stroke-width="0.63"/>
        <path d="M75.2,11.4a12.3,12.3,0,0,1-.7-2.5s-.3-1.3-1.2-1.2-.5.2-.8.2a4.1,4.1,0,0,1-1.2.3,8.4,8.4,0,0,0-1.8-.5c-.5,0-.3-.2-.7.2s-2.3,4.3.3,8.1a35.9,35.9,0,0,0-3.5,6.3c-.8,2.2-1.2,9.8.3,13.8,0,0-1.8,1.3-1.5,2.2s-.2,1.5,1.3,2-.7,3.5-1.3,4.3L49,63s-7.6-1.2-9.5-2.2c0,0,.7,3.8,2,4.1l8.3-.3L62.7,49.8s-.5,3.2-.8,4.3-2.2,4.5-.8,6a2.6,2.6,0,0,1,1,2.7s0-2,.7-2.2,1.7-2.2,1.3-4.5a12,12,0,0,0,2-2.2c.7-1,1.7-4.3,2.7-5s3.3-4.5,3.6-5.6S77,37,78,37s1.2,6.3,3.8,9,3.5,4.1,3.5,5.1a15.4,15.4,0,0,0,3,5.6c1,.8,1,4.3,1.3,5a1.6,1.6,0,0,0,1.2.8l.7,1.8.3-2s1.8-2.5,1.2-3.8A31.7,31.7,0,0,0,91,55s-1.5-7.1-2.2-8l-.5-.8s.3-5.1-.5-7.8a7.4,7.4,0,0,0-.5-2.5c-1.2-2.2-2.7-3.3-1.8-4.5,3.2-4.5,1.7-7.5,1.7-8s-2.3-6.1-4.3-6.6l-3.3-1.7a3,3,0,0,1-1.7-.5,32.9,32.9,0,0,1-2.7-3.2Z" fill="#00539f" fill-rule="evenodd"/>
        <path d="M45.2,76.9A12.3,12.3,0,1,0,32.9,64.6,12.3,12.3,0,0,0,45.2,76.9Z" fill="#fff" stroke="#00539f" stroke-miterlimit="2.61" stroke-width="2.45" fill-rule="evenodd"/>
        <path d="M76.4,14.9c-.3-1-2.2-6.3-2.2-6.3s-.3-1.3-1-1.2l-.8.2-1.3.3-1.7-.5c-.7,0-.5,0-.7.2s-2.5,4.3.3,8.3c0,0-3,4-3.6,6.1s-1,9.8.3,13.6c0,0-1.8,1.5-1.3,2.2s-.2,1.7,1.3,2.2a25.6,25.6,0,0,1-1.3,4.1L47.8,64.8l-8.3-2.2,1.3,3.3,8-.2L62.6,49.5a23.8,23.8,0,0,1-.8,4.3c-.3,1.2-2.2,4.5-.7,5.8a3.1,3.1,0,0,1,1,2.7s0-2,.7-2.2,1.5-2.2,1.3-4.5a8.1,8.1,0,0,0,1.8-2.2c.8-1,1.7-4.1,2.7-5s3.3-4.5,3.6-5.5,4-6.1,5-6.1,1.8,6,4.5,8.8,3.5,4.1,3.5,5,2,4.8,3,5.6,1,4.3,1.3,5a1.6,1.6,0,0,0,1.2.8l.5,1.8.5-2s1.7-2.5,1.2-3.8a31.7,31.7,0,0,0-2-3.5s-1.5-7-2.2-8l-.5-.8" fill="none" stroke="#fff" stroke-linecap="round" stroke-miterlimit="2.61" stroke-width="1.26"/>
        <path d="M76.7,15.4c-.5-1.2-2-7-2-7s-.3-1.3-1-1.2a1.2,1.2,0,0,0-.8.2l-1.3.3a7.1,7.1,0,0,0-1.7-.5c-.7-.2-.5-.2-.7.2a8.3,8.3,0,0,0,.3,8.1s-3,4.1-3.6,6.3-1,9.6.3,13.6c0,0-1.8,1.3-1.3,2.2s-.2,1.5,1.3,2a26.6,26.6,0,0,1-1.3,4.3L48.7,64.5,39.9,63l1,2.5,8.3-.3L63.5,48.6l-1,5c-.5,1.2-2.2,4.5-.8,5.8a3.1,3.1,0,0,1,1,2.7s0-1.8.7-2.2,1.5-2,1.3-4.3a14.5,14.5,0,0,0,1.8-2.2c.8-1.2,1.7-4.3,2.8-5a19.5,19.5,0,0,0,3.5-5.6c.3-1,4-6.1,5-6.1s1.8,6,4.5,8.8,3.5,4.1,3.5,5.1a15.4,15.4,0,0,0,3,5.6c1,.7,1,4.3,1.3,5a1.6,1.6,0,0,0,1.2.8l.5,1.2" fill="none" stroke="#00539f" stroke-linecap="round" stroke-miterlimit="2.61" stroke-width="0.92"/>
        <path d="M88.6,45.6l.5,1c.7.8,2.2,7.8,2.2,7.8a27.3,27.3,0,0,1,2,3.6c.7,1.2-1.2,3.8-1.2,3.8l-.3,1.8-.2-.5" fill="none" stroke="#00539f" stroke-linecap="round" stroke-miterlimit="2.61" stroke-width="0.89"/>
        <path d="M128.8,66.6a19.6,19.6,0,0,0-1.7,5c0,.7.3.7.8.7h1.7v1h-6v-1h1c.5,0,.7-.2.8-.5,1.2-3.2,4.1-10.1,7.1-17.1l2.3-.5c.3,0,.3.2.3.3s-.5.5-.5,1,3.2,9.6,4.8,14.1c.8,2.3,1.2,2.7,2.2,2.7h.7v1H135v-1h1.2c.7,0,.7,0,.5-.7l-1.7-5Zm3.3-8.1c-1,2.3-2,4.6-2.8,7h5.3l-2.5-7Z" fill="#00539f" stroke="#fff" stroke-miterlimit="2.61" stroke-width="0.36" fill-rule="evenodd"/>
        <path d="M62.9,53.9l2.3.2,2.5-.2c1.2,4.8,2.5,9.6,3.8,14.6,1.7-5,3.5-9.8,5-14.6h3c1.3,4.8,3.2,9.6,4.6,14.6,1.5-4.8,3.2-9.8,4.3-14.6H91c-2.5,6.6-4.6,13.3-6.8,19.9l-1.3-.2-1.5.2c-1.3-4.8-3-9.5-4.8-14.3-1.5,4.6-3.3,9.3-5,14.3l-1.5-.2-1.5.2C66.9,67.3,65,61,63,54.7v-.8Z" fill="#00539f" stroke="#fff" stroke-miterlimit="2.61" stroke-width="0.35" fill-rule="evenodd"/>
        <path d="M111.5,62.3V58.7c0-3.2-.3-3.3-2.5-3.6v-.8h8.8v.8c-2.3.3-2.5.5-2.5,3.6v9.9c0,3.2.2,3.3,2.5,3.6V73h-9v-.7c2.3-.3,2.7-.5,2.7-3.6V63.9h-8.1v4.8c0,3.2.2,3.3,2.5,3.6v.8H97.1v-.8c2.3-.3,2.5-.5,2.5-3.6V58.8c0-3.2-.2-3.3-2.5-3.6v-.8h8.6v.8c-2.2.3-2.3.5-2.3,3.6v3.6h8.1Z" fill="#00539f" stroke="#fff" stroke-miterlimit="2.61" stroke-width="0.35" fill-rule="evenodd"/>
        <path d="M70.6,16.7a19.5,19.5,0,0,0-3.2,17.6m11.8,2.3s1.7,5.5,5,9M71.1,41.4s-2,4.6-3.5,5.5-2.3,4.5-2.3,4.5" fill="none" stroke="#fff" stroke-linecap="round" stroke-miterlimit="2.61" stroke-width="0.63"/>
        <path d="M113.2,31.1s-5.3,6.3,1.7,10.6l-8.8,7.8" fill="none" stroke="#00539f" stroke-linecap="round" stroke-miterlimit="2.61" stroke-width="0.35"/>
        <path d="M83.3,20a9,9,0,0,1,3.2,5.5C87.2,29.1,80,32,80,32" fill="none" stroke="#fff" stroke-linecap="round" stroke-miterlimit="2.61" stroke-width="0.89"/>
        <path d="M83,19.2s3.6,3,4.1,6.6S80,31.9,80,31.9" fill="none" stroke="#00539f" stroke-linecap="round" stroke-miterlimit="2.61" stroke-width="0.92"/>
        <path d="M65.8,39.3s2.3,1,3.6-.7" fill="none" stroke="#00539f" stroke-linecap="round" stroke-miterlimit="2.61" stroke-width="0.82"/>
        <path d="M81.3,23.7s1.2-.3,1.5,1.5-3.3,4.6-3.3,4.6" fill="none" stroke="#fff" stroke-linecap="round" stroke-miterlimit="2.61" stroke-width="0.61"/>
        <path d="M71.2,17.1a19.2,19.2,0,0,0-3.3,17.4m12,2.3a29.7,29.7,0,0,0,4.8,9.1M71.6,41.8s-2,4.5-3.3,5.5" fill="none" stroke="#ffd65a" stroke-linecap="round" stroke-miterlimit="2.61" stroke-width="0.63"/>
        <path d="M82,23.9s1-.2,1.3,1.5-3.2,4.8-3.2,4.8" fill="none" stroke="#ffd65a" stroke-linecap="round" stroke-miterlimit="2.61" stroke-width="0.61"/>
        <polygon points="64.8 44.2 48.7 64.5 40.2 63.3 41.1 65.1 49.2 65 68.7 41.6 64.8 44.2" fill="#00539f" fill-rule="evenodd"/>
        <path d="M41.7,65.5V67s3.2,2,6-.2V65.5Z" fill="#00539f" fill-rule="evenodd"/>
        <path d="M41.7,65.5V67s3.2,2,6-.2V65.5" fill="none" stroke="#00539f" stroke-linecap="round" stroke-miterlimit="2.61" stroke-width="0.21"/>
        <path d="M44.7,67c1.7,0,3-.7,3-1.5s-1.3-1.3-3-1.3-3,.7-3,1.3S43,67,44.7,67Z" fill="#ed1c2e" stroke="#00539f" stroke-linecap="round" stroke-miterlimit="2.61" stroke-width="0.21" fill-rule="evenodd"/>
        <path d="M4.7,92a4.1,4.1,0,0,1,4.1,4.3,4.3,4.3,0,0,1-4.5,4.5A4.1,4.1,0,0,1,0,96.5,4.6,4.6,0,0,1,4.7,92Zm0,8.3c1.3,0,2.2-1.2,2.2-3.6s-.8-4-2.5-4S2.1,94,2.1,96.2s.8,4.1,2.6,4.1Z" fill="#00539f" fill-rule="evenodd"/>
        <path d="M17.5,100.8h-.7l-5.1-6.5h-.2v2.8c0,1.3.2,2,.2,2.5s.5.5,1.3.7v.3H9.7v-.3c.7-.2,1-.3,1-.7a7.6,7.6,0,0,0,.2-2.5V94.4a2.8,2.8,0,0,0-.2-1.5,1.6,1.6,0,0,0-1.2-.3v-.5h2.3l5,5.8h0V95.7a6.3,6.3,0,0,0-.2-2.5c0-.5-.3-.7-1.2-.7V92h3.2v.5c-.7,0-.8.2-1,.7a19.1,19.1,0,0,0-.2,2.5v5.1Z" fill="#00539f" fill-rule="evenodd"/>
        <path d="M23.6,98.6c0,1.5.2,1.5,1.3,1.7v.3H20.8v-.3c1.2-.2,1.2-.2,1.2-1.7V92.8h-.3a2.7,2.7,0,0,0-1.5.3,2.8,2.8,0,0,0-.5,1.2h-.5c0-.8.2-1.8.2-2.5h.2a.9.9,0,0,0,.8.3h5.1c.3,0,.5,0,.7-.3h.3a11,11,0,0,0,.2,2.5h-.5a2.8,2.8,0,0,0-.5-1.2c-.2-.3-.7-.3-1.3-.3h-.8v5.8Z" fill="#00539f" fill-rule="evenodd"/>
        <path d="M31.8,100.3l.3-.2c.5,0,.5-.2.3-.7l-.7-1.7H29.4a13.1,13.1,0,0,0-.5,1.5c-.2.7-.2.8.5.8l.3.2v.3h-3v-.2c.8-.2,1-.2,1.5-1.3l2.7-6.8.5-.2,1,2.5c.5,1.5,1,3,1.5,4.3s.7,1.3,1.3,1.5v.3H31.7v-.3Zm-2.2-3.2h2l-1-2.7h0l-1,2.7Z" fill="#00539f" fill-rule="evenodd"/>
        <path d="M38.4,98.6c0,1.5,0,1.5,1,1.7v.3H35.6v-.3c1-.2,1.2-.2,1.2-1.7V94.1c0-1.3-.2-1.5-1-1.5v-.5h3.5a4.1,4.1,0,0,1,2.3.5,1.8,1.8,0,0,1,.8,1.7,2.3,2.3,0,0,1-1.7,2.2l1,1.8c.5.8.8,1.3,1.2,1.5a1.6,1.6,0,0,0,.7.7v.3h-.5c-1.5-.2-2-.5-2.5-1.2a23.9,23.9,0,0,0-1.2-2.2c-.2-.3-.3-.5-.7-.5h-.3v1.7Zm0-2.1h.3a1.7,1.7,0,0,0,1.2-.3,2,2,0,0,0,.8-1.7A1.6,1.6,0,0,0,39,92.8c-.7,0-.7,0-.7.5v3.2Z" fill="#00539f" fill-rule="evenodd"/>
        <path d="M46.7,98.6c0,1.5.2,1.5,1.2,1.7v.3H44.1v-.3c.8-.2,1-.2,1-1.7V94.1c0-1.3-.2-1.5-1-1.5v-.5h3.8v.5c-1,0-1.2.2-1.2,1.5v4.5Z" fill="#00539f" fill-rule="evenodd"/>
        <path d="M53.3,92a4.1,4.1,0,0,1,4.1,4.3,4.4,4.4,0,0,1-4.5,4.5,4.1,4.1,0,0,1-4.3-4.3A4.6,4.6,0,0,1,53.3,92Zm0,8.3c1.3,0,2.2-1.2,2.2-3.6s-.8-4-2.5-4-2.3,1.3-2.3,3.5.8,4.1,2.6,4.1Z" fill="#00539f" fill-rule="evenodd"/>
        <path d="M64.3,92.7h-.5c-.5,0-.5.2-.3.8L65,98.3h0l1.8-6h.7l2.2,6h.2c.5-1.7,1-3.8,1.2-4.6s.2-1-.5-1h-.5v-.5h3.2v.5c-.8,0-1,.2-1.5,1.3s-1,3.2-2,6.8h-.7L66.8,95h0L65,100.8h-.8L62,94c-.3-1.2-.5-1.3-1.2-1.3v-.5h3.6v.5Z" fill="#00539f" fill-rule="evenodd"/>
        <path d="M78,92a4.1,4.1,0,0,1,4.3,4.3,4.4,4.4,0,0,1-4.5,4.5,4,4,0,0,1-4.3-4.3A4.5,4.5,0,0,1,78,92Zm0,8.3c1.3,0,2.3-1.2,2.3-3.6s-1-4-2.7-4-2.2,1.3-2.2,3.5,1,4.1,2.6,4.1Z" fill="#00539f" fill-rule="evenodd"/>
        <path d="M93.6,92.2v.5c-1,0-1,.2-1,1.5l.2,4.5c0,1.5,0,1.5,1.2,1.7v.3H90.2v-.4c1-.2,1-.2,1-1.7V93.8h0l-2.8,6.6h-.5l-2.8-6.3h0v3.2a4.3,4.3,0,0,0,0,2.3c0,.5.3.5,1.2.7v.3H83.1v-.3c.7-.2.8-.2,1-.7s.2-1.3.2-2.5l.2-2.5c.2-1.8,0-2-1-2v-.5H86l2.7,5.8,2.7-5.8h2.2Z" fill="#00539f" fill-rule="evenodd"/>
        <path d="M95.8,94.2c0-1.3-.2-1.5-1.2-1.5v-.5h6c0,.3.2,1.2.2,2l-.5.2c-.2-.7-.2-1-.5-1.2s-.5-.3-1.3-.3H98c-.5,0-.5,0-.5.3V96h.8c1.2,0,1.2-.2,1.3-1.2h.5v2.8h-.5c-.2-1-.2-1-1.3-1h-.8v2c0,1,0,1.2.3,1.3s.5.2,1,.2a1.9,1.9,0,0,0,1.5-.5,2.6,2.6,0,0,0,.7-1.3l.5.2c-.2.5-.3,1.8-.5,2.2H94.5v-.4c1.2-.2,1.3-.2,1.3-1.7V94.2Z" fill="#00539f" fill-rule="evenodd"/>
        <path d="M109.7,100.8h-.8l-5.1-6.5h0v5.3c.2.3.5.5,1.3.7v.3h-3.2v-.3c.5-.2.8-.3,1-.7s.2-1.2.2-2.5V94.4c0-.8,0-1.2-.3-1.5s-.5-.3-1.2-.3v-.5h2.3l5,5.8h.2V95.7a19.1,19.1,0,0,0-.2-2.5c-.2-.5-.5-.7-1.3-.7V92h3.3v.5c-.7,0-1,.2-1.2.7v7.6Z" fill="#00539f" fill-rule="evenodd"/>
        <path d="M114.8,98.1c.2.7,1,2.2,2.2,2.2s1.3-.7,1.3-1.5-.3-1.2-1.3-1.7l-.3-.2c-1.2-.5-2-1.2-2-2.5a2.6,2.6,0,0,1,2.8-2.5,3,3,0,0,1,1.3.2l.5.2c0,.5.2,1,.3,1.8l-.5.2c-.3-.8-.7-1.7-1.8-1.7a1.1,1.1,0,0,0-1.2,1.2c0,.7.3,1.2,1.3,1.7l.5.2a2.7,2.7,0,0,1,2,2.5c0,1.5-1.3,2.7-3.2,2.7a2.5,2.5,0,0,1-1.3-.2l-.8-.3c0-.3-.2-1.2-.3-2l.5-.3Z" fill="#00539f" fill-rule="evenodd"/>
        <path d="M130.3,95.8V94.1c0-1.3-.2-1.5-1.2-1.5v-.5h4v.5c-1.2,0-1.2.2-1.2,1.5v4.5c0,1.5,0,1.5,1,1.7v.3h-4v-.3c1.2-.2,1.3-.2,1.3-1.7V96.4h-3.6v2.2c0,1.5,0,1.5,1,1.7v.3h-3.8v-.3c1-.2,1.2-.2,1.2-1.7V94.1c0-1.3-.2-1.5-1.2-1.5v-.5h3.8v.5c-1,0-1,.2-1,1.5v1.7Z" fill="#00539f" fill-rule="evenodd"/>
        <path d="M138.4,92a4.1,4.1,0,0,1,4.1,4.3,4.3,4.3,0,0,1-4.5,4.5,4,4,0,0,1-4.1-4.3,4.3,4.3,0,0,1,4.5-4.5Zm0,8.3c1.3,0,2.3-1.2,2.3-3.6s-1-4-2.7-4-2.3,1.3-2.3,3.5,1,4.1,2.7,4.1Z" fill="#00539f" fill-rule="evenodd"/>
        <path d="M150.8,94.5a2.2,2.2,0,0,0-2.3-1.8c-2,0-3,1.7-3,3.6s1.2,4,3,4,2-.8,2.7-2.2l.3.2a7.1,7.1,0,0,1-.7,2.2,6.7,6.7,0,0,1-2.3.3c-3.5,0-4.8-2.2-4.8-4.3s2-4.5,5-4.5a14.1,14.1,0,0,1,2.3.3,13,13,0,0,1,.3,2.2Z" fill="#00539f" fill-rule="evenodd"/>
        <path d="M154.8,98.6c0,1.5.2,1.5,1.2,1.7v.3h-3.8v-.3c1-.2,1-.2,1-1.7V94.1c0-1.3,0-1.5-1-1.5v-.5H156v.5c-1,0-1.2.2-1.2,1.5v2.2a19.9,19.9,0,0,0,2.8-3c.3-.5.3-.7,0-.7h-.5v-.5h3.3v.5c-.8,0-1,0-2,.8l-2.2,2.2,2.8,3.6a3.5,3.5,0,0,0,1.5,1v.3h-2.7a26,26,0,0,0-3.2-4.1h0v2.2Z" fill="#00539f" fill-rule="evenodd"/>
        <path d="M162.1,94.2c0-1.3-.2-1.5-1-1.5v-.5h6a8.7,8.7,0,0,0,.2,2l-.5.2a2.8,2.8,0,0,0-.5-1.2c-.2-.3-.7-.3-1.5-.3h-.5c-.5,0-.5,0-.5.3V96h1c1.2,0,1.2-.2,1.3-1.2h.3v2.8h-.3c-.2-1-.2-1-1.3-1h-1v2c0,1,0,1.2.3,1.3s.7.2,1.2.2a2.5,2.5,0,0,0,1.5-.5c.2-.2.3-.7.7-1.3l.3.2c0,.5-.3,1.8-.3,2.2H161v-.4c1-.2,1.2-.2,1.2-1.7V94.2Z" fill="#00539f" fill-rule="evenodd"/>
        <path d="M172.7,98.6c0,1.5.2,1.5,1.3,1.7v.3h-4.1v-.3c1-.2,1.2-.2,1.2-1.7V97.4a.8.8,0,0,0-.2-.7,21,21,0,0,0-1.7-3.2c-.7-1-.7-1-1.3-1V92h3.5v.5h-.5c-.3,0-.3.2-.2.7s1.2,2,1.7,2.8,1-2,1.3-2.8.2-.7-.3-.7h-.5V92h3v.5c-.7,0-.8.2-1.5,1s-.8,1.5-1.3,2.7a1.3,1.3,0,0,0-.3,1v1.4Z" fill="#00539f" fill-rule="evenodd"/>
        <path d="M49.5,114.5h.3c.5,0,.5-.2.3-.8a9.3,9.3,0,0,0-.7-1.5H47.2a13.1,13.1,0,0,0-.5,1.5c-.3.7-.2.8.3.8h.3v.5h-3v-.5c.8,0,1-.2,1.5-1.3l2.7-6.6.7-.2.8,2.5c.5,1.5,1,3,1.5,4.3s.7,1.3,1.5,1.3v.5H49.4v-.5Zm-2-2.9h1.8l-1-2.7h0l-.8,2.7Z" fill="#00539f" fill-rule="evenodd"/>
        <path d="M54,112.6c.2.7,1,2.2,2.3,2.2a1.4,1.4,0,0,0,1.3-1.5c0-.8-.5-1.3-1.5-1.7l-.3-.2c-1-.5-2-1.2-2-2.5a2.7,2.7,0,0,1,3-2.5,3,3,0,0,1,1.2.2l.5.2a7.4,7.4,0,0,1,.3,1.8h-.5c-.3-.7-.7-1.7-1.8-1.7a1.3,1.3,0,0,0-1.2,1.3c0,.7.5,1.2,1.3,1.5l.5.2a2.9,2.9,0,0,1,2,2.7c0,1.5-1.2,2.7-3.2,2.7l-1.3-.2-.7-.3a11.3,11.3,0,0,1-.5-2l.6-.2Z" fill="#00539f" fill-rule="evenodd"/>
        <path d="M60.5,112.6c.2.7,1,2.2,2.3,2.2a1.4,1.4,0,0,0,1.3-1.5c0-.8-.5-1.3-1.5-1.7l-.3-.2c-1-.5-2-1.2-2-2.5a2.7,2.7,0,0,1,2.8-2.5,3,3,0,0,1,1.3.2l.5.2c0,.5.2,1,.3,1.8h-.5c-.3-.7-.7-1.7-1.8-1.7a1.3,1.3,0,0,0-1.2,1.3c0,.7.5,1.2,1.3,1.5l.5.2a2.9,2.9,0,0,1,2,2.7c0,1.5-1.2,2.7-3.2,2.7l-1.3-.2-.7-.3a11.3,11.3,0,0,1-.5-2l.7-.2Z" fill="#00539f" fill-rule="evenodd"/>
        <path d="M71.1,106.4a4,4,0,0,1,4.1,4.3,4.3,4.3,0,0,1-4.5,4.5,4.1,4.1,0,0,1-4.3-4.3,4.5,4.5,0,0,1,4.7-4.5Zm0,8.3c1.3,0,2.2-1.2,2.2-3.6s-.8-4.1-2.5-4.1-2.3,1.3-2.3,3.6.7,4.1,2.6,4.1Z" fill="#00539f" fill-rule="evenodd"/>
        <path d="M83.3,108.9a2.2,2.2,0,0,0-2.3-2c-2,0-2.8,1.8-2.8,3.6s1.2,4.1,2.8,4.1,2-.8,2.7-2.2h.5a21.9,21.9,0,0,1-.7,2.3,24.3,24.3,0,0,1-2.5.3c-3.5,0-4.8-2.2-4.8-4.3s2-4.5,5.1-4.5a9,9,0,0,1,2.3.3c0,.7.2,1.3.2,2l-.5.4Z" fill="#00539f" fill-rule="evenodd"/>
        <path d="M87.5,113.1c0,1.3.2,1.5,1.2,1.5v.5H84.9v-.5c.8,0,1-.2,1-1.5v-4.5c0-1.5-.2-1.5-1-1.7v-.3h3.8v.3c-1,.2-1.2.2-1.2,1.7v4.5Z" fill="#00539f" fill-rule="evenodd"/>
        <path d="M93.9,114.5h.3c.5,0,.5-.2.3-.8a10.7,10.7,0,0,1-.7-1.5H91.6a13.1,13.1,0,0,0-.5,1.5c-.2.7-.2.8.5.8h.3v.5h-3v-.5c.8,0,1-.2,1.5-1.3l2.5-6.6.7-.2,1,2.5c.5,1.5,1,3,1.5,4.3s.7,1.3,1.3,1.3v.5H93.9v-.5Zm-2.1-2.9h2l-1-2.7h0l-1,2.7Z" fill="#00539f" fill-rule="evenodd"/>
        <path d="M102.2,113.1c0,1.3.2,1.5,1.3,1.5v.5H99.4v-.5c1.2,0,1.2-.2,1.2-1.5v-6h-.3c-1,0-1.3.2-1.5.5a2.8,2.8,0,0,0-.5,1.2h-.5c0-1,.2-1.8.2-2.5h.2a.9.9,0,0,0,.8.3h5.1a1.5,1.5,0,0,0,.7-.3h.3a12.9,12.9,0,0,0,.2,2.5h-.5c-.2-.7-.3-1.2-.5-1.3a2.1,2.1,0,0,0-1.3-.3h-.7v5.9Z" fill="#00539f" fill-rule="evenodd"/>
        <path d="M108.7,113.1c0,1.3,0,1.5,1,1.5v.5h-3.8v-.5c1,0,1-.2,1-1.5v-4.5c0-1.5,0-1.5-1-1.7v-.3h3.8v.3c-1,.2-1,.2-1,1.7v4.5Z" fill="#00539f" fill-rule="evenodd"/>
        <path d="M115.2,106.4a4,4,0,0,1,4.1,4.3,4.3,4.3,0,0,1-4.5,4.5,4,4,0,0,1-4.1-4.3,4.3,4.3,0,0,1,4.5-4.5Zm0,8.3c1.3,0,2.3-1.2,2.3-3.6s-1-4.1-2.7-4.1-2.3,1.3-2.3,3.6,1,4.1,2.7,4.1Z" fill="#00539f" fill-rule="evenodd"/>
        <path d="M128.1,115h-.8l-5.1-6.3h0v5.2c.2.5.5.7,1.3.7v.5h-3.3v-.5c.7,0,1-.2,1.2-.7v-5a2.8,2.8,0,0,0-.2-1.5c-.3-.3-.5-.3-1.2-.5v-.3h2.3l5,5.8h0v-4.8c-.2-.3-.5-.5-1.3-.7v-.3h3.3v.3c-.7.2-1,.3-1.2.7V115Z" fill="#00539f" fill-rule="evenodd"/>
        <path d="M111.7,92.3a.8.8,0,0,1,.7-.8c.5,0,.5.5.5.8l-.3,3.3c0,.2,0,.5-.2.5s-.3-.3-.3-.5l-.4-3.3Z" fill="#00539f" fill-rule="evenodd"/>
      </g>
    </g>
  </g>
</svg>
