<?xml version="1.0" encoding="utf-8"?>
<!-- Generator: Adobe Illustrator 25.1.0, SVG Export Plug-In . SVG Version: 6.00 Build 0)  -->
<svg version="1.1" id="Layer_1" xmlns="http://www.w3.org/2000/svg" xmlns:xlink="http://www.w3.org/1999/xlink" x="0px" y="0px"
	 viewBox="0 0 175.8 115.1" style="enable-background:new 0 0 175.8 115.1;" xml:space="preserve">
<style type="text/css">
	.st0{fill-rule:evenodd;clip-rule:evenodd;fill:#4F4F4F;}
	.st1{fill:none;stroke:#373737;stroke-width:0.35;stroke-miterlimit:2.61;}
	.st2{fill:none;stroke:#D3D3D3;stroke-width:0.63;stroke-linecap:round;stroke-linejoin:round;}
	.st3{fill:none;stroke:#373737;stroke-width:0.63;stroke-linecap:round;stroke-linejoin:round;}
	.st4{fill:none;stroke:#000000;stroke-width:0.63;stroke-linecap:round;stroke-linejoin:round;}
	.st5{fill-rule:evenodd;clip-rule:evenodd;fill:#373737;}
	.st6{fill-rule:evenodd;clip-rule:evenodd;fill:#FFFFFF;stroke:#373737;stroke-width:2.45;stroke-miterlimit:2.61;}
	.st7{fill:none;stroke:#FFFFFF;stroke-width:1.26;stroke-linecap:round;stroke-miterlimit:2.61;}
	.st8{fill:none;stroke:#373737;stroke-width:0.92;stroke-linecap:round;stroke-miterlimit:2.61;}
	.st9{fill:none;stroke:#373737;stroke-width:0.89;stroke-linecap:round;stroke-miterlimit:2.61;}
	.st10{fill-rule:evenodd;clip-rule:evenodd;fill:#373737;stroke:#FFFFFF;stroke-width:0.36;stroke-miterlimit:2.61;}
	.st11{fill-rule:evenodd;clip-rule:evenodd;fill:#373737;stroke:#FFFFFF;stroke-width:0.35;stroke-miterlimit:2.61;}
	.st12{fill:none;stroke:#FFFFFF;stroke-width:0.63;stroke-linecap:round;stroke-miterlimit:2.61;}
	.st13{fill:none;stroke:#373737;stroke-width:0.35;stroke-linecap:round;stroke-miterlimit:2.61;}
	.st14{fill:none;stroke:#FFFFFF;stroke-width:0.89;stroke-linecap:round;stroke-miterlimit:2.61;}
	.st15{fill:none;stroke:#373737;stroke-width:0.82;stroke-linecap:round;stroke-miterlimit:2.61;}
	.st16{fill:none;stroke:#FFFFFF;stroke-width:0.61;stroke-linecap:round;stroke-miterlimit:2.61;}
	.st17{fill:none;stroke:#D3D3D3;stroke-width:0.63;stroke-linecap:round;stroke-miterlimit:2.61;}
	.st18{fill:none;stroke:#D3D3D3;stroke-width:0.61;stroke-linecap:round;stroke-miterlimit:2.61;}
	.st19{fill:none;stroke:#373737;stroke-width:0.21;stroke-linecap:round;stroke-miterlimit:2.61;}
	
		.st20{fill-rule:evenodd;clip-rule:evenodd;fill:#4F4F4F;stroke:#373737;stroke-width:0.21;stroke-linecap:round;stroke-miterlimit:2.61;}
</style>
<g id="Layer_2_1_">
	<g id="Layer_1-2">
		<g>
			<path class="st0" d="M78.9,39.8c0,1.7,6.7,8.2,6.7,9.7s1.9,4.6,2.8,6.6c1.6,3.8,2.6,6.8,2.6,6.8l12.6-0.3l-4.8-3.4l19.9-18
				c-9.1-4.8-0.5-14.3-0.5-14.3c-14.2,5-13.1-6.8-13.1-6.8l-12.4,3.8l3.8-12.3C81.7,15.1,79.1,1.5,79.1,0c0,0-0.2,6.7-5,8.5
				s3.3,7.5,3.3,7.5L78.9,39.8z"/>
			<path class="st1" d="M78.9,39.8c0,1.7,6.7,8.2,6.7,9.7s1.9,4.6,2.8,6.6c1.6,3.8,2.6,6.8,2.6,6.8l12.6-0.3l-4.8-3.4l19.9-18
				c-9.1-4.8-0.5-14.3-0.5-14.3c-14.2,5-13.1-6.8-13.1-6.8l-12.4,3.8l3.8-12.3C81.7,15.1,79.1,1.5,79.1,0c0,0-0.2,6.7-5,8.5
				s3.3,7.5,3.3,7.5"/>
			<path class="st2" d="M72,12c0,0,2.9,3.3,5.3,1.1s3.3-2.3,5.6-0.6s2.8,2.5,5.1,0.6 M73,9c0,0,2.9,3.3,5.3,1.3s3.3-2.5,5.6-0.6
				s2.7,2.4,5,0.6"/>
			<path class="st3" d="M72.8,9.5c0,0,3,3.3,5.3,1.3s3.3-2.5,5.6-0.6s2.7,2.3,5,0.6 M72.5,10.3c0,0,2.9,3.3,5.3,1.3s3.3-2.4,5.6-0.6
				s2.8,2.3,5.1,0.6"/>
			<path class="st2" d="M72.5,10c0,0,2.9,3.3,5.3,1.3s3.3-2.5,5.6-0.6s2.8,2.3,5.1,0.6 M72.6,11c0,0,3,3.3,5.3,1.3s3.3-2.5,5.7-0.7
				s2.8,2.4,5.1,0.7 M71.6,13.1c0,0,3,3.4,5.2,1.4s3.5-2.5,5.8-0.7s2.6,2.3,4.9,0.7 M72,13.6c1.1,0.9,2.8,2.4,5.1,0.7"/>
			<path class="st3" d="M71.6,12.8c0,0,3,3.3,5.3,1.3s3.4-2.5,5.7-0.6c1.5,1.4,3.8,1.5,5.4,0.3"/>
			<path class="st4" d="M72.1,13.3c1,0.8,2.7,2.3,5,0.5"/>
			<path class="st3" d="M72,12.6c0,0,2.9,3.4,5.3,1.4s3.3-2.5,5.6-0.7s2.7,2.5,5,0.7 M72.5,13.1c1,0.9,2.6,2.5,4.9,0.7"/>
			<path class="st2" d="M72.3,12.1c0,0,3,3.4,5.3,1.4s3.3-2.5,5.6-0.7s2.9,2.3,5.2,0.7 M72.8,12.6c1,0.9,2.6,2.4,5,0.7"/>
			<path class="st3" d="M72.3,11.5c0,0,3,3.3,5.3,1.3s3.3-2.5,5.6-0.7s3.2,2.2,5.5,0.4 M72.8,12c1.2,0.8,2.8,2.3,5.1,0.6"/>
			<path class="st5" d="M75.1,11.3c-0.3-0.8-0.6-1.6-0.7-2.5c0,0-0.3-1.3-1.1-1.1h-0.8l-1.2,0.4c-0.6-0.2-1.2-0.4-1.8-0.5
				c-0.5,0-0.4-0.2-0.7,0.1s-2.3,4.3,0.3,8.2c0,0-2.8,4.1-3.4,6.3s-1.2,9.7,0.3,13.7c0,0-1.8,1.3-1.5,2.2s-0.2,1.5,1.3,2
				s-0.6,3.5-1.3,4.3L49.1,62.9c0,0-7.6-1.2-9.5-2.2c0,0,0.7,3.8,2,4.2l8.3-0.4l12.9-14.7c0,0-0.5,3.1-0.8,4.3s-2.1,4.5-0.8,6
				c0.9,0.6,1.3,1.6,1,2.6c0,0,0-2,0.6-2.1s1.7-2.2,1.4-4.5c0.7-0.7,1.4-1.4,2-2.2c0.6-1,1.6-4.3,2.6-4.9s3.3-4.5,3.7-5.7
				s4.6-6.3,5.6-6.3s1.2,6.3,3.8,9s3.5,4.1,3.5,5.1c0.6,2.1,1.6,4,3,5.6c1,0.9,1,4.4,1.3,5c0.2,0.5,0.7,0.8,1.2,0.9l0.6,1.8l0.4-2
				c0,0,1.8-2.5,1.1-3.8c-0.6-1.2-1.3-2.4-2-3.5c0,0-1.5-7.1-2.1-8l-0.5-0.8c0,0,0.3-5.1-0.5-7.8c0-0.9-0.2-1.7-0.5-2.5
				c-1.2-2.1-2.7-3.3-1.8-4.5c3.1-4.4,1.6-7.4,1.6-7.9s-2.3-6.1-4.3-6.6l-3.3-1.7c-0.6,0-1.2-0.2-1.7-0.5
				C77.4,14.3,75.1,11.3,75.1,11.3L75.1,11.3z"/>
			<path class="st6" d="M45.1,76.8c6.8,0,12.3-5.5,12.3-12.3s-5.5-12.3-12.3-12.3s-12.3,5.5-12.3,12.3
				C32.8,71.3,38.3,76.8,45.1,76.8L45.1,76.8z"/>
			<path class="st7" d="M76.3,14.8c-0.4-1-2.2-6.3-2.2-6.3s-0.3-1.3-1-1.2l-0.8,0.2L71,7.8l-1.7-0.5c-0.7,0-0.5,0-0.7,0.2
				s-2.4,4.3,0.4,8.3c0,0-3,4-3.7,6.1s-1,9.8,0.4,13.6c0,0-1.9,1.5-1.4,2.2s-0.1,1.6,1.4,2.1c-0.4,1.4-0.8,2.8-1.4,4.2L47.8,64.7
				l-8.3-2.1l1.3,3.3l7.9-0.2l13.8-16.2c-0.1,1.5-0.4,2.9-0.8,4.3c-0.4,1.1-2.2,4.4-0.7,5.8c0.7,0.6,1.1,1.6,1,2.6c0,0,0-2,0.7-2.1
				s1.5-2.2,1.3-4.5c0.7-0.6,1.3-1.4,1.8-2.2c0.9-1,1.7-4.1,2.7-4.9s3.3-4.5,3.6-5.5s4-6.1,5-6.1s1.8,5.9,4.5,8.7s3.5,4.2,3.5,5
				s1.9,4.8,2.9,5.7s1,4.3,1.4,4.9c0.2,0.4,0.6,0.8,1.1,0.9l0.5,1.8l0.5-2c0,0,1.7-2.5,1.2-3.8c-0.6-1.2-1.3-2.4-2-3.5
				c0,0-1.5-7-2.2-8L88,45.8"/>
			<path class="st8" d="M76.6,15.3c-0.5-1.2-2-7-2-7s-0.3-1.3-1-1.1h-0.8l-1.3,0.4c-0.5-0.2-1.1-0.4-1.7-0.5
				c-0.7-0.2-0.5-0.2-0.7,0.1c-1.3,2.6-1.2,5.7,0.4,8.2c0,0-3,4.1-3.7,6.3s-1,9.6,0.4,13.6c0,0-1.9,1.3-1.4,2.1s-0.1,1.5,1.4,2
				c-0.4,1.5-0.8,2.9-1.4,4.3L48.6,64.4l-8.8-1.5l1,2.5l8.3-0.4l14.2-16.5c0,0-0.6,3.6-1,4.9s-2.1,4.5-0.8,5.8
				c0.7,0.7,1.1,1.7,1,2.7c0,0,0-1.8,0.7-2.2s1.5-2,1.3-4.3c0.7-0.6,1.3-1.3,1.8-2.1c0.9-1.2,1.7-4.3,2.8-5c1.5-1.7,2.7-3.5,3.5-5.6
				c0.4-1,4-6.2,5-6.2s1.8,6,4.5,8.8s3.5,4.2,3.5,5.1c0.5,2.1,1.5,4,2.9,5.7c1,0.6,1,4.3,1.4,5c0.3,0.4,0.6,0.7,1.1,0.8l0.5,1.1"/>
			<path class="st9" d="M88.5,45.5l0.5,1c0.7,0.8,2.2,7.8,2.2,7.8c0.8,1.1,1.4,2.4,2,3.6S92,61.7,92,61.7l-0.3,1.8L91.5,63"/>
			<path class="st10" d="M128.7,66.5c-0.8,1.6-1.3,3.3-1.7,5c0,0.7,0.3,0.7,0.8,0.7h1.7v1h-6v-1h1c0.5,0,0.7-0.2,0.8-0.5
				c1.2-3.2,4.2-10.1,7.2-17.1l2.3-0.5c0.3,0,0.3,0.2,0.3,0.3s-0.5,0.5-0.5,1s3.2,9.6,4.8,14.1c0.9,2.3,1.2,2.7,2.2,2.7h0.7v1H135
				v-1h1.1c0.7,0,0.7,0,0.5-0.7l-1.6-5H128.7z M132,58.4c-1,2.3-2,4.6-2.8,7h5.3L132,58.4z"/>
			<path class="st11" d="M62.8,53.8h4.9c1.1,4.8,2.4,9.6,3.8,14.6c1.6-5,3.4-9.8,4.9-14.6h3c1.3,4.8,3.2,9.6,4.7,14.6
				c1.5-4.9,3.1-9.8,4.3-14.6H91c-2.5,6.6-4.6,13.2-6.8,19.9l-1.3-0.2l-1.5,0.2c-1.3-4.8-3-9.5-4.8-14.3c-1.5,4.6-3.3,9.3-5,14.3
				l-1.5-0.2l-1.5,0.2C67,67.2,65,60.9,63,54.6L62.8,53.8z"/>
			<path class="st11" d="M111.4,62.2v-3.6c0-3.2-0.3-3.3-2.5-3.7v-0.8h8.8v0.8c-2.3,0.4-2.5,0.5-2.5,3.7v9.9c0,3.2,0.2,3.3,2.5,3.7
				V73h-8.9v-0.8c2.3-0.4,2.6-0.5,2.6-3.7v-4.8h-8.1v4.8c0,3.2,0.2,3.3,2.5,3.7V73H97v-0.8c2.3-0.4,2.5-0.5,2.5-3.7v-9.9
				c0-3.2-0.2-3.3-2.5-3.7v-0.8h8.6v0.8c-2.1,0.4-2.3,0.5-2.3,3.7v3.6H111.4z"/>
			<path class="st12" d="M70.5,16.6c-3.9,5-5,11.6-3.2,17.6 M79.1,36.5c0,0,1.6,5.5,5,9 M71,41.3c0,0-2,4.7-3.5,5.5
				s-2.3,4.5-2.3,4.5"/>
			<path class="st13" d="M113.1,31c0,0-5.3,6.3,1.6,10.7l-8.7,7.8"/>
			<path class="st14" d="M83.2,19.9c1.7,1.4,2.8,3.3,3.2,5.5c0.6,3.7-6.5,6.5-6.5,6.5"/>
			<path class="st8" d="M82.9,19.1c0,0,3.7,3,4.1,6.6s-7.1,6.2-7.1,6.2"/>
			<path class="st15" d="M65.7,39.2c0,0,2.3,1,3.6-0.7"/>
			<path class="st16" d="M81.2,23.6c0,0,1.2-0.3,1.5,1.5c0.3,1.8-3.3,4.6-3.3,4.6"/>
			<path class="st17" d="M71.1,17c-3.9,4.9-5.1,11.4-3.3,17.4 M79.8,36.7c1,3.3,2.6,6.4,4.8,9.1 M71.5,41.7c0,0-2,4.4-3.4,5.4"/>
			<path class="st18" d="M81.9,23.8c0,0,1-0.2,1.3,1.4c0.3,1.6-3.1,4.9-3.1,4.9"/>
			<polygon class="st5" points="64.7,44.1 48.6,64.4 40.1,63.2 41,65 49.1,64.9 68.6,41.5 			"/>
			<path class="st5" d="M41.6,65.4v1.5c0,0,3.2,2,6-0.2v-1.3H41.6z"/>
			<path class="st19" d="M41.6,65.4v1.5c0,0,3.2,2,6-0.2v-1.3"/>
			<path class="st20" d="M44.6,66.9c1.7,0,3-0.7,3-1.5s-1.3-1.4-3-1.4s-3,0.7-3,1.4S42.9,66.9,44.6,66.9z"/>
			<path class="st5" d="M4.6,91.9c2.3-0.1,4.1,1.7,4.2,4c0,0.1,0,0.2,0,0.3c0.1,2.4-1.7,4.4-4.1,4.5c-0.1,0-0.3,0-0.4,0
				C2,100.8,0.1,99.1,0,96.8c0-0.1,0-0.3,0-0.4c0-2.5,2-4.5,4.5-4.5C4.5,91.9,4.6,91.9,4.6,91.9z M4.6,100.2c1.4,0,2.2-1.2,2.2-3.7
				S6,92.6,4.3,92.6S2,93.9,2,96S2.8,100.2,4.6,100.2z"/>
			<path class="st5" d="M17.4,100.7h-0.7l-5.1-6.5h-0.2V97c0,1.4,0.2,2,0.2,2.5s0.5,0.5,1.3,0.7v0.3H9.6v-0.3c0.7-0.2,1-0.3,1-0.7
				c0.2-0.8,0.3-1.7,0.2-2.5v-2.6c0.1-0.5,0-1-0.2-1.5c-0.3-0.3-0.6-0.3-1.1-0.3v-0.5h2.3l4.9,5.8l0,0v-2.2c0-0.8,0-1.7-0.1-2.5
				c0-0.5-0.3-0.6-1.2-0.6v-0.5h3.2v0.5c-0.7,0-0.9,0.1-1,0.6c-0.1,0.8-0.2,1.7-0.2,2.5C17.4,95.7,17.4,100.7,17.4,100.7z"/>
			<path class="st5" d="M23.5,98.5c0,1.5,0.2,1.5,1.4,1.7v0.3h-4.2v-0.3c1.2-0.2,1.2-0.2,1.2-1.7v-5.8h-0.3c-1,0-1.4,0.2-1.5,0.4
				c-0.1,0.2-0.4,0.5-0.5,1.1h-0.5c0-0.8,0.1-1.8,0.1-2.5h0.2c0.2,0.3,0.5,0.4,0.8,0.4h5.2c0.3,0,0.5,0,0.6-0.4h0.4
				c0,0.8,0,1.7,0.1,2.5H26c-0.1-0.6-0.3-1-0.5-1.1s-0.6-0.4-1.3-0.4h-0.7V98.5z"/>
			<path class="st5" d="M31.7,100.2L32,100c0.5,0,0.5-0.1,0.3-0.6s-0.5-1.2-0.6-1.7h-2.3c-0.2,0.5-0.4,1-0.5,1.5
				c-0.2,0.7-0.2,0.8,0.5,0.8l0.3,0.2v0.3h-3v-0.3c0.8-0.2,1-0.2,1.5-1.3l2.6-6.8l0.5-0.2l1,2.5c0.5,1.5,1,3,1.5,4.3
				s0.7,1.3,1.4,1.5v0.3h-3.5V100.2z M29.5,97h2l-1-2.6l0,0L29.5,97z"/>
			<path class="st5" d="M38.3,98.5c0,1.5,0,1.5,1,1.7v0.3h-3.8v-0.3c1-0.2,1.1-0.2,1.1-1.7v-4.4c0-1.4-0.1-1.5-0.9-1.5v-0.5h3.4
				c0.8-0.1,1.7,0.1,2.4,0.5c0.5,0.3,0.9,1,0.8,1.6c0,1-0.7,1.9-1.7,2.2l1,1.8c0.5,0.8,0.8,1.3,1.2,1.5c0.1,0.3,0.3,0.5,0.6,0.7v0.3
				h-0.5c-1.4-0.2-1.9-0.5-2.4-1.2l-1.2-2.1c-0.2-0.4-0.3-0.5-0.7-0.5h-0.3L38.3,98.5L38.3,98.5z M38.3,96.4h0.3
				c0.5,0,0.9,0,1.2-0.4c0.5-0.4,0.8-1,0.8-1.6c0.1-0.9-0.6-1.6-1.5-1.7H39c-0.7,0-0.7,0-0.7,0.5V96.4z"/>
			<path class="st5" d="M46.6,98.5c0,1.5,0.2,1.5,1.2,1.7v0.3h-3.9v-0.3c0.9-0.2,1-0.2,1-1.7v-4.4c0-1.4-0.1-1.5-1-1.5v-0.5h3.9v0.5
				c-1,0-1.2,0.1-1.2,1.5C46.6,94.1,46.6,98.5,46.6,98.5z"/>
			<path class="st5" d="M53.2,91.9c2.3,0,4.2,1.9,4.2,4.2v0.1c0.1,2.4-1.9,4.4-4.3,4.5c-0.1,0-0.1,0-0.2,0c-2.3,0.1-4.2-1.6-4.3-3.9
				c0-0.1,0-0.3,0-0.4C48.6,93.9,50.6,91.9,53.2,91.9C53.1,91.9,53.2,91.9,53.2,91.9z M53.2,100.2c1.4,0,2.2-1.2,2.2-3.7
				s-0.8-3.9-2.5-3.9s-2.3,1.3-2.3,3.4S51.4,100.2,53.2,100.2z"/>
			<path class="st5" d="M64.2,92.6h-0.5c-0.5,0-0.5,0.1-0.4,0.8l1.5,4.8l0,0l1.9-6h0.6l2.2,6h0.1c0.5-1.7,1-3.8,1.2-4.6s0.2-1-0.5-1
				h-0.5v-0.5H73v0.5c-0.9,0-1,0.1-1.5,1.3s-1,3.1-2,6.8h-0.7l-2.3-5.8l0,0l-1.8,5.8h-0.9l-2.1-6.8c-0.4-1.2-0.5-1.3-1.2-1.3v-0.5
				h3.7L64.2,92.6L64.2,92.6z"/>
			<path class="st5" d="M77.9,91.9c2.3-0.1,4.2,1.6,4.3,3.9c0,0.1,0,0.3,0,0.4c0.1,2.4-1.7,4.4-4.1,4.5c-0.1,0-0.2,0-0.3,0
				c-2.2,0.2-4.1-1.5-4.3-3.7c0-0.2,0-0.4,0-0.6C73.4,94,75.4,92,77.9,91.9C77.8,91.9,77.9,91.9,77.9,91.9z M77.9,100.2
				c1.4,0,2.4-1.2,2.4-3.7s-1-3.9-2.7-3.9s-2.2,1.3-2.2,3.4S76.3,100.2,77.9,100.2z"/>
			<path class="st5" d="M93.5,92.1v0.5c-1,0-1,0.1-1,1.5l0.2,4.4c0,1.5,0,1.5,1.1,1.7v0.3H90v-0.3c1-0.2,1-0.2,1-1.7v-4.8l0,0
				l-2.8,6.7h-0.5l-2.8-6.3l0,0v3.1c-0.2,0.8-0.2,1.5,0,2.3c0,0.5,0.3,0.5,1.2,0.7v0.3h-3.2v-0.3c0.7-0.2,0.8-0.2,1-0.7
				s0.2-1.3,0.2-2.5v-2.4c0.2-1.9,0-2-1-2v-0.5h2.5l2.7,5.8l2.6-5.8L93.5,92.1z"/>
			<path class="st5" d="M95.7,94.1c0-1.4-0.2-1.5-1.2-1.5v-0.5h6c0,0.3,0.1,1.1,0.1,2h-0.5c-0.1-0.6-0.1-1-0.5-1.1s-0.4-0.4-1.3-0.4
				h-0.5c-0.5,0-0.5,0-0.5,0.4v2.8h0.9c1.1,0,1.1-0.2,1.3-1.2h0.5v2.8h-0.5c-0.2-1-0.2-1-1.3-1h-0.9v2c0,1,0,1.2,0.4,1.4h1
				c0.6,0,1.3-0.1,1.4-0.5s0.5-0.6,0.7-1.3l0.5,0.2c-0.2,0.5-0.3,1.8-0.5,2.1h-6.5v-0.1c1.2-0.2,1.4-0.2,1.4-1.7V94.1L95.7,94.1z"/>
			<path class="st5" d="M109.6,100.7h-0.8l-5.2-6.5l0,0v5.3c0.2,0.4,0.5,0.5,1.4,0.7v0.3h-3.2v-0.3c0.5-0.2,0.8-0.3,1-0.7
				s0.2-1.1,0.2-2.5v-2.6c0-0.8,0-1.2-0.4-1.5s-0.5-0.3-1.1-0.3v-0.5h2.3l5,5.8h0.1v-2.2c0-1.5-0.1-2.1-0.1-2.5s-0.5-0.6-1.4-0.6
				v-0.5h3.4v0.5c-0.7,0-1,0.1-1.2,0.6C109.6,93.2,109.6,100.7,109.6,100.7z"/>
			<path class="st5" d="M114.7,98c0.2,0.7,1,2.2,2.2,2.2s1.3-0.7,1.3-1.5s-0.3-1.2-1.3-1.7h-0.3c-1.2-0.5-2-1.2-2-2.5
				c0.1-1.4,1.3-2.6,2.7-2.5h0.1c0.4,0,0.9,0,1.3,0.2h0.5c0,0.5,0.2,1,0.3,1.9H119c-0.3-0.8-0.6-1.6-1.8-1.6c-0.5-0.1-1,0.3-1.1,0.9
				c0,0.1,0,0.1,0,0.2c0,0.7,0.3,1.2,1.3,1.7h0.5c1.1,0.3,1.9,1.3,2,2.5c0,1.5-1.3,2.7-3.2,2.7c-0.4,0.1-0.9,0-1.3-0.2
				c-0.3-0.1-0.7-0.1-0.8-0.3c-0.1-0.7-0.2-1.3-0.4-2l0.5-0.2L114.7,98z"/>
			<path class="st5" d="M130.2,95.7v-1.6c0-1.4-0.2-1.5-1.2-1.5v-0.5h4v0.5c-1.2,0-1.2,0.1-1.2,1.5v4.4c0,1.5,0,1.5,1,1.7v0.3h-4
				v-0.3c1.2-0.2,1.4-0.2,1.4-1.7v-2.1h-3.7v2.1c0,1.5,0,1.5,1,1.7v0.3h-3.8v-0.3c1-0.2,1.2-0.2,1.2-1.7v-4.4c0-1.4-0.2-1.5-1.2-1.5
				v-0.5h3.8v0.5c-1,0-1,0.1-1,1.5v1.6L130.2,95.7z"/>
			<path class="st5" d="M138.3,91.9c2.3,0,4.1,1.8,4.1,4.1c0,0.1,0,0.1,0,0.2c0.1,2.4-1.7,4.4-4.1,4.5c-0.1,0-0.3,0-0.4,0
				c-2.2,0.1-4-1.7-4.1-3.9c0-0.1,0-0.3,0-0.4c-0.1-2.4,1.7-4.4,4.1-4.5C138,91.9,138.2,91.9,138.3,91.9z M138.3,100.2
				c1.3,0,2.3-1.2,2.3-3.7s-1-3.9-2.7-3.9s-2.3,1.3-2.3,3.4S136.6,100.2,138.3,100.2z"/>
			<path class="st5" d="M150.7,94.4c-0.2-1.1-1.2-1.9-2.3-1.8c-2,0-3,1.6-3,3.6s1.2,4,3,4s2-0.8,2.6-2.2l0.4,0.2
				c-0.2,0.8-0.4,1.5-0.7,2.2c-0.8,0.2-1.5,0.3-2.3,0.3c-3.5,0-4.8-2.2-4.8-4.3s2-4.5,5-4.5c0.8,0,1.5,0.1,2.3,0.3
				c0.1,0.7,0.2,1.5,0.3,2.2H150.7z"/>
			<path class="st5" d="M154.7,98.5c0,1.5,0.2,1.5,1.2,1.7v0.3H152v-0.3c1-0.2,1-0.2,1-1.7v-4.4c0-1.4,0-1.5-1-1.5v-0.5h3.9v0.5
				c-1,0-1.2,0.1-1.2,1.5v2.1c1-0.9,2-1.9,2.8-3c0.3-0.5,0.3-0.6,0-0.6H157v-0.5h3.3v0.5c-0.8,0-1,0-2,0.8c-0.6,0.8-1.3,1.5-2.1,2.1
				c1,1.4,2,2.5,2.8,3.7c0.4,0.5,0.9,0.8,1.5,1v0.3h-2.7c-0.9-1.5-1.9-2.8-3.1-4.1l0,0V98.5z"/>
			<path class="st5" d="M162,94.1c0-1.4-0.2-1.5-1-1.5v-0.5h6c0,0.7,0,1.3,0.1,2h-0.5c-0.1-0.6-0.3-1-0.5-1.1s-0.6-0.4-1.5-0.4h-0.5
				c-0.5,0-0.5,0-0.5,0.4v2.8h1c1.2,0,1.2-0.2,1.4-1.2h0.3v2.8H166c-0.2-1-0.2-1-1.4-1h-1v2c0,1,0,1.2,0.4,1.4h1.1
				c0.5,0,1.1-0.1,1.5-0.5c0.2-0.1,0.4-0.6,0.7-1.3l0.3,0.2c0,0.5-0.3,1.8-0.3,2.1h-6.5v-0.1c1-0.2,1.2-0.2,1.2-1.7V94.1L162,94.1z"
				/>
			<path class="st5" d="M172.6,98.5c0,1.5,0.2,1.5,1.3,1.7v0.3h-4.1v-0.3c1-0.2,1.1-0.2,1.1-1.7v-1.1c0-0.2,0-0.5-0.1-0.7l-1.7-3.1
				c-0.6-1-0.6-1-1.3-1v-0.5h3.5v0.5h-0.5c-0.4,0-0.4,0.1-0.2,0.6s1.2,2,1.7,2.8c0.5-0.9,0.9-1.8,1.3-2.8c0.2-0.5,0.2-0.6-0.3-0.6
				h-0.5v-0.5h3v0.5c-0.7,0-0.9,0.1-1.5,1s-0.9,1.5-1.4,2.6c-0.2,0.3-0.3,0.6-0.3,1V98.5z"/>
			<path class="st5" d="M49.4,114.4h0.3c0.5,0,0.5-0.1,0.4-0.8s-0.4-1-0.7-1.5h-2.1c-0.2,0.5-0.4,1-0.5,1.5
				c-0.4,0.7-0.2,0.8,0.3,0.8h0.3v0.5h-3v-0.5c0.9,0,1-0.1,1.5-1.3l2.7-6.6l0.6-0.2l0.9,2.5c0.5,1.5,1,3,1.5,4.3s0.6,1.3,1.5,1.3
				v0.5h-3.7V114.4z M47.4,111.5h1.8l-0.9-2.7l0,0L47.4,111.5z"/>
			<path class="st5" d="M53.9,112.5c0.2,0.6,1,2.1,2.3,2.1c0.7,0,1.3-0.6,1.3-1.3c0-0.1,0-0.1,0-0.2c0-0.8-0.5-1.3-1.5-1.6l-0.3-0.2
				c-1-0.5-2-1.2-2-2.5c0.1-1.5,1.4-2.6,2.9-2.5h0.1c0.4,0,0.8,0.1,1.2,0.2l0.5,0.2c0.1,0.5,0.1,1,0.3,1.8h-0.5
				c-0.3-0.7-0.7-1.7-1.8-1.7c-0.7,0.1-1.2,0.6-1.2,1.3s0.5,1.2,1.3,1.5l0.5,0.2c1.2,0.4,2,1.5,2,2.7c0,1.5-1.1,2.6-3.1,2.6
				l-1.3-0.2l-0.7-0.3c-0.2-0.6-0.4-1.3-0.5-2L53.9,112.5z"/>
			<path class="st5" d="M60.4,112.5c0.2,1.1,1.2,2,2.3,2.1c0.7,0,1.3-0.6,1.3-1.3c0-0.1,0-0.1,0-0.2c0-0.8-0.5-1.3-1.5-1.6l-0.3-0.2
				c-1-0.5-2-1.2-2-2.5c0.1-1.4,1.3-2.6,2.7-2.5H63c0.4,0,0.9,0,1.3,0.2l0.5,0.2c0.1,0.6,0.2,1.2,0.4,1.8h-0.5
				c-0.4-0.7-0.7-1.7-1.9-1.7c-0.6,0.1-1.1,0.7-1.1,1.3c0,0.7,0.5,1.2,1.3,1.5l0.5,0.2c1.2,0.4,2,1.5,2,2.7c0,1.5-1.2,2.6-3.2,2.6
				l-1.3-0.2l-0.6-0.3c-0.3-0.6-0.5-1.3-0.5-2L60.4,112.5z"/>
			<path class="st5" d="M71,106.3c2.2-0.1,4,1.7,4.1,3.9c0,0.1,0,0.3,0,0.4c0.1,2.4-1.7,4.4-4.1,4.5c-0.1,0-0.3,0-0.4,0
				c-2.3,0.1-4.2-1.6-4.3-3.9c0-0.1,0-0.3,0-0.4c0-2.5,2-4.5,4.5-4.5C70.9,106.3,70.9,106.3,71,106.3z M71,114.6
				c1.3,0,2.1-1.1,2.1-3.6s-0.8-4.2-2.5-4.2s-2.3,1.3-2.3,3.7S69.1,114.6,71,114.6z"/>
			<path class="st5" d="M83.2,108.8c0-1.2-1-2.1-2.2-2h-0.1c-2,0-2.8,1.8-2.8,3.7s1.2,4.1,2.8,4.1s2-0.8,2.7-2.1h0.5
				c-0.2,0.8-0.4,1.5-0.7,2.3c-0.8,0.1-1.7,0.2-2.5,0.3c-3.5,0-4.8-2.1-4.8-4.3s2-4.5,5.1-4.5c0.8,0,1.6,0.1,2.4,0.4
				c0,0.6,0.1,1.3,0.1,1.9L83.2,108.8L83.2,108.8z"/>
			<path class="st5" d="M87.4,113c0,1.3,0.1,1.4,1.1,1.4v0.5h-3.8v-0.5c0.9,0,1-0.1,1-1.4v-4.5c0-1.5-0.1-1.5-1-1.7v-0.3h3.8v0.3
				c-1,0.2-1.1,0.2-1.1,1.7V113z"/>
			<path class="st5" d="M93.8,114.4h0.4c0.5,0,0.5-0.1,0.3-0.8c-0.3-0.5-0.5-1-0.7-1.5h-2.3c-0.1,0.5-0.3,1-0.5,1.5
				c-0.1,0.7-0.1,0.8,0.5,0.8h0.4v0.5h-3v-0.5c0.8,0,1-0.1,1.5-1.3l2.5-6.6l0.6-0.2l1,2.5c0.5,1.5,1,3,1.5,4.3s0.7,1.3,1.3,1.3v0.5
				h-3.5V114.4z M91.7,111.5h2l-1-2.7l0,0L91.7,111.5z"/>
			<path class="st5" d="M102.1,113c0,1.3,0.2,1.4,1.4,1.4v0.5h-4.2v-0.5c1.2,0,1.2-0.1,1.2-1.4v-6h-0.4c-0.9,0-1.3,0.2-1.4,0.5
				c-0.3,0.3-0.5,0.7-0.5,1.1h-0.5c0-0.9,0.1-1.8,0.1-2.4H98c0.2,0.2,0.5,0.3,0.8,0.3h5.2c0.2,0,0.4-0.1,0.6-0.3h0.4
				c0,0.8,0,1.6,0.1,2.4h-0.5c-0.1-0.5-0.2-0.9-0.5-1.3c-0.4-0.2-0.8-0.3-1.3-0.3h-0.7C102.1,107,102.1,113,102.1,113z"/>
			<path class="st5" d="M108.6,113c0,1.3,0,1.4,1,1.4v0.5h-3.8v-0.5c1,0,1-0.1,1-1.4v-4.5c0-1.5,0-1.5-1-1.7v-0.3h3.8v0.3
				c-1,0.2-1,0.2-1,1.7V113z"/>
			<path class="st5" d="M115.1,106.3c2.2-0.1,4,1.7,4.1,3.9c0,0.1,0,0.3,0,0.4c0.1,2.4-1.7,4.4-4.1,4.5c-0.1,0-0.3,0-0.4,0
				c-2.2,0.1-4-1.7-4.1-3.9c0-0.1,0-0.3,0-0.4c-0.1-2.4,1.7-4.4,4.1-4.5C114.8,106.3,115,106.3,115.1,106.3z M115.1,114.6
				c1.3,0,2.3-1.1,2.3-3.6s-1-4.2-2.7-4.2s-2.3,1.3-2.3,3.7S113.4,114.6,115.1,114.6z"/>
			<path class="st5" d="M128,114.9h-0.8l-5.2-6.3l0,0v5.2c0.2,0.5,0.5,0.6,1.4,0.6v0.5H120v-0.5c0.7,0,1-0.1,1.2-0.6v-5
				c0.1-0.5,0-1-0.2-1.5c-0.3-0.3-0.5-0.3-1.1-0.5v-0.3h2.3l5,5.8l0,0v-4.8c-0.2-0.3-0.5-0.5-1.4-0.7v-0.3h3.4v0.3
				c-0.5,0.1-0.9,0.3-1.2,0.7V114.9L128,114.9z"/>
			<path class="st5" d="M111.6,92.2c0-0.4,0.3-0.7,0.7-0.8c0.4,0,0.4,0.5,0.4,0.8l-0.3,3.3c0,0.2,0,0.5-0.1,0.5s-0.4-0.3-0.4-0.5
				C111.9,95.5,111.6,92.2,111.6,92.2z"/>
		</g>
	</g>
</g>
</svg>
