<svg xmlns="http://www.w3.org/2000/svg" width="33.892" height="33.892" viewBox="0 0 33.892 33.892">
  <path id="phone-call" d="M36.96,32.711l-2.427-2.427a1.612,1.612,0,0,0-2.683.608,1.652,1.652,0,0,1-1.908,1.037,7.48,7.48,0,0,1-4.508-4.508,1.574,1.574,0,0,1,1.037-1.908,1.612,1.612,0,0,0,.608-2.683L24.653,20.4a1.723,1.723,0,0,0-2.337,0L20.671,22.05c-1.646,1.735.173,6.326,4.245,10.4s8.663,5.981,10.4,4.245l1.646-1.646A1.723,1.723,0,0,0,36.96,32.711ZM11.8,28.646A16.946,16.946,0,1,1,28.739,45.592,16.947,16.947,0,0,1,11.8,28.646Z" transform="translate(-11.8 -11.7)" fill="#1d1b1d"/>
</svg>
