<svg xmlns="http://www.w3.org/2000/svg" xmlns:xlink="http://www.w3.org/1999/xlink" viewBox="0 0 651.8 493.1">
  <defs>
    <radialGradient id="radial-gradient" cx="466.79" cy="172.32" r="25.74" gradientUnits="userSpaceOnUse">
      <stop offset="0" stop-color="#33353d"/>
      <stop offset="1" stop-color="#0f1016"/>
    </radialGradient>
    <radialGradient id="radial-gradient-2" cx="464.24" cy="155.73" r="24.04" xlink:href="#radial-gradient"/>
    <radialGradient id="radial-gradient-3" cx="539.43" cy="40.92" r="39.36" xlink:href="#radial-gradient"/>
    <linearGradient id="linear-gradient" x1="505.8" y1="24.06" x2="527.49" y2="24.06" gradientUnits="userSpaceOnUse">
      <stop offset="0"/>
      <stop offset="0.53" stop-color="#ccc"/>
      <stop offset="0.73" stop-color="#747474"/>
      <stop offset="1"/>
    </linearGradient>
    <radialGradient id="radial-gradient-4" cx="534.36" cy="24.89" r="19.91" xlink:href="#radial-gradient"/>
  </defs>
  <g id="Layer_2" data-name="Layer 2">
    <g id="Layer_3" data-name="Layer 3">
      <path d="M493.1,196.9l6.7,6.5-8,76.1s-18-7.7-19-8.8-15.1-20.6-15.1-20.6l5.1-17.1,15.3-23.1Z" fill="#15171b"/>
      <polygon points="473 320.3 494.9 295 494.9 300.8 472 329.6 473 320.3" fill="#1a1b22"/>
      <path d="M504.7,237.3s3.2,38.9-1.3,47.7l-5.9,10.2-3.4-4.5-10.5-31Z" fill="#cdcdd1"/>
      <path d="M373.6,392.7l-7.2,10s-12.6,7.5-16.8,8.6c0,0-8.1,4.8-3.9,11.5,0,0,6.1,7.5,13.4,8.1,0,0,17.6-1.4,23.7-12l17.6-26.2Z" fill="#2c313c"/>
      <path d="M402.1,303.1l-10.9,13.1s-3.9,6.7-3.6,11.7l-6.4,17.9s-13.7,44.5-10.6,45.7c0,0,1.1,6.2,3.6,7.6,0,0,22.6,1.6,26.2-4l9.8-22.8a48.7,48.7,0,0,0,0-6.7s8.6-.6,7.2-6.7l-1.4-5.6s9.8-9.2,9.8-17.3c0,0,11.5-10.3,9.8-16.8C435.6,319.2,409.1,300.5,402.1,303.1Z" fill="#eaeaf4"/>
      <path d="M417.2,266.8l-16.8,34a3.5,3.5,0,0,0,1.7,2.3s2.2-1.5,14,4.2l20.5,13.2,5.8,4.9,2.8-3.8s-3.6-15.8-3.8-16.5-9.3-23.1-9.3-23.1L422,274.2Z" fill="#21212c"/>
      <path d="M480.7,211.8s-26.1,10-35.5-7.1l-21.2,11-1.2,16.2,7.6,18.6,5.3,20.8,5.3,11.8,7.3,10.9h4.2v2.1s11.9,3,12.5,3.7l-.2-5.6-2.8-1.8s1.3-6.5,2.4-7.4l1.1-.8s7.8,8.3,13.6,9.1c0,0,13.1,0,15-2.6,0,0,2.9-4.7-2.3-11.2l-9.5-8.5s-4.7-11-11.6-13.1l-4.8-1.4V246s10.2,7.5,13.4,2.5l9.1-19.7Z" fill="#cdcdd1"/>
      <path d="M436.6,320.5l-.9-11.2s18-14.2,31-2.6l5.3,9.7v13.2s7.1-3.3,7.7,0l1.3,14.3-3.9,4.5-2.6-.8s-4.9-.8-2.8,5.1c0,0,2.3,3.5,4.4,3.8l-.9,3.5s-19.9-1.4-28.5-12.9a13.4,13.4,0,0,1-2.9-7.5l-1.4-14.2Z" fill="#1a1c1e"/>
      <path d="M451.1,334.4s-3.5,7.4-.5,8.9c0,0,3.3,2.5,3,4.3,0,0,3.4,11,6.5,1.5l1,7.7s-14.6-5.5-16.1-12.5Z" fill="#2d2d2e"/>
      <path d="M410.5,203.4s-1.6,3.7.9,11.2l1,6.3.7,12.9,2.4,11.1,1,19.8,2.5,5-1.4,10.2s-1.3,2.1,3.2,5.1l12,12.9,1.7,2.9s14.2-4.3,13.8-6.8l-4.2-8.4-4.3-13.9-1.7-3.7s1.2-4.7,1.4-5.1,1.4-6.6,1.1-7.4-3.6-8-3.6-8l-2.4-4s-.3-2.8-1.1-3.7l-4.4-3.7v-5.6l-3.6-4,1.6-3.7,1.4-6.7,2.6-1.2,10.2-7.6,3.9-2.6s-7.1-4.9-6.6-19.1l-.6-15.4-16.9,11.3S408.9,188.5,410.5,203.4Z" fill="#15171b"/>
      <path d="M415.9,253.9l9.4,3.7,3,1.6s8.6-1.3,11.9,0l5,1.7,12.5-10.8,1.2,9-7.3,6.7-1.3,2.6-9.5-1.6s-6.3,3-8,2.5l-3.7-1.5s-10.7-.1-12.6-3.1Z" fill="#3e647f"/>
      <path d="M418,277.1s-1.7,4.2.6,6l4.2,4.1h6.3s11.6,1.9,15-1.6l18.3-6.8v-6.3l-3.5-4.5-17.5,8.8a46.4,46.4,0,0,1-14.1,1.4S420.1,279.5,418,277.1Z" fill="#3e647f"/>
      <path d="M383.4,339.6l-4.5,13.7.8,3.1s10.2,12.1,29,8.9h3.4s7.6-.9,5-7.9l-1.1-4.1-6.7-1.4L388,343.1Z" fill="#3e647f"/>
      <path d="M378.3,355.3l-1.8,7.8s8.7,14.1,26.4,6.8l4-3.7S382.4,366.4,378.3,355.3Z" fill="#33373a"/>
      <path d="M384.6,336.1s10,16.6,35.3,13l-3.9,4.2s-29.2-.7-32.6-13.7Z" fill="#181c1e"/>
      <path d="M378.3,355.3s6.5,15.8,31.9,10.3l1.9-.3s.5-1.2-3.3-.8c0,0-15.4,3.9-25.4-5.6,0,0-4.4-3.6-4.5-5.6Z" fill="#181c1e"/>
      <path d="M480.7,211.8s11.7-9.1,12.1-13.4h0l4.7,3.4-2.6,10-7.5,8.7-1.8.2Z" fill="none" stroke="#15171b" stroke-miterlimit="10"/>
      <path d="M439.9,182.8s-3.5,21.1,14.6,30.1c0,0,30.3,8,38.3-14.5h0l2.1-28.2Z" fill="#eaeaf4" opacity="0.9"/>
      <path d="M489.9,151.7s5.6-2.8,8.9-2.8c0,0,3.8-.7,4.7-1.7h6.1s7.8-6.3,12.6-4.1h0l-3.5,29.3-9.7,6-22.4-1.9v-5.3S493.6,164.9,489.9,151.7Z" fill="#15171b"/>
      <path d="M438,170.2s-3.7,9,1.9,12.6c0,0,20.1,16.3,34.6,7.5h0s21.3-17.7,22.3-20.1l-1.1-12.8-5.8-5.7Z" fill="url(#radial-gradient)"/>
      <path d="M458.9,136.3s-4.3-3.6-9.6,3.5l-4.1,8s-9.7,10.8-7.2,22.4c0,0,4.5,8.2,26.6,6.3,0,0,24.8-4.1,26.3-15.9l-1-8.9s2.6-5.2-2.5-12.1a15.2,15.2,0,0,0-15.7-4.2l-7.5.5S460.7,134,458.9,136.3Z" fill="url(#radial-gradient-2)"/>
      <path d="M454.5,176.5s.4-33.8,9.7-40.6l7.5-.5s-4.9,20-4.3,24.8h0l-1.7,13S458.9,177.8,454.5,176.5Z" fill="#cdcdd1"/>
      <path d="M448.3,242.3s6.4,1.3,7.2,0,3.3-3.7,6.9,0c0,0,4,1.5,4.4-1.6l1.1,4.6-2,.7-5.4,4.1Z" fill="#15171b"/>
      <path d="M478.1,275.6l-15.7-23.8s-4.5-5.1-5.4-3.9S467.9,267.9,478.1,275.6Z" fill="#15171b"/>
      <polygon points="465 299.8 474.5 290.8 466.8 280.7 458.9 286 462 292.4 465 299.8" fill="#21212c"/>
      <path d="M485.8,193.4s-10.3-.9-11.3-3.1a24.9,24.9,0,0,0-8.2-1.7s-7.7-.9-8.8-3c0,0-2.2-4.3,1.8-3.6H468l5.3,1.2s3.9.4-.9-1.3L462,177.5s-11.5-1.7-6-5.9h2s-.9-3.5,3.8-2.5l10.6,1s-10-4.8-9.6-8.3c0,0-.3-3.6,4.6-1.6l7.1,3.6,9.9,5.7,5.5,4.2s9.4.8,9.9-1.5c0,0-3-3.5-2-4.4s3.8-.5,4.6-1.5,3.4-.8,3.9,1.7l.6,8.5-5.1,3.4Z" fill="#f19938"/>
      <path d="M478.5,246.1s-2.8,6.3-2.4,9.8c0,0-.5,4.8-1.1,5.6s-1.7,3.3,1.1,3.3l3.8-1.7s5.7,5.3,6.7,9.9l4.6,11.4s5.5,3.5,2.9-5.8c0,0-4.6-13.2-4.4-14s7.6-.1,8.9-3.1c0,0,2.9-10.1,1.2-15.4,0,0-1.4-6.3-6.1-6.5,0,0-6.1-2.4-6.2,1.2v3.5l-4.1-3.1Z" fill="#f19938"/>
      <path d="M501.7,39.5s-1.6,17,1,22.9c0,0,.8,8.6,9.3,9.5l14.2-4.3-1.4-25.5-9.6-5.4Z" fill="#eaeaf4" opacity="0.8"/>
      <path d="M521.8,57.6s-2.4,9-.1,10h3.9s1.3,0,2.6,5c0,0,0,3.3,2,4.3,0,0,5.7,1.6,10.3,0l31.1-10.1s-4.4-15.1-3.2-22.1l-19.2-.6-15.8-7.4-7,5.3-1,13Z" fill="#f5be54"/>
      <path d="M530.5,52.4a8.2,8.2,0,0,1,3.8,2,2.3,2.3,0,0,1,.6,1.6c.1.8.4,1.9,1.9,1.2h0a2.9,2.9,0,0,0,1.8-1.8h0l.6-1.4h1.6c0,1.2-2.1,5.1-3.3,5.5h0c-.8.3-1.8.7-2.5.2s-1.2-1.4-1.6-1.6-3.4-4.7-3.4-4.7l-.8-1.4Z" fill="#ec682b"/>
      <path d="M527.2,53.4H530l.5-1c1.1-1.4,3.4-.2,3.4-.2,4.7,1,1.7-3,1.7-3-1.2-2.1-4.1.5-4.1.5s-2.1,1.7-2.3-.6,2.1-6.1,2.1-6.1,2.4-2.3,4.7.7c0,0,3.3,4.2,3,7.1a48.6,48.6,0,0,0,0,5.4h0s2.3-4.1,1.5-7.7l-4.6-7.2-4.3-.4-2.1,1.9-1.6,2.8-1.7,2.2,1,5.6" fill="#ec682b"/>
      <path d="M528.8,45s2.8-7.3,8-1.5c0,0,5.5,5.2,2.6,12L537.9,58a2.5,2.5,0,0,1-3.5.8,3.4,3.4,0,0,1-.7-1.7,3.8,3.8,0,0,0-1.3-2.4c-1.1-.9-2.4-1.8-2.9-1.3h-2.3l-.5,3.1,4.1,7.3L543,71.1s14.4.6,13-11.1l-6.8-15.9-15.8-7.4-7,5.3s-2,4.7,1.2,8.2Z" fill="#ec9d3b"/>
      <path d="M523.8,59.5v1.6a7.5,7.5,0,0,0,5.9,5.9l9.3,1.4-3.4-3.2-6.4-1.4s-2.8-4.1-2.8-4.3-2-1-2-1Z" fill="#ec9d3b"/>
      <path d="M537.2,40.5s11.1,11.5,2.2,18.4c0,0-4.5,3.2-.6,5.7,0,0,3,7,7.5,2.1,0,0,6.7-7.7,3-14.3C549.3,52.4,542.3,35.3,537.2,40.5Z" fill="#ec682b"/>
      <path d="M546.3,63.8s2.3-6.7,6.6-7.9c0,0,6.2-2.8,7.3,0,0,0,4.3,5.3,4.4,0,0,0,2.3-3.5,3.5-2.3l1.2,1.2s-1.7-6-.9-10.1h0L557,43l-9.9,3-.8,17.8" fill="#493d36"/>
      <path d="M575.9,40.3l.5-.4.8-15.6a34.2,34.2,0,0,0-4.9-8S565.8,5.7,561.9,4.5A32.2,32.2,0,0,0,540.5.6S528.2-3.3,516,8.3c0,0-10.8,10.4-12,16.7l-.9,6L502,33a13.5,13.5,0,0,0,1.8,10.1,10.4,10.4,0,0,0,2.7,2.9,3.7,3.7,0,0,0,3.1,3.2h3.9v-3l7.1-5.1,2.4,3.6-.9,11,7.6,10.4h4.1s.8,11.4,2.1,14.7c0,0,2.4,3.6,3.1-2.6V65.9l6.7-.7s3.7-8.4,3.6-12.8V46.8s14.8-3.9,21.3-1.5c0,0,.2,4.8-1.6,6.7l.3,2.8s5.1-4.3,4.9-6.3V45.1l3-2.2S576.4,39.9,575.9,40.3ZM542.3,62.4H530.7l-4-5.9a2.9,2.9,0,0,0,.6-4.4c-3.3-10.7,3.4-11.7,3.4-11.7,9.7-3.2,15.5,9.5,15.5,9.5C547.1,53.6,542.3,62.4,542.3,62.4Zm33.5-22.1Z" fill="url(#radial-gradient-3)"/>
      <path d="M534,49.8s1.6-.4,2,.5,1,2.2-1,1.6C535,51.9,532.9,51.2,534,49.8Z" fill="#db4a1d"/>
      <path d="M531.2,49s-2.3.2,0-5c0,0,2.5-2.5,4.4.9,0,0,1.9,3.7,1.6,5.9,0,0-1.6-2.7-2.8-2.6A5.6,5.6,0,0,0,531.2,49Z" fill="#ec682b"/>
      <path d="M507,70s-9.9-7.4-5.3-30.5l4.3-2.8,13.7,3.7,3.3,4.3-.9,11,.9,1.5Z" fill="#eaeaf4" opacity="0.9"/>
      <path d="M532,47.8s-.6-3.4,3.5-.5a2.6,2.6,0,0,0-.8-2.8s-3.1-1.7-3.4,1S531.3,47.6,532,47.8Z" fill="#db4a1d"/>
      <path d="M522.6,65.5s.6-1.5,2.3-.4a3.3,3.3,0,0,1,1.3,2.5S523.1,66.6,522.6,65.5Z" fill="#ec9d3b"/>
      <path d="M506,29.8c3.4-2.2,6.9-4.2,10.4-6.2a109.6,109.6,0,0,1,10.9-5.3c-3.4,2.2-6.9,4.3-10.4,6.2A109.6,109.6,0,0,1,506,29.8Z" fill="url(#linear-gradient)"/>
      <path d="M582,469.5v5.4s11.2,6.9,23.1,9.3c0,0,41.8,7.6,46.7,0v-5.4s-8.5-11.7-9.8-12.5-21.7-1.8-21.7-1.8,8.2,3.9,8.6,5.9c0,0,.5,4.3-9.3,3.9,0,0-17,.4-14-6.3L590,464.5h-6.5Z" fill="#eaeaf4"/>
      <path d="M537.3,14.4S504.2,28.9,503.1,31s-3.3,8.3,3.4,15l37.3-17.8s6-2.1,3.3-7.1C547.1,21.1,542.2,10.3,537.3,14.4Z" fill="url(#radial-gradient-4)"/>
      <path d="M595.2,448.5h-8.4s-8.7-.1-9.1,6.2v6.9s.6,5.1,14.6,7.7c0,0,8.8.8,13.3-1.3,0,0,14.7-3.2,22.7-.9,0,0,12.5,2.1,16-2.6,0,0,5.8-8.6-1.8-14.2,0,0-2.5-4.1,0-4.3l-16.6-3.7-28.5,3.4Z" fill="#2c313c"/>
      <path d="M457.3,464.5l-4.8,4.8s-8.5,0-14.3,3.3c0,0-10.1,1.7-8,7.1,0,0-4.1,3,2.2,4.5,0,0,19.6,2.8,23.8,6.3l3.2,2.6,12.6-3s-1.7-3.7,0-4.4c0,0,21.1.9,22.7,4.4,0,0,4.3.4,4.3-7.4l5.5-3.1-36-11.4Z" fill="#2c313c"/>
      <path d="M533.7,94.6s-12.1,45.3-13,58.6l-4.1,17.7-14.8,9s-16-2.7-16,13.5l11.7,8.4-6.1,13.4s-15.1,11.5-15.1,20.5v4.6a14.1,14.1,0,0,1,0,7.2s3.7-4.4,6.2-4.1l5,.9s-.9-4.8,1.5-4.9c0,0,7.9,0,9,1.4l4.6-.8s7.8-10.5,10.8-9.4l.3,4.8s2.5,2.4,4.8,2.1c0,0,56.6,0,66.7-1.1l24.5-10.7s4.5-12.8,0-20c0,0-4.3-1.6-4.3-24.4,0,0-4.1-55.1-6.7-68.5L595,95.1l-7-10.2s-2.3-5.8-4.1-7.3l-2.4-8.7Z" fill="#eaeaf4"/>
      <path d="M530.2,76.9s1.8,5,5.4,6.9c0,0-1,9.3-1.9,10.8s1.5,1.1,5.7,0c0,0,12.5-4.3,13.6-8.1L564.1,81l16.4-9.1s2.6-5.3,0-8.1c0,0-8.9-3.7-8.9-.3v3.3L539,78.2Z" fill="#050712"/>
      <path d="M545.4,92.2s-17.7,26.2-18.4,28.9l5-20s4.3-5.3,7.4-6.5Z" fill="#050712"/>
      <path d="M530.2,131.4s-3.4,3.9-3.2,8v6l-4.4,8,5.9-6.3,3.6-5.5Z" fill="#050712"/>
      <path d="M539,103.5s7.2-11.3,14.5-10L548.3,96s10.2-2.4,18.9,3.8c0,0,8.1,6.8,10.8,10.8,0,0,5.5,9,6.3,10.5H586V109.5s-11.9-12.4-14.4-14.4c0,0-9.3-5.1-14.6-2.9,0,0,.8-3.5,3.5-4.3,0,0,7.1-3.7,15.5,4.3l8.6,9.8s3.2,2.1,3.5,8.2l1.1,22.3-1,8.3a21.1,21.1,0,0,0-.9,5l-.2,23.9-2.2,2.6s1.9,11.5,1.4,13.8l-3.8,13.6s-1.7,4.8,2.4,11.4l-.4,16.7-5.3-.2.4-10.9s-2.6-5.8,0-10.2c0,0,3-4.6.8-14.4L578,184s2.4-6.8,2.1-20.8c0,0,4.2-10.4,4.8-13.2l.8-13.1s-6.8-12.2-11.1-20.1c0,0-11.5-16.6-27.3-15.2l-6.2,3.9v-2.3Z" fill="#050712"/>
      <path d="M557.8,106.6l-10.2,20.2s-9.6,13.6-11.4,17.6c0,0-4.9,9.1-8,10.9,0,0-5.6,3.5-5.6,8.1v5.1l-2.5,1.3a5.4,5.4,0,0,0-3.5,2.8v2.9h-4.4l-12.3,11.3-1.5,4.9-1-2.4-1.8-1.8-1.7,1.1-1.8-.5v-1.7l5.4-6.6s-8.6,1.9-10,5.9c0,0-2.5,4.3-1.7,7.7l7,5,.3-1.5,8.2-1.3,1.8-2.9s10.9-6.9,11.6-11.5l2.8-1.1.5-4s15.1-16.6,21-24.4c0,0,12.7-19,13.1-21.4,0,0,10.1-15.1,12-16C564.1,114.3,563.1,108.2,557.8,106.6Z" fill="#050712"/>
      <path d="M569.1,121.1l-22.7,32.3s-22.2,31.5-33.2,39.6c0,0-6.7,5.5-8,7.6l-5.4,1.6v1.2l8.3,1.3,6.6-1.7,4.6-4.6L540,175.1l18.2-24.6,15.1-22.7Z" fill="#050712"/>
      <path d="M491.4,215.2v6.1s-3.8-.4-4.6,1.9l-.6,3.3s-3.2-.3-3.7,1.3c0,0-2.1,6-.7,7.2l7.8,1.9s-1.6-4.7-.4-5.4l2.2-1s-.1-2.2,1.4-2.1.3-3.9,1.1-4.7,3.1-7.6,5.3-7.7c0,0,1.5-11,4.7-11.9l6.1-.7,2.2,2.8-3.5,5.6a56.1,56.1,0,0,1-2.1,7.7s-8,14.2-8.6,15v6.3s-8.6-3.3-10.5,0c0,0-.9,2.1,0,3.5l-5-.9-6.2,4.1.3-5.8s-2.5-8.4,3.6-15.2C480.2,226.5,489.3,216.5,491.4,215.2Z" fill="#050712"/>
      <path d="M515.1,207.9s.2,7.1-.5,7.7-4.1,2.2-2.4,3.3c0,0,2.2,1.7,1.3,3.8l-2.8,5.5H518l1.3-2.7s.3-7-.6-10.5c0,0,11.5-3.2,15.1-10.3l2.7-5.2s11.4-7.2,13.1-13.5l1-4.2L561,169.2s3-11.7,4.3-13.9c0,0,8.4-10.5,11.2-10.3h1.7l-.9,8.4s-8.3,2.9-9.6,5.9c0,0-6.8,9.7-6.8,14l-.3,5.2s-2.8,2.3-2.6,4.1l-6.3,4.6-2,4.5-7.5,7.7-1.8,6.4-14,8.9-.5,4.8L522,225l-2.3,3.2,2.9-.4s1.7-9,9-11.7l2-4.5,7.5-4.6-.4,3s-3.6,3.3-4.6,6.7c0,0-7.2,8.8-6.9,10.5H539s1.5-8.3,4.4-11.8l9.2-9.7a17.3,17.3,0,0,1,0,5.3c-.3,1-4,6.9-4,6.9l-1.1,10.8,9.9-1-.8-12.7s6.8-15.5,7.5-18.8l-8.7,7.1a61.2,61.2,0,0,1,1.6-10.7c.3-1,6.5-10.9,6.5-10.9l15.4-18.9,1.8-1.1,2.6-9.3L576,135.2s-5.3,4-6.5,9.2c0,0-1.2,3.7-6.7,12.6l-14.6,20.8s-5,4.5-6.4,7.3l-8.9,10.2-4.2,4.5S522.7,209,515.1,207.9Z" fill="#050712"/>
      <path d="M572.7,173.5l-7.6,9.3v12.6s6.7-8.4,8.2-9Z" fill="#050712"/>
      <path d="M572.8,192.5l-7,8-.7,28.3,6.2-.6S574.2,200.1,572.8,192.5Z" fill="#050712"/>
      <path d="M596.8,187.8s-3.5,7.1-2.1,14.3l4.2,13.2.9,9.7,1.2,3.9,5.5-1.9-.3-4.4-4.2-4.8s1.8-7.7.3-10.8C602.3,207,595.6,194.3,596.8,187.8Z" fill="#050712"/>
      <path d="M604.4,204.3l-.5,7.1s4.5,5.7,5.4,9.1c0,0,1.1-7.5,0-8.9Z" fill="#050712"/>
      <path d="M598.8,157s-2.8,18.5-.8,23.9l5.9,17.5.4-16.4S598.7,168.9,598.8,157Z" fill="#050712"/>
      <path d="M591.1,208.5s.6,9.2,2.4,12c0,0,4.1,6.6,3.8,8l-5.8.3-3.4-12.1s-.7-8.4,0-11.5l-1.6-9.8s-.4-6.9,2.7-10.9c0,0,3.9-9.4,3.1-14.7,0,0-1.1-3.4-.4-11.1,0,0,2-10.2,2-16.3l-.6-20.6s-4.9-18.9-6.9-23.4c0,0-7.5-9.2-12-12.7,0,0-4.5-5.2-10.3-1.7L561,85.8l-8,.7,14.1-7.9,4.5.7s10.9,7,16,15.8l5.1,18.4,2,3-2.3-17.2a45,45,0,0,0-1.4-4.6c-.3-.4-12.3-18.3-18.3-18.4l5.3-4.4,3.5-3,1.3,4.8-3.6.2s-.7.8.6,2.4l5.3,6.6,6.2,8.8s3.3,5,3.2,10.4l1.3,14.1.6,10.7a12.7,12.7,0,0,0-1.8,5.6s-1.1,4.9,1.4,14c0,0,2.2,12.1-.4,24L592,182.8l-.4,12.6s-1.2,7.7-2,9.3C589.6,204.7,588,205.5,591.1,208.5Z" fill="#050712"/>
      <path d="M502.4,275.8l-16,41.3s-1.5,2.2,0,5.6c0,0-16.8,16.2-13.4,70l-10.8,55s-2.6,4.8,0,6.7l-6,12.3-3.7,2.6,32.4,5.2s20.4,3.7,17.5,6l-3.4,2.2,5,1.5s2.6-1.9,2.3-9,2.4-20.1,2.4-20.1l7.3-29.5V411.3l6.1-26.2s5-13.7,6.1-20.9v-7.3s18.2-15.3,20.1-21.8c0,0,3.9-1.3,5,5.4l3.4,18.4,7.3,17.3s10.6,24.5,14.2,29.6c0,0,6.7,26.2,15.9,36.2a41.3,41.3,0,0,1,1.1,6.5s21.7-1.2,31.8-4.1c0,0,13.4.1,15.5,1.6l-6.7-26.4-17.2-54.7s-12.8-31.6-16.5-31.4c0,0-5-2.8-1.9-7.7,0,0,1.5.4-.5-10.4l-3.2-28.8,2.4-2.2-.5-8.8s4.2-1.1,5.5-4.1c0,0,9.7-26.4,0-43.3l-71.8-1.7-21.4,1.7-6,9.1S505,270.3,502.4,275.8Z" fill="#0f1016"/>
      <polygon points="547 104.1 530.2 131.4 532.1 115 533.7 117.8 538.6 113 541.1 105.5 543.8 106.6 547 104.1" fill="#050712"/>
      <path d="M344.5,432.5s-5.8,6.5-1.3,7.6h18.1l15.2-14.9-24.6-.9Z" fill="#eaeaf4"/>
      <path d="M409.1,373.8s2.7.3,2.3,4.8c0,0-1.2,6.2-5,8.8l-3.5,2.3Z" fill="#2c313c"/>
      <path d="M435.7,309.3s-3.3-4.8-3.3-6.5c0,0,7.9-9,15.9-8.8,0,0,16.2,1.9,19.2,5.8l2.3,1.8,6.5,1.2L472,316.4l-5.3-9.7s-12.1-3.4-20-1.5Z" fill="#3d1d26"/>
      <path d="M460.1,349.1s1.2-7.6-2-12.3l-.6-5.7,12.3-11.8,2.2,10.3V316.4s-1-3-4.5,0l-13.1,11.7-.8,8s2.8,3.9,3.4,7.2Z" fill="#eaeaf4"/>
      <path d="M359,442.9l-5.8,7.2s-11,8.4-10.6,16.4c0,0,.5,6.7,6.1,5.8,0,0,8.2-3.8,8.7-11.4,0,0,.2-7.1-2-8.9l4.6-6.9Z" fill="#9fa09a"/>
      <path d="M354.5,454.2s2.2,9.7-3.2,14.5c0,0-4.7,4.9-8.2,0,0,0,1.8,7.7,10.1.4,0,0,6-5.9,4.1-11.5Z" fill="#84827e"/>
      <circle cx="387.5" cy="448.1" r="9.9" fill="#161517"/>
      <polygon points="452 344.4 359 442.9 360 445.1 453.6 347.6 453.4 346 452 344.4" fill="#1a1b22"/>
    </g>
    <g id="Layer_2-2" data-name="Layer 2">
      <polygon points="119.1 324.8 133.4 316.4 123 312.5 115.2 317.6 119.1 324.8" fill="#231a1b"/>
      <path d="M119.1,324.8l14.3-8.4,5.5,10.9s-2.7-.8-9.2.3A10.2,10.2,0,0,1,119.1,324.8Z" fill="#cdcdd1"/>
      <path d="M127.1,316.4s-16.1.1-8,8.4c0,0,11.5-2.2,10.6,2.8,0,0,2.5,5.6-4.7,8.4l-5.9,4.2s.2,3.4-2.3,4.9L106,346.3l-7.3-4.7,15.7-43,12.2,6.7Z" fill="#4d1518"/>
      <path d="M21.4,412.7s-2.6,5.6-4.3,6.9c0,0-4.2,5.4-9.2,7.4,0,0-9.5,3.6-7.7,10.6,0,0-1.5,6.4,5.5,7.2l5,2.1s1.3-2.2,4.5-1.1L23,449s3.3,1.8,6.3-2.9c0,0,3.3-9.9,5.8-11.9,0,0,9.5-7.2,10.9-12,0,0,4.9-7.6-9.4-12.1C36.6,410.1,23.1,404.1,21.4,412.7Z" fill="#2c313c"/>
      <path d="M77.8,203.4s-3.9,4.5-2.8,6.7c0,0-15,12.3-14.5,18.4,0,0-2.8,5.6,0,7.9l-1.2,6.7s1.2,10,4,11.7c0,0-3.9,12.5-2.5,16.2a8.5,8.5,0,0,1,1.1,5s-.8,24.8.6,29l-5.3,10.1s-6.2,2.5-6.7,14.7c0,0-4.8,11.8-7.3,16,0,0-10,10.8-13.1,24.8L27,387.9s-8.4,12.8-6.7,18.7l1.1,4.5s2.8-4.2,5.3-2.6c0,0,19.6,2.6,20.7,9,0,0-.3,3.6-1.4,4.7s4.2.3,8.1-9.7c0,0,6.4-11.8,11.7-17.1,0,0,12-14.2,14.2-22.9,0,0,9.5-17.8,14.6-22.8,0,0,4.1-5.1,4.1-8.1,0,0,17.1-32.4,17.9-36.3,0,0-1.7-7.5,4.7-.3,0,0,5.6,13.7,9,14.5a31.5,31.5,0,0,1,8.3,11.2,46.3,46.3,0,0,1,1.7,22.6,2.9,2.9,0,0,0,3.9,2.2l12.9.3,5.5,12.3s.6,13.4,4,15.6c0,0,5.8,7.8,6.9,12.8,0,0,2.8,7,5.3,9.3,0,0,5.1,10,7,16.4,0,0,2.2,9.5,4.2,13.1,0,0,2.2,6.2,5.9,9.2l4.7,7.9s2.8-10.6,11.7-10.1c0,0,19-.5,26.3,6.4,0,0,2.7,6.2,1.4,7.3s5.3.3,1.6-8.9c0,0-3.6-5.9-4.4-9.8,0,0-2.6-12.3-2.6-17.6a64.2,64.2,0,0,0-9.7-22.9s-5-9.7-6.2-15.6c0,0-9.4-29-16.7-35.2a123.1,123.1,0,0,0-3.4-21.7l-2.2-19s17.9-10.3,19-14.5c0,0,8.1-9.2,9.5-10.1l20.9-12.5s6.4-5.6,6.4-9.8c0,0,5.3-10.3,7-12,0,0,2-3.1,1.7-8.6,0,0,5.3-8.4,0-15.4,0,0-4.2-2.2-.9-7.5,0,0,4-7.6-2.7-25.1l-2.8-12.6s-10.9-15.4-21-20.9l-39.3-19.8s-2.9-2-10.2-2.2a67.8,67.8,0,0,0-11.6,1l-13.9,2.3s-7.9-1.1-19,6.1l-10.1,7.8-24.5,1.4L89,187.5Z" fill="#83151f"/>
      <path d="M70.8,309.2s-1.4,17.6,23.5,29c0,0,4,6.7.3,11.5L80,368.9s-9.4,15.6-14.2,26.5c0,0-9.2,11.9-11.7,17.1,0,0-1.4,10-8.1,9.7,0,0,6.1-7.8-6.6-10.7l-12.7-3a4.1,4.1,0,0,0-5.3,2.6s-1.4-8.1,7-8.7c0,0-2.2-14.8,5-16.5,0,0-1.6-24.2,16.2-23.6l9.1-28S60,309.5,70.8,309.2Z" fill="#4d171c"/>
      <path d="M35.1,357.5s-4.1,8.1-5,13.1c0,0,36.2,20.7,38.9,20.9,0,0,6.1-8.2,7.9-11.8C76.9,379.7,41.2,363.6,35.1,357.5Z" fill="#eaeaf4"/>
      <path d="M176.1,401.9s-.2-7.2,8.9-11.6c0,0,22.6-13.8,33.7-9.1,0,0,3,9,4.2,11.5,0,0-8.6-1.9-28.4,5.4,0,0-11.8,5.4-13.6,12l-2.1-4.3S175.8,404,176.1,401.9Z" fill="#eaeaf4"/>
      <path d="M185.8,422.2s3.1-10.4,17.3-13.5l17-1.8s8.9-1.8,10.9,1.2l3.2,9.6.7,5.9s-1.7-5.4-12-4.6c0,0-20.6.4-28.2,8.4,0,0-6,5.7-4.1,9.4a88.9,88.9,0,0,1-3.2-8.8Z" fill="#eaeaf4"/>
      <path d="M157.1,355.8h-7.9s-1.8-2.3,6.6-4.7c0,0,34.6-11.1,46.2-5.1,0,0,3.8,1-5.2.1,0,0-10.4-3-40.9,6.4A4.7,4.7,0,0,1,157.1,355.8Z" fill="#231a1b"/>
      <path d="M89,212.9s-9.8,42.7,9.7,62.2c0,0,13.4,16.8,7.9,31,0,0,1.1,22.4-9.4-4.2,0,0-8.4-11.7-6.4-26.2,0,0-22-19.5-13.9-42.7C76.9,233,82,211.5,89,212.9Z" fill="#4d171c"/>
      <path d="M115.2,270.4a90.2,90.2,0,0,1,24.6,0s18.7,1.1,18.1,5.6c0,0,3.4,6.1-21.3,1.1Z" fill="#4d171c"/>
      <path d="M136.6,260.1s23.8-1.9,32.7,3.8c0,0,10.4,6.5-3.6,3.7C165.7,267.6,143.5,262.6,136.6,260.1Z" fill="#4d171c"/>
      <path d="M115.2,284.4s11.7,15.9,15.4,22c0,0,17.8,18.4,12.8,5.3C143.4,311.7,124.1,288.3,115.2,284.4Z" fill="#4d171c"/>
      <path d="M43.2,345.8l40.2,20.6,7.4-12s-40.6-16.8-41-22.9Z" fill="#eaeaf4"/>
      <path d="M153,212.9s.7,3.4,1.8,10.1c0,0-3.6,8.5,3.3,14.1l7.2,7.4,4,19.4s3.8,1.5,6.7,10.4c0,0,6,17.1,7.9,20.9,0,0,8,39.3,8,40.1s.7,8.4.6,8.9,4.5-.1,7,.9l-4.6-25.9s-4.3-24.8-6.4-29.4c0,0-5.5-22-13.8-27.1,0,0,.4-12.8-8.1-19.2L162,230.4S158.6,218.1,153,212.9Z" fill="#eaeaf4"/>
      <path d="M129,154.7s12.8,30.7,18.2,39.8c0,0,6.3,12.9,5.8,18.4,0,0-4.7-5.8-26.3-7.1,0,0-32.3-.5-44.1-3.7,0,0-6.6-.9-7.5,1.3,0,0,5.1-18.6,7.2-19.6l4.4-.8,2.6-8s4.5-6.7,6.7-9.2c0,0,6.9-14.3,7.9-15S123.6,145.9,129,154.7Z" fill="#1a1a1d"/>
      <path d="M98.8,187.1s9.5.7,16.4-1.2c0,0,19.6-6.9,28.9,2.6,0,0,9.8,16.3,8.9,24.4,0,0-9.1-7.2-26.3-7.1,0,0-22.7-.4-32.2-1.8,0,0-15.2-4.3-19.4-.6,0,0,5.1-19.3,7.2-19.6l4.4-.8S92.9,186.9,98.8,187.1Z" fill="#212223"/>
      <path d="M133.4,165.1s24,2.3,24.7,5.1c0,0,21.6,50.5,23.2,64.8,0,0,4.5,21.7,3.7,24.8l-.7,3.2s11.3,26.1,12.1,42.3l3.3,23.6-10-44.5s-4.3-15.1-9.2-21.7c0,0,1.1-11.6-3.6-18.9,0,0,2.5,10.6,1.1,11.1l-4.7-1.2-4.3-7.9.8-3.9s-6.5-7.4-7.8-11.5l-9-17.5s1.5-4.2-3.7-14.3Z" fill="#cdcdd1"/>
      <path d="M131.2,159.9s14.3-6.3,20.7-1.1c0,0,18.7-1.3,21.1.3,0,0,6.8,7.9,10.9,11.4,0,0,9.1,5.8,9.4,13.8l2.1,14.5s-11.4-22-17.5-23.1l-11.4-3s-1.8-7.6-5-6.5c0,0-4.5,1.6-3.4,4s1.2-3.9-24.7-5.1Z" fill="#4d1518"/>
      <path d="M178.6,183l23.9,40.9s6.1,12.6-4.3,11l-8.9-3.2s-1-19.7-3.6-24.9C185.7,206.8,177.7,187.1,178.6,183Z" fill="#4d1518"/>
      <path d="M178.6,163.2s8.7,2.3,12.8,13.8c0,0,8.1,15.6,7,24.8,0,0,15,18.4,17.1,27.7l1.1,6.9s-5.4-12.4-10.2-19.7l-10.1-14.4L188.1,174S175.3,167.1,178.6,163.2Z" fill="#231a1b"/>
      <path d="M214.4,251.4s11.7,2.1,14.9,5.4c0,0,11.9,1.1,13,5.3l9.3-1.1s-3.8,6-15.3,12.9l-11.4,6.8-9.5,10.1s-9.2,11-19,14.5L192.9,287Z" fill="#4a2021"/>
      <path d="M199.7,265.4s12.8-6.9,14.7-14c0,0,9.5-1.3,7.4,8.4l-18.6,12.8-11.8,9.7S191.6,267.2,199.7,265.4Z" fill="#231a1b"/>
      <path d="M224.8,261.8a123,123,0,0,0-25.1,13.7s-2.4,7.6,3.7,6.8l14.1-6.9s8-3.3,10.6-3.3C228.1,272.1,237.6,263.1,224.8,261.8Z" fill="#cdcdd1"/>
      <path d="M224.5,264.5s-4.9,4,2.1,5.9c0,0,5,1.8,4.9-4.1,0,0-.6-3.4-5-4.2Z" fill="#2a1f20"/>
      <path d="M199.7,275.5l-8.2,5.4,1.4,6.1,10.5-4.7S197.1,283.7,199.7,275.5Z" fill="#202021"/>
      <path d="M218.5,241.6l6.3-8.4h3.5l6.7-6s17.3-9.5,24.2-6.6c0,0,7.8,10.4,1.7,17.2,0,0-1.1-5-26.3,3.8,0,0-12.2,5.4-16.1,9.8h-4.1S217.4,242.9,218.5,241.6Z" fill="#cdcdd1"/>
      <path d="M229.8,255l10.2-4.9s14.9-1.3,19.2-3.7l-7,12-.6,2.6-9.3,1.1S225.9,258.3,229.8,255Z" fill="#cdcdd1"/>
      <path d="M187.5,136s27.1,9.9,34.9,24.2c0,0,17.4,29.7,22.7,35,0,0,7.1,10.5,5.6.8L238,163.9s0-6.6-12.6-11.7L197.3,138s-8-3.7-10.7-3.7C186.6,134.3,182.7,134.1,187.5,136Z" fill="#cdcdd1"/>
      <path d="M215.4,165.1s22.9,33.8,23.4,43.9c0,0-4,5.4-11.6-10.2,0,0-7.3-11.9-11.8-7.1,0,0-4.7,12.1-8.6,11.2,0,0-9-4.1-4-8.2,0,0,7.5-1.9,7.8-5.2,0,0,6-6.4,9.5-2C220.1,187.5,211.3,169.6,215.4,165.1Z" fill="#4d1518"/>
      <path d="M35.5,389.6s-5.6,1.2-4.4,10.7c0,0-.6,4.9-3.9,5.7,0,0-4.8,6.9,1.5,14,0,0,1.1,8.6,13.3.5,0,0,5-5.4,4.3-9.9,0,0,10.8-5.4,7.2-12.4C53.5,398.2,50.5,384.5,35.5,389.6Z" fill="#2c313c"/>
      <path d="M2.9,445l1,16.4s.4,2.8,2.5,0l1.4.6s-1.2,5.3.8,6c0,0,3.8,1.8,5.4-2.8l6.1-14.1,4.3-1.8-10.8-3.8s-2.7-.3-2.9,1.4C10.7,446.9,4.8,443.8,2.9,445Z" fill="#eaeaf4"/>
      <path d="M207.6,430.9s-.6,11.3,4.7,11.4c0,0,29.3-3.1,27.7,13.7,0,0,1.3,2.2,6.6,4.2a44.7,44.7,0,0,0,25.2,6.4s4.2-1.3,3.3,1.7l1.7,2.8s4.5-.6,5.3,1.9c0,0,3.9,6.1,1.4,9.2,0,0-18.2-5.6-28.2,6.4l-.6,3.1-17-5s6.7-2.5,5-7.3c0,0-18.4-4.2-25.6.3,0,0-3.4.8-1.7,3.9,0,0-7.9-4.3-7.8-15.3,0,0-1.7-10.9-7-15.9l-3.4-5.6s-7.1-5.3-6.6-10C190.6,436.8,195,413.3,207.6,430.9Z" fill="#2c313c"/>
      <path d="M214.1,135.2s-4-.3-4.3,1.5c0,0-7.3.5-7.8,3.7l27.1,14.5,7.8,3.6,6.8-6.4-18-23.2h-5.6Z" fill="#231a1b"/>
      <path d="M248,158.6s4.6,1.6,7.5,11.2c0,0,3.6,5,7.8-1.4l-7.1-11.3S252.9,154.6,248,158.6Z" fill="#231a1b"/>
      <path d="M243.2,163.9l9.7,11.3,2.6-5.2s-4.3-11.8-7.5-9.5-1.2-.3-1.2-.3Z" fill="#ec9d3b"/>
      <path d="M214.1,135.2s-.8-5.6,1.6-6l-.9-3.2s1.6-5.2,12.9-8.5c0,0,9.2-4.9,12.1-4.2l3.4,1.2s17.4,1.3,23.4,20.7c0,0,6.7,6.6,3.8,19,0,0,.2,4.4-.4,5s-2.1,4.6-4.5,5.9l-2.2,3.7s-6.3-9.7-8.3-10.6c0,0-2.6-1.8-7,2.3l-4.8,3.4-6.3-5.4s5.6-3.9,5.7-5.9c0,0-4.6-7.8-8.5-7.4a13.9,13.9,0,0,0-6.8,1.6l-1.7-2.4-.7-6.6-.2-7.1s-2.3-3.2-4,.2l-.6,3.4S215.8,131.6,214.1,135.2Z" fill="#83151f"/>
      <path d="M222.1,119.6s1.4,8.4,0,9.8l2.6,1.3L223.4,119Z" fill="#231a1b"/>
      <path d="M235.7,123.7l9.8,8.8h3.8a6.9,6.9,0,0,0,2.2,2.6,3.1,3.1,0,0,0,0-2.7l-7.7-9.3s-5.8-3.3-8.1-1.7C235.7,121.4,234.1,122.3,235.7,123.7Z" fill="#cdcdd1"/>
      <path d="M243.2,135.6l7.7,8.1s6.1,4.1,4.8,0l-7.7-7.2S242.8,132.8,243.2,135.6Z" fill="#cdcdd1"/>
      <path d="M255.8,151.4l9.7,13.7,2-1.9-7.9-11.8s.1-2.8,2.1-.9l7.2,10.7,1.1-2-7.7-10.9s-2.4-2.3-3.4,1.1C258.9,149.4,254.5,149.5,255.8,151.4Z" fill="#cdcdd1"/>
      <path d="M227.8,124.9l2.8,7.9-2.8,7.2,1.4,1,5.8-5.1-2.2-11.7S228.6,121.6,227.8,124.9Z" fill="#cdcdd1"/>
      <path d="M238.8,158.5l6.3-4.7s1.8-.2,1.4,1.5l-6.1,4.9,1.2,1.4,5.9-3.9s2.5-.9,2,1.6l-6.3,4.6Z" fill="#cdcdd1"/>
    </g>
  </g>
</svg>
